%TF.GenerationSoftware,KiCad,Pcbnew,9.0.2+dfsg-1*%
%TF.CreationDate,2026-09-27T19:23:12+02:00*%
%TF.ProjectId,torqeedo_pcb,746f7271-6565-4646-9f5f-7063622e6b69,rev?*%
%TF.SameCoordinates,Original*%
%TF.FileFunction,Soldermask,Top*%
%TF.FilePolarity,Negative*%
%FSLAX46Y46*%
G04 Gerber Fmt 4.6, Leading zero omitted, Abs format (unit mm)*
G04 Created by KiCad (PCBNEW 9.0.2+dfsg-1) date 2026-09-27 19:23:12*
%MOMM*%
%LPD*%
G01*
G04 APERTURE LIST*
G04 Aperture macros list*
%AMRoundRect*
0 Rectangle with rounded corners*
0 $1 Rounding radius*
0 $2 $3 $4 $5 $6 $7 $8 $9 X,Y pos of 4 corners*
0 Add a 4 corners polygon primitive as box body*
4,1,4,$2,$3,$4,$5,$6,$7,$8,$9,$2,$3,0*
0 Add four circle primitives for the rounded corners*
1,1,$1+$1,$2,$3*
1,1,$1+$1,$4,$5*
1,1,$1+$1,$6,$7*
1,1,$1+$1,$8,$9*
0 Add four rect primitives between the rounded corners*
20,1,$1+$1,$2,$3,$4,$5,0*
20,1,$1+$1,$4,$5,$6,$7,0*
20,1,$1+$1,$6,$7,$8,$9,0*
20,1,$1+$1,$8,$9,$2,$3,0*%
G04 Aperture macros list end*
%ADD10RoundRect,0.250000X0.250000X0.475000X-0.250000X0.475000X-0.250000X-0.475000X0.250000X-0.475000X0*%
%ADD11RoundRect,0.250000X-0.250000X-0.475000X0.250000X-0.475000X0.250000X0.475000X-0.250000X0.475000X0*%
%ADD12RoundRect,0.250000X-0.262500X-0.450000X0.262500X-0.450000X0.262500X0.450000X-0.262500X0.450000X0*%
%ADD13R,1.700000X1.700000*%
%ADD14C,1.700000*%
%ADD15C,1.500000*%
%ADD16RoundRect,0.250000X0.262500X0.450000X-0.262500X0.450000X-0.262500X-0.450000X0.262500X-0.450000X0*%
%ADD17C,3.200000*%
%ADD18R,3.000000X3.000000*%
%ADD19C,3.000000*%
%ADD20RoundRect,0.150000X0.825000X0.150000X-0.825000X0.150000X-0.825000X-0.150000X0.825000X-0.150000X0*%
%ADD21C,2.000000*%
%ADD22RoundRect,0.250000X-0.550000X-0.550000X0.550000X-0.550000X0.550000X0.550000X-0.550000X0.550000X0*%
%ADD23C,1.600000*%
%ADD24RoundRect,0.250000X0.375000X1.075000X-0.375000X1.075000X-0.375000X-1.075000X0.375000X-1.075000X0*%
%ADD25RoundRect,0.250000X-1.000000X-0.650000X1.000000X-0.650000X1.000000X0.650000X-1.000000X0.650000X0*%
%ADD26RoundRect,0.150000X-0.587500X-0.150000X0.587500X-0.150000X0.587500X0.150000X-0.587500X0.150000X0*%
G04 APERTURE END LIST*
D10*
%TO.C,C13*%
X22950000Y-11000000D03*
X21050000Y-11000000D03*
%TD*%
D11*
%TO.C,C2*%
X72050000Y-33000000D03*
X73950000Y-33000000D03*
%TD*%
D10*
%TO.C,C6*%
X28950000Y-55000000D03*
X27050000Y-55000000D03*
%TD*%
D12*
%TO.C,R4*%
X32087500Y-52000000D03*
X33912500Y-52000000D03*
%TD*%
D10*
%TO.C,C8*%
X26950000Y-47030000D03*
X25050000Y-47030000D03*
%TD*%
D13*
%TO.C,J_FTDI*%
X24000000Y-7000000D03*
D14*
X26540000Y-7000000D03*
X29080000Y-7000000D03*
X31620000Y-7000000D03*
X34160000Y-7000000D03*
X36700000Y-7000000D03*
%TD*%
D11*
%TO.C,C10*%
X47050000Y-46500000D03*
X48950000Y-46500000D03*
%TD*%
D15*
%TO.C,Y1*%
X31500000Y-42150000D03*
X31500000Y-47030000D03*
%TD*%
D16*
%TO.C,R3*%
X14412500Y-47500000D03*
X12587500Y-47500000D03*
%TD*%
D11*
%TO.C,C11*%
X47050000Y-39000000D03*
X48950000Y-39000000D03*
%TD*%
D10*
%TO.C,C3*%
X22950000Y-33000000D03*
X21050000Y-33000000D03*
%TD*%
D17*
%TO.C,H4*%
X95000000Y-75000000D03*
%TD*%
D18*
%TO.C,J_RS485*%
X7000000Y-28000000D03*
D19*
X7000000Y-33080000D03*
X7000000Y-38160000D03*
%TD*%
D11*
%TO.C,C4*%
X47050000Y-32000000D03*
X48950000Y-32000000D03*
%TD*%
D17*
%TO.C,H3*%
X5000000Y-75000000D03*
%TD*%
D13*
%TO.C,J_POT*%
X50000000Y-66000000D03*
D14*
X50000000Y-68540000D03*
X50000000Y-71080000D03*
%TD*%
D13*
%TO.C,JP_BA*%
X18000000Y-41000000D03*
D14*
X18000000Y-43540000D03*
%TD*%
D13*
%TO.C,JP_TERM*%
X18000000Y-34000000D03*
D14*
X18000000Y-36540000D03*
%TD*%
D20*
%TO.C,U1*%
X30475000Y-32905000D03*
X30475000Y-31635000D03*
X30475000Y-30365000D03*
X30475000Y-29095000D03*
X25525000Y-29095000D03*
X25525000Y-30365000D03*
X25525000Y-31635000D03*
X25525000Y-32905000D03*
%TD*%
D18*
%TO.C,J_PWR*%
X78000000Y-10000000D03*
D19*
X72920000Y-10000000D03*
%TD*%
D21*
%TO.C,SW1*%
X10000000Y-14000000D03*
X16500000Y-14000000D03*
X10000000Y-18500000D03*
X16500000Y-18500000D03*
%TD*%
D22*
%TO.C,U2*%
X36000000Y-22000000D03*
D23*
X36000000Y-24540000D03*
X36000000Y-27080000D03*
X36000000Y-29620000D03*
X36000000Y-32160000D03*
X36000000Y-34700000D03*
X36000000Y-37240000D03*
X36000000Y-39780000D03*
X36000000Y-42320000D03*
X36000000Y-44860000D03*
X36000000Y-47400000D03*
X36000000Y-49940000D03*
X36000000Y-52480000D03*
X36000000Y-55020000D03*
X43620000Y-55020000D03*
X43620000Y-52480000D03*
X43620000Y-49940000D03*
X43620000Y-47400000D03*
X43620000Y-44860000D03*
X43620000Y-42320000D03*
X43620000Y-39780000D03*
X43620000Y-37240000D03*
X43620000Y-34700000D03*
X43620000Y-32160000D03*
X43620000Y-29620000D03*
X43620000Y-27080000D03*
X43620000Y-24540000D03*
X43620000Y-22000000D03*
%TD*%
D13*
%TO.C,PS1*%
X88000000Y-30000000D03*
D14*
X88000000Y-32540000D03*
X88000000Y-35080000D03*
X88000000Y-37620000D03*
%TD*%
D10*
%TO.C,C7*%
X26950000Y-42150000D03*
X25050000Y-42150000D03*
%TD*%
%TO.C,C9*%
X33749999Y-37000000D03*
X31849999Y-37000000D03*
%TD*%
D13*
%TO.C,J_ISP*%
X53000000Y-44000000D03*
D14*
X55540000Y-44000000D03*
X53000000Y-46540000D03*
X55540000Y-46540000D03*
X53000000Y-49080000D03*
X55540000Y-49080000D03*
%TD*%
D24*
%TO.C,L1*%
X49400000Y-43000000D03*
X46600000Y-43000000D03*
%TD*%
D25*
%TO.C,D1*%
X76000000Y-18000000D03*
X80000000Y-18000000D03*
%TD*%
D10*
%TO.C,C12*%
X28950000Y-37000000D03*
X27050000Y-37000000D03*
%TD*%
D13*
%TO.C,J_DMAN*%
X8000000Y-60000000D03*
D14*
X8000000Y-62540000D03*
%TD*%
D13*
%TO.C,J_ESTOP*%
X8000000Y-52000000D03*
D14*
X8000000Y-54540000D03*
%TD*%
D12*
%TO.C,R1*%
X12587500Y-36000000D03*
X14412500Y-36000000D03*
%TD*%
D26*
%TO.C,TVS1*%
X12062500Y-29550000D03*
X12062500Y-31450000D03*
X13937500Y-30500000D03*
%TD*%
D13*
%TO.C,JP_BB*%
X18000000Y-48000000D03*
D14*
X18000000Y-50540000D03*
%TD*%
D16*
%TO.C,R6*%
X48912500Y-29000000D03*
X47087500Y-29000000D03*
%TD*%
D12*
%TO.C,R2*%
X12587500Y-41000000D03*
X14412500Y-41000000D03*
%TD*%
%TO.C,R7*%
X47087500Y-35000000D03*
X48912500Y-35000000D03*
%TD*%
D17*
%TO.C,H1*%
X5000000Y-5000000D03*
%TD*%
%TO.C,H2*%
X95000000Y-5000000D03*
%TD*%
D12*
%TO.C,R8*%
X29087500Y-21000000D03*
X30912500Y-21000000D03*
%TD*%
%TO.C,R5*%
X32087500Y-55000000D03*
X33912500Y-55000000D03*
%TD*%
D10*
%TO.C,C5*%
X28950000Y-52000000D03*
X27050000Y-52000000D03*
%TD*%
D22*
%TO.C,C1*%
X64000000Y-22000000D03*
D23*
X66500000Y-22000000D03*
%TD*%
M02*
