%TF.GenerationSoftware,KiCad,Pcbnew,9.0.2+dfsg-1*%
%TF.CreationDate,2026-09-27T19:23:12+02:00*%
%TF.ProjectId,torqeedo_pcb,746f7271-6565-4646-9f5f-7063622e6b69,rev?*%
%TF.SameCoordinates,Original*%
%TF.FileFunction,Copper,L2,Bot*%
%TF.FilePolarity,Positive*%
%FSLAX46Y46*%
G04 Gerber Fmt 4.6, Leading zero omitted, Abs format (unit mm)*
G04 Created by KiCad (PCBNEW 9.0.2+dfsg-1) date 2026-09-27 19:23:12*
%MOMM*%
%LPD*%
G01*
G04 APERTURE LIST*
G04 Aperture macros list*
%AMRoundRect*
0 Rectangle with rounded corners*
0 $1 Rounding radius*
0 $2 $3 $4 $5 $6 $7 $8 $9 X,Y pos of 4 corners*
0 Add a 4 corners polygon primitive as box body*
4,1,4,$2,$3,$4,$5,$6,$7,$8,$9,$2,$3,0*
0 Add four circle primitives for the rounded corners*
1,1,$1+$1,$2,$3*
1,1,$1+$1,$4,$5*
1,1,$1+$1,$6,$7*
1,1,$1+$1,$8,$9*
0 Add four rect primitives between the rounded corners*
20,1,$1+$1,$2,$3,$4,$5,0*
20,1,$1+$1,$4,$5,$6,$7,0*
20,1,$1+$1,$6,$7,$8,$9,0*
20,1,$1+$1,$8,$9,$2,$3,0*%
G04 Aperture macros list end*
%TA.AperFunction,ComponentPad*%
%ADD10R,1.700000X1.700000*%
%TD*%
%TA.AperFunction,ComponentPad*%
%ADD11C,1.700000*%
%TD*%
%TA.AperFunction,ComponentPad*%
%ADD12C,1.500000*%
%TD*%
%TA.AperFunction,ComponentPad*%
%ADD13R,3.000000X3.000000*%
%TD*%
%TA.AperFunction,ComponentPad*%
%ADD14C,3.000000*%
%TD*%
%TA.AperFunction,ComponentPad*%
%ADD15C,2.000000*%
%TD*%
%TA.AperFunction,ComponentPad*%
%ADD16RoundRect,0.250000X-0.550000X-0.550000X0.550000X-0.550000X0.550000X0.550000X-0.550000X0.550000X0*%
%TD*%
%TA.AperFunction,ComponentPad*%
%ADD17C,1.600000*%
%TD*%
%TA.AperFunction,ViaPad*%
%ADD18C,0.700000*%
%TD*%
%TA.AperFunction,Conductor*%
%ADD19C,0.500000*%
%TD*%
%TA.AperFunction,Conductor*%
%ADD20C,0.250000*%
%TD*%
G04 APERTURE END LIST*
D10*
%TO.P,J_FTDI,1*%
%TO.N,/DTR*%
X24000000Y-7000000D03*
D11*
%TO.P,J_FTDI,2*%
%TO.N,/UART_TX*%
X26540000Y-7000000D03*
%TO.P,J_FTDI,3*%
%TO.N,/UART_RX*%
X29080000Y-7000000D03*
%TO.P,J_FTDI,4*%
%TO.N,/+5V*%
X31620000Y-7000000D03*
%TO.P,J_FTDI,5*%
%TO.N,/GND*%
X34160000Y-7000000D03*
%TO.P,J_FTDI,6*%
X36700000Y-7000000D03*
%TD*%
D12*
%TO.P,Y1,1*%
%TO.N,/XTAL1*%
X31500000Y-42150000D03*
%TO.P,Y1,2*%
%TO.N,/XTAL2*%
X31500000Y-47030000D03*
%TD*%
D13*
%TO.P,J_RS485,1*%
%TO.N,/BUS_A*%
X7000000Y-28000000D03*
D14*
%TO.P,J_RS485,2*%
%TO.N,/BUS_B*%
X7000000Y-33080000D03*
%TO.P,J_RS485,3*%
%TO.N,/GND*%
X7000000Y-38160000D03*
%TD*%
D10*
%TO.P,J_POT,1*%
%TO.N,/GND*%
X50000000Y-66000000D03*
D11*
%TO.P,J_POT,2*%
%TO.N,/POT_A0*%
X50000000Y-68540000D03*
%TO.P,J_POT,3*%
%TO.N,/+5V*%
X50000000Y-71080000D03*
%TD*%
D10*
%TO.P,JP_BA,1*%
%TO.N,/BIASA_MID*%
X18000000Y-41000000D03*
D11*
%TO.P,JP_BA,2*%
%TO.N,/BUS_A*%
X18000000Y-43540000D03*
%TD*%
D10*
%TO.P,JP_TERM,1*%
%TO.N,/TERM_MID*%
X18000000Y-34000000D03*
D11*
%TO.P,JP_TERM,2*%
%TO.N,/BUS_B*%
X18000000Y-36540000D03*
%TD*%
D13*
%TO.P,J_PWR,1*%
%TO.N,/+12V_IN*%
X78000000Y-10000000D03*
D14*
%TO.P,J_PWR,2*%
%TO.N,/GND*%
X72920000Y-10000000D03*
%TD*%
D15*
%TO.P,SW1,1*%
%TO.N,/RESET*%
X10000000Y-14000000D03*
%TO.N,N/C*%
X16500000Y-14000000D03*
%TO.P,SW1,2*%
%TO.N,/GND*%
X10000000Y-18500000D03*
%TO.N,N/C*%
X16500000Y-18500000D03*
%TD*%
D16*
%TO.P,U2,1*%
%TO.N,/RESET*%
X36000000Y-22000000D03*
D17*
%TO.P,U2,2*%
%TO.N,/UART_RX*%
X36000000Y-24540000D03*
%TO.P,U2,3*%
%TO.N,/UART_TX*%
X36000000Y-27080000D03*
%TO.P,U2,4*%
%TO.N,/RS485_DI*%
X36000000Y-29620000D03*
%TO.P,U2,5*%
%TO.N,/RS485_RO*%
X36000000Y-32160000D03*
%TO.P,U2,6*%
%TO.N,/RS485_DE*%
X36000000Y-34700000D03*
%TO.P,U2,7*%
%TO.N,/+5V*%
X36000000Y-37240000D03*
%TO.P,U2,8*%
%TO.N,/GND*%
X36000000Y-39780000D03*
%TO.P,U2,9*%
%TO.N,/XTAL1*%
X36000000Y-42320000D03*
%TO.P,U2,10*%
%TO.N,/XTAL2*%
X36000000Y-44860000D03*
%TO.P,U2,11*%
%TO.N,/ESTOP*%
X36000000Y-47400000D03*
%TO.P,U2,12*%
%TO.N,/DMAN*%
X36000000Y-49940000D03*
%TO.P,U2,13*%
%TO.N,N/C*%
X36000000Y-52480000D03*
%TO.P,U2,14*%
X36000000Y-55020000D03*
%TO.P,U2,15*%
X43620000Y-55020000D03*
%TO.P,U2,16*%
X43620000Y-52480000D03*
%TO.P,U2,17*%
%TO.N,/ISP_MOSI*%
X43620000Y-49940000D03*
%TO.P,U2,18*%
%TO.N,/ISP_MISO*%
X43620000Y-47400000D03*
%TO.P,U2,19*%
%TO.N,/ISP_SCK*%
X43620000Y-44860000D03*
%TO.P,U2,20*%
%TO.N,/AVCC*%
X43620000Y-42320000D03*
%TO.P,U2,21*%
%TO.N,/AREF*%
X43620000Y-39780000D03*
%TO.P,U2,22*%
%TO.N,/GND*%
X43620000Y-37240000D03*
%TO.P,U2,23*%
%TO.N,/POT_A0*%
X43620000Y-34700000D03*
%TO.P,U2,24*%
%TO.N,N/C*%
X43620000Y-32160000D03*
%TO.P,U2,25*%
X43620000Y-29620000D03*
%TO.P,U2,26*%
X43620000Y-27080000D03*
%TO.P,U2,27*%
X43620000Y-24540000D03*
%TO.P,U2,28*%
X43620000Y-22000000D03*
%TD*%
D10*
%TO.P,PS1,1*%
%TO.N,/+12V_PROT*%
X88000000Y-30000000D03*
D11*
%TO.P,PS1,2*%
%TO.N,/GND*%
X88000000Y-32540000D03*
%TO.P,PS1,3*%
%TO.N,/+5V*%
X88000000Y-35080000D03*
%TO.P,PS1,4*%
%TO.N,/GND*%
X88000000Y-37620000D03*
%TD*%
D10*
%TO.P,J_ISP,1*%
%TO.N,/ISP_MISO*%
X53000000Y-44000000D03*
D11*
%TO.P,J_ISP,2*%
%TO.N,/+5V*%
X55540000Y-44000000D03*
%TO.P,J_ISP,3*%
%TO.N,/ISP_SCK*%
X53000000Y-46540000D03*
%TO.P,J_ISP,4*%
%TO.N,/ISP_MOSI*%
X55540000Y-46540000D03*
%TO.P,J_ISP,5*%
%TO.N,/RESET*%
X53000000Y-49080000D03*
%TO.P,J_ISP,6*%
%TO.N,/GND*%
X55540000Y-49080000D03*
%TD*%
D10*
%TO.P,J_DMAN,1*%
%TO.N,/DMAN*%
X8000000Y-60000000D03*
D11*
%TO.P,J_DMAN,2*%
%TO.N,/GND*%
X8000000Y-62540000D03*
%TD*%
D10*
%TO.P,J_ESTOP,1*%
%TO.N,/ESTOP*%
X8000000Y-52000000D03*
D11*
%TO.P,J_ESTOP,2*%
%TO.N,/GND*%
X8000000Y-54540000D03*
%TD*%
D10*
%TO.P,JP_BB,1*%
%TO.N,/BUS_B*%
X18000000Y-48000000D03*
D11*
%TO.P,JP_BB,2*%
%TO.N,/BIASB_MID*%
X18000000Y-50540000D03*
%TD*%
D16*
%TO.P,C1,1*%
%TO.N,/+12V_PROT*%
X64000000Y-22000000D03*
D17*
%TO.P,C1,2*%
%TO.N,/GND*%
X66500000Y-22000000D03*
%TD*%
D18*
%TO.N,/+5V*%
X19200000Y-45000000D03*
X31200000Y-53850000D03*
X24599999Y-33750000D03*
X31200000Y-52350000D03*
X22950000Y-33900000D03*
X20700000Y-43800000D03*
%TO.N,/BUS_B*%
X11549999Y-33150000D03*
X19800000Y-39150000D03*
X18750000Y-38100000D03*
%TO.N,/GND*%
X26250000Y-55050000D03*
X20250000Y-33000000D03*
X31049999Y-37050000D03*
X11700000Y-47550000D03*
X12000000Y-31950000D03*
X49650000Y-39000000D03*
X24300000Y-42150000D03*
X25500000Y-28500000D03*
X49650000Y-46500000D03*
X26250000Y-52050000D03*
X49650000Y-34949999D03*
X24300000Y-47100000D03*
X73200000Y-33000000D03*
X26250000Y-37050000D03*
X49650000Y-31950000D03*
%TO.N,/ISP_MISO*%
X50550000Y-46050000D03*
%TO.N,/ISP_MOSI*%
X52350000Y-50550000D03*
X50550000Y-50550000D03*
%TO.N,/RESET*%
X40050000Y-32100000D03*
X31200000Y-21900000D03*
X41400000Y-47850000D03*
X36900000Y-22950000D03*
X41400000Y-33449999D03*
%TD*%
D19*
%TO.N,/+5V*%
X19500000Y-45000000D02*
X20700000Y-43800000D01*
X31200000Y-53850000D02*
X31200000Y-52350000D01*
X22950000Y-33900000D02*
X23099999Y-33750000D01*
X19200000Y-45000000D02*
X19500000Y-45000000D01*
X23099999Y-33750000D02*
X24599999Y-33750000D01*
D20*
%TO.N,/BUS_B*%
X11549999Y-33150000D02*
X7000000Y-33080000D01*
X19800000Y-39150000D02*
X18750000Y-38100000D01*
%TO.N,/ISP_MISO*%
X50850000Y-46050000D02*
X50550000Y-46050000D01*
X53000000Y-44000000D02*
X50850000Y-46050000D01*
%TO.N,/ISP_MOSI*%
X52350000Y-50550000D02*
X50550000Y-50550000D01*
%TO.N,/ISP_SCK*%
X53000000Y-46540000D02*
X52199999Y-47250000D01*
X52199999Y-47250000D02*
X46050000Y-47250000D01*
X46050000Y-47250000D02*
X43620000Y-44860000D01*
%TO.N,/RESET*%
X36900000Y-22950000D02*
X36000000Y-22000000D01*
X36000000Y-22000000D02*
X35850000Y-21900000D01*
X52500000Y-48600000D02*
X42150000Y-48600000D01*
X41400000Y-33449999D02*
X40050000Y-32100000D01*
X42150000Y-48600000D02*
X41400000Y-47850000D01*
X53000000Y-49080000D02*
X52500000Y-48600000D01*
X35850000Y-21900000D02*
X31200000Y-21900000D01*
%TD*%
%TA.AperFunction,Conductor*%
%TO.N,/GND*%
G36*
X99458691Y-519407D02*
G01*
X99494655Y-568907D01*
X99499500Y-599500D01*
X99499500Y-79400500D01*
X99480593Y-79458691D01*
X99431093Y-79494655D01*
X99400500Y-79499500D01*
X599500Y-79499500D01*
X541309Y-79480593D01*
X505345Y-79431093D01*
X500500Y-79400500D01*
X500500Y-74878710D01*
X3149500Y-74878710D01*
X3149500Y-75121289D01*
X3181161Y-75361781D01*
X3181161Y-75361786D01*
X3243944Y-75596092D01*
X3243948Y-75596105D01*
X3336772Y-75820204D01*
X3336774Y-75820208D01*
X3336776Y-75820212D01*
X3458064Y-76030289D01*
X3458066Y-76030292D01*
X3605729Y-76222731D01*
X3605731Y-76222733D01*
X3605735Y-76222738D01*
X3777262Y-76394265D01*
X3777266Y-76394268D01*
X3777268Y-76394270D01*
X3969707Y-76541933D01*
X3969711Y-76541936D01*
X4179788Y-76663224D01*
X4403900Y-76756054D01*
X4638211Y-76818838D01*
X4878712Y-76850500D01*
X4878713Y-76850500D01*
X5121287Y-76850500D01*
X5121288Y-76850500D01*
X5361789Y-76818838D01*
X5596100Y-76756054D01*
X5820212Y-76663224D01*
X6030289Y-76541936D01*
X6222738Y-76394265D01*
X6394265Y-76222738D01*
X6541936Y-76030289D01*
X6663224Y-75820212D01*
X6756054Y-75596100D01*
X6818838Y-75361789D01*
X6850500Y-75121288D01*
X6850500Y-74878712D01*
X6850500Y-74878710D01*
X93149500Y-74878710D01*
X93149500Y-75121289D01*
X93181161Y-75361781D01*
X93181161Y-75361786D01*
X93243944Y-75596092D01*
X93243948Y-75596105D01*
X93336772Y-75820204D01*
X93336774Y-75820208D01*
X93336776Y-75820212D01*
X93458064Y-76030289D01*
X93458066Y-76030292D01*
X93605729Y-76222731D01*
X93605731Y-76222733D01*
X93605735Y-76222738D01*
X93777262Y-76394265D01*
X93777266Y-76394268D01*
X93777268Y-76394270D01*
X93969707Y-76541933D01*
X93969711Y-76541936D01*
X94179788Y-76663224D01*
X94403900Y-76756054D01*
X94638211Y-76818838D01*
X94878712Y-76850500D01*
X94878713Y-76850500D01*
X95121287Y-76850500D01*
X95121288Y-76850500D01*
X95361789Y-76818838D01*
X95596100Y-76756054D01*
X95820212Y-76663224D01*
X96030289Y-76541936D01*
X96222738Y-76394265D01*
X96394265Y-76222738D01*
X96541936Y-76030289D01*
X96663224Y-75820212D01*
X96756054Y-75596100D01*
X96818838Y-75361789D01*
X96850500Y-75121288D01*
X96850500Y-74878712D01*
X96818838Y-74638211D01*
X96756054Y-74403900D01*
X96663224Y-74179788D01*
X96541936Y-73969711D01*
X96394265Y-73777262D01*
X96222738Y-73605735D01*
X96222733Y-73605731D01*
X96222731Y-73605729D01*
X96030292Y-73458066D01*
X96030289Y-73458064D01*
X95820212Y-73336776D01*
X95820208Y-73336774D01*
X95820204Y-73336772D01*
X95596105Y-73243948D01*
X95596104Y-73243947D01*
X95596100Y-73243946D01*
X95361789Y-73181162D01*
X95361786Y-73181161D01*
X95361784Y-73181161D01*
X95121289Y-73149500D01*
X95121288Y-73149500D01*
X94878712Y-73149500D01*
X94878710Y-73149500D01*
X94638218Y-73181161D01*
X94638213Y-73181161D01*
X94403907Y-73243944D01*
X94403894Y-73243948D01*
X94179795Y-73336772D01*
X93969707Y-73458066D01*
X93777268Y-73605729D01*
X93605729Y-73777268D01*
X93458066Y-73969707D01*
X93336772Y-74179795D01*
X93243948Y-74403894D01*
X93243944Y-74403907D01*
X93181161Y-74638213D01*
X93181161Y-74638218D01*
X93149500Y-74878710D01*
X6850500Y-74878710D01*
X6818838Y-74638211D01*
X6756054Y-74403900D01*
X6663224Y-74179788D01*
X6541936Y-73969711D01*
X6394265Y-73777262D01*
X6222738Y-73605735D01*
X6222733Y-73605731D01*
X6222731Y-73605729D01*
X6030292Y-73458066D01*
X6030289Y-73458064D01*
X5820212Y-73336776D01*
X5820208Y-73336774D01*
X5820204Y-73336772D01*
X5596105Y-73243948D01*
X5596104Y-73243947D01*
X5596100Y-73243946D01*
X5361789Y-73181162D01*
X5361786Y-73181161D01*
X5361784Y-73181161D01*
X5121289Y-73149500D01*
X5121288Y-73149500D01*
X4878712Y-73149500D01*
X4878710Y-73149500D01*
X4638218Y-73181161D01*
X4638213Y-73181161D01*
X4403907Y-73243944D01*
X4403894Y-73243948D01*
X4179795Y-73336772D01*
X3969707Y-73458066D01*
X3777268Y-73605729D01*
X3605729Y-73777268D01*
X3458066Y-73969707D01*
X3336772Y-74179795D01*
X3243948Y-74403894D01*
X3243944Y-74403907D01*
X3181161Y-74638213D01*
X3181161Y-74638218D01*
X3149500Y-74878710D01*
X500500Y-74878710D01*
X500500Y-70989450D01*
X48849500Y-70989450D01*
X48849500Y-71170549D01*
X48877828Y-71349406D01*
X48877829Y-71349409D01*
X48933789Y-71521639D01*
X49016004Y-71682994D01*
X49122447Y-71829501D01*
X49250499Y-71957553D01*
X49397006Y-72063996D01*
X49558361Y-72146211D01*
X49730591Y-72202171D01*
X49802136Y-72213502D01*
X49909451Y-72230500D01*
X49909454Y-72230500D01*
X50090549Y-72230500D01*
X50179977Y-72216335D01*
X50269409Y-72202171D01*
X50441639Y-72146211D01*
X50602994Y-72063996D01*
X50749501Y-71957553D01*
X50877553Y-71829501D01*
X50983996Y-71682994D01*
X51066211Y-71521639D01*
X51122171Y-71349409D01*
X51150500Y-71170546D01*
X51150500Y-70989454D01*
X51150500Y-70989450D01*
X51122171Y-70810593D01*
X51122171Y-70810591D01*
X51066211Y-70638361D01*
X50983996Y-70477006D01*
X50877553Y-70330499D01*
X50749501Y-70202447D01*
X50602994Y-70096004D01*
X50602993Y-70096003D01*
X50602991Y-70096002D01*
X50441637Y-70013788D01*
X50269406Y-69957828D01*
X50090549Y-69929500D01*
X50090546Y-69929500D01*
X49909454Y-69929500D01*
X49909451Y-69929500D01*
X49730593Y-69957828D01*
X49558362Y-70013788D01*
X49397008Y-70096002D01*
X49323752Y-70149225D01*
X49250499Y-70202447D01*
X49122447Y-70330499D01*
X49069225Y-70403752D01*
X49016002Y-70477008D01*
X48933788Y-70638362D01*
X48877828Y-70810593D01*
X48849500Y-70989450D01*
X500500Y-70989450D01*
X500500Y-68449450D01*
X48849500Y-68449450D01*
X48849500Y-68630549D01*
X48877828Y-68809406D01*
X48877829Y-68809409D01*
X48933789Y-68981639D01*
X49016004Y-69142994D01*
X49122447Y-69289501D01*
X49250499Y-69417553D01*
X49397006Y-69523996D01*
X49558361Y-69606211D01*
X49730591Y-69662171D01*
X49802136Y-69673502D01*
X49909451Y-69690500D01*
X49909454Y-69690500D01*
X50090549Y-69690500D01*
X50179977Y-69676335D01*
X50269409Y-69662171D01*
X50441639Y-69606211D01*
X50602994Y-69523996D01*
X50749501Y-69417553D01*
X50877553Y-69289501D01*
X50983996Y-69142994D01*
X51066211Y-68981639D01*
X51122171Y-68809409D01*
X51150500Y-68630546D01*
X51150500Y-68449454D01*
X51150500Y-68449450D01*
X51122171Y-68270593D01*
X51122171Y-68270591D01*
X51066211Y-68098361D01*
X50983996Y-67937006D01*
X50877553Y-67790499D01*
X50749501Y-67662447D01*
X50602994Y-67556004D01*
X50602993Y-67556003D01*
X50602991Y-67556002D01*
X50441637Y-67473788D01*
X50269406Y-67417828D01*
X50090549Y-67389500D01*
X50090546Y-67389500D01*
X49909454Y-67389500D01*
X49909451Y-67389500D01*
X49730593Y-67417828D01*
X49558362Y-67473788D01*
X49397008Y-67556002D01*
X49323752Y-67609225D01*
X49250499Y-67662447D01*
X49122447Y-67790499D01*
X49069225Y-67863752D01*
X49016002Y-67937008D01*
X48933788Y-68098362D01*
X48877828Y-68270593D01*
X48849500Y-68449450D01*
X500500Y-68449450D01*
X500500Y-65125375D01*
X48900000Y-65125375D01*
X48900000Y-65799999D01*
X48900001Y-65800000D01*
X49538120Y-65800000D01*
X49534075Y-65807007D01*
X49500000Y-65934174D01*
X49500000Y-66065826D01*
X49534075Y-66192993D01*
X49538120Y-66200000D01*
X48900001Y-66200000D01*
X48900000Y-66200001D01*
X48900000Y-66874624D01*
X48914506Y-66947546D01*
X48914507Y-66947548D01*
X48969758Y-67030237D01*
X48969762Y-67030241D01*
X49052451Y-67085492D01*
X49052453Y-67085493D01*
X49125375Y-67099999D01*
X49125377Y-67100000D01*
X49799999Y-67100000D01*
X49800000Y-67099999D01*
X49800000Y-66461879D01*
X49807007Y-66465925D01*
X49934174Y-66500000D01*
X50065826Y-66500000D01*
X50192993Y-66465925D01*
X50200000Y-66461879D01*
X50200000Y-67099999D01*
X50200001Y-67100000D01*
X50874623Y-67100000D01*
X50874624Y-67099999D01*
X50947546Y-67085493D01*
X50947548Y-67085492D01*
X51030237Y-67030241D01*
X51030241Y-67030237D01*
X51085492Y-66947548D01*
X51085493Y-66947546D01*
X51099999Y-66874624D01*
X51100000Y-66874622D01*
X51100000Y-66200001D01*
X51099999Y-66200000D01*
X50461880Y-66200000D01*
X50465925Y-66192993D01*
X50500000Y-66065826D01*
X50500000Y-65934174D01*
X50465925Y-65807007D01*
X50461880Y-65800000D01*
X51099999Y-65800000D01*
X51100000Y-65799999D01*
X51100000Y-65125377D01*
X51099999Y-65125375D01*
X51085493Y-65052453D01*
X51085492Y-65052451D01*
X51030241Y-64969762D01*
X51030237Y-64969758D01*
X50947548Y-64914507D01*
X50947546Y-64914506D01*
X50874624Y-64900000D01*
X50200001Y-64900000D01*
X50200000Y-64900001D01*
X50200000Y-65538120D01*
X50192993Y-65534075D01*
X50065826Y-65500000D01*
X49934174Y-65500000D01*
X49807007Y-65534075D01*
X49800000Y-65538120D01*
X49800000Y-64900001D01*
X49799999Y-64900000D01*
X49125375Y-64900000D01*
X49052453Y-64914506D01*
X49052451Y-64914507D01*
X48969762Y-64969758D01*
X48969758Y-64969762D01*
X48914507Y-65052451D01*
X48914506Y-65052453D01*
X48900000Y-65125375D01*
X500500Y-65125375D01*
X500500Y-62453424D01*
X6900000Y-62453424D01*
X6900000Y-62626575D01*
X6927084Y-62797579D01*
X6980588Y-62962248D01*
X7059194Y-63116522D01*
X7093463Y-63163691D01*
X7531979Y-62725174D01*
X7534075Y-62732993D01*
X7599901Y-62847007D01*
X7692993Y-62940099D01*
X7807007Y-63005925D01*
X7814822Y-63008019D01*
X7376307Y-63446535D01*
X7423476Y-63480804D01*
X7577751Y-63559411D01*
X7742420Y-63612915D01*
X7913425Y-63640000D01*
X8086575Y-63640000D01*
X8257579Y-63612915D01*
X8422248Y-63559411D01*
X8576524Y-63480804D01*
X8576530Y-63480800D01*
X8623691Y-63446535D01*
X8185175Y-63008019D01*
X8192993Y-63005925D01*
X8307007Y-62940099D01*
X8400099Y-62847007D01*
X8465925Y-62732993D01*
X8468019Y-62725175D01*
X8906535Y-63163691D01*
X8940800Y-63116530D01*
X8940804Y-63116524D01*
X9019411Y-62962248D01*
X9072915Y-62797579D01*
X9100000Y-62626575D01*
X9100000Y-62453424D01*
X9072915Y-62282420D01*
X9019411Y-62117751D01*
X8940804Y-61963476D01*
X8906535Y-61916307D01*
X8468019Y-62354822D01*
X8465925Y-62347007D01*
X8400099Y-62232993D01*
X8307007Y-62139901D01*
X8192993Y-62074075D01*
X8185174Y-62071979D01*
X8623691Y-61633463D01*
X8576522Y-61599194D01*
X8422248Y-61520588D01*
X8257579Y-61467084D01*
X8086575Y-61440000D01*
X7913425Y-61440000D01*
X7742420Y-61467084D01*
X7577751Y-61520588D01*
X7423473Y-61599196D01*
X7376307Y-61633463D01*
X7814824Y-62071980D01*
X7807007Y-62074075D01*
X7692993Y-62139901D01*
X7599901Y-62232993D01*
X7534075Y-62347007D01*
X7531980Y-62354824D01*
X7093463Y-61916307D01*
X7059196Y-61963473D01*
X6980588Y-62117751D01*
X6927084Y-62282420D01*
X6900000Y-62453424D01*
X500500Y-62453424D01*
X500500Y-59105130D01*
X6849500Y-59105130D01*
X6849500Y-60894860D01*
X6849501Y-60894863D01*
X6852414Y-60919990D01*
X6877756Y-60977385D01*
X6897794Y-61022765D01*
X6977235Y-61102206D01*
X7080009Y-61147585D01*
X7105135Y-61150500D01*
X8894864Y-61150499D01*
X8919991Y-61147585D01*
X9022765Y-61102206D01*
X9102206Y-61022765D01*
X9147585Y-60919991D01*
X9150500Y-60894865D01*
X9150499Y-59105136D01*
X9147585Y-59080009D01*
X9102206Y-58977235D01*
X9022765Y-58897794D01*
X8919991Y-58852415D01*
X8919990Y-58852414D01*
X8919988Y-58852414D01*
X8894868Y-58849500D01*
X7105139Y-58849500D01*
X7105136Y-58849501D01*
X7080009Y-58852414D01*
X6977235Y-58897794D01*
X6897794Y-58977235D01*
X6852414Y-59080011D01*
X6849500Y-59105130D01*
X500500Y-59105130D01*
X500500Y-54453424D01*
X6900000Y-54453424D01*
X6900000Y-54626575D01*
X6927084Y-54797579D01*
X6980588Y-54962248D01*
X7059194Y-55116522D01*
X7093463Y-55163691D01*
X7531979Y-54725174D01*
X7534075Y-54732993D01*
X7599901Y-54847007D01*
X7692993Y-54940099D01*
X7807007Y-55005925D01*
X7814822Y-55008019D01*
X7376307Y-55446535D01*
X7423476Y-55480804D01*
X7577751Y-55559411D01*
X7742420Y-55612915D01*
X7913425Y-55640000D01*
X8086575Y-55640000D01*
X8257579Y-55612915D01*
X8422248Y-55559411D01*
X8576524Y-55480804D01*
X8576530Y-55480800D01*
X8623691Y-55446535D01*
X8185175Y-55008019D01*
X8192993Y-55005925D01*
X8307007Y-54940099D01*
X8400099Y-54847007D01*
X8465925Y-54732993D01*
X8468019Y-54725175D01*
X8906535Y-55163691D01*
X8940800Y-55116530D01*
X8940804Y-55116524D01*
X9019412Y-54962246D01*
X9028789Y-54933385D01*
X34899500Y-54933385D01*
X34899500Y-55106614D01*
X34926597Y-55277702D01*
X34926598Y-55277706D01*
X34980123Y-55442438D01*
X34980125Y-55442441D01*
X35039723Y-55559411D01*
X35058768Y-55596788D01*
X35160586Y-55736928D01*
X35283072Y-55859414D01*
X35423212Y-55961232D01*
X35577555Y-56039873D01*
X35577557Y-56039873D01*
X35577558Y-56039874D01*
X35577561Y-56039876D01*
X35742293Y-56093401D01*
X35742297Y-56093402D01*
X35913386Y-56120500D01*
X35913389Y-56120500D01*
X36086614Y-56120500D01*
X36257702Y-56093402D01*
X36257706Y-56093401D01*
X36422438Y-56039876D01*
X36422440Y-56039874D01*
X36422445Y-56039873D01*
X36576788Y-55961232D01*
X36716928Y-55859414D01*
X36839414Y-55736928D01*
X36941232Y-55596788D01*
X37019873Y-55442445D01*
X37019874Y-55442440D01*
X37019876Y-55442438D01*
X37073401Y-55277706D01*
X37073402Y-55277702D01*
X37100500Y-55106614D01*
X37100500Y-54933385D01*
X42519500Y-54933385D01*
X42519500Y-55106614D01*
X42546597Y-55277702D01*
X42546598Y-55277706D01*
X42600123Y-55442438D01*
X42600125Y-55442441D01*
X42659723Y-55559411D01*
X42678768Y-55596788D01*
X42780586Y-55736928D01*
X42903072Y-55859414D01*
X43043212Y-55961232D01*
X43197555Y-56039873D01*
X43197557Y-56039873D01*
X43197558Y-56039874D01*
X43197561Y-56039876D01*
X43362293Y-56093401D01*
X43362297Y-56093402D01*
X43533386Y-56120500D01*
X43533389Y-56120500D01*
X43706614Y-56120500D01*
X43877702Y-56093402D01*
X43877706Y-56093401D01*
X44042438Y-56039876D01*
X44042440Y-56039874D01*
X44042445Y-56039873D01*
X44196788Y-55961232D01*
X44336928Y-55859414D01*
X44459414Y-55736928D01*
X44561232Y-55596788D01*
X44639873Y-55442445D01*
X44639874Y-55442440D01*
X44639876Y-55442438D01*
X44693401Y-55277706D01*
X44693402Y-55277702D01*
X44720500Y-55106614D01*
X44720500Y-54933385D01*
X44693402Y-54762297D01*
X44693401Y-54762293D01*
X44639876Y-54597561D01*
X44639874Y-54597558D01*
X44639873Y-54597557D01*
X44639873Y-54597555D01*
X44561232Y-54443212D01*
X44459414Y-54303072D01*
X44336928Y-54180586D01*
X44196788Y-54078768D01*
X44196787Y-54078767D01*
X44196785Y-54078766D01*
X44042441Y-54000125D01*
X44042438Y-54000123D01*
X43877706Y-53946598D01*
X43877702Y-53946597D01*
X43706614Y-53919500D01*
X43706611Y-53919500D01*
X43533389Y-53919500D01*
X43533386Y-53919500D01*
X43362297Y-53946597D01*
X43362293Y-53946598D01*
X43197561Y-54000123D01*
X43197558Y-54000125D01*
X43043214Y-54078766D01*
X42903073Y-54180585D01*
X42780585Y-54303073D01*
X42678766Y-54443214D01*
X42600125Y-54597558D01*
X42600123Y-54597561D01*
X42546598Y-54762293D01*
X42546597Y-54762297D01*
X42519500Y-54933385D01*
X37100500Y-54933385D01*
X37073402Y-54762297D01*
X37073401Y-54762293D01*
X37019876Y-54597561D01*
X37019874Y-54597558D01*
X37019873Y-54597557D01*
X37019873Y-54597555D01*
X36941232Y-54443212D01*
X36839414Y-54303072D01*
X36716928Y-54180586D01*
X36576788Y-54078768D01*
X36576787Y-54078767D01*
X36576785Y-54078766D01*
X36422441Y-54000125D01*
X36422438Y-54000123D01*
X36257706Y-53946598D01*
X36257702Y-53946597D01*
X36086614Y-53919500D01*
X36086611Y-53919500D01*
X35913389Y-53919500D01*
X35913386Y-53919500D01*
X35742297Y-53946597D01*
X35742293Y-53946598D01*
X35577561Y-54000123D01*
X35577558Y-54000125D01*
X35423214Y-54078766D01*
X35283073Y-54180585D01*
X35160585Y-54303073D01*
X35058766Y-54443214D01*
X34980125Y-54597558D01*
X34980123Y-54597561D01*
X34926598Y-54762293D01*
X34926597Y-54762297D01*
X34899500Y-54933385D01*
X9028789Y-54933385D01*
X9039992Y-54898907D01*
X9039992Y-54898906D01*
X9072915Y-54797579D01*
X9100000Y-54626575D01*
X9100000Y-54453424D01*
X9072915Y-54282420D01*
X9019411Y-54117751D01*
X8940804Y-53963476D01*
X8906535Y-53916307D01*
X8468019Y-54354822D01*
X8465925Y-54347007D01*
X8400099Y-54232993D01*
X8307007Y-54139901D01*
X8192993Y-54074075D01*
X8185174Y-54071979D01*
X8623691Y-53633463D01*
X8576522Y-53599194D01*
X8422248Y-53520588D01*
X8257579Y-53467084D01*
X8086575Y-53440000D01*
X7913425Y-53440000D01*
X7742420Y-53467084D01*
X7577751Y-53520588D01*
X7423473Y-53599196D01*
X7376307Y-53633463D01*
X7814824Y-54071980D01*
X7807007Y-54074075D01*
X7692993Y-54139901D01*
X7599901Y-54232993D01*
X7534075Y-54347007D01*
X7531980Y-54354824D01*
X7093463Y-53916307D01*
X7059196Y-53963473D01*
X6980588Y-54117751D01*
X6927084Y-54282420D01*
X6900000Y-54453424D01*
X500500Y-54453424D01*
X500500Y-51105130D01*
X6849500Y-51105130D01*
X6849500Y-52894860D01*
X6849501Y-52894863D01*
X6852414Y-52919990D01*
X6877756Y-52977385D01*
X6897794Y-53022765D01*
X6977235Y-53102206D01*
X7080009Y-53147585D01*
X7105135Y-53150500D01*
X8894864Y-53150499D01*
X8919991Y-53147585D01*
X9022765Y-53102206D01*
X9102206Y-53022765D01*
X9147585Y-52919991D01*
X9150500Y-52894865D01*
X9150499Y-52285930D01*
X30549500Y-52285930D01*
X30549500Y-52414069D01*
X30574499Y-52539742D01*
X30574500Y-52539747D01*
X30623534Y-52658126D01*
X30632815Y-52672015D01*
X30649500Y-52727017D01*
X30649500Y-53472981D01*
X30632817Y-53527980D01*
X30623535Y-53541871D01*
X30574500Y-53660252D01*
X30574499Y-53660255D01*
X30574499Y-53660256D01*
X30549500Y-53785931D01*
X30549500Y-53914069D01*
X30566618Y-54000127D01*
X30574499Y-54039742D01*
X30574500Y-54039747D01*
X30623534Y-54158125D01*
X30623538Y-54158133D01*
X30666365Y-54222226D01*
X30694724Y-54264669D01*
X30785331Y-54355276D01*
X30848848Y-54397717D01*
X30891866Y-54426461D01*
X30891870Y-54426463D01*
X30891873Y-54426465D01*
X31010256Y-54475501D01*
X31135931Y-54500500D01*
X31135932Y-54500500D01*
X31264068Y-54500500D01*
X31264069Y-54500500D01*
X31389744Y-54475501D01*
X31508127Y-54426465D01*
X31614669Y-54355276D01*
X31705276Y-54264669D01*
X31776465Y-54158127D01*
X31825501Y-54039744D01*
X31850500Y-53914069D01*
X31850500Y-53785931D01*
X31825501Y-53660256D01*
X31776465Y-53541873D01*
X31776464Y-53541871D01*
X31767183Y-53527980D01*
X31750500Y-53472981D01*
X31750500Y-52727017D01*
X31767185Y-52672015D01*
X31776465Y-52658127D01*
X31825501Y-52539744D01*
X31850500Y-52414069D01*
X31850500Y-52393385D01*
X34899500Y-52393385D01*
X34899500Y-52566614D01*
X34926597Y-52737702D01*
X34926598Y-52737706D01*
X34980123Y-52902438D01*
X34980125Y-52902441D01*
X35041432Y-53022765D01*
X35058768Y-53056788D01*
X35160586Y-53196928D01*
X35283072Y-53319414D01*
X35423212Y-53421232D01*
X35577555Y-53499873D01*
X35577557Y-53499873D01*
X35577558Y-53499874D01*
X35577561Y-53499876D01*
X35742293Y-53553401D01*
X35742297Y-53553402D01*
X35913386Y-53580500D01*
X35913389Y-53580500D01*
X36086614Y-53580500D01*
X36257702Y-53553402D01*
X36257706Y-53553401D01*
X36422438Y-53499876D01*
X36422440Y-53499874D01*
X36422445Y-53499873D01*
X36576788Y-53421232D01*
X36716928Y-53319414D01*
X36839414Y-53196928D01*
X36941232Y-53056788D01*
X37019873Y-52902445D01*
X37019874Y-52902440D01*
X37019876Y-52902438D01*
X37073401Y-52737706D01*
X37073402Y-52737702D01*
X37100500Y-52566614D01*
X37100500Y-52393385D01*
X42519500Y-52393385D01*
X42519500Y-52566614D01*
X42546597Y-52737702D01*
X42546598Y-52737706D01*
X42600123Y-52902438D01*
X42600125Y-52902441D01*
X42661432Y-53022765D01*
X42678768Y-53056788D01*
X42780586Y-53196928D01*
X42903072Y-53319414D01*
X43043212Y-53421232D01*
X43197555Y-53499873D01*
X43197557Y-53499873D01*
X43197558Y-53499874D01*
X43197561Y-53499876D01*
X43362293Y-53553401D01*
X43362297Y-53553402D01*
X43533386Y-53580500D01*
X43533389Y-53580500D01*
X43706614Y-53580500D01*
X43877702Y-53553402D01*
X43877706Y-53553401D01*
X44042438Y-53499876D01*
X44042440Y-53499874D01*
X44042445Y-53499873D01*
X44196788Y-53421232D01*
X44336928Y-53319414D01*
X44459414Y-53196928D01*
X44561232Y-53056788D01*
X44639873Y-52902445D01*
X44639874Y-52902440D01*
X44639876Y-52902438D01*
X44693401Y-52737706D01*
X44693402Y-52737702D01*
X44720500Y-52566614D01*
X44720500Y-52393385D01*
X44693402Y-52222297D01*
X44693401Y-52222293D01*
X44639876Y-52057561D01*
X44639874Y-52057558D01*
X44639873Y-52057557D01*
X44639873Y-52057555D01*
X44561232Y-51903212D01*
X44459414Y-51763072D01*
X44336928Y-51640586D01*
X44196788Y-51538768D01*
X44196787Y-51538767D01*
X44196785Y-51538766D01*
X44042441Y-51460125D01*
X44042438Y-51460123D01*
X43877706Y-51406598D01*
X43877702Y-51406597D01*
X43706614Y-51379500D01*
X43706611Y-51379500D01*
X43533389Y-51379500D01*
X43533386Y-51379500D01*
X43362297Y-51406597D01*
X43362293Y-51406598D01*
X43197561Y-51460123D01*
X43197558Y-51460125D01*
X43043214Y-51538766D01*
X42903073Y-51640585D01*
X42780585Y-51763073D01*
X42678766Y-51903214D01*
X42600125Y-52057558D01*
X42600123Y-52057561D01*
X42546598Y-52222293D01*
X42546597Y-52222297D01*
X42519500Y-52393385D01*
X37100500Y-52393385D01*
X37073402Y-52222297D01*
X37073401Y-52222293D01*
X37019876Y-52057561D01*
X37019874Y-52057558D01*
X37019873Y-52057557D01*
X37019873Y-52057555D01*
X36941232Y-51903212D01*
X36839414Y-51763072D01*
X36716928Y-51640586D01*
X36576788Y-51538768D01*
X36576787Y-51538767D01*
X36576785Y-51538766D01*
X36422441Y-51460125D01*
X36422438Y-51460123D01*
X36257706Y-51406598D01*
X36257702Y-51406597D01*
X36086614Y-51379500D01*
X36086611Y-51379500D01*
X35913389Y-51379500D01*
X35913386Y-51379500D01*
X35742297Y-51406597D01*
X35742293Y-51406598D01*
X35577561Y-51460123D01*
X35577558Y-51460125D01*
X35423214Y-51538766D01*
X35283073Y-51640585D01*
X35160585Y-51763073D01*
X35058766Y-51903214D01*
X34980125Y-52057558D01*
X34980123Y-52057561D01*
X34926598Y-52222293D01*
X34926597Y-52222297D01*
X34899500Y-52393385D01*
X31850500Y-52393385D01*
X31850500Y-52285931D01*
X31825501Y-52160256D01*
X31776465Y-52041873D01*
X31776463Y-52041870D01*
X31776461Y-52041866D01*
X31747717Y-51998848D01*
X31705276Y-51935331D01*
X31614669Y-51844724D01*
X31572226Y-51816365D01*
X31508133Y-51773538D01*
X31508125Y-51773534D01*
X31389747Y-51724500D01*
X31389745Y-51724499D01*
X31389744Y-51724499D01*
X31264069Y-51699500D01*
X31135931Y-51699500D01*
X31135930Y-51699500D01*
X31073093Y-51711999D01*
X31010256Y-51724499D01*
X31010255Y-51724499D01*
X31010252Y-51724500D01*
X30891874Y-51773534D01*
X30891866Y-51773538D01*
X30785331Y-51844724D01*
X30785327Y-51844727D01*
X30694727Y-51935327D01*
X30694724Y-51935331D01*
X30623538Y-52041866D01*
X30623534Y-52041874D01*
X30574500Y-52160252D01*
X30574499Y-52160257D01*
X30549500Y-52285930D01*
X9150499Y-52285930D01*
X9150499Y-51935331D01*
X9150499Y-51105139D01*
X9150499Y-51105136D01*
X9147585Y-51080009D01*
X9102206Y-50977235D01*
X9022765Y-50897794D01*
X8919991Y-50852415D01*
X8919990Y-50852414D01*
X8919988Y-50852414D01*
X8894868Y-50849500D01*
X7105139Y-50849500D01*
X7105136Y-50849501D01*
X7080009Y-50852414D01*
X6977235Y-50897794D01*
X6897794Y-50977235D01*
X6852414Y-51080011D01*
X6849500Y-51105130D01*
X500500Y-51105130D01*
X500500Y-50449450D01*
X16849500Y-50449450D01*
X16849500Y-50630549D01*
X16877828Y-50809406D01*
X16933788Y-50981637D01*
X16996715Y-51105139D01*
X17016004Y-51142994D01*
X17122447Y-51289501D01*
X17250499Y-51417553D01*
X17397006Y-51523996D01*
X17558361Y-51606211D01*
X17730591Y-51662171D01*
X17802136Y-51673502D01*
X17909451Y-51690500D01*
X17909454Y-51690500D01*
X18090549Y-51690500D01*
X18179977Y-51676335D01*
X18269409Y-51662171D01*
X18441639Y-51606211D01*
X18602994Y-51523996D01*
X18749501Y-51417553D01*
X18877553Y-51289501D01*
X18983996Y-51142994D01*
X19066211Y-50981639D01*
X19122171Y-50809409D01*
X19150500Y-50630546D01*
X19150500Y-50449454D01*
X19150500Y-50449450D01*
X19122171Y-50270593D01*
X19122171Y-50270591D01*
X19066211Y-50098361D01*
X18983996Y-49937006D01*
X18923242Y-49853385D01*
X34899500Y-49853385D01*
X34899500Y-50026614D01*
X34926597Y-50197702D01*
X34926598Y-50197706D01*
X34980123Y-50362438D01*
X34980125Y-50362441D01*
X35043045Y-50485931D01*
X35058768Y-50516788D01*
X35160586Y-50656928D01*
X35283072Y-50779414D01*
X35423212Y-50881232D01*
X35577555Y-50959873D01*
X35577557Y-50959873D01*
X35577558Y-50959874D01*
X35577561Y-50959876D01*
X35742293Y-51013401D01*
X35742297Y-51013402D01*
X35913386Y-51040500D01*
X35913389Y-51040500D01*
X36086614Y-51040500D01*
X36257702Y-51013402D01*
X36257706Y-51013401D01*
X36422438Y-50959876D01*
X36422440Y-50959874D01*
X36422445Y-50959873D01*
X36576788Y-50881232D01*
X36716928Y-50779414D01*
X36839414Y-50656928D01*
X36941232Y-50516788D01*
X37019873Y-50362445D01*
X37019874Y-50362440D01*
X37019876Y-50362438D01*
X37073401Y-50197706D01*
X37073402Y-50197702D01*
X37100500Y-50026614D01*
X37100500Y-49853385D01*
X37073402Y-49682297D01*
X37073401Y-49682293D01*
X37019876Y-49517561D01*
X37019874Y-49517558D01*
X37019873Y-49517557D01*
X37019873Y-49517555D01*
X36941232Y-49363212D01*
X36839414Y-49223072D01*
X36716928Y-49100586D01*
X36576788Y-48998768D01*
X36576787Y-48998767D01*
X36576785Y-48998766D01*
X36422441Y-48920125D01*
X36422438Y-48920123D01*
X36257706Y-48866598D01*
X36257702Y-48866597D01*
X36086614Y-48839500D01*
X36086611Y-48839500D01*
X35913389Y-48839500D01*
X35913386Y-48839500D01*
X35742297Y-48866597D01*
X35742293Y-48866598D01*
X35577561Y-48920123D01*
X35577558Y-48920125D01*
X35423214Y-48998766D01*
X35283073Y-49100585D01*
X35160585Y-49223073D01*
X35058766Y-49363214D01*
X34980125Y-49517558D01*
X34980123Y-49517561D01*
X34926598Y-49682293D01*
X34926597Y-49682297D01*
X34899500Y-49853385D01*
X18923242Y-49853385D01*
X18877553Y-49790499D01*
X18749501Y-49662447D01*
X18602994Y-49556004D01*
X18602993Y-49556003D01*
X18602991Y-49556002D01*
X18441637Y-49473788D01*
X18269406Y-49417828D01*
X18090549Y-49389500D01*
X18090546Y-49389500D01*
X17909454Y-49389500D01*
X17909451Y-49389500D01*
X17730593Y-49417828D01*
X17558362Y-49473788D01*
X17397008Y-49556002D01*
X17363978Y-49580000D01*
X17250499Y-49662447D01*
X17122447Y-49790499D01*
X17106126Y-49812963D01*
X17016002Y-49937008D01*
X16933788Y-50098362D01*
X16877828Y-50270593D01*
X16849500Y-50449450D01*
X500500Y-50449450D01*
X500500Y-47105130D01*
X16849500Y-47105130D01*
X16849500Y-48894860D01*
X16849501Y-48894863D01*
X16852414Y-48919990D01*
X16861464Y-48940485D01*
X16897794Y-49022765D01*
X16977235Y-49102206D01*
X17080009Y-49147585D01*
X17105135Y-49150500D01*
X18894864Y-49150499D01*
X18919991Y-49147585D01*
X19022765Y-49102206D01*
X19102206Y-49022765D01*
X19147585Y-48919991D01*
X19150500Y-48894865D01*
X19150499Y-47105136D01*
X19147585Y-47080009D01*
X19102206Y-46977235D01*
X19051503Y-46926532D01*
X30449500Y-46926532D01*
X30449500Y-47133467D01*
X30489869Y-47336418D01*
X30569058Y-47527597D01*
X30667883Y-47675500D01*
X30684023Y-47699655D01*
X30830345Y-47845977D01*
X31002402Y-47960941D01*
X31193580Y-48040130D01*
X31396535Y-48080500D01*
X31396536Y-48080500D01*
X31603464Y-48080500D01*
X31603465Y-48080500D01*
X31806420Y-48040130D01*
X31997598Y-47960941D01*
X32169655Y-47845977D01*
X32315977Y-47699655D01*
X32430941Y-47527598D01*
X32510130Y-47336420D01*
X32514712Y-47313385D01*
X34899500Y-47313385D01*
X34899500Y-47486614D01*
X34926597Y-47657702D01*
X34926598Y-47657706D01*
X34980123Y-47822438D01*
X34980125Y-47822441D01*
X35050693Y-47960941D01*
X35058768Y-47976788D01*
X35160586Y-48116928D01*
X35283072Y-48239414D01*
X35423212Y-48341232D01*
X35577555Y-48419873D01*
X35577557Y-48419873D01*
X35577558Y-48419874D01*
X35577561Y-48419876D01*
X35742293Y-48473401D01*
X35742297Y-48473402D01*
X35913386Y-48500500D01*
X35913389Y-48500500D01*
X36086614Y-48500500D01*
X36257702Y-48473402D01*
X36257706Y-48473401D01*
X36422438Y-48419876D01*
X36422440Y-48419874D01*
X36422445Y-48419873D01*
X36576788Y-48341232D01*
X36716928Y-48239414D01*
X36839414Y-48116928D01*
X36941232Y-47976788D01*
X37019873Y-47822445D01*
X37019874Y-47822440D01*
X37019876Y-47822438D01*
X37031738Y-47785931D01*
X40749500Y-47785931D01*
X40749500Y-47914069D01*
X40770036Y-48017309D01*
X40774499Y-48039742D01*
X40774500Y-48039747D01*
X40823534Y-48158125D01*
X40823538Y-48158133D01*
X40853150Y-48202449D01*
X40894724Y-48264669D01*
X40985331Y-48355276D01*
X41048848Y-48397717D01*
X41091866Y-48426461D01*
X41091870Y-48426463D01*
X41091873Y-48426465D01*
X41210256Y-48475501D01*
X41335931Y-48500500D01*
X41407744Y-48500500D01*
X41465935Y-48519407D01*
X41477747Y-48529496D01*
X41888737Y-48940485D01*
X41985759Y-48996501D01*
X41985757Y-48996501D01*
X41985761Y-48996502D01*
X41985763Y-48996503D01*
X42093981Y-49025500D01*
X42093982Y-49025500D01*
X42739151Y-49025500D01*
X42797342Y-49044407D01*
X42833306Y-49093907D01*
X42833306Y-49155093D01*
X42809156Y-49194501D01*
X42780586Y-49223072D01*
X42780585Y-49223073D01*
X42678766Y-49363214D01*
X42600125Y-49517558D01*
X42600123Y-49517561D01*
X42546598Y-49682293D01*
X42546597Y-49682297D01*
X42519500Y-49853385D01*
X42519500Y-50026614D01*
X42546597Y-50197702D01*
X42546598Y-50197706D01*
X42600123Y-50362438D01*
X42600125Y-50362441D01*
X42663045Y-50485931D01*
X42678768Y-50516788D01*
X42780586Y-50656928D01*
X42903072Y-50779414D01*
X43043212Y-50881232D01*
X43197555Y-50959873D01*
X43197557Y-50959873D01*
X43197558Y-50959874D01*
X43197561Y-50959876D01*
X43362293Y-51013401D01*
X43362297Y-51013402D01*
X43533386Y-51040500D01*
X43533389Y-51040500D01*
X43706614Y-51040500D01*
X43877702Y-51013402D01*
X43877706Y-51013401D01*
X44042438Y-50959876D01*
X44042440Y-50959874D01*
X44042445Y-50959873D01*
X44196788Y-50881232D01*
X44336928Y-50779414D01*
X44459414Y-50656928D01*
X44561232Y-50516788D01*
X44639873Y-50362445D01*
X44639874Y-50362440D01*
X44639876Y-50362438D01*
X44693401Y-50197706D01*
X44693402Y-50197702D01*
X44720500Y-50026614D01*
X44720500Y-49853385D01*
X44693402Y-49682297D01*
X44693401Y-49682293D01*
X44639876Y-49517561D01*
X44639874Y-49517558D01*
X44639873Y-49517557D01*
X44639873Y-49517555D01*
X44561232Y-49363212D01*
X44459414Y-49223072D01*
X44430843Y-49194501D01*
X44403068Y-49139987D01*
X44412639Y-49079555D01*
X44455904Y-49036290D01*
X44500849Y-49025500D01*
X51750500Y-49025500D01*
X51808691Y-49044407D01*
X51844655Y-49093907D01*
X51849500Y-49124500D01*
X51849500Y-49170549D01*
X51877828Y-49349406D01*
X51933788Y-49521637D01*
X52015649Y-49682299D01*
X52016004Y-49682994D01*
X52110434Y-49812966D01*
X52129340Y-49871154D01*
X52110433Y-49929345D01*
X52068229Y-49962617D01*
X52041873Y-49973534D01*
X52041866Y-49973538D01*
X51935331Y-50044724D01*
X51935327Y-50044727D01*
X51884551Y-50095504D01*
X51830034Y-50123281D01*
X51814547Y-50124500D01*
X51085453Y-50124500D01*
X51027262Y-50105593D01*
X51015449Y-50095504D01*
X50964672Y-50044727D01*
X50964669Y-50044724D01*
X50922226Y-50016365D01*
X50858133Y-49973538D01*
X50858125Y-49973534D01*
X50739747Y-49924500D01*
X50739745Y-49924499D01*
X50739744Y-49924499D01*
X50614069Y-49899500D01*
X50485931Y-49899500D01*
X50485930Y-49899500D01*
X50444758Y-49907690D01*
X50360256Y-49924499D01*
X50360255Y-49924499D01*
X50360252Y-49924500D01*
X50241874Y-49973534D01*
X50241866Y-49973538D01*
X50135331Y-50044724D01*
X50135327Y-50044727D01*
X50044727Y-50135327D01*
X50044724Y-50135331D01*
X49973538Y-50241866D01*
X49973534Y-50241874D01*
X49924500Y-50360252D01*
X49924500Y-50360253D01*
X49924499Y-50360256D01*
X49899500Y-50485931D01*
X49899500Y-50614069D01*
X49908025Y-50656928D01*
X49924499Y-50739742D01*
X49924500Y-50739747D01*
X49973534Y-50858125D01*
X49973538Y-50858133D01*
X50016365Y-50922226D01*
X50044724Y-50964669D01*
X50135331Y-51055276D01*
X50172347Y-51080009D01*
X50241866Y-51126461D01*
X50241870Y-51126463D01*
X50241873Y-51126465D01*
X50360256Y-51175501D01*
X50485931Y-51200500D01*
X50485932Y-51200500D01*
X50614068Y-51200500D01*
X50614069Y-51200500D01*
X50739744Y-51175501D01*
X50858127Y-51126465D01*
X50964669Y-51055276D01*
X51015449Y-51004496D01*
X51069966Y-50976719D01*
X51085453Y-50975500D01*
X51814547Y-50975500D01*
X51872738Y-50994407D01*
X51884551Y-51004496D01*
X51935331Y-51055276D01*
X51972347Y-51080009D01*
X52041866Y-51126461D01*
X52041870Y-51126463D01*
X52041873Y-51126465D01*
X52160256Y-51175501D01*
X52285931Y-51200500D01*
X52285932Y-51200500D01*
X52414068Y-51200500D01*
X52414069Y-51200500D01*
X52539744Y-51175501D01*
X52658127Y-51126465D01*
X52764669Y-51055276D01*
X52855276Y-50964669D01*
X52926465Y-50858127D01*
X52975501Y-50739744D01*
X53000500Y-50614069D01*
X53000500Y-50485931D01*
X52975501Y-50360256D01*
X52975500Y-50360253D01*
X52974889Y-50358239D01*
X52974907Y-50357276D01*
X52974552Y-50355487D01*
X52974944Y-50355408D01*
X52976090Y-50297066D01*
X53013018Y-50248281D01*
X53069626Y-50230500D01*
X53090549Y-50230500D01*
X53179977Y-50216335D01*
X53269409Y-50202171D01*
X53441639Y-50146211D01*
X53602994Y-50063996D01*
X53749501Y-49957553D01*
X53877553Y-49829501D01*
X53983996Y-49682994D01*
X54066211Y-49521639D01*
X54122171Y-49349409D01*
X54142181Y-49223072D01*
X54150500Y-49170549D01*
X54150500Y-48993424D01*
X54440000Y-48993424D01*
X54440000Y-49166575D01*
X54467084Y-49337579D01*
X54520588Y-49502248D01*
X54599194Y-49656522D01*
X54633463Y-49703691D01*
X55071979Y-49265174D01*
X55074075Y-49272993D01*
X55139901Y-49387007D01*
X55232993Y-49480099D01*
X55347007Y-49545925D01*
X55354822Y-49548019D01*
X54916307Y-49986535D01*
X54963476Y-50020804D01*
X55117751Y-50099411D01*
X55282420Y-50152915D01*
X55453425Y-50180000D01*
X55626575Y-50180000D01*
X55797579Y-50152915D01*
X55962248Y-50099411D01*
X56116524Y-50020804D01*
X56116530Y-50020800D01*
X56163691Y-49986535D01*
X55725175Y-49548019D01*
X55732993Y-49545925D01*
X55847007Y-49480099D01*
X55940099Y-49387007D01*
X56005925Y-49272993D01*
X56008019Y-49265175D01*
X56446535Y-49703691D01*
X56480800Y-49656530D01*
X56480804Y-49656524D01*
X56559411Y-49502248D01*
X56612915Y-49337579D01*
X56640000Y-49166575D01*
X56640000Y-48993424D01*
X56612915Y-48822420D01*
X56559411Y-48657751D01*
X56480804Y-48503476D01*
X56446535Y-48456307D01*
X56008019Y-48894822D01*
X56005925Y-48887007D01*
X55940099Y-48772993D01*
X55847007Y-48679901D01*
X55732993Y-48614075D01*
X55725174Y-48611979D01*
X56163691Y-48173463D01*
X56116522Y-48139194D01*
X55962248Y-48060588D01*
X55797579Y-48007084D01*
X55626575Y-47980000D01*
X55453425Y-47980000D01*
X55282420Y-48007084D01*
X55117751Y-48060588D01*
X54963473Y-48139196D01*
X54916307Y-48173463D01*
X55354824Y-48611980D01*
X55347007Y-48614075D01*
X55232993Y-48679901D01*
X55139901Y-48772993D01*
X55074075Y-48887007D01*
X55071980Y-48894824D01*
X54633463Y-48456307D01*
X54599196Y-48503473D01*
X54520588Y-48657751D01*
X54467084Y-48822420D01*
X54440000Y-48993424D01*
X54150500Y-48993424D01*
X54150500Y-48989450D01*
X54126750Y-48839500D01*
X54122171Y-48810591D01*
X54066211Y-48638361D01*
X53983996Y-48477006D01*
X53877553Y-48330499D01*
X53749501Y-48202447D01*
X53602994Y-48096004D01*
X53602993Y-48096003D01*
X53602991Y-48096002D01*
X53441637Y-48013788D01*
X53269406Y-47957828D01*
X53090549Y-47929500D01*
X53090546Y-47929500D01*
X52909454Y-47929500D01*
X52909451Y-47929500D01*
X52730593Y-47957828D01*
X52558362Y-48013788D01*
X52397008Y-48096002D01*
X52368209Y-48116926D01*
X52314987Y-48155593D01*
X52256798Y-48174500D01*
X44611884Y-48174500D01*
X44553693Y-48155593D01*
X44517729Y-48106093D01*
X44517729Y-48044907D01*
X44531792Y-48017309D01*
X44561228Y-47976793D01*
X44561232Y-47976788D01*
X44639873Y-47822445D01*
X44639874Y-47822440D01*
X44639876Y-47822438D01*
X44693401Y-47657706D01*
X44693402Y-47657702D01*
X44720500Y-47486614D01*
X44720500Y-47313385D01*
X44693402Y-47142297D01*
X44693401Y-47142293D01*
X44639876Y-46977561D01*
X44639874Y-46977558D01*
X44639873Y-46977557D01*
X44639873Y-46977555D01*
X44561232Y-46823212D01*
X44459414Y-46683072D01*
X44336928Y-46560586D01*
X44196788Y-46458768D01*
X44196787Y-46458767D01*
X44196785Y-46458766D01*
X44042441Y-46380125D01*
X44042438Y-46380123D01*
X43877706Y-46326598D01*
X43877702Y-46326597D01*
X43706614Y-46299500D01*
X43706611Y-46299500D01*
X43533389Y-46299500D01*
X43533386Y-46299500D01*
X43362297Y-46326597D01*
X43362293Y-46326598D01*
X43197561Y-46380123D01*
X43197558Y-46380125D01*
X43043214Y-46458766D01*
X42903073Y-46560585D01*
X42780585Y-46683073D01*
X42678766Y-46823214D01*
X42600125Y-46977558D01*
X42600123Y-46977561D01*
X42546598Y-47142293D01*
X42546597Y-47142297D01*
X42519500Y-47313385D01*
X42519500Y-47486614D01*
X42546597Y-47657702D01*
X42546598Y-47657706D01*
X42600123Y-47822438D01*
X42600125Y-47822441D01*
X42678767Y-47976787D01*
X42678771Y-47976793D01*
X42708208Y-48017309D01*
X42727116Y-48075499D01*
X42708209Y-48133690D01*
X42658709Y-48169654D01*
X42628116Y-48174500D01*
X42367256Y-48174500D01*
X42309065Y-48155593D01*
X42297252Y-48145504D01*
X42079496Y-47927748D01*
X42051719Y-47873231D01*
X42050500Y-47857744D01*
X42050500Y-47785932D01*
X42050500Y-47785931D01*
X42025501Y-47660256D01*
X41976465Y-47541873D01*
X41976463Y-47541870D01*
X41976461Y-47541866D01*
X41939540Y-47486611D01*
X41905276Y-47435331D01*
X41814669Y-47344724D01*
X41767767Y-47313385D01*
X41708133Y-47273538D01*
X41708125Y-47273534D01*
X41589747Y-47224500D01*
X41589745Y-47224499D01*
X41589744Y-47224499D01*
X41464069Y-47199500D01*
X41335931Y-47199500D01*
X41335930Y-47199500D01*
X41273093Y-47211999D01*
X41210256Y-47224499D01*
X41210255Y-47224499D01*
X41210252Y-47224500D01*
X41091874Y-47273534D01*
X41091866Y-47273538D01*
X40985331Y-47344724D01*
X40985327Y-47344727D01*
X40894727Y-47435327D01*
X40894724Y-47435331D01*
X40823538Y-47541866D01*
X40823534Y-47541874D01*
X40774500Y-47660252D01*
X40774499Y-47660255D01*
X40774499Y-47660256D01*
X40749500Y-47785931D01*
X37031738Y-47785931D01*
X37043258Y-47750477D01*
X37043258Y-47750474D01*
X37043259Y-47750474D01*
X37073401Y-47657706D01*
X37073402Y-47657702D01*
X37100500Y-47486614D01*
X37100500Y-47313385D01*
X37073402Y-47142297D01*
X37073401Y-47142293D01*
X37019876Y-46977561D01*
X37019874Y-46977558D01*
X37019873Y-46977557D01*
X37019873Y-46977555D01*
X36941232Y-46823212D01*
X36839414Y-46683072D01*
X36716928Y-46560586D01*
X36576788Y-46458768D01*
X36576787Y-46458767D01*
X36576785Y-46458766D01*
X36422441Y-46380125D01*
X36422438Y-46380123D01*
X36257706Y-46326598D01*
X36257702Y-46326597D01*
X36086614Y-46299500D01*
X36086611Y-46299500D01*
X35913389Y-46299500D01*
X35913386Y-46299500D01*
X35742297Y-46326597D01*
X35742293Y-46326598D01*
X35577561Y-46380123D01*
X35577558Y-46380125D01*
X35423214Y-46458766D01*
X35283073Y-46560585D01*
X35160585Y-46683073D01*
X35058766Y-46823214D01*
X34980125Y-46977558D01*
X34980123Y-46977561D01*
X34926598Y-47142293D01*
X34926597Y-47142297D01*
X34899500Y-47313385D01*
X32514712Y-47313385D01*
X32550500Y-47133465D01*
X32550500Y-46926535D01*
X32510130Y-46723580D01*
X32430941Y-46532402D01*
X32315977Y-46360345D01*
X32169655Y-46214023D01*
X32169651Y-46214020D01*
X31997597Y-46099058D01*
X31806418Y-46019869D01*
X31603467Y-45979500D01*
X31603465Y-45979500D01*
X31396535Y-45979500D01*
X31396532Y-45979500D01*
X31193581Y-46019869D01*
X31002402Y-46099058D01*
X30830348Y-46214020D01*
X30684020Y-46360348D01*
X30569058Y-46532402D01*
X30489869Y-46723581D01*
X30449500Y-46926532D01*
X19051503Y-46926532D01*
X19022765Y-46897794D01*
X18919991Y-46852415D01*
X18919990Y-46852414D01*
X18919988Y-46852414D01*
X18894868Y-46849500D01*
X17105139Y-46849500D01*
X17105136Y-46849501D01*
X17080009Y-46852414D01*
X16977235Y-46897794D01*
X16897794Y-46977235D01*
X16852414Y-47080011D01*
X16849500Y-47105130D01*
X500500Y-47105130D01*
X500500Y-43449450D01*
X16849500Y-43449450D01*
X16849500Y-43630549D01*
X16877828Y-43809406D01*
X16933788Y-43981637D01*
X16989281Y-44090549D01*
X17016004Y-44142994D01*
X17122447Y-44289501D01*
X17250499Y-44417553D01*
X17397006Y-44523996D01*
X17558361Y-44606211D01*
X17730591Y-44662171D01*
X17802136Y-44673502D01*
X17909451Y-44690500D01*
X17909454Y-44690500D01*
X18090549Y-44690500D01*
X18179977Y-44676335D01*
X18269409Y-44662171D01*
X18441639Y-44606211D01*
X18478065Y-44587650D01*
X18538495Y-44578079D01*
X18593012Y-44605855D01*
X18620791Y-44660371D01*
X18614474Y-44713745D01*
X18574501Y-44810248D01*
X18574499Y-44810254D01*
X18574499Y-44810256D01*
X18549500Y-44935931D01*
X18549500Y-45064069D01*
X18566692Y-45150499D01*
X18574499Y-45189742D01*
X18574500Y-45189747D01*
X18623534Y-45308125D01*
X18623538Y-45308133D01*
X18666365Y-45372226D01*
X18694724Y-45414669D01*
X18785331Y-45505276D01*
X18844369Y-45544724D01*
X18891866Y-45576461D01*
X18891870Y-45576463D01*
X18891873Y-45576465D01*
X19010256Y-45625501D01*
X19135931Y-45650500D01*
X19135932Y-45650500D01*
X19264068Y-45650500D01*
X19264069Y-45650500D01*
X19389744Y-45625501D01*
X19508127Y-45576465D01*
X19522015Y-45567184D01*
X19566356Y-45553733D01*
X19566042Y-45551347D01*
X19572472Y-45550500D01*
X19572474Y-45550500D01*
X19572475Y-45550500D01*
X19712485Y-45512984D01*
X19725836Y-45505276D01*
X19838015Y-45440510D01*
X20505139Y-44773385D01*
X34899500Y-44773385D01*
X34899500Y-44946614D01*
X34926597Y-45117702D01*
X34926598Y-45117706D01*
X34980123Y-45282438D01*
X34980125Y-45282441D01*
X35034673Y-45389500D01*
X35058768Y-45436788D01*
X35160586Y-45576928D01*
X35283072Y-45699414D01*
X35423212Y-45801232D01*
X35577555Y-45879873D01*
X35577557Y-45879873D01*
X35577558Y-45879874D01*
X35577561Y-45879876D01*
X35742293Y-45933401D01*
X35742297Y-45933402D01*
X35913386Y-45960500D01*
X35913389Y-45960500D01*
X36086614Y-45960500D01*
X36257702Y-45933402D01*
X36257706Y-45933401D01*
X36422438Y-45879876D01*
X36422440Y-45879874D01*
X36422445Y-45879873D01*
X36576788Y-45801232D01*
X36716928Y-45699414D01*
X36839414Y-45576928D01*
X36941232Y-45436788D01*
X37019873Y-45282445D01*
X37019874Y-45282440D01*
X37019876Y-45282438D01*
X37073401Y-45117706D01*
X37073402Y-45117702D01*
X37100500Y-44946614D01*
X37100500Y-44773385D01*
X42519500Y-44773385D01*
X42519500Y-44946614D01*
X42546597Y-45117702D01*
X42546598Y-45117706D01*
X42600123Y-45282438D01*
X42600125Y-45282441D01*
X42654673Y-45389500D01*
X42678768Y-45436788D01*
X42780586Y-45576928D01*
X42903072Y-45699414D01*
X43043212Y-45801232D01*
X43197555Y-45879873D01*
X43197557Y-45879873D01*
X43197558Y-45879874D01*
X43197561Y-45879876D01*
X43362293Y-45933401D01*
X43362297Y-45933402D01*
X43533386Y-45960500D01*
X43533389Y-45960500D01*
X43706614Y-45960500D01*
X43877702Y-45933402D01*
X43918520Y-45920139D01*
X43991066Y-45896566D01*
X44052249Y-45896566D01*
X44091075Y-45920137D01*
X45750382Y-47552130D01*
X45788737Y-47590485D01*
X45790288Y-47591380D01*
X45791568Y-47592639D01*
X45791570Y-47592640D01*
X45791571Y-47592641D01*
X45838764Y-47619368D01*
X45885763Y-47646503D01*
X45887497Y-47646967D01*
X45889059Y-47647852D01*
X45941241Y-47661371D01*
X45941849Y-47661531D01*
X45993982Y-47675500D01*
X45993989Y-47675500D01*
X45996098Y-47675778D01*
X45996113Y-47675780D01*
X45997404Y-47675950D01*
X45997510Y-47675949D01*
X45997514Y-47675950D01*
X46051037Y-47675506D01*
X46051421Y-47675503D01*
X46052241Y-47675500D01*
X52187333Y-47675500D01*
X52230602Y-47678079D01*
X52243178Y-47675500D01*
X52256017Y-47675500D01*
X52297891Y-47664279D01*
X52340354Y-47655572D01*
X52351833Y-47649826D01*
X52364236Y-47646503D01*
X52399291Y-47626262D01*
X52402668Y-47624402D01*
X52403505Y-47623962D01*
X52440541Y-47605426D01*
X52443098Y-47603155D01*
X52451538Y-47598721D01*
X52476526Y-47594439D01*
X52500890Y-47587412D01*
X52507540Y-47589126D01*
X52511845Y-47588389D01*
X52519672Y-47592253D01*
X52542536Y-47598147D01*
X52558361Y-47606211D01*
X52730591Y-47662171D01*
X52802136Y-47673502D01*
X52909451Y-47690500D01*
X52909454Y-47690500D01*
X53090549Y-47690500D01*
X53185234Y-47675503D01*
X53269409Y-47662171D01*
X53441639Y-47606211D01*
X53602994Y-47523996D01*
X53749501Y-47417553D01*
X53877553Y-47289501D01*
X53983996Y-47142994D01*
X54066211Y-46981639D01*
X54122171Y-46809409D01*
X54137914Y-46710013D01*
X54150500Y-46630549D01*
X54150500Y-46449450D01*
X54389500Y-46449450D01*
X54389500Y-46630549D01*
X54417828Y-46809406D01*
X54473788Y-46981637D01*
X54555649Y-47142299D01*
X54556004Y-47142994D01*
X54662447Y-47289501D01*
X54790499Y-47417553D01*
X54937006Y-47523996D01*
X55098361Y-47606211D01*
X55270591Y-47662171D01*
X55342136Y-47673502D01*
X55449451Y-47690500D01*
X55449454Y-47690500D01*
X55630549Y-47690500D01*
X55725234Y-47675503D01*
X55809409Y-47662171D01*
X55981639Y-47606211D01*
X56142994Y-47523996D01*
X56289501Y-47417553D01*
X56417553Y-47289501D01*
X56523996Y-47142994D01*
X56606211Y-46981639D01*
X56662171Y-46809409D01*
X56677914Y-46710013D01*
X56690500Y-46630549D01*
X56690500Y-46449450D01*
X56662171Y-46270593D01*
X56662171Y-46270591D01*
X56606211Y-46098361D01*
X56523996Y-45937006D01*
X56417553Y-45790499D01*
X56289501Y-45662447D01*
X56142994Y-45556004D01*
X56142993Y-45556003D01*
X56142991Y-45556002D01*
X55981637Y-45473788D01*
X55809406Y-45417828D01*
X55630549Y-45389500D01*
X55630546Y-45389500D01*
X55449454Y-45389500D01*
X55449451Y-45389500D01*
X55270593Y-45417828D01*
X55098362Y-45473788D01*
X54937008Y-45556002D01*
X54908209Y-45576926D01*
X54790499Y-45662447D01*
X54662447Y-45790499D01*
X54611769Y-45860252D01*
X54556002Y-45937008D01*
X54473788Y-46098362D01*
X54417828Y-46270593D01*
X54389500Y-46449450D01*
X54150500Y-46449450D01*
X54122171Y-46270593D01*
X54122171Y-46270591D01*
X54066211Y-46098361D01*
X53983996Y-45937006D01*
X53877553Y-45790499D01*
X53749501Y-45662447D01*
X53602994Y-45556004D01*
X53602993Y-45556003D01*
X53602991Y-45556002D01*
X53441637Y-45473788D01*
X53269406Y-45417828D01*
X53090549Y-45389500D01*
X53090546Y-45389500D01*
X52909454Y-45389500D01*
X52909451Y-45389500D01*
X52730593Y-45417828D01*
X52558362Y-45473788D01*
X52397008Y-45556002D01*
X52368209Y-45576926D01*
X52250499Y-45662447D01*
X52122447Y-45790499D01*
X52071769Y-45860252D01*
X52016002Y-45937008D01*
X51933788Y-46098362D01*
X51877828Y-46270593D01*
X51849500Y-46449450D01*
X51849500Y-46630549D01*
X51862086Y-46710013D01*
X51852515Y-46770445D01*
X51809250Y-46813710D01*
X51764305Y-46824500D01*
X50877735Y-46824500D01*
X50819544Y-46805593D01*
X50783580Y-46756093D01*
X50783580Y-46694907D01*
X50819544Y-46645407D01*
X50839850Y-46634036D01*
X50858122Y-46626467D01*
X50858121Y-46626467D01*
X50858127Y-46626465D01*
X50964669Y-46555276D01*
X51055276Y-46464669D01*
X51089015Y-46414174D01*
X51102306Y-46398208D01*
X51108766Y-46391925D01*
X51111263Y-46390485D01*
X51146998Y-46354748D01*
X51147469Y-46354291D01*
X51147490Y-46354280D01*
X51148124Y-46353661D01*
X52345532Y-45211947D01*
X52381293Y-45177849D01*
X52436455Y-45151377D01*
X52449610Y-45150499D01*
X53894861Y-45150499D01*
X53894864Y-45150499D01*
X53919991Y-45147585D01*
X54022765Y-45102206D01*
X54102206Y-45022765D01*
X54147585Y-44919991D01*
X54150500Y-44894865D01*
X54150499Y-43909450D01*
X54389500Y-43909450D01*
X54389500Y-44090549D01*
X54417828Y-44269406D01*
X54473788Y-44441637D01*
X54555649Y-44602299D01*
X54556004Y-44602994D01*
X54662447Y-44749501D01*
X54790499Y-44877553D01*
X54937006Y-44983996D01*
X55098361Y-45066211D01*
X55270591Y-45122171D01*
X55342136Y-45133502D01*
X55449451Y-45150500D01*
X55449454Y-45150500D01*
X55630549Y-45150500D01*
X55719977Y-45136335D01*
X55809409Y-45122171D01*
X55981639Y-45066211D01*
X56142994Y-44983996D01*
X56289501Y-44877553D01*
X56417553Y-44749501D01*
X56523996Y-44602994D01*
X56606211Y-44441639D01*
X56662171Y-44269409D01*
X56682193Y-44142994D01*
X56690500Y-44090549D01*
X56690500Y-43909450D01*
X56663017Y-43735932D01*
X56662171Y-43730591D01*
X56606211Y-43558361D01*
X56523996Y-43397006D01*
X56417553Y-43250499D01*
X56289501Y-43122447D01*
X56142994Y-43016004D01*
X56142993Y-43016003D01*
X56142991Y-43016002D01*
X55981637Y-42933788D01*
X55809406Y-42877828D01*
X55630549Y-42849500D01*
X55630546Y-42849500D01*
X55449454Y-42849500D01*
X55449451Y-42849500D01*
X55270593Y-42877828D01*
X55098362Y-42933788D01*
X54937008Y-43016002D01*
X54908209Y-43036926D01*
X54790499Y-43122447D01*
X54662447Y-43250499D01*
X54647848Y-43270593D01*
X54556002Y-43397008D01*
X54473788Y-43558362D01*
X54417828Y-43730593D01*
X54389500Y-43909450D01*
X54150499Y-43909450D01*
X54150499Y-43105136D01*
X54147585Y-43080009D01*
X54102206Y-42977235D01*
X54022765Y-42897794D01*
X53919991Y-42852415D01*
X53919990Y-42852414D01*
X53919988Y-42852414D01*
X53894868Y-42849500D01*
X52105139Y-42849500D01*
X52105136Y-42849501D01*
X52080009Y-42852414D01*
X51977235Y-42897794D01*
X51897794Y-42977235D01*
X51852414Y-43080011D01*
X51849500Y-43105130D01*
X51849500Y-44466672D01*
X51830593Y-44524863D01*
X51818817Y-44538322D01*
X50890735Y-45423237D01*
X50835573Y-45449709D01*
X50784533Y-45443051D01*
X50739745Y-45424499D01*
X50614069Y-45399500D01*
X50485931Y-45399500D01*
X50485930Y-45399500D01*
X50423093Y-45411999D01*
X50360256Y-45424499D01*
X50360255Y-45424499D01*
X50360252Y-45424500D01*
X50241874Y-45473534D01*
X50241866Y-45473538D01*
X50135331Y-45544724D01*
X50135327Y-45544727D01*
X50044727Y-45635327D01*
X50044724Y-45635331D01*
X49973538Y-45741866D01*
X49973534Y-45741874D01*
X49924500Y-45860252D01*
X49924499Y-45860255D01*
X49924499Y-45860256D01*
X49920597Y-45879873D01*
X49899500Y-45985930D01*
X49899500Y-46114069D01*
X49924499Y-46239742D01*
X49924500Y-46239747D01*
X49973534Y-46358125D01*
X49973538Y-46358133D01*
X50010991Y-46414184D01*
X50044724Y-46464669D01*
X50135331Y-46555276D01*
X50198848Y-46597717D01*
X50241866Y-46626461D01*
X50241877Y-46626467D01*
X50260150Y-46634036D01*
X50306676Y-46673772D01*
X50320960Y-46733267D01*
X50297545Y-46789795D01*
X50245376Y-46821765D01*
X50222265Y-46824500D01*
X46264709Y-46824500D01*
X46206518Y-46805593D01*
X46195289Y-46796082D01*
X46107780Y-46710013D01*
X44687511Y-45313122D01*
X44659283Y-45258840D01*
X44662777Y-45211951D01*
X44693402Y-45117701D01*
X44701557Y-45066211D01*
X44720500Y-44946614D01*
X44720500Y-44773385D01*
X44693402Y-44602297D01*
X44693401Y-44602293D01*
X44639876Y-44437561D01*
X44639874Y-44437558D01*
X44639873Y-44437557D01*
X44639873Y-44437555D01*
X44561232Y-44283212D01*
X44459414Y-44143072D01*
X44336928Y-44020586D01*
X44196788Y-43918768D01*
X44196787Y-43918767D01*
X44196785Y-43918766D01*
X44042441Y-43840125D01*
X44042438Y-43840123D01*
X43877706Y-43786598D01*
X43877702Y-43786597D01*
X43706614Y-43759500D01*
X43706611Y-43759500D01*
X43533389Y-43759500D01*
X43533386Y-43759500D01*
X43362297Y-43786597D01*
X43362293Y-43786598D01*
X43197561Y-43840123D01*
X43197558Y-43840125D01*
X43043214Y-43918766D01*
X42903073Y-44020585D01*
X42780585Y-44143073D01*
X42678766Y-44283214D01*
X42600125Y-44437558D01*
X42600123Y-44437561D01*
X42546598Y-44602293D01*
X42546597Y-44602297D01*
X42519500Y-44773385D01*
X37100500Y-44773385D01*
X37073402Y-44602297D01*
X37073401Y-44602293D01*
X37019876Y-44437561D01*
X37019874Y-44437558D01*
X37019873Y-44437557D01*
X37019873Y-44437555D01*
X36941232Y-44283212D01*
X36839414Y-44143072D01*
X36716928Y-44020586D01*
X36576788Y-43918768D01*
X36576787Y-43918767D01*
X36576785Y-43918766D01*
X36422441Y-43840125D01*
X36422438Y-43840123D01*
X36257706Y-43786598D01*
X36257702Y-43786597D01*
X36086614Y-43759500D01*
X36086611Y-43759500D01*
X35913389Y-43759500D01*
X35913386Y-43759500D01*
X35742297Y-43786597D01*
X35742293Y-43786598D01*
X35577561Y-43840123D01*
X35577558Y-43840125D01*
X35423214Y-43918766D01*
X35283073Y-44020585D01*
X35160585Y-44143073D01*
X35058766Y-44283214D01*
X34980125Y-44437558D01*
X34980123Y-44437561D01*
X34926598Y-44602293D01*
X34926597Y-44602297D01*
X34899500Y-44773385D01*
X20505139Y-44773385D01*
X20822672Y-44455851D01*
X20873362Y-44428759D01*
X20889744Y-44425501D01*
X21008127Y-44376465D01*
X21114669Y-44305276D01*
X21205276Y-44214669D01*
X21276465Y-44108127D01*
X21325501Y-43989744D01*
X21350500Y-43864069D01*
X21350500Y-43735931D01*
X21325501Y-43610256D01*
X21276465Y-43491873D01*
X21276463Y-43491870D01*
X21276461Y-43491866D01*
X21228775Y-43420500D01*
X21205276Y-43385331D01*
X21114669Y-43294724D01*
X21048479Y-43250497D01*
X21008133Y-43223538D01*
X21008125Y-43223534D01*
X20889747Y-43174500D01*
X20889745Y-43174499D01*
X20889744Y-43174499D01*
X20764069Y-43149500D01*
X20635931Y-43149500D01*
X20635930Y-43149500D01*
X20586091Y-43159414D01*
X20510256Y-43174499D01*
X20510255Y-43174499D01*
X20510252Y-43174500D01*
X20391874Y-43223534D01*
X20391866Y-43223538D01*
X20285331Y-43294724D01*
X20285327Y-43294727D01*
X20194727Y-43385327D01*
X20194724Y-43385331D01*
X20123538Y-43491866D01*
X20123534Y-43491874D01*
X20074498Y-43610257D01*
X20074497Y-43610260D01*
X20071239Y-43626640D01*
X20044146Y-43677327D01*
X19391488Y-44329985D01*
X19336971Y-44357762D01*
X19302170Y-44357079D01*
X19264069Y-44349500D01*
X19135931Y-44349500D01*
X19135928Y-44349500D01*
X19031030Y-44370366D01*
X18970269Y-44363174D01*
X18925339Y-44321642D01*
X18913402Y-44261632D01*
X18931622Y-44215080D01*
X18983996Y-44142994D01*
X19066211Y-43981639D01*
X19122171Y-43809409D01*
X19150500Y-43630546D01*
X19150500Y-43449454D01*
X19150500Y-43449450D01*
X19122171Y-43270593D01*
X19122171Y-43270591D01*
X19066211Y-43098361D01*
X18983996Y-42937006D01*
X18877553Y-42790499D01*
X18749501Y-42662447D01*
X18602994Y-42556004D01*
X18602993Y-42556003D01*
X18602991Y-42556002D01*
X18441637Y-42473788D01*
X18269406Y-42417828D01*
X18090549Y-42389500D01*
X18090546Y-42389500D01*
X17909454Y-42389500D01*
X17909451Y-42389500D01*
X17730593Y-42417828D01*
X17558362Y-42473788D01*
X17397008Y-42556002D01*
X17323752Y-42609225D01*
X17250499Y-42662447D01*
X17122447Y-42790499D01*
X17079580Y-42849501D01*
X17016002Y-42937008D01*
X16933788Y-43098362D01*
X16877828Y-43270593D01*
X16849500Y-43449450D01*
X500500Y-43449450D01*
X500500Y-40105130D01*
X16849500Y-40105130D01*
X16849500Y-41894860D01*
X16849501Y-41894863D01*
X16852414Y-41919990D01*
X16877756Y-41977385D01*
X16897794Y-42022765D01*
X16977235Y-42102206D01*
X17080009Y-42147585D01*
X17105135Y-42150500D01*
X18894864Y-42150499D01*
X18919991Y-42147585D01*
X19022765Y-42102206D01*
X19078439Y-42046532D01*
X30449500Y-42046532D01*
X30449500Y-42253467D01*
X30489869Y-42456418D01*
X30569058Y-42647597D01*
X30684020Y-42819651D01*
X30684023Y-42819655D01*
X30830345Y-42965977D01*
X31002402Y-43080941D01*
X31193580Y-43160130D01*
X31396535Y-43200500D01*
X31396536Y-43200500D01*
X31603464Y-43200500D01*
X31603465Y-43200500D01*
X31806420Y-43160130D01*
X31997598Y-43080941D01*
X32169655Y-42965977D01*
X32315977Y-42819655D01*
X32430941Y-42647598D01*
X32510130Y-42456420D01*
X32550500Y-42253465D01*
X32550500Y-42233385D01*
X34899500Y-42233385D01*
X34899500Y-42406614D01*
X34926597Y-42577702D01*
X34926598Y-42577706D01*
X34980123Y-42742438D01*
X34980125Y-42742441D01*
X35036158Y-42852414D01*
X35058768Y-42896788D01*
X35160586Y-43036928D01*
X35283072Y-43159414D01*
X35423212Y-43261232D01*
X35577555Y-43339873D01*
X35577557Y-43339873D01*
X35577558Y-43339874D01*
X35577561Y-43339876D01*
X35742293Y-43393401D01*
X35742297Y-43393402D01*
X35913386Y-43420500D01*
X35913389Y-43420500D01*
X36086614Y-43420500D01*
X36257702Y-43393402D01*
X36257706Y-43393401D01*
X36422438Y-43339876D01*
X36422440Y-43339874D01*
X36422445Y-43339873D01*
X36576788Y-43261232D01*
X36716928Y-43159414D01*
X36839414Y-43036928D01*
X36941232Y-42896788D01*
X37019873Y-42742445D01*
X37019874Y-42742440D01*
X37019876Y-42742438D01*
X37073401Y-42577706D01*
X37073402Y-42577702D01*
X37100500Y-42406614D01*
X37100500Y-42233385D01*
X42519500Y-42233385D01*
X42519500Y-42406614D01*
X42546597Y-42577702D01*
X42546598Y-42577706D01*
X42600123Y-42742438D01*
X42600125Y-42742441D01*
X42656158Y-42852414D01*
X42678768Y-42896788D01*
X42780586Y-43036928D01*
X42903072Y-43159414D01*
X43043212Y-43261232D01*
X43197555Y-43339873D01*
X43197557Y-43339873D01*
X43197558Y-43339874D01*
X43197561Y-43339876D01*
X43362293Y-43393401D01*
X43362297Y-43393402D01*
X43533386Y-43420500D01*
X43533389Y-43420500D01*
X43706614Y-43420500D01*
X43877702Y-43393402D01*
X43877706Y-43393401D01*
X44042438Y-43339876D01*
X44042440Y-43339874D01*
X44042445Y-43339873D01*
X44196788Y-43261232D01*
X44336928Y-43159414D01*
X44459414Y-43036928D01*
X44561232Y-42896788D01*
X44639873Y-42742445D01*
X44639874Y-42742440D01*
X44639876Y-42742438D01*
X44693401Y-42577706D01*
X44693402Y-42577702D01*
X44720500Y-42406614D01*
X44720500Y-42233385D01*
X44693402Y-42062297D01*
X44693401Y-42062293D01*
X44639876Y-41897561D01*
X44639874Y-41897558D01*
X44639873Y-41897557D01*
X44639873Y-41897555D01*
X44561232Y-41743212D01*
X44459414Y-41603072D01*
X44336928Y-41480586D01*
X44196788Y-41378768D01*
X44196787Y-41378767D01*
X44196785Y-41378766D01*
X44042441Y-41300125D01*
X44042438Y-41300123D01*
X43877706Y-41246598D01*
X43877702Y-41246597D01*
X43706614Y-41219500D01*
X43706611Y-41219500D01*
X43533389Y-41219500D01*
X43533386Y-41219500D01*
X43362297Y-41246597D01*
X43362293Y-41246598D01*
X43197561Y-41300123D01*
X43197558Y-41300125D01*
X43043214Y-41378766D01*
X42903073Y-41480585D01*
X42780585Y-41603073D01*
X42678766Y-41743214D01*
X42600125Y-41897558D01*
X42600123Y-41897561D01*
X42546598Y-42062293D01*
X42546597Y-42062297D01*
X42519500Y-42233385D01*
X37100500Y-42233385D01*
X37073402Y-42062297D01*
X37073401Y-42062293D01*
X37019876Y-41897561D01*
X37019874Y-41897558D01*
X37019873Y-41897557D01*
X37019873Y-41897555D01*
X36941232Y-41743212D01*
X36839414Y-41603072D01*
X36716928Y-41480586D01*
X36576788Y-41378768D01*
X36576787Y-41378767D01*
X36576785Y-41378766D01*
X36422441Y-41300125D01*
X36422438Y-41300123D01*
X36257706Y-41246598D01*
X36257702Y-41246597D01*
X36086614Y-41219500D01*
X36086611Y-41219500D01*
X35913389Y-41219500D01*
X35913386Y-41219500D01*
X35742297Y-41246597D01*
X35742293Y-41246598D01*
X35577561Y-41300123D01*
X35577558Y-41300125D01*
X35423214Y-41378766D01*
X35283073Y-41480585D01*
X35160585Y-41603073D01*
X35058766Y-41743214D01*
X34980125Y-41897558D01*
X34980123Y-41897561D01*
X34926598Y-42062293D01*
X34926597Y-42062297D01*
X34899500Y-42233385D01*
X32550500Y-42233385D01*
X32550500Y-42046535D01*
X32510130Y-41843580D01*
X32430941Y-41652402D01*
X32315977Y-41480345D01*
X32169655Y-41334023D01*
X32118920Y-41300123D01*
X31997597Y-41219058D01*
X31806418Y-41139869D01*
X31603467Y-41099500D01*
X31603465Y-41099500D01*
X31396535Y-41099500D01*
X31396532Y-41099500D01*
X31193581Y-41139869D01*
X31002402Y-41219058D01*
X30830348Y-41334020D01*
X30684020Y-41480348D01*
X30569058Y-41652402D01*
X30489869Y-41843581D01*
X30449500Y-42046532D01*
X19078439Y-42046532D01*
X19102206Y-42022765D01*
X19147585Y-41919991D01*
X19150500Y-41894865D01*
X19150499Y-40105136D01*
X19147585Y-40080009D01*
X19102206Y-39977235D01*
X19022765Y-39897794D01*
X18919991Y-39852415D01*
X18919990Y-39852414D01*
X18919988Y-39852414D01*
X18894868Y-39849500D01*
X17105139Y-39849500D01*
X17105136Y-39849501D01*
X17080009Y-39852414D01*
X16977235Y-39897794D01*
X16897794Y-39977235D01*
X16852414Y-40080011D01*
X16849500Y-40105130D01*
X500500Y-40105130D01*
X500500Y-38045297D01*
X5250000Y-38045297D01*
X5250000Y-38274702D01*
X5279942Y-38502133D01*
X5279942Y-38502138D01*
X5339315Y-38723718D01*
X5339319Y-38723731D01*
X5427101Y-38935658D01*
X5541808Y-39134337D01*
X5629081Y-39248073D01*
X6338778Y-38538375D01*
X6409670Y-38644472D01*
X6515528Y-38750330D01*
X6621621Y-38821219D01*
X5911924Y-39530917D01*
X6025662Y-39618191D01*
X6224341Y-39732898D01*
X6436268Y-39820680D01*
X6436281Y-39820684D01*
X6657863Y-39880057D01*
X6885297Y-39909999D01*
X6885300Y-39910000D01*
X7114700Y-39910000D01*
X7114702Y-39909999D01*
X7342133Y-39880057D01*
X7342138Y-39880057D01*
X7563718Y-39820684D01*
X7563731Y-39820680D01*
X7775658Y-39732898D01*
X7974332Y-39618194D01*
X8088074Y-39530917D01*
X7378377Y-38821220D01*
X7484472Y-38750330D01*
X7590330Y-38644472D01*
X7661220Y-38538377D01*
X8370917Y-39248074D01*
X8458194Y-39134332D01*
X8572898Y-38935658D01*
X8660680Y-38723731D01*
X8660684Y-38723718D01*
X8720057Y-38502138D01*
X8720057Y-38502133D01*
X8749999Y-38274702D01*
X8750000Y-38274700D01*
X8750000Y-38045300D01*
X8749999Y-38045297D01*
X8720057Y-37817866D01*
X8720057Y-37817861D01*
X8660684Y-37596281D01*
X8660680Y-37596268D01*
X8572898Y-37384341D01*
X8458191Y-37185662D01*
X8370916Y-37071924D01*
X7661219Y-37781621D01*
X7590330Y-37675528D01*
X7484472Y-37569670D01*
X7378376Y-37498778D01*
X8088074Y-36789081D01*
X7974337Y-36701808D01*
X7775658Y-36587101D01*
X7654769Y-36537028D01*
X7563731Y-36499319D01*
X7563718Y-36499315D01*
X7377620Y-36449450D01*
X16849500Y-36449450D01*
X16849500Y-36630549D01*
X16877828Y-36809406D01*
X16933788Y-36981637D01*
X17012738Y-37136586D01*
X17016004Y-37142994D01*
X17122447Y-37289501D01*
X17250499Y-37417553D01*
X17397006Y-37523996D01*
X17558361Y-37606211D01*
X17730591Y-37662171D01*
X17802136Y-37673502D01*
X17909451Y-37690500D01*
X18067361Y-37690500D01*
X18125552Y-37709407D01*
X18161516Y-37758907D01*
X18161516Y-37820093D01*
X18158825Y-37827386D01*
X18124500Y-37910252D01*
X18124499Y-37910255D01*
X18124499Y-37910256D01*
X18099500Y-38035931D01*
X18099500Y-38164069D01*
X18121506Y-38274700D01*
X18124499Y-38289742D01*
X18124500Y-38289747D01*
X18173534Y-38408125D01*
X18173538Y-38408133D01*
X18215213Y-38470503D01*
X18244724Y-38514669D01*
X18335331Y-38605276D01*
X18386418Y-38639411D01*
X18441866Y-38676461D01*
X18441870Y-38676463D01*
X18441873Y-38676465D01*
X18560256Y-38725501D01*
X18685931Y-38750500D01*
X18757745Y-38750500D01*
X18815936Y-38769407D01*
X18827748Y-38779496D01*
X19120503Y-39072250D01*
X19148281Y-39126767D01*
X19149500Y-39142254D01*
X19149500Y-39214069D01*
X19174499Y-39339742D01*
X19174500Y-39339747D01*
X19223534Y-39458125D01*
X19223538Y-39458133D01*
X19266365Y-39522226D01*
X19294724Y-39564669D01*
X19385331Y-39655276D01*
X19417224Y-39676586D01*
X19491866Y-39726461D01*
X19491870Y-39726463D01*
X19491873Y-39726465D01*
X19610256Y-39775501D01*
X19735931Y-39800500D01*
X19735932Y-39800500D01*
X19864068Y-39800500D01*
X19864069Y-39800500D01*
X19989744Y-39775501D01*
X20108127Y-39726465D01*
X20182784Y-39676581D01*
X34950000Y-39676581D01*
X34950000Y-39883418D01*
X34990349Y-40086272D01*
X35069501Y-40277361D01*
X35129699Y-40367455D01*
X35613628Y-39883525D01*
X35627259Y-39934394D01*
X35679920Y-40025606D01*
X35754394Y-40100080D01*
X35845606Y-40152741D01*
X35896471Y-40166370D01*
X35412543Y-40650299D01*
X35502638Y-40710498D01*
X35693727Y-40789650D01*
X35896581Y-40829999D01*
X35896586Y-40830000D01*
X36103414Y-40830000D01*
X36103418Y-40829999D01*
X36306272Y-40789650D01*
X36497360Y-40710498D01*
X36587455Y-40650299D01*
X36103526Y-40166370D01*
X36154394Y-40152741D01*
X36245606Y-40100080D01*
X36320080Y-40025606D01*
X36372741Y-39934394D01*
X36386370Y-39883526D01*
X36870299Y-40367455D01*
X36930498Y-40277360D01*
X37009650Y-40086272D01*
X37049999Y-39883418D01*
X37050000Y-39883413D01*
X37050000Y-39693385D01*
X42519500Y-39693385D01*
X42519500Y-39866614D01*
X42546597Y-40037702D01*
X42546598Y-40037706D01*
X42600123Y-40202438D01*
X42600125Y-40202441D01*
X42600126Y-40202444D01*
X42600127Y-40202445D01*
X42678768Y-40356788D01*
X42780586Y-40496928D01*
X42903072Y-40619414D01*
X43043212Y-40721232D01*
X43197555Y-40799873D01*
X43197557Y-40799873D01*
X43197558Y-40799874D01*
X43197561Y-40799876D01*
X43362293Y-40853401D01*
X43362297Y-40853402D01*
X43533386Y-40880500D01*
X43533389Y-40880500D01*
X43706614Y-40880500D01*
X43877702Y-40853402D01*
X43877706Y-40853401D01*
X44042438Y-40799876D01*
X44042440Y-40799874D01*
X44042445Y-40799873D01*
X44196788Y-40721232D01*
X44336928Y-40619414D01*
X44459414Y-40496928D01*
X44561232Y-40356788D01*
X44639873Y-40202445D01*
X44639874Y-40202440D01*
X44639876Y-40202438D01*
X44693401Y-40037706D01*
X44693402Y-40037702D01*
X44720500Y-39866614D01*
X44720500Y-39693385D01*
X44693402Y-39522297D01*
X44693401Y-39522293D01*
X44639876Y-39357561D01*
X44639874Y-39357558D01*
X44639873Y-39357557D01*
X44639873Y-39357555D01*
X44561232Y-39203212D01*
X44459414Y-39063072D01*
X44336928Y-38940586D01*
X44196788Y-38838768D01*
X44196787Y-38838767D01*
X44196785Y-38838766D01*
X44042441Y-38760125D01*
X44042438Y-38760123D01*
X43877706Y-38706598D01*
X43877702Y-38706597D01*
X43706614Y-38679500D01*
X43706611Y-38679500D01*
X43533389Y-38679500D01*
X43533386Y-38679500D01*
X43362297Y-38706597D01*
X43362293Y-38706598D01*
X43197561Y-38760123D01*
X43197558Y-38760125D01*
X43043214Y-38838766D01*
X42903073Y-38940585D01*
X42780585Y-39063073D01*
X42678766Y-39203214D01*
X42600125Y-39357558D01*
X42600123Y-39357561D01*
X42546598Y-39522293D01*
X42546597Y-39522297D01*
X42519500Y-39693385D01*
X37050000Y-39693385D01*
X37050000Y-39676586D01*
X37049999Y-39676581D01*
X37009650Y-39473727D01*
X36930498Y-39282638D01*
X36870299Y-39192543D01*
X36386370Y-39676471D01*
X36372741Y-39625606D01*
X36320080Y-39534394D01*
X36245606Y-39459920D01*
X36154394Y-39407259D01*
X36103525Y-39393628D01*
X36587455Y-38909699D01*
X36497361Y-38849501D01*
X36306272Y-38770349D01*
X36103418Y-38730000D01*
X35896581Y-38730000D01*
X35693727Y-38770349D01*
X35502638Y-38849501D01*
X35412543Y-38909699D01*
X35896473Y-39393629D01*
X35845606Y-39407259D01*
X35754394Y-39459920D01*
X35679920Y-39534394D01*
X35627259Y-39625606D01*
X35613629Y-39676473D01*
X35129699Y-39192543D01*
X35069501Y-39282638D01*
X34990349Y-39473727D01*
X34950000Y-39676581D01*
X20182784Y-39676581D01*
X20214669Y-39655276D01*
X20305276Y-39564669D01*
X20376465Y-39458127D01*
X20425501Y-39339744D01*
X20450500Y-39214069D01*
X20450500Y-39085931D01*
X20425501Y-38960256D01*
X20376465Y-38841873D01*
X20376463Y-38841870D01*
X20376461Y-38841866D01*
X20328674Y-38770349D01*
X20305276Y-38735331D01*
X20214669Y-38644724D01*
X20206718Y-38639411D01*
X20108136Y-38573540D01*
X20108125Y-38573534D01*
X19989747Y-38524500D01*
X19989745Y-38524499D01*
X19989744Y-38524499D01*
X19864069Y-38499500D01*
X19792254Y-38499500D01*
X19734063Y-38480593D01*
X19722250Y-38470503D01*
X19429496Y-38177748D01*
X19401719Y-38123232D01*
X19400500Y-38107745D01*
X19400500Y-38035932D01*
X19400500Y-38035931D01*
X19375501Y-37910256D01*
X19326465Y-37791873D01*
X19326463Y-37791870D01*
X19326461Y-37791866D01*
X19290041Y-37737361D01*
X19255276Y-37685331D01*
X19164669Y-37594724D01*
X19103982Y-37554174D01*
X19058133Y-37523538D01*
X19058125Y-37523534D01*
X18939747Y-37474500D01*
X18939734Y-37474496D01*
X18915221Y-37469620D01*
X18861838Y-37439723D01*
X18836223Y-37384157D01*
X18848161Y-37324148D01*
X18864532Y-37302521D01*
X18877553Y-37289501D01*
X18976447Y-37153385D01*
X34899500Y-37153385D01*
X34899500Y-37326614D01*
X34926597Y-37497702D01*
X34926598Y-37497706D01*
X34980123Y-37662438D01*
X34980125Y-37662441D01*
X35050216Y-37800005D01*
X35058768Y-37816788D01*
X35160586Y-37956928D01*
X35283072Y-38079414D01*
X35423212Y-38181232D01*
X35577555Y-38259873D01*
X35577557Y-38259873D01*
X35577558Y-38259874D01*
X35577561Y-38259876D01*
X35742293Y-38313401D01*
X35742297Y-38313402D01*
X35913386Y-38340500D01*
X35913389Y-38340500D01*
X36086614Y-38340500D01*
X36257702Y-38313402D01*
X36257706Y-38313401D01*
X36422438Y-38259876D01*
X36422440Y-38259874D01*
X36422445Y-38259873D01*
X36576788Y-38181232D01*
X36716928Y-38079414D01*
X36839414Y-37956928D01*
X36941232Y-37816788D01*
X37019873Y-37662445D01*
X37019874Y-37662440D01*
X37019876Y-37662438D01*
X37073401Y-37497706D01*
X37073402Y-37497702D01*
X37100500Y-37326614D01*
X37100500Y-37153386D01*
X37099521Y-37147203D01*
X37099521Y-37147202D01*
X37097839Y-37136581D01*
X42570000Y-37136581D01*
X42570000Y-37343418D01*
X42610349Y-37546272D01*
X42689501Y-37737361D01*
X42749699Y-37827455D01*
X43233628Y-37343525D01*
X43247259Y-37394394D01*
X43299920Y-37485606D01*
X43374394Y-37560080D01*
X43465606Y-37612741D01*
X43516471Y-37626370D01*
X43032543Y-38110299D01*
X43122638Y-38170498D01*
X43313727Y-38249650D01*
X43516581Y-38289999D01*
X43516586Y-38290000D01*
X43723414Y-38290000D01*
X43723418Y-38289999D01*
X43926272Y-38249650D01*
X44117360Y-38170498D01*
X44207455Y-38110299D01*
X43723526Y-37626370D01*
X43774394Y-37612741D01*
X43865606Y-37560080D01*
X43940080Y-37485606D01*
X43992741Y-37394394D01*
X44006370Y-37343526D01*
X44490299Y-37827455D01*
X44550498Y-37737360D01*
X44629650Y-37546272D01*
X44632206Y-37533424D01*
X86900000Y-37533424D01*
X86900000Y-37706575D01*
X86927084Y-37877579D01*
X86980588Y-38042248D01*
X87059194Y-38196522D01*
X87093463Y-38243691D01*
X87531979Y-37805174D01*
X87534075Y-37812993D01*
X87599901Y-37927007D01*
X87692993Y-38020099D01*
X87807007Y-38085925D01*
X87814822Y-38088019D01*
X87376307Y-38526535D01*
X87423476Y-38560804D01*
X87577751Y-38639411D01*
X87742420Y-38692915D01*
X87913425Y-38720000D01*
X88086575Y-38720000D01*
X88257579Y-38692915D01*
X88422248Y-38639411D01*
X88576524Y-38560804D01*
X88576530Y-38560800D01*
X88623691Y-38526535D01*
X88185175Y-38088019D01*
X88192993Y-38085925D01*
X88307007Y-38020099D01*
X88400099Y-37927007D01*
X88465925Y-37812993D01*
X88468019Y-37805175D01*
X88906535Y-38243691D01*
X88940800Y-38196530D01*
X88940804Y-38196524D01*
X89019411Y-38042248D01*
X89072915Y-37877579D01*
X89100000Y-37706575D01*
X89100000Y-37533424D01*
X89072915Y-37362420D01*
X89019411Y-37197751D01*
X88940804Y-37043476D01*
X88906535Y-36996307D01*
X88468019Y-37434822D01*
X88465925Y-37427007D01*
X88400099Y-37312993D01*
X88307007Y-37219901D01*
X88192993Y-37154075D01*
X88185174Y-37151979D01*
X88623691Y-36713463D01*
X88576522Y-36679194D01*
X88422248Y-36600588D01*
X88257579Y-36547084D01*
X88086575Y-36520000D01*
X87913425Y-36520000D01*
X87742420Y-36547084D01*
X87577751Y-36600588D01*
X87423473Y-36679196D01*
X87376307Y-36713463D01*
X87814824Y-37151980D01*
X87807007Y-37154075D01*
X87692993Y-37219901D01*
X87599901Y-37312993D01*
X87534075Y-37427007D01*
X87531980Y-37434824D01*
X87093463Y-36996307D01*
X87059196Y-37043473D01*
X86980588Y-37197751D01*
X86927084Y-37362420D01*
X86900000Y-37533424D01*
X44632206Y-37533424D01*
X44636820Y-37510225D01*
X44636820Y-37510224D01*
X44669999Y-37343417D01*
X44670000Y-37343413D01*
X44670000Y-37136586D01*
X44669999Y-37136581D01*
X44629650Y-36933727D01*
X44569735Y-36789081D01*
X44569734Y-36789079D01*
X44550499Y-36742640D01*
X44490299Y-36652543D01*
X44006370Y-37136471D01*
X43992741Y-37085606D01*
X43940080Y-36994394D01*
X43865606Y-36919920D01*
X43774394Y-36867259D01*
X43723525Y-36853628D01*
X44207455Y-36369699D01*
X44117361Y-36309501D01*
X43926272Y-36230349D01*
X43723418Y-36190000D01*
X43516581Y-36190000D01*
X43313727Y-36230349D01*
X43122638Y-36309501D01*
X43032543Y-36369699D01*
X43516473Y-36853629D01*
X43465606Y-36867259D01*
X43374394Y-36919920D01*
X43299920Y-36994394D01*
X43247259Y-37085606D01*
X43233629Y-37136473D01*
X42749699Y-36652543D01*
X42689501Y-36742638D01*
X42610349Y-36933727D01*
X42570000Y-37136581D01*
X37097839Y-37136581D01*
X37073402Y-36982298D01*
X37073401Y-36982293D01*
X37019876Y-36817561D01*
X37019874Y-36817558D01*
X37019873Y-36817557D01*
X37019873Y-36817555D01*
X36941232Y-36663212D01*
X36839414Y-36523072D01*
X36716928Y-36400586D01*
X36576788Y-36298768D01*
X36576787Y-36298767D01*
X36576785Y-36298766D01*
X36422441Y-36220125D01*
X36422438Y-36220123D01*
X36257706Y-36166598D01*
X36257702Y-36166597D01*
X36086614Y-36139500D01*
X36086611Y-36139500D01*
X35913389Y-36139500D01*
X35913386Y-36139500D01*
X35742297Y-36166597D01*
X35742293Y-36166598D01*
X35577561Y-36220123D01*
X35577558Y-36220125D01*
X35423214Y-36298766D01*
X35283073Y-36400585D01*
X35160585Y-36523073D01*
X35058766Y-36663214D01*
X34980125Y-36817558D01*
X34980123Y-36817561D01*
X34926598Y-36982293D01*
X34926597Y-36982297D01*
X34899500Y-37153385D01*
X18976447Y-37153385D01*
X18983996Y-37142994D01*
X19020208Y-37071924D01*
X19066208Y-36981646D01*
X19066210Y-36981640D01*
X19066211Y-36981639D01*
X19122171Y-36809409D01*
X19145326Y-36663214D01*
X19150500Y-36630549D01*
X19150500Y-36449450D01*
X19122171Y-36270593D01*
X19122171Y-36270591D01*
X19066211Y-36098361D01*
X18983996Y-35937006D01*
X18877553Y-35790499D01*
X18749501Y-35662447D01*
X18602994Y-35556004D01*
X18602993Y-35556003D01*
X18602991Y-35556002D01*
X18441637Y-35473788D01*
X18269406Y-35417828D01*
X18090549Y-35389500D01*
X18090546Y-35389500D01*
X17909454Y-35389500D01*
X17909451Y-35389500D01*
X17730593Y-35417828D01*
X17558362Y-35473788D01*
X17397008Y-35556002D01*
X17323752Y-35609225D01*
X17250499Y-35662447D01*
X17122447Y-35790499D01*
X17115181Y-35800500D01*
X17016002Y-35937008D01*
X16933788Y-36098362D01*
X16877828Y-36270593D01*
X16849500Y-36449450D01*
X7377620Y-36449450D01*
X7342136Y-36439942D01*
X7114702Y-36410000D01*
X6885297Y-36410000D01*
X6657866Y-36439942D01*
X6657861Y-36439942D01*
X6436281Y-36499315D01*
X6436268Y-36499319D01*
X6224341Y-36587101D01*
X6025662Y-36701808D01*
X5911924Y-36789081D01*
X6621622Y-37498779D01*
X6515528Y-37569670D01*
X6409670Y-37675528D01*
X6338779Y-37781622D01*
X5629081Y-37071924D01*
X5541808Y-37185662D01*
X5427101Y-37384341D01*
X5339319Y-37596268D01*
X5339315Y-37596281D01*
X5279942Y-37817861D01*
X5279942Y-37817866D01*
X5250000Y-38045297D01*
X500500Y-38045297D01*
X500500Y-32961987D01*
X5199500Y-32961987D01*
X5199500Y-33198012D01*
X5230306Y-33432006D01*
X5230306Y-33432011D01*
X5291393Y-33659992D01*
X5381713Y-33878044D01*
X5381716Y-33878049D01*
X5495714Y-34075500D01*
X5499729Y-34082453D01*
X5643402Y-34269692D01*
X5643404Y-34269694D01*
X5643408Y-34269699D01*
X5810301Y-34436592D01*
X5810305Y-34436595D01*
X5810307Y-34436597D01*
X5958748Y-34550499D01*
X5997550Y-34580273D01*
X6201951Y-34698284D01*
X6201952Y-34698284D01*
X6201955Y-34698286D01*
X6415191Y-34786611D01*
X6420007Y-34788606D01*
X6647986Y-34849693D01*
X6881989Y-34880500D01*
X6881990Y-34880500D01*
X7118010Y-34880500D01*
X7118011Y-34880500D01*
X7352014Y-34849693D01*
X7579993Y-34788606D01*
X7798049Y-34698284D01*
X8002450Y-34580273D01*
X8189699Y-34436592D01*
X8356592Y-34269699D01*
X8500273Y-34082450D01*
X8618284Y-33878049D01*
X8708606Y-33659993D01*
X8722828Y-33606914D01*
X8756150Y-33555601D01*
X8813271Y-33533673D01*
X8819968Y-33533549D01*
X11007766Y-33567207D01*
X11065657Y-33587007D01*
X11076245Y-33596191D01*
X11135330Y-33655276D01*
X11181207Y-33685930D01*
X11241865Y-33726461D01*
X11241869Y-33726463D01*
X11241872Y-33726465D01*
X11360255Y-33775501D01*
X11485930Y-33800500D01*
X11485931Y-33800500D01*
X11614067Y-33800500D01*
X11614068Y-33800500D01*
X11739743Y-33775501D01*
X11858126Y-33726465D01*
X11964668Y-33655276D01*
X12055275Y-33564669D01*
X12126464Y-33458127D01*
X12175500Y-33339744D01*
X12200499Y-33214069D01*
X12200499Y-33105130D01*
X16849500Y-33105130D01*
X16849500Y-34894860D01*
X16849501Y-34894863D01*
X16852414Y-34919990D01*
X16869066Y-34957702D01*
X16897794Y-35022765D01*
X16977235Y-35102206D01*
X17080009Y-35147585D01*
X17105135Y-35150500D01*
X18894864Y-35150499D01*
X18919991Y-35147585D01*
X19022765Y-35102206D01*
X19102206Y-35022765D01*
X19147585Y-34919991D01*
X19150500Y-34894865D01*
X19150500Y-34613385D01*
X34899500Y-34613385D01*
X34899500Y-34786614D01*
X34926597Y-34957702D01*
X34926598Y-34957706D01*
X34980123Y-35122438D01*
X34980125Y-35122441D01*
X34980126Y-35122444D01*
X34980127Y-35122445D01*
X35058768Y-35276788D01*
X35160586Y-35416928D01*
X35283072Y-35539414D01*
X35423212Y-35641232D01*
X35577555Y-35719873D01*
X35577557Y-35719873D01*
X35577558Y-35719874D01*
X35577561Y-35719876D01*
X35742293Y-35773401D01*
X35742297Y-35773402D01*
X35913386Y-35800500D01*
X35913389Y-35800500D01*
X36086614Y-35800500D01*
X36257702Y-35773402D01*
X36257706Y-35773401D01*
X36422438Y-35719876D01*
X36422440Y-35719874D01*
X36422445Y-35719873D01*
X36576788Y-35641232D01*
X36716928Y-35539414D01*
X36839414Y-35416928D01*
X36941232Y-35276788D01*
X37019873Y-35122445D01*
X37019874Y-35122440D01*
X37019876Y-35122438D01*
X37073401Y-34957706D01*
X37073402Y-34957702D01*
X37100500Y-34786614D01*
X37100500Y-34613385D01*
X42519500Y-34613385D01*
X42519500Y-34786614D01*
X42546597Y-34957702D01*
X42546598Y-34957706D01*
X42600123Y-35122438D01*
X42600125Y-35122441D01*
X42600126Y-35122444D01*
X42600127Y-35122445D01*
X42678768Y-35276788D01*
X42780586Y-35416928D01*
X42903072Y-35539414D01*
X43043212Y-35641232D01*
X43197555Y-35719873D01*
X43197557Y-35719873D01*
X43197558Y-35719874D01*
X43197561Y-35719876D01*
X43362293Y-35773401D01*
X43362297Y-35773402D01*
X43533386Y-35800500D01*
X43533389Y-35800500D01*
X43706614Y-35800500D01*
X43877702Y-35773402D01*
X43877706Y-35773401D01*
X44042438Y-35719876D01*
X44042440Y-35719874D01*
X44042445Y-35719873D01*
X44196788Y-35641232D01*
X44336928Y-35539414D01*
X44459414Y-35416928D01*
X44561232Y-35276788D01*
X44639873Y-35122445D01*
X44683086Y-34989450D01*
X86849500Y-34989450D01*
X86849500Y-35170549D01*
X86877828Y-35349406D01*
X86933788Y-35521637D01*
X87005535Y-35662449D01*
X87016004Y-35682994D01*
X87122447Y-35829501D01*
X87250499Y-35957553D01*
X87397006Y-36063996D01*
X87558361Y-36146211D01*
X87730591Y-36202171D01*
X87802136Y-36213502D01*
X87909451Y-36230500D01*
X87909454Y-36230500D01*
X88090549Y-36230500D01*
X88179977Y-36216335D01*
X88269409Y-36202171D01*
X88441639Y-36146211D01*
X88602994Y-36063996D01*
X88749501Y-35957553D01*
X88877553Y-35829501D01*
X88983996Y-35682994D01*
X89066211Y-35521639D01*
X89122171Y-35349409D01*
X89150500Y-35170546D01*
X89150500Y-34989454D01*
X89150500Y-34989450D01*
X89122171Y-34810593D01*
X89122171Y-34810591D01*
X89066211Y-34638361D01*
X88983996Y-34477006D01*
X88877553Y-34330499D01*
X88749501Y-34202447D01*
X88602994Y-34096004D01*
X88602993Y-34096003D01*
X88602991Y-34096002D01*
X88441637Y-34013788D01*
X88269406Y-33957828D01*
X88090549Y-33929500D01*
X88090546Y-33929500D01*
X87909454Y-33929500D01*
X87909451Y-33929500D01*
X87730593Y-33957828D01*
X87558362Y-34013788D01*
X87397008Y-34096002D01*
X87359557Y-34123212D01*
X87250499Y-34202447D01*
X87122447Y-34330499D01*
X87071589Y-34400499D01*
X87016002Y-34477008D01*
X86933788Y-34638362D01*
X86877828Y-34810593D01*
X86849500Y-34989450D01*
X44683086Y-34989450D01*
X44693402Y-34957701D01*
X44699375Y-34919990D01*
X44720500Y-34786614D01*
X44720500Y-34613385D01*
X44693402Y-34442297D01*
X44693401Y-34442293D01*
X44639876Y-34277561D01*
X44639874Y-34277558D01*
X44639873Y-34277557D01*
X44639873Y-34277555D01*
X44561232Y-34123212D01*
X44459414Y-33983072D01*
X44336928Y-33860586D01*
X44196788Y-33758768D01*
X44196787Y-33758767D01*
X44196785Y-33758766D01*
X44042441Y-33680125D01*
X44042438Y-33680123D01*
X43877706Y-33626598D01*
X43877702Y-33626597D01*
X43706614Y-33599500D01*
X43706611Y-33599500D01*
X43533389Y-33599500D01*
X43533386Y-33599500D01*
X43362297Y-33626597D01*
X43362293Y-33626598D01*
X43197561Y-33680123D01*
X43197558Y-33680125D01*
X43043214Y-33758766D01*
X42903073Y-33860585D01*
X42780585Y-33983073D01*
X42678766Y-34123214D01*
X42600125Y-34277558D01*
X42600123Y-34277561D01*
X42546598Y-34442293D01*
X42546597Y-34442297D01*
X42519500Y-34613385D01*
X37100500Y-34613385D01*
X37073402Y-34442297D01*
X37073401Y-34442293D01*
X37019876Y-34277561D01*
X37019874Y-34277558D01*
X37019873Y-34277557D01*
X37019873Y-34277555D01*
X36941232Y-34123212D01*
X36839414Y-33983072D01*
X36716928Y-33860586D01*
X36576788Y-33758768D01*
X36576787Y-33758767D01*
X36576785Y-33758766D01*
X36422441Y-33680125D01*
X36422438Y-33680123D01*
X36257706Y-33626598D01*
X36257702Y-33626597D01*
X36086614Y-33599500D01*
X36086611Y-33599500D01*
X35913389Y-33599500D01*
X35913386Y-33599500D01*
X35742297Y-33626597D01*
X35742293Y-33626598D01*
X35577561Y-33680123D01*
X35577558Y-33680125D01*
X35423214Y-33758766D01*
X35283073Y-33860585D01*
X35160585Y-33983073D01*
X35058766Y-34123214D01*
X34980125Y-34277558D01*
X34980123Y-34277561D01*
X34926598Y-34442293D01*
X34926597Y-34442297D01*
X34899500Y-34613385D01*
X19150500Y-34613385D01*
X19150499Y-33835931D01*
X22299500Y-33835931D01*
X22299500Y-33964069D01*
X22321665Y-34075499D01*
X22324499Y-34089742D01*
X22324500Y-34089747D01*
X22373534Y-34208125D01*
X22373538Y-34208133D01*
X22405036Y-34255272D01*
X22444724Y-34314669D01*
X22535331Y-34405276D01*
X22590731Y-34442293D01*
X22641866Y-34476461D01*
X22641870Y-34476463D01*
X22641873Y-34476465D01*
X22760256Y-34525501D01*
X22885931Y-34550500D01*
X22885932Y-34550500D01*
X23014068Y-34550500D01*
X23014069Y-34550500D01*
X23139744Y-34525501D01*
X23258127Y-34476465D01*
X23364669Y-34405276D01*
X23440448Y-34329497D01*
X23494964Y-34301719D01*
X23510452Y-34300500D01*
X24222982Y-34300500D01*
X24277983Y-34317184D01*
X24291872Y-34326465D01*
X24410255Y-34375501D01*
X24535930Y-34400500D01*
X24535931Y-34400500D01*
X24664067Y-34400500D01*
X24664068Y-34400500D01*
X24789743Y-34375501D01*
X24908126Y-34326465D01*
X25014668Y-34255276D01*
X25105275Y-34164669D01*
X25176464Y-34058127D01*
X25225500Y-33939744D01*
X25250499Y-33814069D01*
X25250499Y-33685931D01*
X25225500Y-33560256D01*
X25176464Y-33441873D01*
X25176462Y-33441870D01*
X25176460Y-33441866D01*
X25129944Y-33372251D01*
X25105275Y-33335331D01*
X25014668Y-33244724D01*
X24972225Y-33216365D01*
X24908132Y-33173538D01*
X24908124Y-33173534D01*
X24789746Y-33124500D01*
X24789744Y-33124499D01*
X24789743Y-33124499D01*
X24664068Y-33099500D01*
X24535930Y-33099500D01*
X24535929Y-33099500D01*
X24473092Y-33111999D01*
X24410255Y-33124499D01*
X24410254Y-33124499D01*
X24410251Y-33124500D01*
X24291872Y-33173534D01*
X24277984Y-33182815D01*
X24222982Y-33199500D01*
X23027524Y-33199500D01*
X22980854Y-33212005D01*
X22887512Y-33237016D01*
X22887506Y-33237019D01*
X22869512Y-33247408D01*
X22839330Y-33258768D01*
X22760261Y-33274497D01*
X22760257Y-33274498D01*
X22641874Y-33323534D01*
X22641866Y-33323538D01*
X22535331Y-33394724D01*
X22535327Y-33394727D01*
X22444727Y-33485327D01*
X22444724Y-33485331D01*
X22373538Y-33591866D01*
X22373534Y-33591874D01*
X22324500Y-33710252D01*
X22324499Y-33710255D01*
X22324499Y-33710256D01*
X22299500Y-33835931D01*
X19150499Y-33835931D01*
X19150499Y-33105136D01*
X19147585Y-33080009D01*
X19102206Y-32977235D01*
X19022765Y-32897794D01*
X18919991Y-32852415D01*
X18919990Y-32852414D01*
X18919988Y-32852414D01*
X18894868Y-32849500D01*
X17105139Y-32849500D01*
X17105136Y-32849501D01*
X17080009Y-32852414D01*
X16977235Y-32897794D01*
X16897794Y-32977235D01*
X16852414Y-33080011D01*
X16849500Y-33105130D01*
X12200499Y-33105130D01*
X12200499Y-33085931D01*
X12175500Y-32960256D01*
X12126464Y-32841873D01*
X12126462Y-32841870D01*
X12126460Y-32841866D01*
X12078776Y-32770503D01*
X12055275Y-32735331D01*
X11964668Y-32644724D01*
X11905630Y-32605276D01*
X11858132Y-32573538D01*
X11858124Y-32573534D01*
X11739746Y-32524500D01*
X11739744Y-32524499D01*
X11739743Y-32524499D01*
X11614068Y-32499500D01*
X11485930Y-32499500D01*
X11485929Y-32499500D01*
X11423092Y-32511999D01*
X11360255Y-32524499D01*
X11360254Y-32524499D01*
X11360251Y-32524500D01*
X11241873Y-32573534D01*
X11241864Y-32573538D01*
X11135330Y-32644722D01*
X11092722Y-32687330D01*
X11038205Y-32715106D01*
X11021197Y-32716313D01*
X8831986Y-32682634D01*
X8774093Y-32662834D01*
X8738895Y-32612787D01*
X8737882Y-32609269D01*
X8708606Y-32500007D01*
X8618284Y-32281951D01*
X8500273Y-32077550D01*
X8497077Y-32073385D01*
X34899500Y-32073385D01*
X34899500Y-32246614D01*
X34926597Y-32417702D01*
X34926598Y-32417706D01*
X34980123Y-32582438D01*
X34980125Y-32582441D01*
X35058025Y-32735331D01*
X35058768Y-32736788D01*
X35160586Y-32876928D01*
X35283072Y-32999414D01*
X35423212Y-33101232D01*
X35577555Y-33179873D01*
X35577557Y-33179873D01*
X35577558Y-33179874D01*
X35577561Y-33179876D01*
X35742293Y-33233401D01*
X35742297Y-33233402D01*
X35913386Y-33260500D01*
X35913389Y-33260500D01*
X36086614Y-33260500D01*
X36257702Y-33233402D01*
X36257706Y-33233401D01*
X36422438Y-33179876D01*
X36422440Y-33179874D01*
X36422445Y-33179873D01*
X36576788Y-33101232D01*
X36716928Y-32999414D01*
X36839414Y-32876928D01*
X36941232Y-32736788D01*
X37019873Y-32582445D01*
X37019874Y-32582440D01*
X37019876Y-32582438D01*
X37073401Y-32417706D01*
X37073402Y-32417702D01*
X37100500Y-32246614D01*
X37100500Y-32073387D01*
X37096250Y-32046555D01*
X37096250Y-32046554D01*
X37094567Y-32035931D01*
X39399500Y-32035931D01*
X39399500Y-32164069D01*
X39423042Y-32282420D01*
X39424499Y-32289742D01*
X39424500Y-32289747D01*
X39473534Y-32408125D01*
X39473538Y-32408133D01*
X39479933Y-32417703D01*
X39544724Y-32514669D01*
X39635331Y-32605276D01*
X39694366Y-32644722D01*
X39741866Y-32676461D01*
X39741870Y-32676463D01*
X39741873Y-32676465D01*
X39860256Y-32725501D01*
X39985931Y-32750500D01*
X40057744Y-32750500D01*
X40115935Y-32769407D01*
X40127748Y-32779496D01*
X40720504Y-33372251D01*
X40748281Y-33426768D01*
X40749500Y-33442255D01*
X40749500Y-33514068D01*
X40771884Y-33626598D01*
X40774499Y-33639741D01*
X40774500Y-33639746D01*
X40823534Y-33758124D01*
X40823538Y-33758132D01*
X40860915Y-33814069D01*
X40894724Y-33864668D01*
X40985331Y-33955275D01*
X41026934Y-33983073D01*
X41091866Y-34026460D01*
X41091870Y-34026462D01*
X41091873Y-34026464D01*
X41210256Y-34075500D01*
X41335931Y-34100499D01*
X41335932Y-34100499D01*
X41464068Y-34100499D01*
X41464069Y-34100499D01*
X41589744Y-34075500D01*
X41708127Y-34026464D01*
X41814669Y-33955275D01*
X41905276Y-33864668D01*
X41976465Y-33758126D01*
X42025501Y-33639743D01*
X42050500Y-33514068D01*
X42050500Y-33385930D01*
X42025501Y-33260255D01*
X41976465Y-33141872D01*
X41976463Y-33141869D01*
X41976461Y-33141865D01*
X41935131Y-33080011D01*
X41905276Y-33035330D01*
X41814669Y-32944723D01*
X41744435Y-32897794D01*
X41708133Y-32873537D01*
X41708125Y-32873533D01*
X41589747Y-32824499D01*
X41589745Y-32824498D01*
X41589744Y-32824498D01*
X41464069Y-32799499D01*
X41392256Y-32799499D01*
X41334065Y-32780592D01*
X41322252Y-32770503D01*
X40729496Y-32177747D01*
X40725869Y-32170629D01*
X40719407Y-32165934D01*
X40712243Y-32143885D01*
X40701719Y-32123230D01*
X40700500Y-32107743D01*
X40700500Y-32073385D01*
X42519500Y-32073385D01*
X42519500Y-32246614D01*
X42546597Y-32417702D01*
X42546598Y-32417706D01*
X42600123Y-32582438D01*
X42600125Y-32582441D01*
X42678025Y-32735331D01*
X42678768Y-32736788D01*
X42780586Y-32876928D01*
X42903072Y-32999414D01*
X43043212Y-33101232D01*
X43197555Y-33179873D01*
X43197557Y-33179873D01*
X43197558Y-33179874D01*
X43197561Y-33179876D01*
X43362293Y-33233401D01*
X43362297Y-33233402D01*
X43533386Y-33260500D01*
X43533389Y-33260500D01*
X43706614Y-33260500D01*
X43877702Y-33233402D01*
X43877706Y-33233401D01*
X44042438Y-33179876D01*
X44042440Y-33179874D01*
X44042445Y-33179873D01*
X44196788Y-33101232D01*
X44336928Y-32999414D01*
X44459414Y-32876928D01*
X44561232Y-32736788D01*
X44639873Y-32582445D01*
X44639874Y-32582440D01*
X44639876Y-32582438D01*
X44681796Y-32453424D01*
X86900000Y-32453424D01*
X86900000Y-32626575D01*
X86927084Y-32797579D01*
X86980588Y-32962248D01*
X87059194Y-33116522D01*
X87093463Y-33163691D01*
X87531979Y-32725174D01*
X87534075Y-32732993D01*
X87599901Y-32847007D01*
X87692993Y-32940099D01*
X87807007Y-33005925D01*
X87814822Y-33008019D01*
X87376307Y-33446535D01*
X87423476Y-33480804D01*
X87577751Y-33559411D01*
X87742420Y-33612915D01*
X87913425Y-33640000D01*
X88086575Y-33640000D01*
X88257579Y-33612915D01*
X88422248Y-33559411D01*
X88576524Y-33480804D01*
X88576530Y-33480800D01*
X88623691Y-33446535D01*
X88185175Y-33008019D01*
X88192993Y-33005925D01*
X88307007Y-32940099D01*
X88400099Y-32847007D01*
X88465925Y-32732993D01*
X88468019Y-32725175D01*
X88906535Y-33163691D01*
X88940800Y-33116530D01*
X88940804Y-33116524D01*
X89019411Y-32962248D01*
X89072915Y-32797579D01*
X89100000Y-32626575D01*
X89100000Y-32453424D01*
X89072915Y-32282420D01*
X89019411Y-32117751D01*
X88940804Y-31963476D01*
X88906535Y-31916307D01*
X88468019Y-32354822D01*
X88465925Y-32347007D01*
X88400099Y-32232993D01*
X88307007Y-32139901D01*
X88192993Y-32074075D01*
X88185174Y-32071979D01*
X88623691Y-31633463D01*
X88576522Y-31599194D01*
X88422248Y-31520588D01*
X88257579Y-31467084D01*
X88086575Y-31440000D01*
X87913425Y-31440000D01*
X87742420Y-31467084D01*
X87577751Y-31520588D01*
X87423473Y-31599196D01*
X87376307Y-31633463D01*
X87814824Y-32071980D01*
X87807007Y-32074075D01*
X87692993Y-32139901D01*
X87599901Y-32232993D01*
X87534075Y-32347007D01*
X87531980Y-32354824D01*
X87093463Y-31916307D01*
X87059196Y-31963473D01*
X86980588Y-32117751D01*
X86927084Y-32282420D01*
X86900000Y-32453424D01*
X44681796Y-32453424D01*
X44692999Y-32418945D01*
X44693401Y-32417703D01*
X44693402Y-32417702D01*
X44720500Y-32246614D01*
X44720500Y-32073385D01*
X44693402Y-31902297D01*
X44693401Y-31902293D01*
X44639876Y-31737561D01*
X44639872Y-31737552D01*
X44628963Y-31716141D01*
X44628962Y-31716140D01*
X44561233Y-31583214D01*
X44517876Y-31523538D01*
X44459414Y-31443072D01*
X44336928Y-31320586D01*
X44196788Y-31218768D01*
X44196787Y-31218767D01*
X44196785Y-31218766D01*
X44042441Y-31140125D01*
X44042438Y-31140123D01*
X43877706Y-31086598D01*
X43877702Y-31086597D01*
X43706614Y-31059500D01*
X43706611Y-31059500D01*
X43533389Y-31059500D01*
X43533386Y-31059500D01*
X43362297Y-31086597D01*
X43362293Y-31086598D01*
X43197561Y-31140123D01*
X43197558Y-31140125D01*
X43043214Y-31218766D01*
X42903073Y-31320585D01*
X42780585Y-31443073D01*
X42678766Y-31583214D01*
X42600125Y-31737558D01*
X42600123Y-31737561D01*
X42546598Y-31902293D01*
X42546597Y-31902297D01*
X42519500Y-32073385D01*
X40700500Y-32073385D01*
X40700500Y-32035932D01*
X40700500Y-32035931D01*
X40675501Y-31910256D01*
X40626465Y-31791873D01*
X40626463Y-31791870D01*
X40626461Y-31791866D01*
X40580714Y-31723402D01*
X40555276Y-31685331D01*
X40464669Y-31594724D01*
X40422226Y-31566365D01*
X40358133Y-31523538D01*
X40358125Y-31523534D01*
X40239747Y-31474500D01*
X40239745Y-31474499D01*
X40239744Y-31474499D01*
X40114069Y-31449500D01*
X39985931Y-31449500D01*
X39985930Y-31449500D01*
X39924534Y-31461713D01*
X39860256Y-31474499D01*
X39860255Y-31474499D01*
X39860252Y-31474500D01*
X39741874Y-31523534D01*
X39741866Y-31523538D01*
X39635331Y-31594724D01*
X39635327Y-31594727D01*
X39544727Y-31685327D01*
X39544724Y-31685331D01*
X39473538Y-31791866D01*
X39473534Y-31791874D01*
X39424500Y-31910252D01*
X39424499Y-31910255D01*
X39424499Y-31910256D01*
X39399500Y-32035931D01*
X37094567Y-32035931D01*
X37073402Y-31902297D01*
X37073401Y-31902293D01*
X37019876Y-31737561D01*
X37019874Y-31737558D01*
X37019873Y-31737557D01*
X37019873Y-31737555D01*
X36941232Y-31583212D01*
X36839414Y-31443072D01*
X36716928Y-31320586D01*
X36576788Y-31218768D01*
X36576787Y-31218767D01*
X36576785Y-31218766D01*
X36422441Y-31140125D01*
X36422438Y-31140123D01*
X36257706Y-31086598D01*
X36257702Y-31086597D01*
X36086614Y-31059500D01*
X36086611Y-31059500D01*
X35913389Y-31059500D01*
X35913386Y-31059500D01*
X35742297Y-31086597D01*
X35742293Y-31086598D01*
X35577561Y-31140123D01*
X35577558Y-31140125D01*
X35423214Y-31218766D01*
X35283073Y-31320585D01*
X35160585Y-31443073D01*
X35058766Y-31583214D01*
X34980125Y-31737558D01*
X34980123Y-31737561D01*
X34926598Y-31902293D01*
X34926597Y-31902297D01*
X34899500Y-32073385D01*
X8497077Y-32073385D01*
X8471460Y-32040000D01*
X8356597Y-31890307D01*
X8356595Y-31890305D01*
X8356592Y-31890301D01*
X8189699Y-31723408D01*
X8189694Y-31723404D01*
X8189692Y-31723402D01*
X8002453Y-31579729D01*
X7905122Y-31523535D01*
X7798049Y-31461716D01*
X7798044Y-31461713D01*
X7579992Y-31371393D01*
X7424277Y-31329670D01*
X7352014Y-31310307D01*
X7352011Y-31310306D01*
X7352009Y-31310306D01*
X7118012Y-31279500D01*
X7118011Y-31279500D01*
X6881989Y-31279500D01*
X6881987Y-31279500D01*
X6647993Y-31310306D01*
X6647988Y-31310306D01*
X6420007Y-31371393D01*
X6201955Y-31461713D01*
X5997546Y-31579729D01*
X5810307Y-31723402D01*
X5643402Y-31890307D01*
X5499729Y-32077546D01*
X5381713Y-32281955D01*
X5291393Y-32500007D01*
X5230306Y-32727988D01*
X5230306Y-32727993D01*
X5199500Y-32961987D01*
X500500Y-32961987D01*
X500500Y-26455130D01*
X5199500Y-26455130D01*
X5199500Y-29544860D01*
X5199501Y-29544863D01*
X5202414Y-29569990D01*
X5227756Y-29627385D01*
X5247794Y-29672765D01*
X5327235Y-29752206D01*
X5430009Y-29797585D01*
X5455135Y-29800500D01*
X8544864Y-29800499D01*
X8569991Y-29797585D01*
X8672765Y-29752206D01*
X8752206Y-29672765D01*
X8797585Y-29569991D01*
X8800500Y-29544865D01*
X8800500Y-29533385D01*
X34899500Y-29533385D01*
X34899500Y-29706614D01*
X34926597Y-29877702D01*
X34926598Y-29877706D01*
X34980123Y-30042438D01*
X34980125Y-30042441D01*
X34980126Y-30042444D01*
X34980127Y-30042445D01*
X35058768Y-30196788D01*
X35160586Y-30336928D01*
X35283072Y-30459414D01*
X35423212Y-30561232D01*
X35577555Y-30639873D01*
X35577557Y-30639873D01*
X35577558Y-30639874D01*
X35577561Y-30639876D01*
X35742293Y-30693401D01*
X35742297Y-30693402D01*
X35913386Y-30720500D01*
X35913389Y-30720500D01*
X36086614Y-30720500D01*
X36257702Y-30693402D01*
X36257706Y-30693401D01*
X36422438Y-30639876D01*
X36422440Y-30639874D01*
X36422445Y-30639873D01*
X36576788Y-30561232D01*
X36716928Y-30459414D01*
X36839414Y-30336928D01*
X36941232Y-30196788D01*
X37019873Y-30042445D01*
X37019874Y-30042440D01*
X37019876Y-30042438D01*
X37073401Y-29877706D01*
X37073402Y-29877702D01*
X37100500Y-29706614D01*
X37100500Y-29533385D01*
X42519500Y-29533385D01*
X42519500Y-29706614D01*
X42546597Y-29877702D01*
X42546598Y-29877706D01*
X42600123Y-30042438D01*
X42600125Y-30042441D01*
X42600126Y-30042444D01*
X42600127Y-30042445D01*
X42678768Y-30196788D01*
X42780586Y-30336928D01*
X42903072Y-30459414D01*
X43043212Y-30561232D01*
X43197555Y-30639873D01*
X43197557Y-30639873D01*
X43197558Y-30639874D01*
X43197561Y-30639876D01*
X43362293Y-30693401D01*
X43362297Y-30693402D01*
X43533386Y-30720500D01*
X43533389Y-30720500D01*
X43706614Y-30720500D01*
X43877702Y-30693402D01*
X43877706Y-30693401D01*
X44042438Y-30639876D01*
X44042440Y-30639874D01*
X44042445Y-30639873D01*
X44196788Y-30561232D01*
X44336928Y-30459414D01*
X44459414Y-30336928D01*
X44561232Y-30196788D01*
X44639873Y-30042445D01*
X44639874Y-30042440D01*
X44639876Y-30042438D01*
X44693401Y-29877706D01*
X44693402Y-29877702D01*
X44720500Y-29706614D01*
X44720500Y-29533385D01*
X44693402Y-29362297D01*
X44693401Y-29362293D01*
X44639876Y-29197561D01*
X44639872Y-29197552D01*
X44614228Y-29147222D01*
X44614227Y-29147221D01*
X44592781Y-29105130D01*
X86849500Y-29105130D01*
X86849500Y-30894860D01*
X86849501Y-30894863D01*
X86852414Y-30919990D01*
X86877756Y-30977385D01*
X86897794Y-31022765D01*
X86977235Y-31102206D01*
X87080009Y-31147585D01*
X87105135Y-31150500D01*
X88894864Y-31150499D01*
X88919991Y-31147585D01*
X89022765Y-31102206D01*
X89102206Y-31022765D01*
X89147585Y-30919991D01*
X89150500Y-30894865D01*
X89150499Y-29105136D01*
X89147585Y-29080009D01*
X89102206Y-28977235D01*
X89022765Y-28897794D01*
X88919991Y-28852415D01*
X88919990Y-28852414D01*
X88919988Y-28852414D01*
X88894868Y-28849500D01*
X87105139Y-28849500D01*
X87105136Y-28849501D01*
X87080009Y-28852414D01*
X86977235Y-28897794D01*
X86897794Y-28977235D01*
X86852414Y-29080011D01*
X86849500Y-29105130D01*
X44592781Y-29105130D01*
X44561233Y-29043214D01*
X44561232Y-29043212D01*
X44459414Y-28903072D01*
X44336928Y-28780586D01*
X44196788Y-28678768D01*
X44196787Y-28678767D01*
X44196785Y-28678766D01*
X44042441Y-28600125D01*
X44042438Y-28600123D01*
X43877706Y-28546598D01*
X43877702Y-28546597D01*
X43706614Y-28519500D01*
X43706611Y-28519500D01*
X43533389Y-28519500D01*
X43533386Y-28519500D01*
X43362297Y-28546597D01*
X43362293Y-28546598D01*
X43197561Y-28600123D01*
X43197558Y-28600125D01*
X43043214Y-28678766D01*
X42903073Y-28780585D01*
X42780585Y-28903073D01*
X42678766Y-29043214D01*
X42600125Y-29197558D01*
X42600123Y-29197561D01*
X42546598Y-29362293D01*
X42546597Y-29362297D01*
X42519500Y-29533385D01*
X37100500Y-29533385D01*
X37073402Y-29362297D01*
X37073401Y-29362293D01*
X37019876Y-29197561D01*
X37019874Y-29197558D01*
X37019873Y-29197557D01*
X37019873Y-29197555D01*
X36941232Y-29043212D01*
X36839414Y-28903072D01*
X36716928Y-28780586D01*
X36576788Y-28678768D01*
X36576787Y-28678767D01*
X36576785Y-28678766D01*
X36422441Y-28600125D01*
X36422438Y-28600123D01*
X36257706Y-28546598D01*
X36257702Y-28546597D01*
X36086614Y-28519500D01*
X36086611Y-28519500D01*
X35913389Y-28519500D01*
X35913386Y-28519500D01*
X35742297Y-28546597D01*
X35742293Y-28546598D01*
X35577561Y-28600123D01*
X35577558Y-28600125D01*
X35423214Y-28678766D01*
X35283073Y-28780585D01*
X35160585Y-28903073D01*
X35058766Y-29043214D01*
X34980125Y-29197558D01*
X34980123Y-29197561D01*
X34926598Y-29362293D01*
X34926597Y-29362297D01*
X34899500Y-29533385D01*
X8800500Y-29533385D01*
X8800499Y-26993385D01*
X34899500Y-26993385D01*
X34899500Y-27166614D01*
X34926597Y-27337702D01*
X34926598Y-27337706D01*
X34980123Y-27502438D01*
X34980125Y-27502441D01*
X34980126Y-27502444D01*
X34980127Y-27502445D01*
X35058768Y-27656788D01*
X35160586Y-27796928D01*
X35283072Y-27919414D01*
X35423212Y-28021232D01*
X35577555Y-28099873D01*
X35577557Y-28099873D01*
X35577558Y-28099874D01*
X35577561Y-28099876D01*
X35742293Y-28153401D01*
X35742297Y-28153402D01*
X35913386Y-28180500D01*
X35913389Y-28180500D01*
X36086614Y-28180500D01*
X36257702Y-28153402D01*
X36257706Y-28153401D01*
X36422438Y-28099876D01*
X36422440Y-28099874D01*
X36422445Y-28099873D01*
X36576788Y-28021232D01*
X36716928Y-27919414D01*
X36839414Y-27796928D01*
X36941232Y-27656788D01*
X37019873Y-27502445D01*
X37019874Y-27502440D01*
X37019876Y-27502438D01*
X37073401Y-27337706D01*
X37073402Y-27337702D01*
X37100500Y-27166614D01*
X37100500Y-26993385D01*
X42519500Y-26993385D01*
X42519500Y-27166614D01*
X42546597Y-27337702D01*
X42546598Y-27337706D01*
X42600123Y-27502438D01*
X42600125Y-27502441D01*
X42600126Y-27502444D01*
X42600127Y-27502445D01*
X42678768Y-27656788D01*
X42780586Y-27796928D01*
X42903072Y-27919414D01*
X43043212Y-28021232D01*
X43197555Y-28099873D01*
X43197557Y-28099873D01*
X43197558Y-28099874D01*
X43197561Y-28099876D01*
X43362293Y-28153401D01*
X43362297Y-28153402D01*
X43533386Y-28180500D01*
X43533389Y-28180500D01*
X43706614Y-28180500D01*
X43877702Y-28153402D01*
X43877706Y-28153401D01*
X44042438Y-28099876D01*
X44042440Y-28099874D01*
X44042445Y-28099873D01*
X44196788Y-28021232D01*
X44336928Y-27919414D01*
X44459414Y-27796928D01*
X44561232Y-27656788D01*
X44639873Y-27502445D01*
X44639874Y-27502440D01*
X44639876Y-27502438D01*
X44693401Y-27337706D01*
X44693402Y-27337702D01*
X44720500Y-27166614D01*
X44720500Y-26993385D01*
X44693402Y-26822297D01*
X44693401Y-26822293D01*
X44639876Y-26657561D01*
X44639874Y-26657558D01*
X44639873Y-26657557D01*
X44639873Y-26657555D01*
X44561232Y-26503212D01*
X44459414Y-26363072D01*
X44336928Y-26240586D01*
X44196788Y-26138768D01*
X44196787Y-26138767D01*
X44196785Y-26138766D01*
X44042441Y-26060125D01*
X44042438Y-26060123D01*
X43877706Y-26006598D01*
X43877702Y-26006597D01*
X43706614Y-25979500D01*
X43706611Y-25979500D01*
X43533389Y-25979500D01*
X43533386Y-25979500D01*
X43362297Y-26006597D01*
X43362293Y-26006598D01*
X43197561Y-26060123D01*
X43197558Y-26060125D01*
X43043214Y-26138766D01*
X42903073Y-26240585D01*
X42780585Y-26363073D01*
X42678766Y-26503214D01*
X42600125Y-26657558D01*
X42600123Y-26657561D01*
X42546598Y-26822293D01*
X42546597Y-26822297D01*
X42519500Y-26993385D01*
X37100500Y-26993385D01*
X37073402Y-26822297D01*
X37073401Y-26822293D01*
X37019876Y-26657561D01*
X37019874Y-26657558D01*
X37019873Y-26657557D01*
X37019873Y-26657555D01*
X36941232Y-26503212D01*
X36839414Y-26363072D01*
X36716928Y-26240586D01*
X36576788Y-26138768D01*
X36576787Y-26138767D01*
X36576785Y-26138766D01*
X36422441Y-26060125D01*
X36422438Y-26060123D01*
X36257706Y-26006598D01*
X36257702Y-26006597D01*
X36086614Y-25979500D01*
X36086611Y-25979500D01*
X35913389Y-25979500D01*
X35913386Y-25979500D01*
X35742297Y-26006597D01*
X35742293Y-26006598D01*
X35577561Y-26060123D01*
X35577558Y-26060125D01*
X35423214Y-26138766D01*
X35283073Y-26240585D01*
X35160585Y-26363073D01*
X35058766Y-26503214D01*
X34980125Y-26657558D01*
X34980123Y-26657561D01*
X34926598Y-26822293D01*
X34926597Y-26822297D01*
X34899500Y-26993385D01*
X8800499Y-26993385D01*
X8800499Y-26455136D01*
X8797585Y-26430009D01*
X8752206Y-26327235D01*
X8672765Y-26247794D01*
X8569991Y-26202415D01*
X8569990Y-26202414D01*
X8569988Y-26202414D01*
X8544868Y-26199500D01*
X5455139Y-26199500D01*
X5455136Y-26199501D01*
X5430009Y-26202414D01*
X5327235Y-26247794D01*
X5247794Y-26327235D01*
X5202414Y-26430011D01*
X5199500Y-26455130D01*
X500500Y-26455130D01*
X500500Y-21835931D01*
X30549500Y-21835931D01*
X30549500Y-21964069D01*
X30573876Y-22086614D01*
X30574499Y-22089742D01*
X30574500Y-22089747D01*
X30623534Y-22208125D01*
X30623538Y-22208133D01*
X30660069Y-22262804D01*
X30694724Y-22314669D01*
X30785331Y-22405276D01*
X30844369Y-22444724D01*
X30891866Y-22476461D01*
X30891870Y-22476463D01*
X30891873Y-22476465D01*
X31010256Y-22525501D01*
X31135931Y-22550500D01*
X31135932Y-22550500D01*
X31264068Y-22550500D01*
X31264069Y-22550500D01*
X31389744Y-22525501D01*
X31508127Y-22476465D01*
X31614669Y-22405276D01*
X31665449Y-22354496D01*
X31719966Y-22326719D01*
X31735453Y-22325500D01*
X34800500Y-22325500D01*
X34858691Y-22344407D01*
X34894655Y-22393907D01*
X34899500Y-22424500D01*
X34899500Y-22593106D01*
X34910123Y-22681565D01*
X34965637Y-22822339D01*
X34965638Y-22822341D01*
X34965639Y-22822342D01*
X35057078Y-22942922D01*
X35177658Y-23034361D01*
X35177659Y-23034361D01*
X35177660Y-23034362D01*
X35248047Y-23062119D01*
X35318436Y-23089877D01*
X35406898Y-23100500D01*
X36192094Y-23100500D01*
X36214091Y-23107647D01*
X36236940Y-23111240D01*
X36242009Y-23116718D01*
X36250285Y-23119407D01*
X36280253Y-23154456D01*
X36282048Y-23157970D01*
X36323535Y-23258127D01*
X36364706Y-23319743D01*
X36367339Y-23324897D01*
X36371292Y-23349676D01*
X36378104Y-23373827D01*
X36376038Y-23379425D01*
X36376979Y-23385318D01*
X36365612Y-23407688D01*
X36356927Y-23431231D01*
X36351964Y-23434546D01*
X36349262Y-23439866D01*
X36326916Y-23451283D01*
X36306053Y-23465224D01*
X36299375Y-23465355D01*
X36294777Y-23467705D01*
X36282006Y-23465696D01*
X36261718Y-23466096D01*
X36261543Y-23467206D01*
X36086614Y-23439500D01*
X36086611Y-23439500D01*
X35913389Y-23439500D01*
X35913386Y-23439500D01*
X35742297Y-23466597D01*
X35742293Y-23466598D01*
X35577561Y-23520123D01*
X35577558Y-23520125D01*
X35423214Y-23598766D01*
X35283073Y-23700585D01*
X35160585Y-23823073D01*
X35058766Y-23963214D01*
X34980125Y-24117558D01*
X34980123Y-24117561D01*
X34926598Y-24282293D01*
X34926597Y-24282297D01*
X34899500Y-24453385D01*
X34899500Y-24626614D01*
X34926597Y-24797702D01*
X34926598Y-24797706D01*
X34980123Y-24962438D01*
X34980125Y-24962441D01*
X34980126Y-24962444D01*
X34980127Y-24962445D01*
X35058768Y-25116788D01*
X35160586Y-25256928D01*
X35283072Y-25379414D01*
X35423212Y-25481232D01*
X35577555Y-25559873D01*
X35577557Y-25559873D01*
X35577558Y-25559874D01*
X35577561Y-25559876D01*
X35742293Y-25613401D01*
X35742297Y-25613402D01*
X35913386Y-25640500D01*
X35913389Y-25640500D01*
X36086614Y-25640500D01*
X36257702Y-25613402D01*
X36257706Y-25613401D01*
X36422438Y-25559876D01*
X36422440Y-25559874D01*
X36422445Y-25559873D01*
X36576788Y-25481232D01*
X36716928Y-25379414D01*
X36839414Y-25256928D01*
X36941232Y-25116788D01*
X37019873Y-24962445D01*
X37019874Y-24962440D01*
X37019876Y-24962438D01*
X37073401Y-24797706D01*
X37073402Y-24797702D01*
X37100500Y-24626614D01*
X37100500Y-24453385D01*
X42519500Y-24453385D01*
X42519500Y-24626614D01*
X42546597Y-24797702D01*
X42546598Y-24797706D01*
X42600123Y-24962438D01*
X42600125Y-24962441D01*
X42600126Y-24962444D01*
X42600127Y-24962445D01*
X42678768Y-25116788D01*
X42780586Y-25256928D01*
X42903072Y-25379414D01*
X43043212Y-25481232D01*
X43197555Y-25559873D01*
X43197557Y-25559873D01*
X43197558Y-25559874D01*
X43197561Y-25559876D01*
X43362293Y-25613401D01*
X43362297Y-25613402D01*
X43533386Y-25640500D01*
X43533389Y-25640500D01*
X43706614Y-25640500D01*
X43877702Y-25613402D01*
X43877706Y-25613401D01*
X44042438Y-25559876D01*
X44042440Y-25559874D01*
X44042445Y-25559873D01*
X44196788Y-25481232D01*
X44336928Y-25379414D01*
X44459414Y-25256928D01*
X44561232Y-25116788D01*
X44639873Y-24962445D01*
X44639874Y-24962440D01*
X44639876Y-24962438D01*
X44693401Y-24797706D01*
X44693402Y-24797702D01*
X44720500Y-24626614D01*
X44720500Y-24453385D01*
X44693402Y-24282297D01*
X44693401Y-24282293D01*
X44639876Y-24117561D01*
X44639874Y-24117558D01*
X44639873Y-24117557D01*
X44639873Y-24117555D01*
X44561232Y-23963212D01*
X44459414Y-23823072D01*
X44336928Y-23700586D01*
X44196788Y-23598768D01*
X44196787Y-23598767D01*
X44196785Y-23598766D01*
X44042441Y-23520125D01*
X44042438Y-23520123D01*
X43877706Y-23466598D01*
X43877702Y-23466597D01*
X43706614Y-23439500D01*
X43706611Y-23439500D01*
X43533389Y-23439500D01*
X43533386Y-23439500D01*
X43362297Y-23466597D01*
X43362293Y-23466598D01*
X43197561Y-23520123D01*
X43197558Y-23520125D01*
X43043214Y-23598766D01*
X42903073Y-23700585D01*
X42780585Y-23823073D01*
X42678766Y-23963214D01*
X42600125Y-24117558D01*
X42600123Y-24117561D01*
X42546598Y-24282293D01*
X42546597Y-24282297D01*
X42519500Y-24453385D01*
X37100500Y-24453385D01*
X37073402Y-24282297D01*
X37073401Y-24282293D01*
X37019876Y-24117561D01*
X37019874Y-24117558D01*
X37019873Y-24117557D01*
X37019873Y-24117555D01*
X36941232Y-23963212D01*
X36839414Y-23823072D01*
X36785843Y-23769501D01*
X36758068Y-23714987D01*
X36767639Y-23654555D01*
X36810904Y-23611290D01*
X36855849Y-23600500D01*
X36964068Y-23600500D01*
X36964069Y-23600500D01*
X37089744Y-23575501D01*
X37208127Y-23526465D01*
X37314669Y-23455276D01*
X37405276Y-23364669D01*
X37476465Y-23258127D01*
X37525501Y-23139744D01*
X37550500Y-23014069D01*
X37550500Y-22885931D01*
X37525501Y-22760256D01*
X37476465Y-22641873D01*
X37476463Y-22641870D01*
X37476461Y-22641866D01*
X37440104Y-22587455D01*
X37405276Y-22535331D01*
X37314669Y-22444724D01*
X37255631Y-22405276D01*
X37208133Y-22373538D01*
X37208128Y-22373535D01*
X37161613Y-22354268D01*
X37115088Y-22314530D01*
X37100500Y-22262804D01*
X37100500Y-21913385D01*
X42519500Y-21913385D01*
X42519500Y-22086614D01*
X42546597Y-22257702D01*
X42546598Y-22257706D01*
X42600123Y-22422438D01*
X42600125Y-22422441D01*
X42665373Y-22550500D01*
X42678768Y-22576788D01*
X42780586Y-22716928D01*
X42903072Y-22839414D01*
X43043212Y-22941232D01*
X43197555Y-23019873D01*
X43197557Y-23019873D01*
X43197558Y-23019874D01*
X43197561Y-23019876D01*
X43362293Y-23073401D01*
X43362297Y-23073402D01*
X43533386Y-23100500D01*
X43533389Y-23100500D01*
X43706614Y-23100500D01*
X43877702Y-23073402D01*
X43877706Y-23073401D01*
X44042438Y-23019876D01*
X44042440Y-23019874D01*
X44042445Y-23019873D01*
X44196788Y-22941232D01*
X44336928Y-22839414D01*
X44459414Y-22716928D01*
X44561232Y-22576788D01*
X44639873Y-22422445D01*
X44639874Y-22422440D01*
X44639876Y-22422438D01*
X44693401Y-22257706D01*
X44693402Y-22257702D01*
X44720500Y-22086614D01*
X44720500Y-21913385D01*
X44693402Y-21742297D01*
X44693401Y-21742293D01*
X44639876Y-21577561D01*
X44639874Y-21577558D01*
X44639873Y-21577557D01*
X44639873Y-21577555D01*
X44561232Y-21423212D01*
X44549376Y-21406893D01*
X62899500Y-21406893D01*
X62899500Y-22593106D01*
X62910123Y-22681565D01*
X62965637Y-22822339D01*
X62965638Y-22822341D01*
X62965639Y-22822342D01*
X63057078Y-22942922D01*
X63177658Y-23034361D01*
X63177659Y-23034361D01*
X63177660Y-23034362D01*
X63248047Y-23062119D01*
X63318436Y-23089877D01*
X63406898Y-23100500D01*
X63406900Y-23100500D01*
X64593100Y-23100500D01*
X64593102Y-23100500D01*
X64681564Y-23089877D01*
X64822342Y-23034361D01*
X64942922Y-22942922D01*
X65034361Y-22822342D01*
X65089877Y-22681564D01*
X65100500Y-22593102D01*
X65100500Y-21896581D01*
X65450000Y-21896581D01*
X65450000Y-22103418D01*
X65490349Y-22306272D01*
X65569501Y-22497361D01*
X65629699Y-22587455D01*
X66113628Y-22103525D01*
X66127259Y-22154394D01*
X66179920Y-22245606D01*
X66254394Y-22320080D01*
X66345606Y-22372741D01*
X66396471Y-22386370D01*
X65912543Y-22870299D01*
X66002638Y-22930498D01*
X66193727Y-23009650D01*
X66396581Y-23049999D01*
X66396586Y-23050000D01*
X66603414Y-23050000D01*
X66603418Y-23049999D01*
X66806272Y-23009650D01*
X66997360Y-22930498D01*
X67087455Y-22870299D01*
X66603526Y-22386370D01*
X66654394Y-22372741D01*
X66745606Y-22320080D01*
X66820080Y-22245606D01*
X66872741Y-22154394D01*
X66886370Y-22103526D01*
X67370299Y-22587455D01*
X67430498Y-22497360D01*
X67509650Y-22306272D01*
X67549999Y-22103418D01*
X67550000Y-22103413D01*
X67550000Y-21896586D01*
X67549999Y-21896581D01*
X67509650Y-21693727D01*
X67430498Y-21502638D01*
X67370299Y-21412543D01*
X66886370Y-21896471D01*
X66872741Y-21845606D01*
X66820080Y-21754394D01*
X66745606Y-21679920D01*
X66654394Y-21627259D01*
X66603525Y-21613628D01*
X67087455Y-21129699D01*
X66997361Y-21069501D01*
X66806272Y-20990349D01*
X66603418Y-20950000D01*
X66396581Y-20950000D01*
X66193727Y-20990349D01*
X66002638Y-21069501D01*
X65912543Y-21129699D01*
X66396473Y-21613629D01*
X66345606Y-21627259D01*
X66254394Y-21679920D01*
X66179920Y-21754394D01*
X66127259Y-21845606D01*
X66113629Y-21896473D01*
X65629699Y-21412543D01*
X65569501Y-21502638D01*
X65490349Y-21693727D01*
X65450000Y-21896581D01*
X65100500Y-21896581D01*
X65100500Y-21406898D01*
X65089877Y-21318436D01*
X65034361Y-21177658D01*
X64942922Y-21057078D01*
X64822342Y-20965639D01*
X64822341Y-20965638D01*
X64822339Y-20965637D01*
X64681565Y-20910123D01*
X64593106Y-20899500D01*
X64593102Y-20899500D01*
X63406898Y-20899500D01*
X63406893Y-20899500D01*
X63318434Y-20910123D01*
X63177660Y-20965637D01*
X63177656Y-20965640D01*
X63057081Y-21057075D01*
X63057075Y-21057081D01*
X62965640Y-21177656D01*
X62965637Y-21177660D01*
X62910123Y-21318434D01*
X62899500Y-21406893D01*
X44549376Y-21406893D01*
X44459414Y-21283072D01*
X44336928Y-21160586D01*
X44196788Y-21058768D01*
X44196787Y-21058767D01*
X44196785Y-21058766D01*
X44042441Y-20980125D01*
X44042438Y-20980123D01*
X43877706Y-20926598D01*
X43877702Y-20926597D01*
X43706614Y-20899500D01*
X43706611Y-20899500D01*
X43533389Y-20899500D01*
X43533386Y-20899500D01*
X43362297Y-20926597D01*
X43362293Y-20926598D01*
X43197561Y-20980123D01*
X43197558Y-20980125D01*
X43043214Y-21058766D01*
X42903073Y-21160585D01*
X42780585Y-21283073D01*
X42678766Y-21423214D01*
X42600125Y-21577558D01*
X42600123Y-21577561D01*
X42546598Y-21742293D01*
X42546597Y-21742297D01*
X42519500Y-21913385D01*
X37100500Y-21913385D01*
X37100500Y-21406899D01*
X37100499Y-21406893D01*
X37098147Y-21387304D01*
X37089877Y-21318436D01*
X37034361Y-21177658D01*
X36942922Y-21057078D01*
X36822342Y-20965639D01*
X36822341Y-20965638D01*
X36822339Y-20965637D01*
X36681565Y-20910123D01*
X36593106Y-20899500D01*
X36593102Y-20899500D01*
X35406898Y-20899500D01*
X35406893Y-20899500D01*
X35318434Y-20910123D01*
X35177660Y-20965637D01*
X35177656Y-20965640D01*
X35057081Y-21057075D01*
X35057075Y-21057081D01*
X34965640Y-21177656D01*
X34965637Y-21177660D01*
X34910123Y-21318433D01*
X34901853Y-21387304D01*
X34876142Y-21442825D01*
X34822707Y-21472631D01*
X34803559Y-21474500D01*
X31735453Y-21474500D01*
X31677262Y-21455593D01*
X31665449Y-21445504D01*
X31614672Y-21394727D01*
X31614669Y-21394724D01*
X31572226Y-21366365D01*
X31508133Y-21323538D01*
X31508125Y-21323534D01*
X31389747Y-21274500D01*
X31389745Y-21274499D01*
X31389744Y-21274499D01*
X31264069Y-21249500D01*
X31135931Y-21249500D01*
X31135930Y-21249500D01*
X31073093Y-21261999D01*
X31010256Y-21274499D01*
X31010255Y-21274499D01*
X31010252Y-21274500D01*
X30891874Y-21323534D01*
X30891866Y-21323538D01*
X30785331Y-21394724D01*
X30785327Y-21394727D01*
X30694727Y-21485327D01*
X30694724Y-21485331D01*
X30623538Y-21591866D01*
X30623534Y-21591874D01*
X30574500Y-21710252D01*
X30574499Y-21710255D01*
X30574499Y-21710256D01*
X30549500Y-21835931D01*
X500500Y-21835931D01*
X500500Y-18401619D01*
X8750000Y-18401619D01*
X8750000Y-18598380D01*
X8780778Y-18792710D01*
X8780779Y-18792714D01*
X8841576Y-18979826D01*
X8841578Y-18979829D01*
X8930903Y-19155142D01*
X8930907Y-19155148D01*
X8986075Y-19231079D01*
X8986076Y-19231079D01*
X9493844Y-18723311D01*
X9559890Y-18837708D01*
X9662292Y-18940110D01*
X9776686Y-19006154D01*
X9268919Y-19513922D01*
X9268919Y-19513923D01*
X9344851Y-19569092D01*
X9344857Y-19569096D01*
X9520170Y-19658421D01*
X9520173Y-19658423D01*
X9707285Y-19719220D01*
X9707289Y-19719221D01*
X9901620Y-19750000D01*
X10098380Y-19750000D01*
X10292710Y-19719221D01*
X10292714Y-19719220D01*
X10479826Y-19658423D01*
X10479829Y-19658421D01*
X10655149Y-19569092D01*
X10731079Y-19513924D01*
X10731079Y-19513923D01*
X10223311Y-19006155D01*
X10337708Y-18940110D01*
X10440110Y-18837708D01*
X10506155Y-18723311D01*
X11013923Y-19231079D01*
X11013924Y-19231079D01*
X11069092Y-19155149D01*
X11158421Y-18979829D01*
X11158423Y-18979826D01*
X11219220Y-18792714D01*
X11219221Y-18792710D01*
X11250000Y-18598380D01*
X11250000Y-18401630D01*
X11249998Y-18401609D01*
X11249370Y-18397644D01*
X15199500Y-18397644D01*
X15199500Y-18602355D01*
X15231521Y-18804529D01*
X15294780Y-18999219D01*
X15387712Y-19181609D01*
X15387714Y-19181613D01*
X15508029Y-19347213D01*
X15508031Y-19347215D01*
X15508034Y-19347219D01*
X15652781Y-19491966D01*
X15652784Y-19491968D01*
X15652786Y-19491970D01*
X15818386Y-19612285D01*
X15818390Y-19612287D01*
X16000781Y-19705220D01*
X16195466Y-19768477D01*
X16195467Y-19768477D01*
X16195470Y-19768478D01*
X16397645Y-19800500D01*
X16397648Y-19800500D01*
X16602355Y-19800500D01*
X16804529Y-19768478D01*
X16804530Y-19768477D01*
X16804534Y-19768477D01*
X16999219Y-19705220D01*
X17181610Y-19612287D01*
X17347219Y-19491966D01*
X17491966Y-19347219D01*
X17612287Y-19181610D01*
X17705220Y-18999219D01*
X17768477Y-18804534D01*
X17800500Y-18602352D01*
X17800500Y-18397648D01*
X17800500Y-18397644D01*
X17768478Y-18195470D01*
X17757698Y-18162292D01*
X17705220Y-18000781D01*
X17612287Y-17818390D01*
X17612285Y-17818386D01*
X17491970Y-17652786D01*
X17491968Y-17652784D01*
X17491966Y-17652781D01*
X17347219Y-17508034D01*
X17347215Y-17508031D01*
X17347213Y-17508029D01*
X17181613Y-17387714D01*
X17181609Y-17387712D01*
X16999219Y-17294780D01*
X16804529Y-17231521D01*
X16602355Y-17199500D01*
X16602352Y-17199500D01*
X16397648Y-17199500D01*
X16397645Y-17199500D01*
X16195470Y-17231521D01*
X16000780Y-17294780D01*
X15818390Y-17387712D01*
X15818386Y-17387714D01*
X15652786Y-17508029D01*
X15508029Y-17652786D01*
X15387714Y-17818386D01*
X15387712Y-17818390D01*
X15294780Y-18000780D01*
X15231521Y-18195470D01*
X15199500Y-18397644D01*
X11249370Y-18397644D01*
X11219221Y-18207289D01*
X11219220Y-18207285D01*
X11158423Y-18020173D01*
X11158421Y-18020170D01*
X11069096Y-17844857D01*
X11069092Y-17844851D01*
X11013923Y-17768919D01*
X11013922Y-17768919D01*
X10506154Y-18276686D01*
X10440110Y-18162292D01*
X10337708Y-18059890D01*
X10223311Y-17993844D01*
X10731079Y-17486076D01*
X10731079Y-17486075D01*
X10655148Y-17430907D01*
X10655142Y-17430903D01*
X10479829Y-17341578D01*
X10479826Y-17341576D01*
X10292714Y-17280779D01*
X10292710Y-17280778D01*
X10098380Y-17250000D01*
X9901620Y-17250000D01*
X9707289Y-17280778D01*
X9707285Y-17280779D01*
X9520173Y-17341576D01*
X9520170Y-17341578D01*
X9344857Y-17430903D01*
X9344853Y-17430905D01*
X9268919Y-17486075D01*
X9776688Y-17993844D01*
X9662292Y-18059890D01*
X9559890Y-18162292D01*
X9493844Y-18276688D01*
X8986075Y-17768919D01*
X8930905Y-17844853D01*
X8930903Y-17844857D01*
X8841578Y-18020170D01*
X8841576Y-18020173D01*
X8780779Y-18207285D01*
X8780778Y-18207289D01*
X8750000Y-18401619D01*
X500500Y-18401619D01*
X500500Y-13897644D01*
X8699500Y-13897644D01*
X8699500Y-14102355D01*
X8731521Y-14304529D01*
X8794780Y-14499219D01*
X8887712Y-14681609D01*
X8887714Y-14681613D01*
X9008029Y-14847213D01*
X9008031Y-14847215D01*
X9008034Y-14847219D01*
X9152781Y-14991966D01*
X9152784Y-14991968D01*
X9152786Y-14991970D01*
X9318386Y-15112285D01*
X9318390Y-15112287D01*
X9500781Y-15205220D01*
X9695466Y-15268477D01*
X9695467Y-15268477D01*
X9695470Y-15268478D01*
X9897645Y-15300500D01*
X9897648Y-15300500D01*
X10102355Y-15300500D01*
X10304529Y-15268478D01*
X10304530Y-15268477D01*
X10304534Y-15268477D01*
X10499219Y-15205220D01*
X10681610Y-15112287D01*
X10847219Y-14991966D01*
X10991966Y-14847219D01*
X11112287Y-14681610D01*
X11205220Y-14499219D01*
X11268477Y-14304534D01*
X11300500Y-14102352D01*
X11300500Y-13897648D01*
X11300500Y-13897644D01*
X15199500Y-13897644D01*
X15199500Y-14102355D01*
X15231521Y-14304529D01*
X15294780Y-14499219D01*
X15387712Y-14681609D01*
X15387714Y-14681613D01*
X15508029Y-14847213D01*
X15508031Y-14847215D01*
X15508034Y-14847219D01*
X15652781Y-14991966D01*
X15652784Y-14991968D01*
X15652786Y-14991970D01*
X15818386Y-15112285D01*
X15818390Y-15112287D01*
X16000781Y-15205220D01*
X16195466Y-15268477D01*
X16195467Y-15268477D01*
X16195470Y-15268478D01*
X16397645Y-15300500D01*
X16397648Y-15300500D01*
X16602355Y-15300500D01*
X16804529Y-15268478D01*
X16804530Y-15268477D01*
X16804534Y-15268477D01*
X16999219Y-15205220D01*
X17181610Y-15112287D01*
X17347219Y-14991966D01*
X17491966Y-14847219D01*
X17612287Y-14681610D01*
X17705220Y-14499219D01*
X17768477Y-14304534D01*
X17800500Y-14102352D01*
X17800500Y-13897648D01*
X17800500Y-13897644D01*
X17768478Y-13695470D01*
X17768477Y-13695466D01*
X17705220Y-13500781D01*
X17612287Y-13318390D01*
X17612285Y-13318386D01*
X17491970Y-13152786D01*
X17491968Y-13152784D01*
X17491966Y-13152781D01*
X17347219Y-13008034D01*
X17347215Y-13008031D01*
X17347213Y-13008029D01*
X17181613Y-12887714D01*
X17181609Y-12887712D01*
X16999219Y-12794780D01*
X16804529Y-12731521D01*
X16602355Y-12699500D01*
X16602352Y-12699500D01*
X16397648Y-12699500D01*
X16397645Y-12699500D01*
X16195470Y-12731521D01*
X16000780Y-12794780D01*
X15818390Y-12887712D01*
X15818386Y-12887714D01*
X15652786Y-13008029D01*
X15508029Y-13152786D01*
X15387714Y-13318386D01*
X15387712Y-13318390D01*
X15294780Y-13500780D01*
X15231521Y-13695470D01*
X15199500Y-13897644D01*
X11300500Y-13897644D01*
X11268478Y-13695470D01*
X11268477Y-13695466D01*
X11205220Y-13500781D01*
X11112287Y-13318390D01*
X11112285Y-13318386D01*
X10991970Y-13152786D01*
X10991968Y-13152784D01*
X10991966Y-13152781D01*
X10847219Y-13008034D01*
X10847215Y-13008031D01*
X10847213Y-13008029D01*
X10681613Y-12887714D01*
X10681609Y-12887712D01*
X10499219Y-12794780D01*
X10304529Y-12731521D01*
X10102355Y-12699500D01*
X10102352Y-12699500D01*
X9897648Y-12699500D01*
X9897645Y-12699500D01*
X9695470Y-12731521D01*
X9500780Y-12794780D01*
X9318390Y-12887712D01*
X9318386Y-12887714D01*
X9152786Y-13008029D01*
X9008029Y-13152786D01*
X8887714Y-13318386D01*
X8887712Y-13318390D01*
X8794780Y-13500780D01*
X8731521Y-13695470D01*
X8699500Y-13897644D01*
X500500Y-13897644D01*
X500500Y-9885297D01*
X71170000Y-9885297D01*
X71170000Y-10114702D01*
X71199942Y-10342133D01*
X71199942Y-10342138D01*
X71259315Y-10563718D01*
X71259319Y-10563731D01*
X71347101Y-10775658D01*
X71461808Y-10974337D01*
X71549081Y-11088073D01*
X72258778Y-10378375D01*
X72329670Y-10484472D01*
X72435528Y-10590330D01*
X72541621Y-10661219D01*
X71831924Y-11370917D01*
X71945662Y-11458191D01*
X72144341Y-11572898D01*
X72356268Y-11660680D01*
X72356281Y-11660684D01*
X72577863Y-11720057D01*
X72805297Y-11749999D01*
X72805300Y-11750000D01*
X73034700Y-11750000D01*
X73034702Y-11749999D01*
X73262133Y-11720057D01*
X73262138Y-11720057D01*
X73483718Y-11660684D01*
X73483731Y-11660680D01*
X73695658Y-11572898D01*
X73894332Y-11458194D01*
X74008074Y-11370917D01*
X73298377Y-10661220D01*
X73404472Y-10590330D01*
X73510330Y-10484472D01*
X73581220Y-10378377D01*
X74290917Y-11088074D01*
X74378194Y-10974332D01*
X74492898Y-10775658D01*
X74580680Y-10563731D01*
X74580684Y-10563718D01*
X74640057Y-10342138D01*
X74640057Y-10342133D01*
X74669999Y-10114702D01*
X74670000Y-10114700D01*
X74670000Y-9885300D01*
X74669999Y-9885297D01*
X74640057Y-9657866D01*
X74640057Y-9657861D01*
X74580684Y-9436281D01*
X74580680Y-9436268D01*
X74492898Y-9224341D01*
X74378191Y-9025662D01*
X74290916Y-8911924D01*
X73581219Y-9621621D01*
X73510330Y-9515528D01*
X73404472Y-9409670D01*
X73298376Y-9338778D01*
X74008074Y-8629081D01*
X73894334Y-8541806D01*
X73887765Y-8538013D01*
X73887764Y-8538013D01*
X73744206Y-8455130D01*
X76199500Y-8455130D01*
X76199500Y-11544860D01*
X76199501Y-11544863D01*
X76202414Y-11569990D01*
X76227756Y-11627385D01*
X76247794Y-11672765D01*
X76327235Y-11752206D01*
X76430009Y-11797585D01*
X76455135Y-11800500D01*
X79544864Y-11800499D01*
X79569991Y-11797585D01*
X79672765Y-11752206D01*
X79752206Y-11672765D01*
X79797585Y-11569991D01*
X79800500Y-11544865D01*
X79800499Y-8455136D01*
X79797585Y-8430009D01*
X79752206Y-8327235D01*
X79672765Y-8247794D01*
X79569991Y-8202415D01*
X79569990Y-8202414D01*
X79569988Y-8202414D01*
X79544868Y-8199500D01*
X76455139Y-8199500D01*
X76455136Y-8199501D01*
X76430009Y-8202414D01*
X76327235Y-8247794D01*
X76247794Y-8327235D01*
X76202414Y-8430011D01*
X76199500Y-8455130D01*
X73744206Y-8455130D01*
X73695658Y-8427101D01*
X73483731Y-8339319D01*
X73483718Y-8339315D01*
X73262136Y-8279942D01*
X73034702Y-8250000D01*
X72805297Y-8250000D01*
X72577866Y-8279942D01*
X72577861Y-8279942D01*
X72356281Y-8339315D01*
X72356268Y-8339319D01*
X72144341Y-8427101D01*
X71945662Y-8541808D01*
X71831924Y-8629081D01*
X72541622Y-9338779D01*
X72435528Y-9409670D01*
X72329670Y-9515528D01*
X72258779Y-9621622D01*
X71549081Y-8911924D01*
X71461808Y-9025662D01*
X71347101Y-9224341D01*
X71259319Y-9436268D01*
X71259315Y-9436281D01*
X71199942Y-9657861D01*
X71199942Y-9657866D01*
X71170000Y-9885297D01*
X500500Y-9885297D01*
X500500Y-4878710D01*
X3149500Y-4878710D01*
X3149500Y-5121289D01*
X3181161Y-5361781D01*
X3181161Y-5361786D01*
X3243944Y-5596092D01*
X3243948Y-5596105D01*
X3336772Y-5820204D01*
X3336774Y-5820208D01*
X3336776Y-5820212D01*
X3449817Y-6016004D01*
X3458066Y-6030292D01*
X3605729Y-6222731D01*
X3605731Y-6222733D01*
X3605735Y-6222738D01*
X3777262Y-6394265D01*
X3777266Y-6394268D01*
X3777268Y-6394270D01*
X3915059Y-6500000D01*
X3969711Y-6541936D01*
X4179788Y-6663224D01*
X4403900Y-6756054D01*
X4638211Y-6818838D01*
X4878712Y-6850500D01*
X4878713Y-6850500D01*
X5121287Y-6850500D01*
X5121288Y-6850500D01*
X5361789Y-6818838D01*
X5596100Y-6756054D01*
X5820212Y-6663224D01*
X6030289Y-6541936D01*
X6222738Y-6394265D01*
X6394265Y-6222738D01*
X6484509Y-6105130D01*
X22849500Y-6105130D01*
X22849500Y-7894860D01*
X22849501Y-7894863D01*
X22852414Y-7919990D01*
X22877756Y-7977385D01*
X22897794Y-8022765D01*
X22977235Y-8102206D01*
X23080009Y-8147585D01*
X23105135Y-8150500D01*
X24894864Y-8150499D01*
X24919991Y-8147585D01*
X25022765Y-8102206D01*
X25102206Y-8022765D01*
X25147585Y-7919991D01*
X25150500Y-7894865D01*
X25150499Y-6909450D01*
X25389500Y-6909450D01*
X25389500Y-7090549D01*
X25417828Y-7269406D01*
X25473788Y-7441637D01*
X25542519Y-7576530D01*
X25556004Y-7602994D01*
X25662447Y-7749501D01*
X25790499Y-7877553D01*
X25937006Y-7983996D01*
X26098361Y-8066211D01*
X26270591Y-8122171D01*
X26342136Y-8133502D01*
X26449451Y-8150500D01*
X26449454Y-8150500D01*
X26630549Y-8150500D01*
X26719977Y-8136335D01*
X26809409Y-8122171D01*
X26981639Y-8066211D01*
X27142994Y-7983996D01*
X27289501Y-7877553D01*
X27417553Y-7749501D01*
X27523996Y-7602994D01*
X27606211Y-7441639D01*
X27662171Y-7269409D01*
X27690500Y-7090546D01*
X27690500Y-6909454D01*
X27690500Y-6909450D01*
X27929500Y-6909450D01*
X27929500Y-7090549D01*
X27957828Y-7269406D01*
X28013788Y-7441637D01*
X28082519Y-7576530D01*
X28096004Y-7602994D01*
X28202447Y-7749501D01*
X28330499Y-7877553D01*
X28477006Y-7983996D01*
X28638361Y-8066211D01*
X28810591Y-8122171D01*
X28882136Y-8133502D01*
X28989451Y-8150500D01*
X28989454Y-8150500D01*
X29170549Y-8150500D01*
X29259977Y-8136335D01*
X29349409Y-8122171D01*
X29521639Y-8066211D01*
X29682994Y-7983996D01*
X29829501Y-7877553D01*
X29957553Y-7749501D01*
X30063996Y-7602994D01*
X30146211Y-7441639D01*
X30202171Y-7269409D01*
X30230500Y-7090546D01*
X30230500Y-6909454D01*
X30230500Y-6909450D01*
X30469500Y-6909450D01*
X30469500Y-7090549D01*
X30497828Y-7269406D01*
X30553788Y-7441637D01*
X30622519Y-7576530D01*
X30636004Y-7602994D01*
X30742447Y-7749501D01*
X30870499Y-7877553D01*
X31017006Y-7983996D01*
X31178361Y-8066211D01*
X31350591Y-8122171D01*
X31422136Y-8133502D01*
X31529451Y-8150500D01*
X31529454Y-8150500D01*
X31710549Y-8150500D01*
X31799977Y-8136335D01*
X31889409Y-8122171D01*
X32061639Y-8066211D01*
X32222994Y-7983996D01*
X32369501Y-7877553D01*
X32497553Y-7749501D01*
X32603996Y-7602994D01*
X32686211Y-7441639D01*
X32742171Y-7269409D01*
X32770500Y-7090546D01*
X32770500Y-6913424D01*
X33060000Y-6913424D01*
X33060000Y-7086575D01*
X33087084Y-7257579D01*
X33140588Y-7422248D01*
X33219194Y-7576522D01*
X33253463Y-7623691D01*
X33691979Y-7185174D01*
X33694075Y-7192993D01*
X33759901Y-7307007D01*
X33852993Y-7400099D01*
X33967007Y-7465925D01*
X33974822Y-7468019D01*
X33536307Y-7906535D01*
X33583476Y-7940804D01*
X33737751Y-8019411D01*
X33902420Y-8072915D01*
X34073425Y-8100000D01*
X34246575Y-8100000D01*
X34417579Y-8072915D01*
X34582248Y-8019411D01*
X34736524Y-7940804D01*
X34736530Y-7940800D01*
X34783691Y-7906535D01*
X34345175Y-7468019D01*
X34352993Y-7465925D01*
X34467007Y-7400099D01*
X34560099Y-7307007D01*
X34625925Y-7192993D01*
X34628019Y-7185175D01*
X35066535Y-7623691D01*
X35100800Y-7576530D01*
X35100804Y-7576524D01*
X35179411Y-7422248D01*
X35232915Y-7257579D01*
X35260000Y-7086575D01*
X35260000Y-6913424D01*
X35600000Y-6913424D01*
X35600000Y-7086575D01*
X35627084Y-7257579D01*
X35680588Y-7422248D01*
X35759194Y-7576522D01*
X35793463Y-7623691D01*
X36231979Y-7185174D01*
X36234075Y-7192993D01*
X36299901Y-7307007D01*
X36392993Y-7400099D01*
X36507007Y-7465925D01*
X36514822Y-7468019D01*
X36076307Y-7906535D01*
X36123476Y-7940804D01*
X36277751Y-8019411D01*
X36442420Y-8072915D01*
X36613425Y-8100000D01*
X36786575Y-8100000D01*
X36957579Y-8072915D01*
X37122248Y-8019411D01*
X37276524Y-7940804D01*
X37276530Y-7940800D01*
X37323691Y-7906535D01*
X36885175Y-7468019D01*
X36892993Y-7465925D01*
X37007007Y-7400099D01*
X37100099Y-7307007D01*
X37165925Y-7192993D01*
X37168019Y-7185175D01*
X37606535Y-7623691D01*
X37640800Y-7576530D01*
X37640804Y-7576524D01*
X37719411Y-7422248D01*
X37772915Y-7257579D01*
X37800000Y-7086575D01*
X37800000Y-6913424D01*
X37772915Y-6742420D01*
X37719411Y-6577751D01*
X37640804Y-6423476D01*
X37606535Y-6376307D01*
X37168019Y-6814822D01*
X37165925Y-6807007D01*
X37100099Y-6692993D01*
X37007007Y-6599901D01*
X36892993Y-6534075D01*
X36885174Y-6531979D01*
X37323691Y-6093463D01*
X37276522Y-6059194D01*
X37122248Y-5980588D01*
X36957579Y-5927084D01*
X36786575Y-5900000D01*
X36613425Y-5900000D01*
X36442420Y-5927084D01*
X36277751Y-5980588D01*
X36123473Y-6059196D01*
X36076307Y-6093463D01*
X36514824Y-6531980D01*
X36507007Y-6534075D01*
X36392993Y-6599901D01*
X36299901Y-6692993D01*
X36234075Y-6807007D01*
X36231980Y-6814824D01*
X35793463Y-6376307D01*
X35759196Y-6423473D01*
X35680588Y-6577751D01*
X35627084Y-6742420D01*
X35600000Y-6913424D01*
X35260000Y-6913424D01*
X35232915Y-6742420D01*
X35179411Y-6577751D01*
X35100804Y-6423476D01*
X35066535Y-6376307D01*
X34628019Y-6814822D01*
X34625925Y-6807007D01*
X34560099Y-6692993D01*
X34467007Y-6599901D01*
X34352993Y-6534075D01*
X34345174Y-6531979D01*
X34783691Y-6093463D01*
X34736522Y-6059194D01*
X34582248Y-5980588D01*
X34417579Y-5927084D01*
X34246575Y-5900000D01*
X34073425Y-5900000D01*
X33902420Y-5927084D01*
X33737751Y-5980588D01*
X33583473Y-6059196D01*
X33536307Y-6093463D01*
X33974824Y-6531980D01*
X33967007Y-6534075D01*
X33852993Y-6599901D01*
X33759901Y-6692993D01*
X33694075Y-6807007D01*
X33691980Y-6814824D01*
X33253463Y-6376307D01*
X33219196Y-6423473D01*
X33140588Y-6577751D01*
X33087084Y-6742420D01*
X33060000Y-6913424D01*
X32770500Y-6913424D01*
X32770500Y-6909454D01*
X32770500Y-6909450D01*
X32746203Y-6756051D01*
X32742171Y-6730591D01*
X32686211Y-6558361D01*
X32603996Y-6397006D01*
X32497553Y-6250499D01*
X32369501Y-6122447D01*
X32222994Y-6016004D01*
X32222993Y-6016003D01*
X32222991Y-6016002D01*
X32061637Y-5933788D01*
X31889406Y-5877828D01*
X31710549Y-5849500D01*
X31710546Y-5849500D01*
X31529454Y-5849500D01*
X31529451Y-5849500D01*
X31350593Y-5877828D01*
X31178362Y-5933788D01*
X31017008Y-6016002D01*
X30997344Y-6030289D01*
X30870499Y-6122447D01*
X30742447Y-6250499D01*
X30689225Y-6323752D01*
X30636002Y-6397008D01*
X30553788Y-6558362D01*
X30497828Y-6730593D01*
X30469500Y-6909450D01*
X30230500Y-6909450D01*
X30206203Y-6756051D01*
X30202171Y-6730591D01*
X30146211Y-6558361D01*
X30063996Y-6397006D01*
X29957553Y-6250499D01*
X29829501Y-6122447D01*
X29682994Y-6016004D01*
X29682993Y-6016003D01*
X29682991Y-6016002D01*
X29521637Y-5933788D01*
X29349406Y-5877828D01*
X29170549Y-5849500D01*
X29170546Y-5849500D01*
X28989454Y-5849500D01*
X28989451Y-5849500D01*
X28810593Y-5877828D01*
X28638362Y-5933788D01*
X28477008Y-6016002D01*
X28457344Y-6030289D01*
X28330499Y-6122447D01*
X28202447Y-6250499D01*
X28149225Y-6323752D01*
X28096002Y-6397008D01*
X28013788Y-6558362D01*
X27957828Y-6730593D01*
X27929500Y-6909450D01*
X27690500Y-6909450D01*
X27666203Y-6756051D01*
X27662171Y-6730591D01*
X27606211Y-6558361D01*
X27523996Y-6397006D01*
X27417553Y-6250499D01*
X27289501Y-6122447D01*
X27142994Y-6016004D01*
X27142993Y-6016003D01*
X27142991Y-6016002D01*
X26981637Y-5933788D01*
X26809406Y-5877828D01*
X26630549Y-5849500D01*
X26630546Y-5849500D01*
X26449454Y-5849500D01*
X26449451Y-5849500D01*
X26270593Y-5877828D01*
X26098362Y-5933788D01*
X25937008Y-6016002D01*
X25917344Y-6030289D01*
X25790499Y-6122447D01*
X25662447Y-6250499D01*
X25609225Y-6323752D01*
X25556002Y-6397008D01*
X25473788Y-6558362D01*
X25417828Y-6730593D01*
X25389500Y-6909450D01*
X25150499Y-6909450D01*
X25150499Y-6105136D01*
X25147585Y-6080009D01*
X25102206Y-5977235D01*
X25022765Y-5897794D01*
X24919991Y-5852415D01*
X24919990Y-5852414D01*
X24919988Y-5852414D01*
X24894868Y-5849500D01*
X23105139Y-5849500D01*
X23105136Y-5849501D01*
X23080009Y-5852414D01*
X22977235Y-5897794D01*
X22897794Y-5977235D01*
X22852414Y-6080011D01*
X22849500Y-6105130D01*
X6484509Y-6105130D01*
X6541936Y-6030289D01*
X6663224Y-5820212D01*
X6756054Y-5596100D01*
X6818838Y-5361789D01*
X6850500Y-5121288D01*
X6850500Y-4878712D01*
X6850500Y-4878710D01*
X93149500Y-4878710D01*
X93149500Y-5121289D01*
X93181161Y-5361781D01*
X93181161Y-5361786D01*
X93243944Y-5596092D01*
X93243948Y-5596105D01*
X93336772Y-5820204D01*
X93336774Y-5820208D01*
X93336776Y-5820212D01*
X93449817Y-6016004D01*
X93458066Y-6030292D01*
X93605729Y-6222731D01*
X93605731Y-6222733D01*
X93605735Y-6222738D01*
X93777262Y-6394265D01*
X93777266Y-6394268D01*
X93777268Y-6394270D01*
X93915059Y-6500000D01*
X93969711Y-6541936D01*
X94179788Y-6663224D01*
X94403900Y-6756054D01*
X94638211Y-6818838D01*
X94878712Y-6850500D01*
X94878713Y-6850500D01*
X95121287Y-6850500D01*
X95121288Y-6850500D01*
X95361789Y-6818838D01*
X95596100Y-6756054D01*
X95820212Y-6663224D01*
X96030289Y-6541936D01*
X96222738Y-6394265D01*
X96394265Y-6222738D01*
X96541936Y-6030289D01*
X96663224Y-5820212D01*
X96756054Y-5596100D01*
X96818838Y-5361789D01*
X96850500Y-5121288D01*
X96850500Y-4878712D01*
X96818838Y-4638211D01*
X96756054Y-4403900D01*
X96663224Y-4179788D01*
X96541936Y-3969711D01*
X96394265Y-3777262D01*
X96222738Y-3605735D01*
X96222733Y-3605731D01*
X96222731Y-3605729D01*
X96030292Y-3458066D01*
X96030289Y-3458064D01*
X95820212Y-3336776D01*
X95820208Y-3336774D01*
X95820204Y-3336772D01*
X95596105Y-3243948D01*
X95596104Y-3243947D01*
X95596100Y-3243946D01*
X95361789Y-3181162D01*
X95361786Y-3181161D01*
X95361784Y-3181161D01*
X95121289Y-3149500D01*
X95121288Y-3149500D01*
X94878712Y-3149500D01*
X94878710Y-3149500D01*
X94638218Y-3181161D01*
X94638213Y-3181161D01*
X94403907Y-3243944D01*
X94403894Y-3243948D01*
X94179795Y-3336772D01*
X93969707Y-3458066D01*
X93777268Y-3605729D01*
X93605729Y-3777268D01*
X93458066Y-3969707D01*
X93336772Y-4179795D01*
X93243948Y-4403894D01*
X93243944Y-4403907D01*
X93181161Y-4638213D01*
X93181161Y-4638218D01*
X93149500Y-4878710D01*
X6850500Y-4878710D01*
X6818838Y-4638211D01*
X6756054Y-4403900D01*
X6663224Y-4179788D01*
X6541936Y-3969711D01*
X6394265Y-3777262D01*
X6222738Y-3605735D01*
X6222733Y-3605731D01*
X6222731Y-3605729D01*
X6030292Y-3458066D01*
X6030289Y-3458064D01*
X5820212Y-3336776D01*
X5820208Y-3336774D01*
X5820204Y-3336772D01*
X5596105Y-3243948D01*
X5596104Y-3243947D01*
X5596100Y-3243946D01*
X5361789Y-3181162D01*
X5361786Y-3181161D01*
X5361784Y-3181161D01*
X5121289Y-3149500D01*
X5121288Y-3149500D01*
X4878712Y-3149500D01*
X4878710Y-3149500D01*
X4638218Y-3181161D01*
X4638213Y-3181161D01*
X4403907Y-3243944D01*
X4403894Y-3243948D01*
X4179795Y-3336772D01*
X3969707Y-3458066D01*
X3777268Y-3605729D01*
X3605729Y-3777268D01*
X3458066Y-3969707D01*
X3336772Y-4179795D01*
X3243948Y-4403894D01*
X3243944Y-4403907D01*
X3181161Y-4638213D01*
X3181161Y-4638218D01*
X3149500Y-4878710D01*
X500500Y-4878710D01*
X500500Y-599500D01*
X519407Y-541309D01*
X568907Y-505345D01*
X599500Y-500500D01*
X99400500Y-500500D01*
X99458691Y-519407D01*
G37*
%TD.AperFunction*%
%TD*%
M02*
