M48
; DRILL file {KiCad 9.0.2+dfsg-1} date 2026-09-27T19:23:13+0200
; FORMAT={-:-/ absolute / metric / decimal}
; #@! TF.CreationDate,2026-09-27T19:23:13+02:00
; #@! TF.GenerationSoftware,Kicad,Pcbnew,9.0.2+dfsg-1
; #@! TF.FileFunction,Plated,1,2,PTH
FMAT,2
METRIC
; #@! TA.AperFunction,Plated,PTH,ViaDrill
T1C0.350
; #@! TA.AperFunction,Plated,PTH,ComponentDrill
T2C0.800
; #@! TA.AperFunction,Plated,PTH,ComponentDrill
T3C1.000
; #@! TA.AperFunction,Plated,PTH,ComponentDrill
T4C1.100
; #@! TA.AperFunction,Plated,PTH,ComponentDrill
T5C1.520
%
G90
G05
T1
X11.55Y-33.15
X11.7Y-47.55
X12.0Y-31.95
X18.75Y-38.1
X19.2Y-45.0
X19.8Y-39.15
X20.25Y-33.0
X20.7Y-43.8
X22.95Y-33.9
X24.3Y-42.15
X24.3Y-47.1
X24.6Y-33.75
X25.5Y-28.5
X26.25Y-37.05
X26.25Y-52.05
X26.25Y-55.05
X31.05Y-37.05
X31.2Y-21.9
X31.2Y-52.35
X31.2Y-53.85
X36.9Y-22.95
X40.05Y-32.1
X41.4Y-33.45
X41.4Y-47.85
X49.65Y-31.95
X49.65Y-34.95
X49.65Y-39.0
X49.65Y-46.5
X50.55Y-46.05
X50.55Y-50.55
X52.35Y-50.55
X73.2Y-33.0
T2
X31.5Y-42.15
X31.5Y-47.03
X36.0Y-22.0
X36.0Y-24.54
X36.0Y-27.08
X36.0Y-29.62
X36.0Y-32.16
X36.0Y-34.7
X36.0Y-37.24
X36.0Y-39.78
X36.0Y-42.32
X36.0Y-44.86
X36.0Y-47.4
X36.0Y-49.94
X36.0Y-52.48
X36.0Y-55.02
X43.62Y-22.0
X43.62Y-24.54
X43.62Y-27.08
X43.62Y-29.62
X43.62Y-32.16
X43.62Y-34.7
X43.62Y-37.24
X43.62Y-39.78
X43.62Y-42.32
X43.62Y-44.86
X43.62Y-47.4
X43.62Y-49.94
X43.62Y-52.48
X43.62Y-55.02
X64.0Y-22.0
X66.5Y-22.0
T3
X8.0Y-52.0
X8.0Y-54.54
X8.0Y-60.0
X8.0Y-62.54
X18.0Y-34.0
X18.0Y-36.54
X18.0Y-41.0
X18.0Y-43.54
X18.0Y-48.0
X18.0Y-50.54
X24.0Y-7.0
X26.54Y-7.0
X29.08Y-7.0
X31.62Y-7.0
X34.16Y-7.0
X36.7Y-7.0
X50.0Y-66.0
X50.0Y-68.54
X50.0Y-71.08
X53.0Y-44.0
X53.0Y-46.54
X53.0Y-49.08
X55.54Y-44.0
X55.54Y-46.54
X55.54Y-49.08
X88.0Y-30.0
X88.0Y-32.54
X88.0Y-35.08
X88.0Y-37.62
T4
X10.0Y-14.0
X10.0Y-18.5
X16.5Y-14.0
X16.5Y-18.5
T5
X7.0Y-28.0
X7.0Y-33.08
X7.0Y-38.16
X72.92Y-10.0
X78.0Y-10.0
M30
