%TF.GenerationSoftware,KiCad,Pcbnew,9.0.2+dfsg-1*%
%TF.CreationDate,2026-09-27T19:23:12+02:00*%
%TF.ProjectId,torqeedo_pcb,746f7271-6565-4646-9f5f-7063622e6b69,rev?*%
%TF.SameCoordinates,Original*%
%TF.FileFunction,Soldermask,Bot*%
%TF.FilePolarity,Negative*%
%FSLAX46Y46*%
G04 Gerber Fmt 4.6, Leading zero omitted, Abs format (unit mm)*
G04 Created by KiCad (PCBNEW 9.0.2+dfsg-1) date 2026-09-27 19:23:12*
%MOMM*%
%LPD*%
G01*
G04 APERTURE LIST*
G04 Aperture macros list*
%AMRoundRect*
0 Rectangle with rounded corners*
0 $1 Rounding radius*
0 $2 $3 $4 $5 $6 $7 $8 $9 X,Y pos of 4 corners*
0 Add a 4 corners polygon primitive as box body*
4,1,4,$2,$3,$4,$5,$6,$7,$8,$9,$2,$3,0*
0 Add four circle primitives for the rounded corners*
1,1,$1+$1,$2,$3*
1,1,$1+$1,$4,$5*
1,1,$1+$1,$6,$7*
1,1,$1+$1,$8,$9*
0 Add four rect primitives between the rounded corners*
20,1,$1+$1,$2,$3,$4,$5,0*
20,1,$1+$1,$4,$5,$6,$7,0*
20,1,$1+$1,$6,$7,$8,$9,0*
20,1,$1+$1,$8,$9,$2,$3,0*%
G04 Aperture macros list end*
%ADD10R,1.700000X1.700000*%
%ADD11C,1.700000*%
%ADD12C,1.500000*%
%ADD13C,3.200000*%
%ADD14R,3.000000X3.000000*%
%ADD15C,3.000000*%
%ADD16C,2.000000*%
%ADD17RoundRect,0.250000X-0.550000X-0.550000X0.550000X-0.550000X0.550000X0.550000X-0.550000X0.550000X0*%
%ADD18C,1.600000*%
G04 APERTURE END LIST*
D10*
%TO.C,J_FTDI*%
X24000000Y-7000000D03*
D11*
X26540000Y-7000000D03*
X29080000Y-7000000D03*
X31620000Y-7000000D03*
X34160000Y-7000000D03*
X36700000Y-7000000D03*
%TD*%
D12*
%TO.C,Y1*%
X31500000Y-42150000D03*
X31500000Y-47030000D03*
%TD*%
D13*
%TO.C,H4*%
X95000000Y-75000000D03*
%TD*%
D14*
%TO.C,J_RS485*%
X7000000Y-28000000D03*
D15*
X7000000Y-33080000D03*
X7000000Y-38160000D03*
%TD*%
D13*
%TO.C,H3*%
X5000000Y-75000000D03*
%TD*%
D10*
%TO.C,J_POT*%
X50000000Y-66000000D03*
D11*
X50000000Y-68540000D03*
X50000000Y-71080000D03*
%TD*%
D10*
%TO.C,JP_BA*%
X18000000Y-41000000D03*
D11*
X18000000Y-43540000D03*
%TD*%
D10*
%TO.C,JP_TERM*%
X18000000Y-34000000D03*
D11*
X18000000Y-36540000D03*
%TD*%
D14*
%TO.C,J_PWR*%
X78000000Y-10000000D03*
D15*
X72920000Y-10000000D03*
%TD*%
D16*
%TO.C,SW1*%
X10000000Y-14000000D03*
X16500000Y-14000000D03*
X10000000Y-18500000D03*
X16500000Y-18500000D03*
%TD*%
D17*
%TO.C,U2*%
X36000000Y-22000000D03*
D18*
X36000000Y-24540000D03*
X36000000Y-27080000D03*
X36000000Y-29620000D03*
X36000000Y-32160000D03*
X36000000Y-34700000D03*
X36000000Y-37240000D03*
X36000000Y-39780000D03*
X36000000Y-42320000D03*
X36000000Y-44860000D03*
X36000000Y-47400000D03*
X36000000Y-49940000D03*
X36000000Y-52480000D03*
X36000000Y-55020000D03*
X43620000Y-55020000D03*
X43620000Y-52480000D03*
X43620000Y-49940000D03*
X43620000Y-47400000D03*
X43620000Y-44860000D03*
X43620000Y-42320000D03*
X43620000Y-39780000D03*
X43620000Y-37240000D03*
X43620000Y-34700000D03*
X43620000Y-32160000D03*
X43620000Y-29620000D03*
X43620000Y-27080000D03*
X43620000Y-24540000D03*
X43620000Y-22000000D03*
%TD*%
D10*
%TO.C,PS1*%
X88000000Y-30000000D03*
D11*
X88000000Y-32540000D03*
X88000000Y-35080000D03*
X88000000Y-37620000D03*
%TD*%
D10*
%TO.C,J_ISP*%
X53000000Y-44000000D03*
D11*
X55540000Y-44000000D03*
X53000000Y-46540000D03*
X55540000Y-46540000D03*
X53000000Y-49080000D03*
X55540000Y-49080000D03*
%TD*%
D10*
%TO.C,J_DMAN*%
X8000000Y-60000000D03*
D11*
X8000000Y-62540000D03*
%TD*%
D10*
%TO.C,J_ESTOP*%
X8000000Y-52000000D03*
D11*
X8000000Y-54540000D03*
%TD*%
D10*
%TO.C,JP_BB*%
X18000000Y-48000000D03*
D11*
X18000000Y-50540000D03*
%TD*%
D13*
%TO.C,H1*%
X5000000Y-5000000D03*
%TD*%
%TO.C,H2*%
X95000000Y-5000000D03*
%TD*%
D17*
%TO.C,C1*%
X64000000Y-22000000D03*
D18*
X66500000Y-22000000D03*
%TD*%
M02*
