%TF.GenerationSoftware,KiCad,Pcbnew,9.0.2+dfsg-1*%
%TF.CreationDate,2026-09-27T19:23:12+02:00*%
%TF.ProjectId,torqeedo_pcb,746f7271-6565-4646-9f5f-7063622e6b69,rev?*%
%TF.SameCoordinates,Original*%
%TF.FileFunction,Legend,Top*%
%TF.FilePolarity,Positive*%
%FSLAX46Y46*%
G04 Gerber Fmt 4.6, Leading zero omitted, Abs format (unit mm)*
G04 Created by KiCad (PCBNEW 9.0.2+dfsg-1) date 2026-09-27 19:23:12*
%MOMM*%
%LPD*%
G01*
G04 APERTURE LIST*
%ADD10C,0.120000*%
%ADD11C,0.144000*%
%ADD12C,0.128000*%
%ADD13C,0.160000*%
%ADD14C,0.320000*%
G04 APERTURE END LIST*
D10*
X98000000Y-26000000D02*
X98000000Y-42000000D01*
X78000000Y-26000000D02*
X98000000Y-26000000D01*
X78000000Y-42000000D02*
X78000000Y-26000000D01*
X98000000Y-42000000D02*
X78000000Y-42000000D01*
D11*
X12266164Y-27151726D02*
X12694736Y-27151726D01*
X12180450Y-27408869D02*
X12480450Y-26508869D01*
X12480450Y-26508869D02*
X12780450Y-27408869D01*
X10909021Y-51937440D02*
X11209021Y-51937440D01*
X11337593Y-52408869D02*
X10909021Y-52408869D01*
X10909021Y-52408869D02*
X10909021Y-51508869D01*
X10909021Y-51508869D02*
X11337593Y-51508869D01*
X11723307Y-52066012D02*
X12409022Y-52066012D01*
X12794736Y-52366012D02*
X12923308Y-52408869D01*
X12923308Y-52408869D02*
X13137593Y-52408869D01*
X13137593Y-52408869D02*
X13223308Y-52366012D01*
X13223308Y-52366012D02*
X13266165Y-52323154D01*
X13266165Y-52323154D02*
X13309022Y-52237440D01*
X13309022Y-52237440D02*
X13309022Y-52151726D01*
X13309022Y-52151726D02*
X13266165Y-52066012D01*
X13266165Y-52066012D02*
X13223308Y-52023154D01*
X13223308Y-52023154D02*
X13137593Y-51980297D01*
X13137593Y-51980297D02*
X12966165Y-51937440D01*
X12966165Y-51937440D02*
X12880450Y-51894583D01*
X12880450Y-51894583D02*
X12837593Y-51851726D01*
X12837593Y-51851726D02*
X12794736Y-51766012D01*
X12794736Y-51766012D02*
X12794736Y-51680297D01*
X12794736Y-51680297D02*
X12837593Y-51594583D01*
X12837593Y-51594583D02*
X12880450Y-51551726D01*
X12880450Y-51551726D02*
X12966165Y-51508869D01*
X12966165Y-51508869D02*
X13180450Y-51508869D01*
X13180450Y-51508869D02*
X13309022Y-51551726D01*
X13566165Y-51508869D02*
X14080451Y-51508869D01*
X13823308Y-52408869D02*
X13823308Y-51508869D01*
X14551879Y-51508869D02*
X14723307Y-51508869D01*
X14723307Y-51508869D02*
X14809022Y-51551726D01*
X14809022Y-51551726D02*
X14894736Y-51637440D01*
X14894736Y-51637440D02*
X14937593Y-51808869D01*
X14937593Y-51808869D02*
X14937593Y-52108869D01*
X14937593Y-52108869D02*
X14894736Y-52280297D01*
X14894736Y-52280297D02*
X14809022Y-52366012D01*
X14809022Y-52366012D02*
X14723307Y-52408869D01*
X14723307Y-52408869D02*
X14551879Y-52408869D01*
X14551879Y-52408869D02*
X14466165Y-52366012D01*
X14466165Y-52366012D02*
X14380450Y-52280297D01*
X14380450Y-52280297D02*
X14337593Y-52108869D01*
X14337593Y-52108869D02*
X14337593Y-51808869D01*
X14337593Y-51808869D02*
X14380450Y-51637440D01*
X14380450Y-51637440D02*
X14466165Y-51551726D01*
X14466165Y-51551726D02*
X14551879Y-51508869D01*
X15323307Y-52408869D02*
X15323307Y-51508869D01*
X15323307Y-51508869D02*
X15666164Y-51508869D01*
X15666164Y-51508869D02*
X15751879Y-51551726D01*
X15751879Y-51551726D02*
X15794736Y-51594583D01*
X15794736Y-51594583D02*
X15837593Y-51680297D01*
X15837593Y-51680297D02*
X15837593Y-51808869D01*
X15837593Y-51808869D02*
X15794736Y-51894583D01*
X15794736Y-51894583D02*
X15751879Y-51937440D01*
X15751879Y-51937440D02*
X15666164Y-51980297D01*
X15666164Y-51980297D02*
X15323307Y-51980297D01*
X72234286Y-4151726D02*
X72148572Y-4108869D01*
X72148572Y-4108869D02*
X72020000Y-4108869D01*
X72020000Y-4108869D02*
X71891429Y-4151726D01*
X71891429Y-4151726D02*
X71805714Y-4237440D01*
X71805714Y-4237440D02*
X71762857Y-4323154D01*
X71762857Y-4323154D02*
X71720000Y-4494583D01*
X71720000Y-4494583D02*
X71720000Y-4623154D01*
X71720000Y-4623154D02*
X71762857Y-4794583D01*
X71762857Y-4794583D02*
X71805714Y-4880297D01*
X71805714Y-4880297D02*
X71891429Y-4966012D01*
X71891429Y-4966012D02*
X72020000Y-5008869D01*
X72020000Y-5008869D02*
X72105714Y-5008869D01*
X72105714Y-5008869D02*
X72234286Y-4966012D01*
X72234286Y-4966012D02*
X72277143Y-4923154D01*
X72277143Y-4923154D02*
X72277143Y-4623154D01*
X72277143Y-4623154D02*
X72105714Y-4623154D01*
X72662857Y-5008869D02*
X72662857Y-4108869D01*
X72662857Y-4108869D02*
X73177143Y-5008869D01*
X73177143Y-5008869D02*
X73177143Y-4108869D01*
X73605714Y-5008869D02*
X73605714Y-4108869D01*
X73605714Y-4108869D02*
X73820000Y-4108869D01*
X73820000Y-4108869D02*
X73948571Y-4151726D01*
X73948571Y-4151726D02*
X74034286Y-4237440D01*
X74034286Y-4237440D02*
X74077143Y-4323154D01*
X74077143Y-4323154D02*
X74120000Y-4494583D01*
X74120000Y-4494583D02*
X74120000Y-4623154D01*
X74120000Y-4623154D02*
X74077143Y-4794583D01*
X74077143Y-4794583D02*
X74034286Y-4880297D01*
X74034286Y-4880297D02*
X73948571Y-4966012D01*
X73948571Y-4966012D02*
X73820000Y-5008869D01*
X73820000Y-5008869D02*
X73605714Y-5008869D01*
D12*
X36909523Y-9201534D02*
X36833333Y-9163439D01*
X36833333Y-9163439D02*
X36719047Y-9163439D01*
X36719047Y-9163439D02*
X36604761Y-9201534D01*
X36604761Y-9201534D02*
X36528571Y-9277724D01*
X36528571Y-9277724D02*
X36490476Y-9353915D01*
X36490476Y-9353915D02*
X36452380Y-9506296D01*
X36452380Y-9506296D02*
X36452380Y-9620582D01*
X36452380Y-9620582D02*
X36490476Y-9772963D01*
X36490476Y-9772963D02*
X36528571Y-9849153D01*
X36528571Y-9849153D02*
X36604761Y-9925344D01*
X36604761Y-9925344D02*
X36719047Y-9963439D01*
X36719047Y-9963439D02*
X36795238Y-9963439D01*
X36795238Y-9963439D02*
X36909523Y-9925344D01*
X36909523Y-9925344D02*
X36947619Y-9887248D01*
X36947619Y-9887248D02*
X36947619Y-9620582D01*
X36947619Y-9620582D02*
X36795238Y-9620582D01*
D13*
X40095237Y-76754299D02*
X40095237Y-76087632D01*
X40095237Y-76278108D02*
X40142856Y-76182870D01*
X40142856Y-76182870D02*
X40190475Y-76135251D01*
X40190475Y-76135251D02*
X40285713Y-76087632D01*
X40285713Y-76087632D02*
X40380951Y-76087632D01*
X41095237Y-76706680D02*
X40999999Y-76754299D01*
X40999999Y-76754299D02*
X40809523Y-76754299D01*
X40809523Y-76754299D02*
X40714285Y-76706680D01*
X40714285Y-76706680D02*
X40666666Y-76611441D01*
X40666666Y-76611441D02*
X40666666Y-76230489D01*
X40666666Y-76230489D02*
X40714285Y-76135251D01*
X40714285Y-76135251D02*
X40809523Y-76087632D01*
X40809523Y-76087632D02*
X40999999Y-76087632D01*
X40999999Y-76087632D02*
X41095237Y-76135251D01*
X41095237Y-76135251D02*
X41142856Y-76230489D01*
X41142856Y-76230489D02*
X41142856Y-76325727D01*
X41142856Y-76325727D02*
X40666666Y-76420965D01*
X41476190Y-76087632D02*
X41714285Y-76754299D01*
X41714285Y-76754299D02*
X41952380Y-76087632D01*
X43047619Y-76468584D02*
X43523809Y-76468584D01*
X42952381Y-76754299D02*
X43285714Y-75754299D01*
X43285714Y-75754299D02*
X43619047Y-76754299D01*
X45476191Y-76373346D02*
X46238096Y-76373346D01*
X48380953Y-76754299D02*
X48285715Y-76706680D01*
X48285715Y-76706680D02*
X48238096Y-76611441D01*
X48238096Y-76611441D02*
X48238096Y-75754299D01*
X48904763Y-76754299D02*
X48809525Y-76706680D01*
X48809525Y-76706680D02*
X48761906Y-76659060D01*
X48761906Y-76659060D02*
X48714287Y-76563822D01*
X48714287Y-76563822D02*
X48714287Y-76278108D01*
X48714287Y-76278108D02*
X48761906Y-76182870D01*
X48761906Y-76182870D02*
X48809525Y-76135251D01*
X48809525Y-76135251D02*
X48904763Y-76087632D01*
X48904763Y-76087632D02*
X49047620Y-76087632D01*
X49047620Y-76087632D02*
X49142858Y-76135251D01*
X49142858Y-76135251D02*
X49190477Y-76182870D01*
X49190477Y-76182870D02*
X49238096Y-76278108D01*
X49238096Y-76278108D02*
X49238096Y-76563822D01*
X49238096Y-76563822D02*
X49190477Y-76659060D01*
X49190477Y-76659060D02*
X49142858Y-76706680D01*
X49142858Y-76706680D02*
X49047620Y-76754299D01*
X49047620Y-76754299D02*
X48904763Y-76754299D01*
X50095239Y-76087632D02*
X50095239Y-76897156D01*
X50095239Y-76897156D02*
X50047620Y-76992394D01*
X50047620Y-76992394D02*
X50000001Y-77040013D01*
X50000001Y-77040013D02*
X49904763Y-77087632D01*
X49904763Y-77087632D02*
X49761906Y-77087632D01*
X49761906Y-77087632D02*
X49666668Y-77040013D01*
X50095239Y-76706680D02*
X50000001Y-76754299D01*
X50000001Y-76754299D02*
X49809525Y-76754299D01*
X49809525Y-76754299D02*
X49714287Y-76706680D01*
X49714287Y-76706680D02*
X49666668Y-76659060D01*
X49666668Y-76659060D02*
X49619049Y-76563822D01*
X49619049Y-76563822D02*
X49619049Y-76278108D01*
X49619049Y-76278108D02*
X49666668Y-76182870D01*
X49666668Y-76182870D02*
X49714287Y-76135251D01*
X49714287Y-76135251D02*
X49809525Y-76087632D01*
X49809525Y-76087632D02*
X50000001Y-76087632D01*
X50000001Y-76087632D02*
X50095239Y-76135251D01*
X50571430Y-76754299D02*
X50571430Y-76087632D01*
X50571430Y-75754299D02*
X50523811Y-75801918D01*
X50523811Y-75801918D02*
X50571430Y-75849537D01*
X50571430Y-75849537D02*
X50619049Y-75801918D01*
X50619049Y-75801918D02*
X50571430Y-75754299D01*
X50571430Y-75754299D02*
X50571430Y-75849537D01*
X51476191Y-76706680D02*
X51380953Y-76754299D01*
X51380953Y-76754299D02*
X51190477Y-76754299D01*
X51190477Y-76754299D02*
X51095239Y-76706680D01*
X51095239Y-76706680D02*
X51047620Y-76659060D01*
X51047620Y-76659060D02*
X51000001Y-76563822D01*
X51000001Y-76563822D02*
X51000001Y-76278108D01*
X51000001Y-76278108D02*
X51047620Y-76182870D01*
X51047620Y-76182870D02*
X51095239Y-76135251D01*
X51095239Y-76135251D02*
X51190477Y-76087632D01*
X51190477Y-76087632D02*
X51380953Y-76087632D01*
X51380953Y-76087632D02*
X51476191Y-76135251D01*
X52333334Y-76754299D02*
X52333334Y-76230489D01*
X52333334Y-76230489D02*
X52285715Y-76135251D01*
X52285715Y-76135251D02*
X52190477Y-76087632D01*
X52190477Y-76087632D02*
X52000001Y-76087632D01*
X52000001Y-76087632D02*
X51904763Y-76135251D01*
X52333334Y-76706680D02*
X52238096Y-76754299D01*
X52238096Y-76754299D02*
X52000001Y-76754299D01*
X52000001Y-76754299D02*
X51904763Y-76706680D01*
X51904763Y-76706680D02*
X51857144Y-76611441D01*
X51857144Y-76611441D02*
X51857144Y-76516203D01*
X51857144Y-76516203D02*
X51904763Y-76420965D01*
X51904763Y-76420965D02*
X52000001Y-76373346D01*
X52000001Y-76373346D02*
X52238096Y-76373346D01*
X52238096Y-76373346D02*
X52333334Y-76325727D01*
X53571430Y-76373346D02*
X54333335Y-76373346D01*
X53952382Y-76754299D02*
X53952382Y-75992394D01*
X56142858Y-76754299D02*
X55809525Y-76278108D01*
X55571430Y-76754299D02*
X55571430Y-75754299D01*
X55571430Y-75754299D02*
X55952382Y-75754299D01*
X55952382Y-75754299D02*
X56047620Y-75801918D01*
X56047620Y-75801918D02*
X56095239Y-75849537D01*
X56095239Y-75849537D02*
X56142858Y-75944775D01*
X56142858Y-75944775D02*
X56142858Y-76087632D01*
X56142858Y-76087632D02*
X56095239Y-76182870D01*
X56095239Y-76182870D02*
X56047620Y-76230489D01*
X56047620Y-76230489D02*
X55952382Y-76278108D01*
X55952382Y-76278108D02*
X55571430Y-76278108D01*
X56523811Y-76706680D02*
X56666668Y-76754299D01*
X56666668Y-76754299D02*
X56904763Y-76754299D01*
X56904763Y-76754299D02*
X57000001Y-76706680D01*
X57000001Y-76706680D02*
X57047620Y-76659060D01*
X57047620Y-76659060D02*
X57095239Y-76563822D01*
X57095239Y-76563822D02*
X57095239Y-76468584D01*
X57095239Y-76468584D02*
X57047620Y-76373346D01*
X57047620Y-76373346D02*
X57000001Y-76325727D01*
X57000001Y-76325727D02*
X56904763Y-76278108D01*
X56904763Y-76278108D02*
X56714287Y-76230489D01*
X56714287Y-76230489D02*
X56619049Y-76182870D01*
X56619049Y-76182870D02*
X56571430Y-76135251D01*
X56571430Y-76135251D02*
X56523811Y-76040013D01*
X56523811Y-76040013D02*
X56523811Y-75944775D01*
X56523811Y-75944775D02*
X56571430Y-75849537D01*
X56571430Y-75849537D02*
X56619049Y-75801918D01*
X56619049Y-75801918D02*
X56714287Y-75754299D01*
X56714287Y-75754299D02*
X56952382Y-75754299D01*
X56952382Y-75754299D02*
X57095239Y-75801918D01*
X57952382Y-76087632D02*
X57952382Y-76754299D01*
X57714287Y-75706680D02*
X57476192Y-76420965D01*
X57476192Y-76420965D02*
X58095239Y-76420965D01*
X58619049Y-76182870D02*
X58523811Y-76135251D01*
X58523811Y-76135251D02*
X58476192Y-76087632D01*
X58476192Y-76087632D02*
X58428573Y-75992394D01*
X58428573Y-75992394D02*
X58428573Y-75944775D01*
X58428573Y-75944775D02*
X58476192Y-75849537D01*
X58476192Y-75849537D02*
X58523811Y-75801918D01*
X58523811Y-75801918D02*
X58619049Y-75754299D01*
X58619049Y-75754299D02*
X58809525Y-75754299D01*
X58809525Y-75754299D02*
X58904763Y-75801918D01*
X58904763Y-75801918D02*
X58952382Y-75849537D01*
X58952382Y-75849537D02*
X59000001Y-75944775D01*
X59000001Y-75944775D02*
X59000001Y-75992394D01*
X59000001Y-75992394D02*
X58952382Y-76087632D01*
X58952382Y-76087632D02*
X58904763Y-76135251D01*
X58904763Y-76135251D02*
X58809525Y-76182870D01*
X58809525Y-76182870D02*
X58619049Y-76182870D01*
X58619049Y-76182870D02*
X58523811Y-76230489D01*
X58523811Y-76230489D02*
X58476192Y-76278108D01*
X58476192Y-76278108D02*
X58428573Y-76373346D01*
X58428573Y-76373346D02*
X58428573Y-76563822D01*
X58428573Y-76563822D02*
X58476192Y-76659060D01*
X58476192Y-76659060D02*
X58523811Y-76706680D01*
X58523811Y-76706680D02*
X58619049Y-76754299D01*
X58619049Y-76754299D02*
X58809525Y-76754299D01*
X58809525Y-76754299D02*
X58904763Y-76706680D01*
X58904763Y-76706680D02*
X58952382Y-76659060D01*
X58952382Y-76659060D02*
X59000001Y-76563822D01*
X59000001Y-76563822D02*
X59000001Y-76373346D01*
X59000001Y-76373346D02*
X58952382Y-76278108D01*
X58952382Y-76278108D02*
X58904763Y-76230489D01*
X58904763Y-76230489D02*
X58809525Y-76182870D01*
X59904763Y-75754299D02*
X59428573Y-75754299D01*
X59428573Y-75754299D02*
X59380954Y-76230489D01*
X59380954Y-76230489D02*
X59428573Y-76182870D01*
X59428573Y-76182870D02*
X59523811Y-76135251D01*
X59523811Y-76135251D02*
X59761906Y-76135251D01*
X59761906Y-76135251D02*
X59857144Y-76182870D01*
X59857144Y-76182870D02*
X59904763Y-76230489D01*
X59904763Y-76230489D02*
X59952382Y-76325727D01*
X59952382Y-76325727D02*
X59952382Y-76563822D01*
X59952382Y-76563822D02*
X59904763Y-76659060D01*
X59904763Y-76659060D02*
X59857144Y-76706680D01*
X59857144Y-76706680D02*
X59761906Y-76754299D01*
X59761906Y-76754299D02*
X59523811Y-76754299D01*
X59523811Y-76754299D02*
X59428573Y-76706680D01*
X59428573Y-76706680D02*
X59380954Y-76659060D01*
D11*
X82492856Y-23337440D02*
X82621428Y-23380297D01*
X82621428Y-23380297D02*
X82664285Y-23423154D01*
X82664285Y-23423154D02*
X82707142Y-23508869D01*
X82707142Y-23508869D02*
X82707142Y-23637440D01*
X82707142Y-23637440D02*
X82664285Y-23723154D01*
X82664285Y-23723154D02*
X82621428Y-23766012D01*
X82621428Y-23766012D02*
X82535713Y-23808869D01*
X82535713Y-23808869D02*
X82192856Y-23808869D01*
X82192856Y-23808869D02*
X82192856Y-22908869D01*
X82192856Y-22908869D02*
X82492856Y-22908869D01*
X82492856Y-22908869D02*
X82578571Y-22951726D01*
X82578571Y-22951726D02*
X82621428Y-22994583D01*
X82621428Y-22994583D02*
X82664285Y-23080297D01*
X82664285Y-23080297D02*
X82664285Y-23166012D01*
X82664285Y-23166012D02*
X82621428Y-23251726D01*
X82621428Y-23251726D02*
X82578571Y-23294583D01*
X82578571Y-23294583D02*
X82492856Y-23337440D01*
X82492856Y-23337440D02*
X82192856Y-23337440D01*
X83092856Y-22908869D02*
X83092856Y-23637440D01*
X83092856Y-23637440D02*
X83135713Y-23723154D01*
X83135713Y-23723154D02*
X83178571Y-23766012D01*
X83178571Y-23766012D02*
X83264285Y-23808869D01*
X83264285Y-23808869D02*
X83435713Y-23808869D01*
X83435713Y-23808869D02*
X83521428Y-23766012D01*
X83521428Y-23766012D02*
X83564285Y-23723154D01*
X83564285Y-23723154D02*
X83607142Y-23637440D01*
X83607142Y-23637440D02*
X83607142Y-22908869D01*
X84549999Y-23723154D02*
X84507142Y-23766012D01*
X84507142Y-23766012D02*
X84378570Y-23808869D01*
X84378570Y-23808869D02*
X84292856Y-23808869D01*
X84292856Y-23808869D02*
X84164285Y-23766012D01*
X84164285Y-23766012D02*
X84078570Y-23680297D01*
X84078570Y-23680297D02*
X84035713Y-23594583D01*
X84035713Y-23594583D02*
X83992856Y-23423154D01*
X83992856Y-23423154D02*
X83992856Y-23294583D01*
X83992856Y-23294583D02*
X84035713Y-23123154D01*
X84035713Y-23123154D02*
X84078570Y-23037440D01*
X84078570Y-23037440D02*
X84164285Y-22951726D01*
X84164285Y-22951726D02*
X84292856Y-22908869D01*
X84292856Y-22908869D02*
X84378570Y-22908869D01*
X84378570Y-22908869D02*
X84507142Y-22951726D01*
X84507142Y-22951726D02*
X84549999Y-22994583D01*
X84935713Y-23808869D02*
X84935713Y-22908869D01*
X85449999Y-23808869D02*
X85064285Y-23294583D01*
X85449999Y-22908869D02*
X84935713Y-23423154D01*
X86992856Y-23808869D02*
X86478570Y-23808869D01*
X86735713Y-23808869D02*
X86735713Y-22908869D01*
X86735713Y-22908869D02*
X86649999Y-23037440D01*
X86649999Y-23037440D02*
X86564284Y-23123154D01*
X86564284Y-23123154D02*
X86478570Y-23166012D01*
X87335713Y-22994583D02*
X87378570Y-22951726D01*
X87378570Y-22951726D02*
X87464285Y-22908869D01*
X87464285Y-22908869D02*
X87678570Y-22908869D01*
X87678570Y-22908869D02*
X87764285Y-22951726D01*
X87764285Y-22951726D02*
X87807142Y-22994583D01*
X87807142Y-22994583D02*
X87849999Y-23080297D01*
X87849999Y-23080297D02*
X87849999Y-23166012D01*
X87849999Y-23166012D02*
X87807142Y-23294583D01*
X87807142Y-23294583D02*
X87292856Y-23808869D01*
X87292856Y-23808869D02*
X87849999Y-23808869D01*
X88107142Y-22908869D02*
X88407142Y-23808869D01*
X88407142Y-23808869D02*
X88707142Y-22908869D01*
X89692856Y-23466012D02*
X90378571Y-23466012D01*
X90807142Y-23208869D02*
X91492857Y-23466012D01*
X91492857Y-23466012D02*
X90807142Y-23723154D01*
X93035714Y-22908869D02*
X92607142Y-22908869D01*
X92607142Y-22908869D02*
X92564285Y-23337440D01*
X92564285Y-23337440D02*
X92607142Y-23294583D01*
X92607142Y-23294583D02*
X92692857Y-23251726D01*
X92692857Y-23251726D02*
X92907142Y-23251726D01*
X92907142Y-23251726D02*
X92992857Y-23294583D01*
X92992857Y-23294583D02*
X93035714Y-23337440D01*
X93035714Y-23337440D02*
X93078571Y-23423154D01*
X93078571Y-23423154D02*
X93078571Y-23637440D01*
X93078571Y-23637440D02*
X93035714Y-23723154D01*
X93035714Y-23723154D02*
X92992857Y-23766012D01*
X92992857Y-23766012D02*
X92907142Y-23808869D01*
X92907142Y-23808869D02*
X92692857Y-23808869D01*
X92692857Y-23808869D02*
X92607142Y-23766012D01*
X92607142Y-23766012D02*
X92564285Y-23723154D01*
X93335714Y-22908869D02*
X93635714Y-23808869D01*
X93635714Y-23808869D02*
X93935714Y-22908869D01*
D12*
X34369523Y-9201534D02*
X34293333Y-9163439D01*
X34293333Y-9163439D02*
X34179047Y-9163439D01*
X34179047Y-9163439D02*
X34064761Y-9201534D01*
X34064761Y-9201534D02*
X33988571Y-9277724D01*
X33988571Y-9277724D02*
X33950476Y-9353915D01*
X33950476Y-9353915D02*
X33912380Y-9506296D01*
X33912380Y-9506296D02*
X33912380Y-9620582D01*
X33912380Y-9620582D02*
X33950476Y-9772963D01*
X33950476Y-9772963D02*
X33988571Y-9849153D01*
X33988571Y-9849153D02*
X34064761Y-9925344D01*
X34064761Y-9925344D02*
X34179047Y-9963439D01*
X34179047Y-9963439D02*
X34255238Y-9963439D01*
X34255238Y-9963439D02*
X34369523Y-9925344D01*
X34369523Y-9925344D02*
X34407619Y-9887248D01*
X34407619Y-9887248D02*
X34407619Y-9620582D01*
X34407619Y-9620582D02*
X34255238Y-9620582D01*
D11*
X76414285Y-4666012D02*
X77100000Y-4666012D01*
X76757142Y-5008869D02*
X76757142Y-4323154D01*
X78000000Y-5008869D02*
X77485714Y-5008869D01*
X77742857Y-5008869D02*
X77742857Y-4108869D01*
X77742857Y-4108869D02*
X77657143Y-4237440D01*
X77657143Y-4237440D02*
X77571428Y-4323154D01*
X77571428Y-4323154D02*
X77485714Y-4366012D01*
X78342857Y-4194583D02*
X78385714Y-4151726D01*
X78385714Y-4151726D02*
X78471429Y-4108869D01*
X78471429Y-4108869D02*
X78685714Y-4108869D01*
X78685714Y-4108869D02*
X78771429Y-4151726D01*
X78771429Y-4151726D02*
X78814286Y-4194583D01*
X78814286Y-4194583D02*
X78857143Y-4280297D01*
X78857143Y-4280297D02*
X78857143Y-4366012D01*
X78857143Y-4366012D02*
X78814286Y-4494583D01*
X78814286Y-4494583D02*
X78300000Y-5008869D01*
X78300000Y-5008869D02*
X78857143Y-5008869D01*
X79114286Y-4108869D02*
X79414286Y-5008869D01*
X79414286Y-5008869D02*
X79714286Y-4108869D01*
X20649999Y-42237440D02*
X20778571Y-42280297D01*
X20778571Y-42280297D02*
X20821428Y-42323154D01*
X20821428Y-42323154D02*
X20864285Y-42408869D01*
X20864285Y-42408869D02*
X20864285Y-42537440D01*
X20864285Y-42537440D02*
X20821428Y-42623154D01*
X20821428Y-42623154D02*
X20778571Y-42666012D01*
X20778571Y-42666012D02*
X20692856Y-42708869D01*
X20692856Y-42708869D02*
X20349999Y-42708869D01*
X20349999Y-42708869D02*
X20349999Y-41808869D01*
X20349999Y-41808869D02*
X20649999Y-41808869D01*
X20649999Y-41808869D02*
X20735714Y-41851726D01*
X20735714Y-41851726D02*
X20778571Y-41894583D01*
X20778571Y-41894583D02*
X20821428Y-41980297D01*
X20821428Y-41980297D02*
X20821428Y-42066012D01*
X20821428Y-42066012D02*
X20778571Y-42151726D01*
X20778571Y-42151726D02*
X20735714Y-42194583D01*
X20735714Y-42194583D02*
X20649999Y-42237440D01*
X20649999Y-42237440D02*
X20349999Y-42237440D01*
X21249999Y-42708869D02*
X21249999Y-41808869D01*
X21635713Y-42451726D02*
X22064285Y-42451726D01*
X21549999Y-42708869D02*
X21849999Y-41808869D01*
X21849999Y-41808869D02*
X22149999Y-42708869D01*
X22407142Y-42666012D02*
X22535714Y-42708869D01*
X22535714Y-42708869D02*
X22749999Y-42708869D01*
X22749999Y-42708869D02*
X22835714Y-42666012D01*
X22835714Y-42666012D02*
X22878571Y-42623154D01*
X22878571Y-42623154D02*
X22921428Y-42537440D01*
X22921428Y-42537440D02*
X22921428Y-42451726D01*
X22921428Y-42451726D02*
X22878571Y-42366012D01*
X22878571Y-42366012D02*
X22835714Y-42323154D01*
X22835714Y-42323154D02*
X22749999Y-42280297D01*
X22749999Y-42280297D02*
X22578571Y-42237440D01*
X22578571Y-42237440D02*
X22492856Y-42194583D01*
X22492856Y-42194583D02*
X22449999Y-42151726D01*
X22449999Y-42151726D02*
X22407142Y-42066012D01*
X22407142Y-42066012D02*
X22407142Y-41980297D01*
X22407142Y-41980297D02*
X22449999Y-41894583D01*
X22449999Y-41894583D02*
X22492856Y-41851726D01*
X22492856Y-41851726D02*
X22578571Y-41808869D01*
X22578571Y-41808869D02*
X22792856Y-41808869D01*
X22792856Y-41808869D02*
X22921428Y-41851726D01*
X23264285Y-42451726D02*
X23692857Y-42451726D01*
X23178571Y-42708869D02*
X23478571Y-41808869D01*
X23478571Y-41808869D02*
X23778571Y-42708869D01*
X52809021Y-71146012D02*
X53494736Y-71146012D01*
X53151878Y-71488869D02*
X53151878Y-70803154D01*
X54351879Y-70588869D02*
X53923307Y-70588869D01*
X53923307Y-70588869D02*
X53880450Y-71017440D01*
X53880450Y-71017440D02*
X53923307Y-70974583D01*
X53923307Y-70974583D02*
X54009022Y-70931726D01*
X54009022Y-70931726D02*
X54223307Y-70931726D01*
X54223307Y-70931726D02*
X54309022Y-70974583D01*
X54309022Y-70974583D02*
X54351879Y-71017440D01*
X54351879Y-71017440D02*
X54394736Y-71103154D01*
X54394736Y-71103154D02*
X54394736Y-71317440D01*
X54394736Y-71317440D02*
X54351879Y-71403154D01*
X54351879Y-71403154D02*
X54309022Y-71446012D01*
X54309022Y-71446012D02*
X54223307Y-71488869D01*
X54223307Y-71488869D02*
X54009022Y-71488869D01*
X54009022Y-71488869D02*
X53923307Y-71446012D01*
X53923307Y-71446012D02*
X53880450Y-71403154D01*
X54651879Y-70588869D02*
X54951879Y-71488869D01*
X54951879Y-71488869D02*
X55251879Y-70588869D01*
X12609021Y-34237440D02*
X12737593Y-34280297D01*
X12737593Y-34280297D02*
X12780450Y-34323154D01*
X12780450Y-34323154D02*
X12823307Y-34408869D01*
X12823307Y-34408869D02*
X12823307Y-34537440D01*
X12823307Y-34537440D02*
X12780450Y-34623154D01*
X12780450Y-34623154D02*
X12737593Y-34666012D01*
X12737593Y-34666012D02*
X12651878Y-34708869D01*
X12651878Y-34708869D02*
X12309021Y-34708869D01*
X12309021Y-34708869D02*
X12309021Y-33808869D01*
X12309021Y-33808869D02*
X12609021Y-33808869D01*
X12609021Y-33808869D02*
X12694736Y-33851726D01*
X12694736Y-33851726D02*
X12737593Y-33894583D01*
X12737593Y-33894583D02*
X12780450Y-33980297D01*
X12780450Y-33980297D02*
X12780450Y-34066012D01*
X12780450Y-34066012D02*
X12737593Y-34151726D01*
X12737593Y-34151726D02*
X12694736Y-34194583D01*
X12694736Y-34194583D02*
X12609021Y-34237440D01*
X12609021Y-34237440D02*
X12309021Y-34237440D01*
D12*
X31467619Y-9163439D02*
X31086667Y-9163439D01*
X31086667Y-9163439D02*
X31048571Y-9544391D01*
X31048571Y-9544391D02*
X31086667Y-9506296D01*
X31086667Y-9506296D02*
X31162857Y-9468201D01*
X31162857Y-9468201D02*
X31353333Y-9468201D01*
X31353333Y-9468201D02*
X31429524Y-9506296D01*
X31429524Y-9506296D02*
X31467619Y-9544391D01*
X31467619Y-9544391D02*
X31505714Y-9620582D01*
X31505714Y-9620582D02*
X31505714Y-9811058D01*
X31505714Y-9811058D02*
X31467619Y-9887248D01*
X31467619Y-9887248D02*
X31429524Y-9925344D01*
X31429524Y-9925344D02*
X31353333Y-9963439D01*
X31353333Y-9963439D02*
X31162857Y-9963439D01*
X31162857Y-9963439D02*
X31086667Y-9925344D01*
X31086667Y-9925344D02*
X31048571Y-9887248D01*
X31734286Y-9163439D02*
X32000953Y-9963439D01*
X32000953Y-9963439D02*
X32267619Y-9163439D01*
D11*
X83933835Y-30408869D02*
X83933835Y-29508869D01*
X84362406Y-30408869D02*
X84362406Y-29508869D01*
X84362406Y-29508869D02*
X84876692Y-30408869D01*
X84876692Y-30408869D02*
X84876692Y-29508869D01*
X85305263Y-30066012D02*
X85990978Y-30066012D01*
X85648120Y-30408869D02*
X85648120Y-29723154D01*
X20585714Y-49237440D02*
X20714286Y-49280297D01*
X20714286Y-49280297D02*
X20757143Y-49323154D01*
X20757143Y-49323154D02*
X20800000Y-49408869D01*
X20800000Y-49408869D02*
X20800000Y-49537440D01*
X20800000Y-49537440D02*
X20757143Y-49623154D01*
X20757143Y-49623154D02*
X20714286Y-49666012D01*
X20714286Y-49666012D02*
X20628571Y-49708869D01*
X20628571Y-49708869D02*
X20285714Y-49708869D01*
X20285714Y-49708869D02*
X20285714Y-48808869D01*
X20285714Y-48808869D02*
X20585714Y-48808869D01*
X20585714Y-48808869D02*
X20671429Y-48851726D01*
X20671429Y-48851726D02*
X20714286Y-48894583D01*
X20714286Y-48894583D02*
X20757143Y-48980297D01*
X20757143Y-48980297D02*
X20757143Y-49066012D01*
X20757143Y-49066012D02*
X20714286Y-49151726D01*
X20714286Y-49151726D02*
X20671429Y-49194583D01*
X20671429Y-49194583D02*
X20585714Y-49237440D01*
X20585714Y-49237440D02*
X20285714Y-49237440D01*
X21185714Y-49708869D02*
X21185714Y-48808869D01*
X21571428Y-49451726D02*
X22000000Y-49451726D01*
X21485714Y-49708869D02*
X21785714Y-48808869D01*
X21785714Y-48808869D02*
X22085714Y-49708869D01*
X22342857Y-49666012D02*
X22471429Y-49708869D01*
X22471429Y-49708869D02*
X22685714Y-49708869D01*
X22685714Y-49708869D02*
X22771429Y-49666012D01*
X22771429Y-49666012D02*
X22814286Y-49623154D01*
X22814286Y-49623154D02*
X22857143Y-49537440D01*
X22857143Y-49537440D02*
X22857143Y-49451726D01*
X22857143Y-49451726D02*
X22814286Y-49366012D01*
X22814286Y-49366012D02*
X22771429Y-49323154D01*
X22771429Y-49323154D02*
X22685714Y-49280297D01*
X22685714Y-49280297D02*
X22514286Y-49237440D01*
X22514286Y-49237440D02*
X22428571Y-49194583D01*
X22428571Y-49194583D02*
X22385714Y-49151726D01*
X22385714Y-49151726D02*
X22342857Y-49066012D01*
X22342857Y-49066012D02*
X22342857Y-48980297D01*
X22342857Y-48980297D02*
X22385714Y-48894583D01*
X22385714Y-48894583D02*
X22428571Y-48851726D01*
X22428571Y-48851726D02*
X22514286Y-48808869D01*
X22514286Y-48808869D02*
X22728571Y-48808869D01*
X22728571Y-48808869D02*
X22857143Y-48851726D01*
X23542857Y-49237440D02*
X23671429Y-49280297D01*
X23671429Y-49280297D02*
X23714286Y-49323154D01*
X23714286Y-49323154D02*
X23757143Y-49408869D01*
X23757143Y-49408869D02*
X23757143Y-49537440D01*
X23757143Y-49537440D02*
X23714286Y-49623154D01*
X23714286Y-49623154D02*
X23671429Y-49666012D01*
X23671429Y-49666012D02*
X23585714Y-49708869D01*
X23585714Y-49708869D02*
X23242857Y-49708869D01*
X23242857Y-49708869D02*
X23242857Y-48808869D01*
X23242857Y-48808869D02*
X23542857Y-48808869D01*
X23542857Y-48808869D02*
X23628572Y-48851726D01*
X23628572Y-48851726D02*
X23671429Y-48894583D01*
X23671429Y-48894583D02*
X23714286Y-48980297D01*
X23714286Y-48980297D02*
X23714286Y-49066012D01*
X23714286Y-49066012D02*
X23671429Y-49151726D01*
X23671429Y-49151726D02*
X23628572Y-49194583D01*
X23628572Y-49194583D02*
X23542857Y-49237440D01*
X23542857Y-49237440D02*
X23242857Y-49237440D01*
X10909021Y-60408869D02*
X10909021Y-59508869D01*
X10909021Y-59508869D02*
X11123307Y-59508869D01*
X11123307Y-59508869D02*
X11251878Y-59551726D01*
X11251878Y-59551726D02*
X11337593Y-59637440D01*
X11337593Y-59637440D02*
X11380450Y-59723154D01*
X11380450Y-59723154D02*
X11423307Y-59894583D01*
X11423307Y-59894583D02*
X11423307Y-60023154D01*
X11423307Y-60023154D02*
X11380450Y-60194583D01*
X11380450Y-60194583D02*
X11337593Y-60280297D01*
X11337593Y-60280297D02*
X11251878Y-60366012D01*
X11251878Y-60366012D02*
X11123307Y-60408869D01*
X11123307Y-60408869D02*
X10909021Y-60408869D01*
X11980450Y-59508869D02*
X12151878Y-59508869D01*
X12151878Y-59508869D02*
X12237593Y-59551726D01*
X12237593Y-59551726D02*
X12323307Y-59637440D01*
X12323307Y-59637440D02*
X12366164Y-59808869D01*
X12366164Y-59808869D02*
X12366164Y-60108869D01*
X12366164Y-60108869D02*
X12323307Y-60280297D01*
X12323307Y-60280297D02*
X12237593Y-60366012D01*
X12237593Y-60366012D02*
X12151878Y-60408869D01*
X12151878Y-60408869D02*
X11980450Y-60408869D01*
X11980450Y-60408869D02*
X11894736Y-60366012D01*
X11894736Y-60366012D02*
X11809021Y-60280297D01*
X11809021Y-60280297D02*
X11766164Y-60108869D01*
X11766164Y-60108869D02*
X11766164Y-59808869D01*
X11766164Y-59808869D02*
X11809021Y-59637440D01*
X11809021Y-59637440D02*
X11894736Y-59551726D01*
X11894736Y-59551726D02*
X11980450Y-59508869D01*
X12751878Y-60408869D02*
X12751878Y-59508869D01*
X12751878Y-59508869D02*
X12966164Y-59508869D01*
X12966164Y-59508869D02*
X13094735Y-59551726D01*
X13094735Y-59551726D02*
X13180450Y-59637440D01*
X13180450Y-59637440D02*
X13223307Y-59723154D01*
X13223307Y-59723154D02*
X13266164Y-59894583D01*
X13266164Y-59894583D02*
X13266164Y-60023154D01*
X13266164Y-60023154D02*
X13223307Y-60194583D01*
X13223307Y-60194583D02*
X13180450Y-60280297D01*
X13180450Y-60280297D02*
X13094735Y-60366012D01*
X13094735Y-60366012D02*
X12966164Y-60408869D01*
X12966164Y-60408869D02*
X12751878Y-60408869D01*
X13651878Y-59937440D02*
X13951878Y-59937440D01*
X14080450Y-60408869D02*
X13651878Y-60408869D01*
X13651878Y-60408869D02*
X13651878Y-59508869D01*
X13651878Y-59508869D02*
X14080450Y-59508869D01*
X15151878Y-60408869D02*
X15151878Y-59508869D01*
X15151878Y-59508869D02*
X15451878Y-60151726D01*
X15451878Y-60151726D02*
X15751878Y-59508869D01*
X15751878Y-59508869D02*
X15751878Y-60408869D01*
X16137592Y-60151726D02*
X16566164Y-60151726D01*
X16051878Y-60408869D02*
X16351878Y-59508869D01*
X16351878Y-59508869D02*
X16651878Y-60408869D01*
X16951878Y-60408869D02*
X16951878Y-59508869D01*
X16951878Y-59508869D02*
X17466164Y-60408869D01*
X17466164Y-60408869D02*
X17466164Y-59508869D01*
X52809021Y-68948869D02*
X52809021Y-68048869D01*
X52809021Y-68048869D02*
X53151878Y-68048869D01*
X53151878Y-68048869D02*
X53237593Y-68091726D01*
X53237593Y-68091726D02*
X53280450Y-68134583D01*
X53280450Y-68134583D02*
X53323307Y-68220297D01*
X53323307Y-68220297D02*
X53323307Y-68348869D01*
X53323307Y-68348869D02*
X53280450Y-68434583D01*
X53280450Y-68434583D02*
X53237593Y-68477440D01*
X53237593Y-68477440D02*
X53151878Y-68520297D01*
X53151878Y-68520297D02*
X52809021Y-68520297D01*
X53880450Y-68048869D02*
X54051878Y-68048869D01*
X54051878Y-68048869D02*
X54137593Y-68091726D01*
X54137593Y-68091726D02*
X54223307Y-68177440D01*
X54223307Y-68177440D02*
X54266164Y-68348869D01*
X54266164Y-68348869D02*
X54266164Y-68648869D01*
X54266164Y-68648869D02*
X54223307Y-68820297D01*
X54223307Y-68820297D02*
X54137593Y-68906012D01*
X54137593Y-68906012D02*
X54051878Y-68948869D01*
X54051878Y-68948869D02*
X53880450Y-68948869D01*
X53880450Y-68948869D02*
X53794736Y-68906012D01*
X53794736Y-68906012D02*
X53709021Y-68820297D01*
X53709021Y-68820297D02*
X53666164Y-68648869D01*
X53666164Y-68648869D02*
X53666164Y-68348869D01*
X53666164Y-68348869D02*
X53709021Y-68177440D01*
X53709021Y-68177440D02*
X53794736Y-68091726D01*
X53794736Y-68091726D02*
X53880450Y-68048869D01*
X54523307Y-68048869D02*
X55037593Y-68048869D01*
X54780450Y-68948869D02*
X54780450Y-68048869D01*
D12*
X25930476Y-9163439D02*
X26387619Y-9163439D01*
X26159047Y-9963439D02*
X26159047Y-9163439D01*
X26578095Y-9163439D02*
X27111429Y-9963439D01*
X27111429Y-9163439D02*
X26578095Y-9963439D01*
D13*
X35857142Y-77501918D02*
X35761904Y-77454299D01*
X35761904Y-77454299D02*
X35619047Y-77454299D01*
X35619047Y-77454299D02*
X35476190Y-77501918D01*
X35476190Y-77501918D02*
X35380952Y-77597156D01*
X35380952Y-77597156D02*
X35333333Y-77692394D01*
X35333333Y-77692394D02*
X35285714Y-77882870D01*
X35285714Y-77882870D02*
X35285714Y-78025727D01*
X35285714Y-78025727D02*
X35333333Y-78216203D01*
X35333333Y-78216203D02*
X35380952Y-78311441D01*
X35380952Y-78311441D02*
X35476190Y-78406680D01*
X35476190Y-78406680D02*
X35619047Y-78454299D01*
X35619047Y-78454299D02*
X35714285Y-78454299D01*
X35714285Y-78454299D02*
X35857142Y-78406680D01*
X35857142Y-78406680D02*
X35904761Y-78359060D01*
X35904761Y-78359060D02*
X35904761Y-78025727D01*
X35904761Y-78025727D02*
X35714285Y-78025727D01*
X36333333Y-77930489D02*
X36666666Y-77930489D01*
X36809523Y-78454299D02*
X36333333Y-78454299D01*
X36333333Y-78454299D02*
X36333333Y-77454299D01*
X36333333Y-77454299D02*
X36809523Y-77454299D01*
X37238095Y-77930489D02*
X37571428Y-77930489D01*
X37714285Y-78454299D02*
X37238095Y-78454299D01*
X37238095Y-78454299D02*
X37238095Y-77454299D01*
X37238095Y-77454299D02*
X37714285Y-77454299D01*
X38142857Y-78454299D02*
X38142857Y-77454299D01*
X38142857Y-77454299D02*
X38714285Y-78454299D01*
X38714285Y-78454299D02*
X38714285Y-77454299D01*
X39904762Y-77549537D02*
X39952381Y-77501918D01*
X39952381Y-77501918D02*
X40047619Y-77454299D01*
X40047619Y-77454299D02*
X40285714Y-77454299D01*
X40285714Y-77454299D02*
X40380952Y-77501918D01*
X40380952Y-77501918D02*
X40428571Y-77549537D01*
X40428571Y-77549537D02*
X40476190Y-77644775D01*
X40476190Y-77644775D02*
X40476190Y-77740013D01*
X40476190Y-77740013D02*
X40428571Y-77882870D01*
X40428571Y-77882870D02*
X39857143Y-78454299D01*
X39857143Y-78454299D02*
X40476190Y-78454299D01*
X40952381Y-78454299D02*
X41142857Y-78454299D01*
X41142857Y-78454299D02*
X41238095Y-78406680D01*
X41238095Y-78406680D02*
X41285714Y-78359060D01*
X41285714Y-78359060D02*
X41380952Y-78216203D01*
X41380952Y-78216203D02*
X41428571Y-78025727D01*
X41428571Y-78025727D02*
X41428571Y-77644775D01*
X41428571Y-77644775D02*
X41380952Y-77549537D01*
X41380952Y-77549537D02*
X41333333Y-77501918D01*
X41333333Y-77501918D02*
X41238095Y-77454299D01*
X41238095Y-77454299D02*
X41047619Y-77454299D01*
X41047619Y-77454299D02*
X40952381Y-77501918D01*
X40952381Y-77501918D02*
X40904762Y-77549537D01*
X40904762Y-77549537D02*
X40857143Y-77644775D01*
X40857143Y-77644775D02*
X40857143Y-77882870D01*
X40857143Y-77882870D02*
X40904762Y-77978108D01*
X40904762Y-77978108D02*
X40952381Y-78025727D01*
X40952381Y-78025727D02*
X41047619Y-78073346D01*
X41047619Y-78073346D02*
X41238095Y-78073346D01*
X41238095Y-78073346D02*
X41333333Y-78025727D01*
X41333333Y-78025727D02*
X41380952Y-77978108D01*
X41380952Y-77978108D02*
X41428571Y-77882870D01*
X41904762Y-78406680D02*
X41904762Y-78454299D01*
X41904762Y-78454299D02*
X41857143Y-78549537D01*
X41857143Y-78549537D02*
X41809524Y-78597156D01*
X42761904Y-77454299D02*
X42571428Y-77454299D01*
X42571428Y-77454299D02*
X42476190Y-77501918D01*
X42476190Y-77501918D02*
X42428571Y-77549537D01*
X42428571Y-77549537D02*
X42333333Y-77692394D01*
X42333333Y-77692394D02*
X42285714Y-77882870D01*
X42285714Y-77882870D02*
X42285714Y-78263822D01*
X42285714Y-78263822D02*
X42333333Y-78359060D01*
X42333333Y-78359060D02*
X42380952Y-78406680D01*
X42380952Y-78406680D02*
X42476190Y-78454299D01*
X42476190Y-78454299D02*
X42666666Y-78454299D01*
X42666666Y-78454299D02*
X42761904Y-78406680D01*
X42761904Y-78406680D02*
X42809523Y-78359060D01*
X42809523Y-78359060D02*
X42857142Y-78263822D01*
X42857142Y-78263822D02*
X42857142Y-78025727D01*
X42857142Y-78025727D02*
X42809523Y-77930489D01*
X42809523Y-77930489D02*
X42761904Y-77882870D01*
X42761904Y-77882870D02*
X42666666Y-77835251D01*
X42666666Y-77835251D02*
X42476190Y-77835251D01*
X42476190Y-77835251D02*
X42380952Y-77882870D01*
X42380952Y-77882870D02*
X42333333Y-77930489D01*
X42333333Y-77930489D02*
X42285714Y-78025727D01*
X43142857Y-77454299D02*
X43476190Y-78454299D01*
X43476190Y-78454299D02*
X43809523Y-77454299D01*
X44904762Y-78454299D02*
X44904762Y-77454299D01*
X44904762Y-77454299D02*
X45238095Y-78168584D01*
X45238095Y-78168584D02*
X45571428Y-77454299D01*
X45571428Y-77454299D02*
X45571428Y-78454299D01*
X46238095Y-77454299D02*
X46428571Y-77454299D01*
X46428571Y-77454299D02*
X46523809Y-77501918D01*
X46523809Y-77501918D02*
X46619047Y-77597156D01*
X46619047Y-77597156D02*
X46666666Y-77787632D01*
X46666666Y-77787632D02*
X46666666Y-78120965D01*
X46666666Y-78120965D02*
X46619047Y-78311441D01*
X46619047Y-78311441D02*
X46523809Y-78406680D01*
X46523809Y-78406680D02*
X46428571Y-78454299D01*
X46428571Y-78454299D02*
X46238095Y-78454299D01*
X46238095Y-78454299D02*
X46142857Y-78406680D01*
X46142857Y-78406680D02*
X46047619Y-78311441D01*
X46047619Y-78311441D02*
X46000000Y-78120965D01*
X46000000Y-78120965D02*
X46000000Y-77787632D01*
X46000000Y-77787632D02*
X46047619Y-77597156D01*
X46047619Y-77597156D02*
X46142857Y-77501918D01*
X46142857Y-77501918D02*
X46238095Y-77454299D01*
X46952381Y-77454299D02*
X47523809Y-77454299D01*
X47238095Y-78454299D02*
X47238095Y-77454299D01*
X48047619Y-77454299D02*
X48238095Y-77454299D01*
X48238095Y-77454299D02*
X48333333Y-77501918D01*
X48333333Y-77501918D02*
X48428571Y-77597156D01*
X48428571Y-77597156D02*
X48476190Y-77787632D01*
X48476190Y-77787632D02*
X48476190Y-78120965D01*
X48476190Y-78120965D02*
X48428571Y-78311441D01*
X48428571Y-78311441D02*
X48333333Y-78406680D01*
X48333333Y-78406680D02*
X48238095Y-78454299D01*
X48238095Y-78454299D02*
X48047619Y-78454299D01*
X48047619Y-78454299D02*
X47952381Y-78406680D01*
X47952381Y-78406680D02*
X47857143Y-78311441D01*
X47857143Y-78311441D02*
X47809524Y-78120965D01*
X47809524Y-78120965D02*
X47809524Y-77787632D01*
X47809524Y-77787632D02*
X47857143Y-77597156D01*
X47857143Y-77597156D02*
X47952381Y-77501918D01*
X47952381Y-77501918D02*
X48047619Y-77454299D01*
X49476190Y-78454299D02*
X49142857Y-77978108D01*
X48904762Y-78454299D02*
X48904762Y-77454299D01*
X48904762Y-77454299D02*
X49285714Y-77454299D01*
X49285714Y-77454299D02*
X49380952Y-77501918D01*
X49380952Y-77501918D02*
X49428571Y-77549537D01*
X49428571Y-77549537D02*
X49476190Y-77644775D01*
X49476190Y-77644775D02*
X49476190Y-77787632D01*
X49476190Y-77787632D02*
X49428571Y-77882870D01*
X49428571Y-77882870D02*
X49380952Y-77930489D01*
X49380952Y-77930489D02*
X49285714Y-77978108D01*
X49285714Y-77978108D02*
X48904762Y-77978108D01*
X49904762Y-78454299D02*
X49904762Y-77454299D01*
X49904762Y-77454299D02*
X50285714Y-77454299D01*
X50285714Y-77454299D02*
X50380952Y-77501918D01*
X50380952Y-77501918D02*
X50428571Y-77549537D01*
X50428571Y-77549537D02*
X50476190Y-77644775D01*
X50476190Y-77644775D02*
X50476190Y-77787632D01*
X50476190Y-77787632D02*
X50428571Y-77882870D01*
X50428571Y-77882870D02*
X50380952Y-77930489D01*
X50380952Y-77930489D02*
X50285714Y-77978108D01*
X50285714Y-77978108D02*
X49904762Y-77978108D01*
X50857143Y-78168584D02*
X51333333Y-78168584D01*
X50761905Y-78454299D02*
X51095238Y-77454299D01*
X51095238Y-77454299D02*
X51428571Y-78454299D01*
X51761905Y-78454299D02*
X51761905Y-77454299D01*
X51761905Y-77454299D02*
X52000000Y-77454299D01*
X52000000Y-77454299D02*
X52142857Y-77501918D01*
X52142857Y-77501918D02*
X52238095Y-77597156D01*
X52238095Y-77597156D02*
X52285714Y-77692394D01*
X52285714Y-77692394D02*
X52333333Y-77882870D01*
X52333333Y-77882870D02*
X52333333Y-78025727D01*
X52333333Y-78025727D02*
X52285714Y-78216203D01*
X52285714Y-78216203D02*
X52238095Y-78311441D01*
X52238095Y-78311441D02*
X52142857Y-78406680D01*
X52142857Y-78406680D02*
X52000000Y-78454299D01*
X52000000Y-78454299D02*
X51761905Y-78454299D01*
X53714286Y-77454299D02*
X53904762Y-77454299D01*
X53904762Y-77454299D02*
X54000000Y-77501918D01*
X54000000Y-77501918D02*
X54095238Y-77597156D01*
X54095238Y-77597156D02*
X54142857Y-77787632D01*
X54142857Y-77787632D02*
X54142857Y-78120965D01*
X54142857Y-78120965D02*
X54095238Y-78311441D01*
X54095238Y-78311441D02*
X54000000Y-78406680D01*
X54000000Y-78406680D02*
X53904762Y-78454299D01*
X53904762Y-78454299D02*
X53714286Y-78454299D01*
X53714286Y-78454299D02*
X53619048Y-78406680D01*
X53619048Y-78406680D02*
X53523810Y-78311441D01*
X53523810Y-78311441D02*
X53476191Y-78120965D01*
X53476191Y-78120965D02*
X53476191Y-77787632D01*
X53476191Y-77787632D02*
X53523810Y-77597156D01*
X53523810Y-77597156D02*
X53619048Y-77501918D01*
X53619048Y-77501918D02*
X53714286Y-77454299D01*
X54571429Y-78454299D02*
X54571429Y-77454299D01*
X54571429Y-77454299D02*
X54952381Y-77454299D01*
X54952381Y-77454299D02*
X55047619Y-77501918D01*
X55047619Y-77501918D02*
X55095238Y-77549537D01*
X55095238Y-77549537D02*
X55142857Y-77644775D01*
X55142857Y-77644775D02*
X55142857Y-77787632D01*
X55142857Y-77787632D02*
X55095238Y-77882870D01*
X55095238Y-77882870D02*
X55047619Y-77930489D01*
X55047619Y-77930489D02*
X54952381Y-77978108D01*
X54952381Y-77978108D02*
X54571429Y-77978108D01*
X56333334Y-78454299D02*
X56333334Y-77454299D01*
X56333334Y-77454299D02*
X56571429Y-77454299D01*
X56571429Y-77454299D02*
X56714286Y-77501918D01*
X56714286Y-77501918D02*
X56809524Y-77597156D01*
X56809524Y-77597156D02*
X56857143Y-77692394D01*
X56857143Y-77692394D02*
X56904762Y-77882870D01*
X56904762Y-77882870D02*
X56904762Y-78025727D01*
X56904762Y-78025727D02*
X56857143Y-78216203D01*
X56857143Y-78216203D02*
X56809524Y-78311441D01*
X56809524Y-78311441D02*
X56714286Y-78406680D01*
X56714286Y-78406680D02*
X56571429Y-78454299D01*
X56571429Y-78454299D02*
X56333334Y-78454299D01*
X57333334Y-77930489D02*
X57666667Y-77930489D01*
X57809524Y-78454299D02*
X57333334Y-78454299D01*
X57333334Y-78454299D02*
X57333334Y-77454299D01*
X57333334Y-77454299D02*
X57809524Y-77454299D01*
X58142858Y-77454299D02*
X58809524Y-77454299D01*
X58809524Y-77454299D02*
X58142858Y-78454299D01*
X58142858Y-78454299D02*
X58809524Y-78454299D01*
X59190477Y-77930489D02*
X59523810Y-77930489D01*
X59666667Y-78454299D02*
X59190477Y-78454299D01*
X59190477Y-78454299D02*
X59190477Y-77454299D01*
X59190477Y-77454299D02*
X59666667Y-77454299D01*
X60857144Y-78454299D02*
X60857144Y-77454299D01*
X60857144Y-77454299D02*
X61238096Y-77454299D01*
X61238096Y-77454299D02*
X61333334Y-77501918D01*
X61333334Y-77501918D02*
X61380953Y-77549537D01*
X61380953Y-77549537D02*
X61428572Y-77644775D01*
X61428572Y-77644775D02*
X61428572Y-77787632D01*
X61428572Y-77787632D02*
X61380953Y-77882870D01*
X61380953Y-77882870D02*
X61333334Y-77930489D01*
X61333334Y-77930489D02*
X61238096Y-77978108D01*
X61238096Y-77978108D02*
X60857144Y-77978108D01*
X62428572Y-78454299D02*
X62095239Y-77978108D01*
X61857144Y-78454299D02*
X61857144Y-77454299D01*
X61857144Y-77454299D02*
X62238096Y-77454299D01*
X62238096Y-77454299D02*
X62333334Y-77501918D01*
X62333334Y-77501918D02*
X62380953Y-77549537D01*
X62380953Y-77549537D02*
X62428572Y-77644775D01*
X62428572Y-77644775D02*
X62428572Y-77787632D01*
X62428572Y-77787632D02*
X62380953Y-77882870D01*
X62380953Y-77882870D02*
X62333334Y-77930489D01*
X62333334Y-77930489D02*
X62238096Y-77978108D01*
X62238096Y-77978108D02*
X61857144Y-77978108D01*
X62857144Y-78454299D02*
X62857144Y-77454299D01*
X63333334Y-78454299D02*
X63333334Y-77454299D01*
X63333334Y-77454299D02*
X63904762Y-78454299D01*
X63904762Y-78454299D02*
X63904762Y-77454299D01*
X64238096Y-77454299D02*
X64809524Y-77454299D01*
X64523810Y-78454299D02*
X64523810Y-77454299D01*
D11*
X20371429Y-34808869D02*
X20885715Y-34808869D01*
X20628572Y-35708869D02*
X20628572Y-34808869D01*
X21185714Y-35237440D02*
X21485714Y-35237440D01*
X21614286Y-35708869D02*
X21185714Y-35708869D01*
X21185714Y-35708869D02*
X21185714Y-34808869D01*
X21185714Y-34808869D02*
X21614286Y-34808869D01*
X22514286Y-35708869D02*
X22214286Y-35280297D01*
X22000000Y-35708869D02*
X22000000Y-34808869D01*
X22000000Y-34808869D02*
X22342857Y-34808869D01*
X22342857Y-34808869D02*
X22428572Y-34851726D01*
X22428572Y-34851726D02*
X22471429Y-34894583D01*
X22471429Y-34894583D02*
X22514286Y-34980297D01*
X22514286Y-34980297D02*
X22514286Y-35108869D01*
X22514286Y-35108869D02*
X22471429Y-35194583D01*
X22471429Y-35194583D02*
X22428572Y-35237440D01*
X22428572Y-35237440D02*
X22342857Y-35280297D01*
X22342857Y-35280297D02*
X22000000Y-35280297D01*
X22900000Y-35708869D02*
X22900000Y-34808869D01*
X22900000Y-34808869D02*
X23200000Y-35451726D01*
X23200000Y-35451726D02*
X23500000Y-34808869D01*
X23500000Y-34808869D02*
X23500000Y-35708869D01*
D14*
X28285712Y-73323550D02*
X29199998Y-73323550D01*
X28742855Y-74923550D02*
X28742855Y-73323550D01*
X30038094Y-73323550D02*
X30342856Y-73323550D01*
X30342856Y-73323550D02*
X30495237Y-73399740D01*
X30495237Y-73399740D02*
X30647618Y-73552121D01*
X30647618Y-73552121D02*
X30723808Y-73856883D01*
X30723808Y-73856883D02*
X30723808Y-74390217D01*
X30723808Y-74390217D02*
X30647618Y-74694979D01*
X30647618Y-74694979D02*
X30495237Y-74847360D01*
X30495237Y-74847360D02*
X30342856Y-74923550D01*
X30342856Y-74923550D02*
X30038094Y-74923550D01*
X30038094Y-74923550D02*
X29885713Y-74847360D01*
X29885713Y-74847360D02*
X29733332Y-74694979D01*
X29733332Y-74694979D02*
X29657141Y-74390217D01*
X29657141Y-74390217D02*
X29657141Y-73856883D01*
X29657141Y-73856883D02*
X29733332Y-73552121D01*
X29733332Y-73552121D02*
X29885713Y-73399740D01*
X29885713Y-73399740D02*
X30038094Y-73323550D01*
X32323808Y-74923550D02*
X31790474Y-74161645D01*
X31409522Y-74923550D02*
X31409522Y-73323550D01*
X31409522Y-73323550D02*
X32019046Y-73323550D01*
X32019046Y-73323550D02*
X32171427Y-73399740D01*
X32171427Y-73399740D02*
X32247617Y-73475931D01*
X32247617Y-73475931D02*
X32323808Y-73628312D01*
X32323808Y-73628312D02*
X32323808Y-73856883D01*
X32323808Y-73856883D02*
X32247617Y-74009264D01*
X32247617Y-74009264D02*
X32171427Y-74085455D01*
X32171427Y-74085455D02*
X32019046Y-74161645D01*
X32019046Y-74161645D02*
X31409522Y-74161645D01*
X34076189Y-75075931D02*
X33923808Y-74999740D01*
X33923808Y-74999740D02*
X33771427Y-74847360D01*
X33771427Y-74847360D02*
X33542855Y-74618788D01*
X33542855Y-74618788D02*
X33390474Y-74542598D01*
X33390474Y-74542598D02*
X33238093Y-74542598D01*
X33314284Y-74923550D02*
X33161903Y-74847360D01*
X33161903Y-74847360D02*
X33009522Y-74694979D01*
X33009522Y-74694979D02*
X32933331Y-74390217D01*
X32933331Y-74390217D02*
X32933331Y-73856883D01*
X32933331Y-73856883D02*
X33009522Y-73552121D01*
X33009522Y-73552121D02*
X33161903Y-73399740D01*
X33161903Y-73399740D02*
X33314284Y-73323550D01*
X33314284Y-73323550D02*
X33619046Y-73323550D01*
X33619046Y-73323550D02*
X33771427Y-73399740D01*
X33771427Y-73399740D02*
X33923808Y-73552121D01*
X33923808Y-73552121D02*
X33999998Y-73856883D01*
X33999998Y-73856883D02*
X33999998Y-74390217D01*
X33999998Y-74390217D02*
X33923808Y-74694979D01*
X33923808Y-74694979D02*
X33771427Y-74847360D01*
X33771427Y-74847360D02*
X33619046Y-74923550D01*
X33619046Y-74923550D02*
X33314284Y-74923550D01*
X34685712Y-74085455D02*
X35219045Y-74085455D01*
X35447617Y-74923550D02*
X34685712Y-74923550D01*
X34685712Y-74923550D02*
X34685712Y-73323550D01*
X34685712Y-73323550D02*
X35447617Y-73323550D01*
X36133331Y-74085455D02*
X36666664Y-74085455D01*
X36895236Y-74923550D02*
X36133331Y-74923550D01*
X36133331Y-74923550D02*
X36133331Y-73323550D01*
X36133331Y-73323550D02*
X36895236Y-73323550D01*
X37580950Y-74923550D02*
X37580950Y-73323550D01*
X37580950Y-73323550D02*
X37961902Y-73323550D01*
X37961902Y-73323550D02*
X38190474Y-73399740D01*
X38190474Y-73399740D02*
X38342855Y-73552121D01*
X38342855Y-73552121D02*
X38419045Y-73704502D01*
X38419045Y-73704502D02*
X38495236Y-74009264D01*
X38495236Y-74009264D02*
X38495236Y-74237836D01*
X38495236Y-74237836D02*
X38419045Y-74542598D01*
X38419045Y-74542598D02*
X38342855Y-74694979D01*
X38342855Y-74694979D02*
X38190474Y-74847360D01*
X38190474Y-74847360D02*
X37961902Y-74923550D01*
X37961902Y-74923550D02*
X37580950Y-74923550D01*
X39485712Y-73323550D02*
X39790474Y-73323550D01*
X39790474Y-73323550D02*
X39942855Y-73399740D01*
X39942855Y-73399740D02*
X40095236Y-73552121D01*
X40095236Y-73552121D02*
X40171426Y-73856883D01*
X40171426Y-73856883D02*
X40171426Y-74390217D01*
X40171426Y-74390217D02*
X40095236Y-74694979D01*
X40095236Y-74694979D02*
X39942855Y-74847360D01*
X39942855Y-74847360D02*
X39790474Y-74923550D01*
X39790474Y-74923550D02*
X39485712Y-74923550D01*
X39485712Y-74923550D02*
X39333331Y-74847360D01*
X39333331Y-74847360D02*
X39180950Y-74694979D01*
X39180950Y-74694979D02*
X39104759Y-74390217D01*
X39104759Y-74390217D02*
X39104759Y-73856883D01*
X39104759Y-73856883D02*
X39180950Y-73552121D01*
X39180950Y-73552121D02*
X39333331Y-73399740D01*
X39333331Y-73399740D02*
X39485712Y-73323550D01*
X42914283Y-74923550D02*
X41999997Y-74923550D01*
X42457140Y-74923550D02*
X42457140Y-73323550D01*
X42457140Y-73323550D02*
X42304759Y-73552121D01*
X42304759Y-73552121D02*
X42152378Y-73704502D01*
X42152378Y-73704502D02*
X41999997Y-73780693D01*
X44438093Y-74923550D02*
X43523807Y-74923550D01*
X43980950Y-74923550D02*
X43980950Y-73323550D01*
X43980950Y-73323550D02*
X43828569Y-73552121D01*
X43828569Y-73552121D02*
X43676188Y-73704502D01*
X43676188Y-73704502D02*
X43523807Y-73780693D01*
X45428570Y-73323550D02*
X45580951Y-73323550D01*
X45580951Y-73323550D02*
X45733332Y-73399740D01*
X45733332Y-73399740D02*
X45809522Y-73475931D01*
X45809522Y-73475931D02*
X45885713Y-73628312D01*
X45885713Y-73628312D02*
X45961903Y-73933074D01*
X45961903Y-73933074D02*
X45961903Y-74314026D01*
X45961903Y-74314026D02*
X45885713Y-74618788D01*
X45885713Y-74618788D02*
X45809522Y-74771169D01*
X45809522Y-74771169D02*
X45733332Y-74847360D01*
X45733332Y-74847360D02*
X45580951Y-74923550D01*
X45580951Y-74923550D02*
X45428570Y-74923550D01*
X45428570Y-74923550D02*
X45276189Y-74847360D01*
X45276189Y-74847360D02*
X45199998Y-74771169D01*
X45199998Y-74771169D02*
X45123808Y-74618788D01*
X45123808Y-74618788D02*
X45047617Y-74314026D01*
X45047617Y-74314026D02*
X45047617Y-73933074D01*
X45047617Y-73933074D02*
X45123808Y-73628312D01*
X45123808Y-73628312D02*
X45199998Y-73475931D01*
X45199998Y-73475931D02*
X45276189Y-73399740D01*
X45276189Y-73399740D02*
X45428570Y-73323550D01*
X46495237Y-73323550D02*
X47485713Y-73323550D01*
X47485713Y-73323550D02*
X46952380Y-73933074D01*
X46952380Y-73933074D02*
X47180951Y-73933074D01*
X47180951Y-73933074D02*
X47333332Y-74009264D01*
X47333332Y-74009264D02*
X47409523Y-74085455D01*
X47409523Y-74085455D02*
X47485713Y-74237836D01*
X47485713Y-74237836D02*
X47485713Y-74618788D01*
X47485713Y-74618788D02*
X47409523Y-74771169D01*
X47409523Y-74771169D02*
X47333332Y-74847360D01*
X47333332Y-74847360D02*
X47180951Y-74923550D01*
X47180951Y-74923550D02*
X46723808Y-74923550D01*
X46723808Y-74923550D02*
X46571427Y-74847360D01*
X46571427Y-74847360D02*
X46495237Y-74771169D01*
X50304762Y-74771169D02*
X50228571Y-74847360D01*
X50228571Y-74847360D02*
X50000000Y-74923550D01*
X50000000Y-74923550D02*
X49847619Y-74923550D01*
X49847619Y-74923550D02*
X49619047Y-74847360D01*
X49619047Y-74847360D02*
X49466666Y-74694979D01*
X49466666Y-74694979D02*
X49390476Y-74542598D01*
X49390476Y-74542598D02*
X49314285Y-74237836D01*
X49314285Y-74237836D02*
X49314285Y-74009264D01*
X49314285Y-74009264D02*
X49390476Y-73704502D01*
X49390476Y-73704502D02*
X49466666Y-73552121D01*
X49466666Y-73552121D02*
X49619047Y-73399740D01*
X49619047Y-73399740D02*
X49847619Y-73323550D01*
X49847619Y-73323550D02*
X50000000Y-73323550D01*
X50000000Y-73323550D02*
X50228571Y-73399740D01*
X50228571Y-73399740D02*
X50304762Y-73475931D01*
X51752381Y-74923550D02*
X50990476Y-74923550D01*
X50990476Y-74923550D02*
X50990476Y-73323550D01*
X54723810Y-74314026D02*
X55942858Y-74314026D01*
X59676191Y-74085455D02*
X59904763Y-74161645D01*
X59904763Y-74161645D02*
X59980953Y-74237836D01*
X59980953Y-74237836D02*
X60057144Y-74390217D01*
X60057144Y-74390217D02*
X60057144Y-74618788D01*
X60057144Y-74618788D02*
X59980953Y-74771169D01*
X59980953Y-74771169D02*
X59904763Y-74847360D01*
X59904763Y-74847360D02*
X59752382Y-74923550D01*
X59752382Y-74923550D02*
X59142858Y-74923550D01*
X59142858Y-74923550D02*
X59142858Y-73323550D01*
X59142858Y-73323550D02*
X59676191Y-73323550D01*
X59676191Y-73323550D02*
X59828572Y-73399740D01*
X59828572Y-73399740D02*
X59904763Y-73475931D01*
X59904763Y-73475931D02*
X59980953Y-73628312D01*
X59980953Y-73628312D02*
X59980953Y-73780693D01*
X59980953Y-73780693D02*
X59904763Y-73933074D01*
X59904763Y-73933074D02*
X59828572Y-74009264D01*
X59828572Y-74009264D02*
X59676191Y-74085455D01*
X59676191Y-74085455D02*
X59142858Y-74085455D01*
X60742858Y-74085455D02*
X61276191Y-74085455D01*
X61504763Y-74923550D02*
X60742858Y-74923550D01*
X60742858Y-74923550D02*
X60742858Y-73323550D01*
X60742858Y-73323550D02*
X61504763Y-73323550D01*
X62114286Y-74847360D02*
X62342858Y-74923550D01*
X62342858Y-74923550D02*
X62723810Y-74923550D01*
X62723810Y-74923550D02*
X62876191Y-74847360D01*
X62876191Y-74847360D02*
X62952382Y-74771169D01*
X62952382Y-74771169D02*
X63028572Y-74618788D01*
X63028572Y-74618788D02*
X63028572Y-74466407D01*
X63028572Y-74466407D02*
X62952382Y-74314026D01*
X62952382Y-74314026D02*
X62876191Y-74237836D01*
X62876191Y-74237836D02*
X62723810Y-74161645D01*
X62723810Y-74161645D02*
X62419048Y-74085455D01*
X62419048Y-74085455D02*
X62266667Y-74009264D01*
X62266667Y-74009264D02*
X62190477Y-73933074D01*
X62190477Y-73933074D02*
X62114286Y-73780693D01*
X62114286Y-73780693D02*
X62114286Y-73628312D01*
X62114286Y-73628312D02*
X62190477Y-73475931D01*
X62190477Y-73475931D02*
X62266667Y-73399740D01*
X62266667Y-73399740D02*
X62419048Y-73323550D01*
X62419048Y-73323550D02*
X62800001Y-73323550D01*
X62800001Y-73323550D02*
X63028572Y-73399740D01*
X63485715Y-73323550D02*
X64400001Y-73323550D01*
X63942858Y-74923550D02*
X63942858Y-73323550D01*
X64933335Y-73323550D02*
X64933335Y-74618788D01*
X64933335Y-74618788D02*
X65009525Y-74771169D01*
X65009525Y-74771169D02*
X65085716Y-74847360D01*
X65085716Y-74847360D02*
X65238097Y-74923550D01*
X65238097Y-74923550D02*
X65542859Y-74923550D01*
X65542859Y-74923550D02*
X65695240Y-74847360D01*
X65695240Y-74847360D02*
X65771430Y-74771169D01*
X65771430Y-74771169D02*
X65847621Y-74618788D01*
X65847621Y-74618788D02*
X65847621Y-73323550D01*
X67523811Y-74923550D02*
X66990477Y-74161645D01*
X66609525Y-74923550D02*
X66609525Y-73323550D01*
X66609525Y-73323550D02*
X67219049Y-73323550D01*
X67219049Y-73323550D02*
X67371430Y-73399740D01*
X67371430Y-73399740D02*
X67447620Y-73475931D01*
X67447620Y-73475931D02*
X67523811Y-73628312D01*
X67523811Y-73628312D02*
X67523811Y-73856883D01*
X67523811Y-73856883D02*
X67447620Y-74009264D01*
X67447620Y-74009264D02*
X67371430Y-74085455D01*
X67371430Y-74085455D02*
X67219049Y-74161645D01*
X67219049Y-74161645D02*
X66609525Y-74161645D01*
X68209525Y-74923550D02*
X68209525Y-73323550D01*
X68971430Y-74923550D02*
X68971430Y-73323550D01*
X68971430Y-73323550D02*
X69885716Y-74923550D01*
X69885716Y-74923550D02*
X69885716Y-73323550D01*
X71485715Y-73399740D02*
X71333334Y-73323550D01*
X71333334Y-73323550D02*
X71104763Y-73323550D01*
X71104763Y-73323550D02*
X70876191Y-73399740D01*
X70876191Y-73399740D02*
X70723810Y-73552121D01*
X70723810Y-73552121D02*
X70647620Y-73704502D01*
X70647620Y-73704502D02*
X70571429Y-74009264D01*
X70571429Y-74009264D02*
X70571429Y-74237836D01*
X70571429Y-74237836D02*
X70647620Y-74542598D01*
X70647620Y-74542598D02*
X70723810Y-74694979D01*
X70723810Y-74694979D02*
X70876191Y-74847360D01*
X70876191Y-74847360D02*
X71104763Y-74923550D01*
X71104763Y-74923550D02*
X71257144Y-74923550D01*
X71257144Y-74923550D02*
X71485715Y-74847360D01*
X71485715Y-74847360D02*
X71561906Y-74771169D01*
X71561906Y-74771169D02*
X71561906Y-74237836D01*
X71561906Y-74237836D02*
X71257144Y-74237836D01*
D12*
X82895237Y-25363439D02*
X82895237Y-24830105D01*
X82895237Y-24982486D02*
X82933332Y-24906296D01*
X82933332Y-24906296D02*
X82971427Y-24868201D01*
X82971427Y-24868201D02*
X83047618Y-24830105D01*
X83047618Y-24830105D02*
X83123808Y-24830105D01*
X83733332Y-24830105D02*
X83733332Y-25363439D01*
X83390475Y-24830105D02*
X83390475Y-25249153D01*
X83390475Y-25249153D02*
X83428570Y-25325344D01*
X83428570Y-25325344D02*
X83504760Y-25363439D01*
X83504760Y-25363439D02*
X83619046Y-25363439D01*
X83619046Y-25363439D02*
X83695237Y-25325344D01*
X83695237Y-25325344D02*
X83733332Y-25287248D01*
X84114285Y-25363439D02*
X84114285Y-24830105D01*
X84114285Y-24563439D02*
X84076189Y-24601534D01*
X84076189Y-24601534D02*
X84114285Y-24639629D01*
X84114285Y-24639629D02*
X84152380Y-24601534D01*
X84152380Y-24601534D02*
X84114285Y-24563439D01*
X84114285Y-24563439D02*
X84114285Y-24639629D01*
X84495237Y-25363439D02*
X84495237Y-24830105D01*
X84495237Y-24906296D02*
X84533332Y-24868201D01*
X84533332Y-24868201D02*
X84609522Y-24830105D01*
X84609522Y-24830105D02*
X84723808Y-24830105D01*
X84723808Y-24830105D02*
X84799999Y-24868201D01*
X84799999Y-24868201D02*
X84838094Y-24944391D01*
X84838094Y-24944391D02*
X84838094Y-25363439D01*
X84838094Y-24944391D02*
X84876189Y-24868201D01*
X84876189Y-24868201D02*
X84952380Y-24830105D01*
X84952380Y-24830105D02*
X85066665Y-24830105D01*
X85066665Y-24830105D02*
X85142856Y-24868201D01*
X85142856Y-24868201D02*
X85180951Y-24944391D01*
X85180951Y-24944391D02*
X85180951Y-25363439D01*
X85447618Y-24830105D02*
X85752380Y-24830105D01*
X85561904Y-24563439D02*
X85561904Y-25249153D01*
X85561904Y-25249153D02*
X85599999Y-25325344D01*
X85599999Y-25325344D02*
X85676189Y-25363439D01*
X85676189Y-25363439D02*
X85752380Y-25363439D01*
X86323809Y-25325344D02*
X86247618Y-25363439D01*
X86247618Y-25363439D02*
X86095237Y-25363439D01*
X86095237Y-25363439D02*
X86019047Y-25325344D01*
X86019047Y-25325344D02*
X85980951Y-25249153D01*
X85980951Y-25249153D02*
X85980951Y-24944391D01*
X85980951Y-24944391D02*
X86019047Y-24868201D01*
X86019047Y-24868201D02*
X86095237Y-24830105D01*
X86095237Y-24830105D02*
X86247618Y-24830105D01*
X86247618Y-24830105D02*
X86323809Y-24868201D01*
X86323809Y-24868201D02*
X86361904Y-24944391D01*
X86361904Y-24944391D02*
X86361904Y-25020582D01*
X86361904Y-25020582D02*
X85980951Y-25096772D01*
X87238094Y-24830105D02*
X87428570Y-25363439D01*
X87428570Y-25363439D02*
X87619047Y-24830105D01*
X87923809Y-25363439D02*
X87923809Y-24830105D01*
X87923809Y-24982486D02*
X87961904Y-24906296D01*
X87961904Y-24906296D02*
X87999999Y-24868201D01*
X87999999Y-24868201D02*
X88076190Y-24830105D01*
X88076190Y-24830105D02*
X88152380Y-24830105D01*
X88419047Y-25363439D02*
X88419047Y-24830105D01*
X88419047Y-24563439D02*
X88380951Y-24601534D01*
X88380951Y-24601534D02*
X88419047Y-24639629D01*
X88419047Y-24639629D02*
X88457142Y-24601534D01*
X88457142Y-24601534D02*
X88419047Y-24563439D01*
X88419047Y-24563439D02*
X88419047Y-24639629D01*
X88799999Y-24830105D02*
X88799999Y-25515820D01*
X88799999Y-25515820D02*
X88761903Y-25592010D01*
X88761903Y-25592010D02*
X88685713Y-25630105D01*
X88685713Y-25630105D02*
X88647618Y-25630105D01*
X88799999Y-24563439D02*
X88761903Y-24601534D01*
X88761903Y-24601534D02*
X88799999Y-24639629D01*
X88799999Y-24639629D02*
X88838094Y-24601534D01*
X88838094Y-24601534D02*
X88799999Y-24563439D01*
X88799999Y-24563439D02*
X88799999Y-24639629D01*
X89180951Y-25363439D02*
X89180951Y-24563439D01*
X89523808Y-25363439D02*
X89523808Y-24944391D01*
X89523808Y-24944391D02*
X89485713Y-24868201D01*
X89485713Y-24868201D02*
X89409522Y-24830105D01*
X89409522Y-24830105D02*
X89295236Y-24830105D01*
X89295236Y-24830105D02*
X89219046Y-24868201D01*
X89219046Y-24868201D02*
X89180951Y-24906296D01*
X90019046Y-25363439D02*
X89942856Y-25325344D01*
X89942856Y-25325344D02*
X89904761Y-25287248D01*
X89904761Y-25287248D02*
X89866665Y-25211058D01*
X89866665Y-25211058D02*
X89866665Y-24982486D01*
X89866665Y-24982486D02*
X89904761Y-24906296D01*
X89904761Y-24906296D02*
X89942856Y-24868201D01*
X89942856Y-24868201D02*
X90019046Y-24830105D01*
X90019046Y-24830105D02*
X90133332Y-24830105D01*
X90133332Y-24830105D02*
X90209523Y-24868201D01*
X90209523Y-24868201D02*
X90247618Y-24906296D01*
X90247618Y-24906296D02*
X90285713Y-24982486D01*
X90285713Y-24982486D02*
X90285713Y-25211058D01*
X90285713Y-25211058D02*
X90247618Y-25287248D01*
X90247618Y-25287248D02*
X90209523Y-25325344D01*
X90209523Y-25325344D02*
X90133332Y-25363439D01*
X90133332Y-25363439D02*
X90019046Y-25363439D01*
X90971428Y-24830105D02*
X90971428Y-25363439D01*
X90628571Y-24830105D02*
X90628571Y-25249153D01*
X90628571Y-25249153D02*
X90666666Y-25325344D01*
X90666666Y-25325344D02*
X90742856Y-25363439D01*
X90742856Y-25363439D02*
X90857142Y-25363439D01*
X90857142Y-25363439D02*
X90933333Y-25325344D01*
X90933333Y-25325344D02*
X90971428Y-25287248D01*
X91695238Y-25363439D02*
X91695238Y-24563439D01*
X91695238Y-25325344D02*
X91619047Y-25363439D01*
X91619047Y-25363439D02*
X91466666Y-25363439D01*
X91466666Y-25363439D02*
X91390476Y-25325344D01*
X91390476Y-25325344D02*
X91352381Y-25287248D01*
X91352381Y-25287248D02*
X91314285Y-25211058D01*
X91314285Y-25211058D02*
X91314285Y-24982486D01*
X91314285Y-24982486D02*
X91352381Y-24906296D01*
X91352381Y-24906296D02*
X91390476Y-24868201D01*
X91390476Y-24868201D02*
X91466666Y-24830105D01*
X91466666Y-24830105D02*
X91619047Y-24830105D01*
X91619047Y-24830105D02*
X91695238Y-24868201D01*
X92380953Y-25325344D02*
X92304762Y-25363439D01*
X92304762Y-25363439D02*
X92152381Y-25363439D01*
X92152381Y-25363439D02*
X92076191Y-25325344D01*
X92076191Y-25325344D02*
X92038095Y-25249153D01*
X92038095Y-25249153D02*
X92038095Y-24944391D01*
X92038095Y-24944391D02*
X92076191Y-24868201D01*
X92076191Y-24868201D02*
X92152381Y-24830105D01*
X92152381Y-24830105D02*
X92304762Y-24830105D01*
X92304762Y-24830105D02*
X92380953Y-24868201D01*
X92380953Y-24868201D02*
X92419048Y-24944391D01*
X92419048Y-24944391D02*
X92419048Y-25020582D01*
X92419048Y-25020582D02*
X92038095Y-25096772D01*
X92761905Y-24830105D02*
X92761905Y-25363439D01*
X92761905Y-24906296D02*
X92800000Y-24868201D01*
X92800000Y-24868201D02*
X92876190Y-24830105D01*
X92876190Y-24830105D02*
X92990476Y-24830105D01*
X92990476Y-24830105D02*
X93066667Y-24868201D01*
X93066667Y-24868201D02*
X93104762Y-24944391D01*
X93104762Y-24944391D02*
X93104762Y-25363439D01*
D11*
X11380450Y-62091726D02*
X11294736Y-62048869D01*
X11294736Y-62048869D02*
X11166164Y-62048869D01*
X11166164Y-62048869D02*
X11037593Y-62091726D01*
X11037593Y-62091726D02*
X10951878Y-62177440D01*
X10951878Y-62177440D02*
X10909021Y-62263154D01*
X10909021Y-62263154D02*
X10866164Y-62434583D01*
X10866164Y-62434583D02*
X10866164Y-62563154D01*
X10866164Y-62563154D02*
X10909021Y-62734583D01*
X10909021Y-62734583D02*
X10951878Y-62820297D01*
X10951878Y-62820297D02*
X11037593Y-62906012D01*
X11037593Y-62906012D02*
X11166164Y-62948869D01*
X11166164Y-62948869D02*
X11251878Y-62948869D01*
X11251878Y-62948869D02*
X11380450Y-62906012D01*
X11380450Y-62906012D02*
X11423307Y-62863154D01*
X11423307Y-62863154D02*
X11423307Y-62563154D01*
X11423307Y-62563154D02*
X11251878Y-62563154D01*
X11809021Y-62948869D02*
X11809021Y-62048869D01*
X11809021Y-62048869D02*
X12323307Y-62948869D01*
X12323307Y-62948869D02*
X12323307Y-62048869D01*
X12751878Y-62948869D02*
X12751878Y-62048869D01*
X12751878Y-62048869D02*
X12966164Y-62048869D01*
X12966164Y-62048869D02*
X13094735Y-62091726D01*
X13094735Y-62091726D02*
X13180450Y-62177440D01*
X13180450Y-62177440D02*
X13223307Y-62263154D01*
X13223307Y-62263154D02*
X13266164Y-62434583D01*
X13266164Y-62434583D02*
X13266164Y-62563154D01*
X13266164Y-62563154D02*
X13223307Y-62734583D01*
X13223307Y-62734583D02*
X13180450Y-62820297D01*
X13180450Y-62820297D02*
X13094735Y-62906012D01*
X13094735Y-62906012D02*
X12966164Y-62948869D01*
X12966164Y-62948869D02*
X12751878Y-62948869D01*
X11380450Y-54091726D02*
X11294736Y-54048869D01*
X11294736Y-54048869D02*
X11166164Y-54048869D01*
X11166164Y-54048869D02*
X11037593Y-54091726D01*
X11037593Y-54091726D02*
X10951878Y-54177440D01*
X10951878Y-54177440D02*
X10909021Y-54263154D01*
X10909021Y-54263154D02*
X10866164Y-54434583D01*
X10866164Y-54434583D02*
X10866164Y-54563154D01*
X10866164Y-54563154D02*
X10909021Y-54734583D01*
X10909021Y-54734583D02*
X10951878Y-54820297D01*
X10951878Y-54820297D02*
X11037593Y-54906012D01*
X11037593Y-54906012D02*
X11166164Y-54948869D01*
X11166164Y-54948869D02*
X11251878Y-54948869D01*
X11251878Y-54948869D02*
X11380450Y-54906012D01*
X11380450Y-54906012D02*
X11423307Y-54863154D01*
X11423307Y-54863154D02*
X11423307Y-54563154D01*
X11423307Y-54563154D02*
X11251878Y-54563154D01*
X11809021Y-54948869D02*
X11809021Y-54048869D01*
X11809021Y-54048869D02*
X12323307Y-54948869D01*
X12323307Y-54948869D02*
X12323307Y-54048869D01*
X12751878Y-54948869D02*
X12751878Y-54048869D01*
X12751878Y-54048869D02*
X12966164Y-54048869D01*
X12966164Y-54048869D02*
X13094735Y-54091726D01*
X13094735Y-54091726D02*
X13180450Y-54177440D01*
X13180450Y-54177440D02*
X13223307Y-54263154D01*
X13223307Y-54263154D02*
X13266164Y-54434583D01*
X13266164Y-54434583D02*
X13266164Y-54563154D01*
X13266164Y-54563154D02*
X13223307Y-54734583D01*
X13223307Y-54734583D02*
X13180450Y-54820297D01*
X13180450Y-54820297D02*
X13094735Y-54906012D01*
X13094735Y-54906012D02*
X12966164Y-54948869D01*
X12966164Y-54948869D02*
X12751878Y-54948869D01*
X12780450Y-39051726D02*
X12694736Y-39008869D01*
X12694736Y-39008869D02*
X12566164Y-39008869D01*
X12566164Y-39008869D02*
X12437593Y-39051726D01*
X12437593Y-39051726D02*
X12351878Y-39137440D01*
X12351878Y-39137440D02*
X12309021Y-39223154D01*
X12309021Y-39223154D02*
X12266164Y-39394583D01*
X12266164Y-39394583D02*
X12266164Y-39523154D01*
X12266164Y-39523154D02*
X12309021Y-39694583D01*
X12309021Y-39694583D02*
X12351878Y-39780297D01*
X12351878Y-39780297D02*
X12437593Y-39866012D01*
X12437593Y-39866012D02*
X12566164Y-39908869D01*
X12566164Y-39908869D02*
X12651878Y-39908869D01*
X12651878Y-39908869D02*
X12780450Y-39866012D01*
X12780450Y-39866012D02*
X12823307Y-39823154D01*
X12823307Y-39823154D02*
X12823307Y-39523154D01*
X12823307Y-39523154D02*
X12651878Y-39523154D01*
X13209021Y-39908869D02*
X13209021Y-39008869D01*
X13209021Y-39008869D02*
X13723307Y-39908869D01*
X13723307Y-39908869D02*
X13723307Y-39008869D01*
X14151878Y-39908869D02*
X14151878Y-39008869D01*
X14151878Y-39008869D02*
X14366164Y-39008869D01*
X14366164Y-39008869D02*
X14494735Y-39051726D01*
X14494735Y-39051726D02*
X14580450Y-39137440D01*
X14580450Y-39137440D02*
X14623307Y-39223154D01*
X14623307Y-39223154D02*
X14666164Y-39394583D01*
X14666164Y-39394583D02*
X14666164Y-39523154D01*
X14666164Y-39523154D02*
X14623307Y-39694583D01*
X14623307Y-39694583D02*
X14580450Y-39780297D01*
X14580450Y-39780297D02*
X14494735Y-39866012D01*
X14494735Y-39866012D02*
X14366164Y-39908869D01*
X14366164Y-39908869D02*
X14151878Y-39908869D01*
X84148121Y-37171726D02*
X84062407Y-37128869D01*
X84062407Y-37128869D02*
X83933835Y-37128869D01*
X83933835Y-37128869D02*
X83805264Y-37171726D01*
X83805264Y-37171726D02*
X83719549Y-37257440D01*
X83719549Y-37257440D02*
X83676692Y-37343154D01*
X83676692Y-37343154D02*
X83633835Y-37514583D01*
X83633835Y-37514583D02*
X83633835Y-37643154D01*
X83633835Y-37643154D02*
X83676692Y-37814583D01*
X83676692Y-37814583D02*
X83719549Y-37900297D01*
X83719549Y-37900297D02*
X83805264Y-37986012D01*
X83805264Y-37986012D02*
X83933835Y-38028869D01*
X83933835Y-38028869D02*
X84019549Y-38028869D01*
X84019549Y-38028869D02*
X84148121Y-37986012D01*
X84148121Y-37986012D02*
X84190978Y-37943154D01*
X84190978Y-37943154D02*
X84190978Y-37643154D01*
X84190978Y-37643154D02*
X84019549Y-37643154D01*
X84576692Y-38028869D02*
X84576692Y-37128869D01*
X84576692Y-37128869D02*
X85090978Y-38028869D01*
X85090978Y-38028869D02*
X85090978Y-37128869D01*
X85519549Y-38028869D02*
X85519549Y-37128869D01*
X85519549Y-37128869D02*
X85733835Y-37128869D01*
X85733835Y-37128869D02*
X85862406Y-37171726D01*
X85862406Y-37171726D02*
X85948121Y-37257440D01*
X85948121Y-37257440D02*
X85990978Y-37343154D01*
X85990978Y-37343154D02*
X86033835Y-37514583D01*
X86033835Y-37514583D02*
X86033835Y-37643154D01*
X86033835Y-37643154D02*
X85990978Y-37814583D01*
X85990978Y-37814583D02*
X85948121Y-37900297D01*
X85948121Y-37900297D02*
X85862406Y-37986012D01*
X85862406Y-37986012D02*
X85733835Y-38028869D01*
X85733835Y-38028869D02*
X85519549Y-38028869D01*
X53280450Y-65551726D02*
X53194736Y-65508869D01*
X53194736Y-65508869D02*
X53066164Y-65508869D01*
X53066164Y-65508869D02*
X52937593Y-65551726D01*
X52937593Y-65551726D02*
X52851878Y-65637440D01*
X52851878Y-65637440D02*
X52809021Y-65723154D01*
X52809021Y-65723154D02*
X52766164Y-65894583D01*
X52766164Y-65894583D02*
X52766164Y-66023154D01*
X52766164Y-66023154D02*
X52809021Y-66194583D01*
X52809021Y-66194583D02*
X52851878Y-66280297D01*
X52851878Y-66280297D02*
X52937593Y-66366012D01*
X52937593Y-66366012D02*
X53066164Y-66408869D01*
X53066164Y-66408869D02*
X53151878Y-66408869D01*
X53151878Y-66408869D02*
X53280450Y-66366012D01*
X53280450Y-66366012D02*
X53323307Y-66323154D01*
X53323307Y-66323154D02*
X53323307Y-66023154D01*
X53323307Y-66023154D02*
X53151878Y-66023154D01*
X53709021Y-66408869D02*
X53709021Y-65508869D01*
X53709021Y-65508869D02*
X54223307Y-66408869D01*
X54223307Y-66408869D02*
X54223307Y-65508869D01*
X54651878Y-66408869D02*
X54651878Y-65508869D01*
X54651878Y-65508869D02*
X54866164Y-65508869D01*
X54866164Y-65508869D02*
X54994735Y-65551726D01*
X54994735Y-65551726D02*
X55080450Y-65637440D01*
X55080450Y-65637440D02*
X55123307Y-65723154D01*
X55123307Y-65723154D02*
X55166164Y-65894583D01*
X55166164Y-65894583D02*
X55166164Y-66023154D01*
X55166164Y-66023154D02*
X55123307Y-66194583D01*
X55123307Y-66194583D02*
X55080450Y-66280297D01*
X55080450Y-66280297D02*
X54994735Y-66366012D01*
X54994735Y-66366012D02*
X54866164Y-66408869D01*
X54866164Y-66408869D02*
X54651878Y-66408869D01*
X83676691Y-35146012D02*
X84362406Y-35146012D01*
X84019548Y-35488869D02*
X84019548Y-34803154D01*
X85219549Y-34588869D02*
X84790977Y-34588869D01*
X84790977Y-34588869D02*
X84748120Y-35017440D01*
X84748120Y-35017440D02*
X84790977Y-34974583D01*
X84790977Y-34974583D02*
X84876692Y-34931726D01*
X84876692Y-34931726D02*
X85090977Y-34931726D01*
X85090977Y-34931726D02*
X85176692Y-34974583D01*
X85176692Y-34974583D02*
X85219549Y-35017440D01*
X85219549Y-35017440D02*
X85262406Y-35103154D01*
X85262406Y-35103154D02*
X85262406Y-35317440D01*
X85262406Y-35317440D02*
X85219549Y-35403154D01*
X85219549Y-35403154D02*
X85176692Y-35446012D01*
X85176692Y-35446012D02*
X85090977Y-35488869D01*
X85090977Y-35488869D02*
X84876692Y-35488869D01*
X84876692Y-35488869D02*
X84790977Y-35446012D01*
X84790977Y-35446012D02*
X84748120Y-35403154D01*
X85519549Y-34588869D02*
X85819549Y-35488869D01*
X85819549Y-35488869D02*
X86119549Y-34588869D01*
X83933835Y-32948869D02*
X83933835Y-32048869D01*
X84362406Y-32948869D02*
X84362406Y-32048869D01*
X84362406Y-32048869D02*
X84876692Y-32948869D01*
X84876692Y-32948869D02*
X84876692Y-32048869D01*
X85305263Y-32606012D02*
X85990978Y-32606012D01*
D12*
X23085714Y-9963439D02*
X23085714Y-9163439D01*
X23085714Y-9163439D02*
X23276190Y-9163439D01*
X23276190Y-9163439D02*
X23390476Y-9201534D01*
X23390476Y-9201534D02*
X23466666Y-9277724D01*
X23466666Y-9277724D02*
X23504761Y-9353915D01*
X23504761Y-9353915D02*
X23542857Y-9506296D01*
X23542857Y-9506296D02*
X23542857Y-9620582D01*
X23542857Y-9620582D02*
X23504761Y-9772963D01*
X23504761Y-9772963D02*
X23466666Y-9849153D01*
X23466666Y-9849153D02*
X23390476Y-9925344D01*
X23390476Y-9925344D02*
X23276190Y-9963439D01*
X23276190Y-9963439D02*
X23085714Y-9963439D01*
X23771428Y-9163439D02*
X24228571Y-9163439D01*
X23999999Y-9963439D02*
X23999999Y-9163439D01*
X24952381Y-9963439D02*
X24685714Y-9582486D01*
X24495238Y-9963439D02*
X24495238Y-9163439D01*
X24495238Y-9163439D02*
X24800000Y-9163439D01*
X24800000Y-9163439D02*
X24876190Y-9201534D01*
X24876190Y-9201534D02*
X24914285Y-9239629D01*
X24914285Y-9239629D02*
X24952381Y-9315820D01*
X24952381Y-9315820D02*
X24952381Y-9430105D01*
X24952381Y-9430105D02*
X24914285Y-9506296D01*
X24914285Y-9506296D02*
X24876190Y-9544391D01*
X24876190Y-9544391D02*
X24800000Y-9582486D01*
X24800000Y-9582486D02*
X24495238Y-9582486D01*
X28946667Y-9963439D02*
X28680000Y-9582486D01*
X28489524Y-9963439D02*
X28489524Y-9163439D01*
X28489524Y-9163439D02*
X28794286Y-9163439D01*
X28794286Y-9163439D02*
X28870476Y-9201534D01*
X28870476Y-9201534D02*
X28908571Y-9239629D01*
X28908571Y-9239629D02*
X28946667Y-9315820D01*
X28946667Y-9315820D02*
X28946667Y-9430105D01*
X28946667Y-9430105D02*
X28908571Y-9506296D01*
X28908571Y-9506296D02*
X28870476Y-9544391D01*
X28870476Y-9544391D02*
X28794286Y-9582486D01*
X28794286Y-9582486D02*
X28489524Y-9582486D01*
X29213333Y-9163439D02*
X29746667Y-9963439D01*
X29746667Y-9163439D02*
X29213333Y-9963439D01*
D10*
X21485714Y-12967664D02*
X21447618Y-13005760D01*
X21447618Y-13005760D02*
X21333333Y-13043855D01*
X21333333Y-13043855D02*
X21257142Y-13043855D01*
X21257142Y-13043855D02*
X21142856Y-13005760D01*
X21142856Y-13005760D02*
X21066666Y-12929569D01*
X21066666Y-12929569D02*
X21028571Y-12853379D01*
X21028571Y-12853379D02*
X20990475Y-12700998D01*
X20990475Y-12700998D02*
X20990475Y-12586712D01*
X20990475Y-12586712D02*
X21028571Y-12434331D01*
X21028571Y-12434331D02*
X21066666Y-12358140D01*
X21066666Y-12358140D02*
X21142856Y-12281950D01*
X21142856Y-12281950D02*
X21257142Y-12243855D01*
X21257142Y-12243855D02*
X21333333Y-12243855D01*
X21333333Y-12243855D02*
X21447618Y-12281950D01*
X21447618Y-12281950D02*
X21485714Y-12320045D01*
X22247618Y-13043855D02*
X21790475Y-13043855D01*
X22019047Y-13043855D02*
X22019047Y-12243855D01*
X22019047Y-12243855D02*
X21942856Y-12358140D01*
X21942856Y-12358140D02*
X21866666Y-12434331D01*
X21866666Y-12434331D02*
X21790475Y-12472426D01*
X22514285Y-12243855D02*
X23009523Y-12243855D01*
X23009523Y-12243855D02*
X22742857Y-12548617D01*
X22742857Y-12548617D02*
X22857142Y-12548617D01*
X22857142Y-12548617D02*
X22933333Y-12586712D01*
X22933333Y-12586712D02*
X22971428Y-12624807D01*
X22971428Y-12624807D02*
X23009523Y-12700998D01*
X23009523Y-12700998D02*
X23009523Y-12891474D01*
X23009523Y-12891474D02*
X22971428Y-12967664D01*
X22971428Y-12967664D02*
X22933333Y-13005760D01*
X22933333Y-13005760D02*
X22857142Y-13043855D01*
X22857142Y-13043855D02*
X22628571Y-13043855D01*
X22628571Y-13043855D02*
X22552380Y-13005760D01*
X22552380Y-13005760D02*
X22514285Y-12967664D01*
X72866667Y-31607664D02*
X72828571Y-31645760D01*
X72828571Y-31645760D02*
X72714286Y-31683855D01*
X72714286Y-31683855D02*
X72638095Y-31683855D01*
X72638095Y-31683855D02*
X72523809Y-31645760D01*
X72523809Y-31645760D02*
X72447619Y-31569569D01*
X72447619Y-31569569D02*
X72409524Y-31493379D01*
X72409524Y-31493379D02*
X72371428Y-31340998D01*
X72371428Y-31340998D02*
X72371428Y-31226712D01*
X72371428Y-31226712D02*
X72409524Y-31074331D01*
X72409524Y-31074331D02*
X72447619Y-30998140D01*
X72447619Y-30998140D02*
X72523809Y-30921950D01*
X72523809Y-30921950D02*
X72638095Y-30883855D01*
X72638095Y-30883855D02*
X72714286Y-30883855D01*
X72714286Y-30883855D02*
X72828571Y-30921950D01*
X72828571Y-30921950D02*
X72866667Y-30960045D01*
X73171428Y-30960045D02*
X73209524Y-30921950D01*
X73209524Y-30921950D02*
X73285714Y-30883855D01*
X73285714Y-30883855D02*
X73476190Y-30883855D01*
X73476190Y-30883855D02*
X73552381Y-30921950D01*
X73552381Y-30921950D02*
X73590476Y-30960045D01*
X73590476Y-30960045D02*
X73628571Y-31036236D01*
X73628571Y-31036236D02*
X73628571Y-31112426D01*
X73628571Y-31112426D02*
X73590476Y-31226712D01*
X73590476Y-31226712D02*
X73133333Y-31683855D01*
X73133333Y-31683855D02*
X73628571Y-31683855D01*
X27866667Y-56967664D02*
X27828571Y-57005760D01*
X27828571Y-57005760D02*
X27714286Y-57043855D01*
X27714286Y-57043855D02*
X27638095Y-57043855D01*
X27638095Y-57043855D02*
X27523809Y-57005760D01*
X27523809Y-57005760D02*
X27447619Y-56929569D01*
X27447619Y-56929569D02*
X27409524Y-56853379D01*
X27409524Y-56853379D02*
X27371428Y-56700998D01*
X27371428Y-56700998D02*
X27371428Y-56586712D01*
X27371428Y-56586712D02*
X27409524Y-56434331D01*
X27409524Y-56434331D02*
X27447619Y-56358140D01*
X27447619Y-56358140D02*
X27523809Y-56281950D01*
X27523809Y-56281950D02*
X27638095Y-56243855D01*
X27638095Y-56243855D02*
X27714286Y-56243855D01*
X27714286Y-56243855D02*
X27828571Y-56281950D01*
X27828571Y-56281950D02*
X27866667Y-56320045D01*
X28552381Y-56243855D02*
X28400000Y-56243855D01*
X28400000Y-56243855D02*
X28323809Y-56281950D01*
X28323809Y-56281950D02*
X28285714Y-56320045D01*
X28285714Y-56320045D02*
X28209524Y-56434331D01*
X28209524Y-56434331D02*
X28171428Y-56586712D01*
X28171428Y-56586712D02*
X28171428Y-56891474D01*
X28171428Y-56891474D02*
X28209524Y-56967664D01*
X28209524Y-56967664D02*
X28247619Y-57005760D01*
X28247619Y-57005760D02*
X28323809Y-57043855D01*
X28323809Y-57043855D02*
X28476190Y-57043855D01*
X28476190Y-57043855D02*
X28552381Y-57005760D01*
X28552381Y-57005760D02*
X28590476Y-56967664D01*
X28590476Y-56967664D02*
X28628571Y-56891474D01*
X28628571Y-56891474D02*
X28628571Y-56700998D01*
X28628571Y-56700998D02*
X28590476Y-56624807D01*
X28590476Y-56624807D02*
X28552381Y-56586712D01*
X28552381Y-56586712D02*
X28476190Y-56548617D01*
X28476190Y-56548617D02*
X28323809Y-56548617D01*
X28323809Y-56548617D02*
X28247619Y-56586712D01*
X28247619Y-56586712D02*
X28209524Y-56624807D01*
X28209524Y-56624807D02*
X28171428Y-56700998D01*
X32866667Y-51063855D02*
X32600000Y-50682902D01*
X32409524Y-51063855D02*
X32409524Y-50263855D01*
X32409524Y-50263855D02*
X32714286Y-50263855D01*
X32714286Y-50263855D02*
X32790476Y-50301950D01*
X32790476Y-50301950D02*
X32828571Y-50340045D01*
X32828571Y-50340045D02*
X32866667Y-50416236D01*
X32866667Y-50416236D02*
X32866667Y-50530521D01*
X32866667Y-50530521D02*
X32828571Y-50606712D01*
X32828571Y-50606712D02*
X32790476Y-50644807D01*
X32790476Y-50644807D02*
X32714286Y-50682902D01*
X32714286Y-50682902D02*
X32409524Y-50682902D01*
X33552381Y-50530521D02*
X33552381Y-51063855D01*
X33361905Y-50225760D02*
X33171428Y-50797188D01*
X33171428Y-50797188D02*
X33666667Y-50797188D01*
X25866667Y-48997664D02*
X25828571Y-49035760D01*
X25828571Y-49035760D02*
X25714286Y-49073855D01*
X25714286Y-49073855D02*
X25638095Y-49073855D01*
X25638095Y-49073855D02*
X25523809Y-49035760D01*
X25523809Y-49035760D02*
X25447619Y-48959569D01*
X25447619Y-48959569D02*
X25409524Y-48883379D01*
X25409524Y-48883379D02*
X25371428Y-48730998D01*
X25371428Y-48730998D02*
X25371428Y-48616712D01*
X25371428Y-48616712D02*
X25409524Y-48464331D01*
X25409524Y-48464331D02*
X25447619Y-48388140D01*
X25447619Y-48388140D02*
X25523809Y-48311950D01*
X25523809Y-48311950D02*
X25638095Y-48273855D01*
X25638095Y-48273855D02*
X25714286Y-48273855D01*
X25714286Y-48273855D02*
X25828571Y-48311950D01*
X25828571Y-48311950D02*
X25866667Y-48350045D01*
X26323809Y-48616712D02*
X26247619Y-48578617D01*
X26247619Y-48578617D02*
X26209524Y-48540521D01*
X26209524Y-48540521D02*
X26171428Y-48464331D01*
X26171428Y-48464331D02*
X26171428Y-48426236D01*
X26171428Y-48426236D02*
X26209524Y-48350045D01*
X26209524Y-48350045D02*
X26247619Y-48311950D01*
X26247619Y-48311950D02*
X26323809Y-48273855D01*
X26323809Y-48273855D02*
X26476190Y-48273855D01*
X26476190Y-48273855D02*
X26552381Y-48311950D01*
X26552381Y-48311950D02*
X26590476Y-48350045D01*
X26590476Y-48350045D02*
X26628571Y-48426236D01*
X26628571Y-48426236D02*
X26628571Y-48464331D01*
X26628571Y-48464331D02*
X26590476Y-48540521D01*
X26590476Y-48540521D02*
X26552381Y-48578617D01*
X26552381Y-48578617D02*
X26476190Y-48616712D01*
X26476190Y-48616712D02*
X26323809Y-48616712D01*
X26323809Y-48616712D02*
X26247619Y-48654807D01*
X26247619Y-48654807D02*
X26209524Y-48692902D01*
X26209524Y-48692902D02*
X26171428Y-48769093D01*
X26171428Y-48769093D02*
X26171428Y-48921474D01*
X26171428Y-48921474D02*
X26209524Y-48997664D01*
X26209524Y-48997664D02*
X26247619Y-49035760D01*
X26247619Y-49035760D02*
X26323809Y-49073855D01*
X26323809Y-49073855D02*
X26476190Y-49073855D01*
X26476190Y-49073855D02*
X26552381Y-49035760D01*
X26552381Y-49035760D02*
X26590476Y-48997664D01*
X26590476Y-48997664D02*
X26628571Y-48921474D01*
X26628571Y-48921474D02*
X26628571Y-48769093D01*
X26628571Y-48769093D02*
X26590476Y-48692902D01*
X26590476Y-48692902D02*
X26552381Y-48654807D01*
X26552381Y-48654807D02*
X26476190Y-48616712D01*
X21183855Y-8428571D02*
X21755283Y-8428571D01*
X21755283Y-8428571D02*
X21869569Y-8466666D01*
X21869569Y-8466666D02*
X21945760Y-8542857D01*
X21945760Y-8542857D02*
X21983855Y-8657142D01*
X21983855Y-8657142D02*
X21983855Y-8733333D01*
X22060045Y-8238095D02*
X22060045Y-7628571D01*
X21564807Y-7171428D02*
X21564807Y-7438094D01*
X21983855Y-7438094D02*
X21183855Y-7438094D01*
X21183855Y-7438094D02*
X21183855Y-7057142D01*
X21183855Y-6866666D02*
X21183855Y-6409523D01*
X21983855Y-6638095D02*
X21183855Y-6638095D01*
X21983855Y-6142856D02*
X21183855Y-6142856D01*
X21183855Y-6142856D02*
X21183855Y-5952380D01*
X21183855Y-5952380D02*
X21221950Y-5838094D01*
X21221950Y-5838094D02*
X21298140Y-5761904D01*
X21298140Y-5761904D02*
X21374331Y-5723809D01*
X21374331Y-5723809D02*
X21526712Y-5685713D01*
X21526712Y-5685713D02*
X21640998Y-5685713D01*
X21640998Y-5685713D02*
X21793379Y-5723809D01*
X21793379Y-5723809D02*
X21869569Y-5761904D01*
X21869569Y-5761904D02*
X21945760Y-5838094D01*
X21945760Y-5838094D02*
X21983855Y-5952380D01*
X21983855Y-5952380D02*
X21983855Y-6142856D01*
X21983855Y-5342856D02*
X21183855Y-5342856D01*
X47485714Y-48687664D02*
X47447618Y-48725760D01*
X47447618Y-48725760D02*
X47333333Y-48763855D01*
X47333333Y-48763855D02*
X47257142Y-48763855D01*
X47257142Y-48763855D02*
X47142856Y-48725760D01*
X47142856Y-48725760D02*
X47066666Y-48649569D01*
X47066666Y-48649569D02*
X47028571Y-48573379D01*
X47028571Y-48573379D02*
X46990475Y-48420998D01*
X46990475Y-48420998D02*
X46990475Y-48306712D01*
X46990475Y-48306712D02*
X47028571Y-48154331D01*
X47028571Y-48154331D02*
X47066666Y-48078140D01*
X47066666Y-48078140D02*
X47142856Y-48001950D01*
X47142856Y-48001950D02*
X47257142Y-47963855D01*
X47257142Y-47963855D02*
X47333333Y-47963855D01*
X47333333Y-47963855D02*
X47447618Y-48001950D01*
X47447618Y-48001950D02*
X47485714Y-48040045D01*
X48247618Y-48763855D02*
X47790475Y-48763855D01*
X48019047Y-48763855D02*
X48019047Y-47963855D01*
X48019047Y-47963855D02*
X47942856Y-48078140D01*
X47942856Y-48078140D02*
X47866666Y-48154331D01*
X47866666Y-48154331D02*
X47790475Y-48192426D01*
X48742857Y-47963855D02*
X48819047Y-47963855D01*
X48819047Y-47963855D02*
X48895238Y-48001950D01*
X48895238Y-48001950D02*
X48933333Y-48040045D01*
X48933333Y-48040045D02*
X48971428Y-48116236D01*
X48971428Y-48116236D02*
X49009523Y-48268617D01*
X49009523Y-48268617D02*
X49009523Y-48459093D01*
X49009523Y-48459093D02*
X48971428Y-48611474D01*
X48971428Y-48611474D02*
X48933333Y-48687664D01*
X48933333Y-48687664D02*
X48895238Y-48725760D01*
X48895238Y-48725760D02*
X48819047Y-48763855D01*
X48819047Y-48763855D02*
X48742857Y-48763855D01*
X48742857Y-48763855D02*
X48666666Y-48725760D01*
X48666666Y-48725760D02*
X48628571Y-48687664D01*
X48628571Y-48687664D02*
X48590476Y-48611474D01*
X48590476Y-48611474D02*
X48552380Y-48459093D01*
X48552380Y-48459093D02*
X48552380Y-48268617D01*
X48552380Y-48268617D02*
X48590476Y-48116236D01*
X48590476Y-48116236D02*
X48628571Y-48040045D01*
X48628571Y-48040045D02*
X48666666Y-48001950D01*
X48666666Y-48001950D02*
X48742857Y-47963855D01*
X21619048Y-44582902D02*
X21619048Y-44963855D01*
X21352381Y-44163855D02*
X21619048Y-44582902D01*
X21619048Y-44582902D02*
X21885714Y-44163855D01*
X22571428Y-44963855D02*
X22114285Y-44963855D01*
X22342857Y-44963855D02*
X22342857Y-44163855D01*
X22342857Y-44163855D02*
X22266666Y-44278140D01*
X22266666Y-44278140D02*
X22190476Y-44354331D01*
X22190476Y-44354331D02*
X22114285Y-44392426D01*
X13366667Y-49513855D02*
X13100000Y-49132902D01*
X12909524Y-49513855D02*
X12909524Y-48713855D01*
X12909524Y-48713855D02*
X13214286Y-48713855D01*
X13214286Y-48713855D02*
X13290476Y-48751950D01*
X13290476Y-48751950D02*
X13328571Y-48790045D01*
X13328571Y-48790045D02*
X13366667Y-48866236D01*
X13366667Y-48866236D02*
X13366667Y-48980521D01*
X13366667Y-48980521D02*
X13328571Y-49056712D01*
X13328571Y-49056712D02*
X13290476Y-49094807D01*
X13290476Y-49094807D02*
X13214286Y-49132902D01*
X13214286Y-49132902D02*
X12909524Y-49132902D01*
X13633333Y-48713855D02*
X14128571Y-48713855D01*
X14128571Y-48713855D02*
X13861905Y-49018617D01*
X13861905Y-49018617D02*
X13976190Y-49018617D01*
X13976190Y-49018617D02*
X14052381Y-49056712D01*
X14052381Y-49056712D02*
X14090476Y-49094807D01*
X14090476Y-49094807D02*
X14128571Y-49170998D01*
X14128571Y-49170998D02*
X14128571Y-49361474D01*
X14128571Y-49361474D02*
X14090476Y-49437664D01*
X14090476Y-49437664D02*
X14052381Y-49475760D01*
X14052381Y-49475760D02*
X13976190Y-49513855D01*
X13976190Y-49513855D02*
X13747619Y-49513855D01*
X13747619Y-49513855D02*
X13671428Y-49475760D01*
X13671428Y-49475760D02*
X13633333Y-49437664D01*
X47485714Y-37607664D02*
X47447618Y-37645760D01*
X47447618Y-37645760D02*
X47333333Y-37683855D01*
X47333333Y-37683855D02*
X47257142Y-37683855D01*
X47257142Y-37683855D02*
X47142856Y-37645760D01*
X47142856Y-37645760D02*
X47066666Y-37569569D01*
X47066666Y-37569569D02*
X47028571Y-37493379D01*
X47028571Y-37493379D02*
X46990475Y-37340998D01*
X46990475Y-37340998D02*
X46990475Y-37226712D01*
X46990475Y-37226712D02*
X47028571Y-37074331D01*
X47028571Y-37074331D02*
X47066666Y-36998140D01*
X47066666Y-36998140D02*
X47142856Y-36921950D01*
X47142856Y-36921950D02*
X47257142Y-36883855D01*
X47257142Y-36883855D02*
X47333333Y-36883855D01*
X47333333Y-36883855D02*
X47447618Y-36921950D01*
X47447618Y-36921950D02*
X47485714Y-36960045D01*
X48247618Y-37683855D02*
X47790475Y-37683855D01*
X48019047Y-37683855D02*
X48019047Y-36883855D01*
X48019047Y-36883855D02*
X47942856Y-36998140D01*
X47942856Y-36998140D02*
X47866666Y-37074331D01*
X47866666Y-37074331D02*
X47790475Y-37112426D01*
X49009523Y-37683855D02*
X48552380Y-37683855D01*
X48780952Y-37683855D02*
X48780952Y-36883855D01*
X48780952Y-36883855D02*
X48704761Y-36998140D01*
X48704761Y-36998140D02*
X48628571Y-37074331D01*
X48628571Y-37074331D02*
X48552380Y-37112426D01*
X21866667Y-31787664D02*
X21828571Y-31825760D01*
X21828571Y-31825760D02*
X21714286Y-31863855D01*
X21714286Y-31863855D02*
X21638095Y-31863855D01*
X21638095Y-31863855D02*
X21523809Y-31825760D01*
X21523809Y-31825760D02*
X21447619Y-31749569D01*
X21447619Y-31749569D02*
X21409524Y-31673379D01*
X21409524Y-31673379D02*
X21371428Y-31520998D01*
X21371428Y-31520998D02*
X21371428Y-31406712D01*
X21371428Y-31406712D02*
X21409524Y-31254331D01*
X21409524Y-31254331D02*
X21447619Y-31178140D01*
X21447619Y-31178140D02*
X21523809Y-31101950D01*
X21523809Y-31101950D02*
X21638095Y-31063855D01*
X21638095Y-31063855D02*
X21714286Y-31063855D01*
X21714286Y-31063855D02*
X21828571Y-31101950D01*
X21828571Y-31101950D02*
X21866667Y-31140045D01*
X22133333Y-31063855D02*
X22628571Y-31063855D01*
X22628571Y-31063855D02*
X22361905Y-31368617D01*
X22361905Y-31368617D02*
X22476190Y-31368617D01*
X22476190Y-31368617D02*
X22552381Y-31406712D01*
X22552381Y-31406712D02*
X22590476Y-31444807D01*
X22590476Y-31444807D02*
X22628571Y-31520998D01*
X22628571Y-31520998D02*
X22628571Y-31711474D01*
X22628571Y-31711474D02*
X22590476Y-31787664D01*
X22590476Y-31787664D02*
X22552381Y-31825760D01*
X22552381Y-31825760D02*
X22476190Y-31863855D01*
X22476190Y-31863855D02*
X22247619Y-31863855D01*
X22247619Y-31863855D02*
X22171428Y-31825760D01*
X22171428Y-31825760D02*
X22133333Y-31787664D01*
X7885713Y-22063855D02*
X7885713Y-22635283D01*
X7885713Y-22635283D02*
X7847618Y-22749569D01*
X7847618Y-22749569D02*
X7771427Y-22825760D01*
X7771427Y-22825760D02*
X7657142Y-22863855D01*
X7657142Y-22863855D02*
X7580951Y-22863855D01*
X8076190Y-22940045D02*
X8685713Y-22940045D01*
X9333333Y-22863855D02*
X9066666Y-22482902D01*
X8876190Y-22863855D02*
X8876190Y-22063855D01*
X8876190Y-22063855D02*
X9180952Y-22063855D01*
X9180952Y-22063855D02*
X9257142Y-22101950D01*
X9257142Y-22101950D02*
X9295237Y-22140045D01*
X9295237Y-22140045D02*
X9333333Y-22216236D01*
X9333333Y-22216236D02*
X9333333Y-22330521D01*
X9333333Y-22330521D02*
X9295237Y-22406712D01*
X9295237Y-22406712D02*
X9257142Y-22444807D01*
X9257142Y-22444807D02*
X9180952Y-22482902D01*
X9180952Y-22482902D02*
X8876190Y-22482902D01*
X9638094Y-22825760D02*
X9752380Y-22863855D01*
X9752380Y-22863855D02*
X9942856Y-22863855D01*
X9942856Y-22863855D02*
X10019047Y-22825760D01*
X10019047Y-22825760D02*
X10057142Y-22787664D01*
X10057142Y-22787664D02*
X10095237Y-22711474D01*
X10095237Y-22711474D02*
X10095237Y-22635283D01*
X10095237Y-22635283D02*
X10057142Y-22559093D01*
X10057142Y-22559093D02*
X10019047Y-22520998D01*
X10019047Y-22520998D02*
X9942856Y-22482902D01*
X9942856Y-22482902D02*
X9790475Y-22444807D01*
X9790475Y-22444807D02*
X9714285Y-22406712D01*
X9714285Y-22406712D02*
X9676190Y-22368617D01*
X9676190Y-22368617D02*
X9638094Y-22292426D01*
X9638094Y-22292426D02*
X9638094Y-22216236D01*
X9638094Y-22216236D02*
X9676190Y-22140045D01*
X9676190Y-22140045D02*
X9714285Y-22101950D01*
X9714285Y-22101950D02*
X9790475Y-22063855D01*
X9790475Y-22063855D02*
X9980952Y-22063855D01*
X9980952Y-22063855D02*
X10095237Y-22101950D01*
X10780952Y-22330521D02*
X10780952Y-22863855D01*
X10590476Y-22025760D02*
X10399999Y-22597188D01*
X10399999Y-22597188D02*
X10895238Y-22597188D01*
X11314285Y-22406712D02*
X11238095Y-22368617D01*
X11238095Y-22368617D02*
X11200000Y-22330521D01*
X11200000Y-22330521D02*
X11161904Y-22254331D01*
X11161904Y-22254331D02*
X11161904Y-22216236D01*
X11161904Y-22216236D02*
X11200000Y-22140045D01*
X11200000Y-22140045D02*
X11238095Y-22101950D01*
X11238095Y-22101950D02*
X11314285Y-22063855D01*
X11314285Y-22063855D02*
X11466666Y-22063855D01*
X11466666Y-22063855D02*
X11542857Y-22101950D01*
X11542857Y-22101950D02*
X11580952Y-22140045D01*
X11580952Y-22140045D02*
X11619047Y-22216236D01*
X11619047Y-22216236D02*
X11619047Y-22254331D01*
X11619047Y-22254331D02*
X11580952Y-22330521D01*
X11580952Y-22330521D02*
X11542857Y-22368617D01*
X11542857Y-22368617D02*
X11466666Y-22406712D01*
X11466666Y-22406712D02*
X11314285Y-22406712D01*
X11314285Y-22406712D02*
X11238095Y-22444807D01*
X11238095Y-22444807D02*
X11200000Y-22482902D01*
X11200000Y-22482902D02*
X11161904Y-22559093D01*
X11161904Y-22559093D02*
X11161904Y-22711474D01*
X11161904Y-22711474D02*
X11200000Y-22787664D01*
X11200000Y-22787664D02*
X11238095Y-22825760D01*
X11238095Y-22825760D02*
X11314285Y-22863855D01*
X11314285Y-22863855D02*
X11466666Y-22863855D01*
X11466666Y-22863855D02*
X11542857Y-22825760D01*
X11542857Y-22825760D02*
X11580952Y-22787664D01*
X11580952Y-22787664D02*
X11619047Y-22711474D01*
X11619047Y-22711474D02*
X11619047Y-22559093D01*
X11619047Y-22559093D02*
X11580952Y-22482902D01*
X11580952Y-22482902D02*
X11542857Y-22444807D01*
X11542857Y-22444807D02*
X11466666Y-22406712D01*
X12342857Y-22063855D02*
X11961905Y-22063855D01*
X11961905Y-22063855D02*
X11923809Y-22444807D01*
X11923809Y-22444807D02*
X11961905Y-22406712D01*
X11961905Y-22406712D02*
X12038095Y-22368617D01*
X12038095Y-22368617D02*
X12228571Y-22368617D01*
X12228571Y-22368617D02*
X12304762Y-22406712D01*
X12304762Y-22406712D02*
X12342857Y-22444807D01*
X12342857Y-22444807D02*
X12380952Y-22520998D01*
X12380952Y-22520998D02*
X12380952Y-22711474D01*
X12380952Y-22711474D02*
X12342857Y-22787664D01*
X12342857Y-22787664D02*
X12304762Y-22825760D01*
X12304762Y-22825760D02*
X12228571Y-22863855D01*
X12228571Y-22863855D02*
X12038095Y-22863855D01*
X12038095Y-22863855D02*
X11961905Y-22825760D01*
X11961905Y-22825760D02*
X11923809Y-22787664D01*
X47866667Y-30607664D02*
X47828571Y-30645760D01*
X47828571Y-30645760D02*
X47714286Y-30683855D01*
X47714286Y-30683855D02*
X47638095Y-30683855D01*
X47638095Y-30683855D02*
X47523809Y-30645760D01*
X47523809Y-30645760D02*
X47447619Y-30569569D01*
X47447619Y-30569569D02*
X47409524Y-30493379D01*
X47409524Y-30493379D02*
X47371428Y-30340998D01*
X47371428Y-30340998D02*
X47371428Y-30226712D01*
X47371428Y-30226712D02*
X47409524Y-30074331D01*
X47409524Y-30074331D02*
X47447619Y-29998140D01*
X47447619Y-29998140D02*
X47523809Y-29921950D01*
X47523809Y-29921950D02*
X47638095Y-29883855D01*
X47638095Y-29883855D02*
X47714286Y-29883855D01*
X47714286Y-29883855D02*
X47828571Y-29921950D01*
X47828571Y-29921950D02*
X47866667Y-29960045D01*
X48552381Y-30150521D02*
X48552381Y-30683855D01*
X48361905Y-29845760D02*
X48171428Y-30417188D01*
X48171428Y-30417188D02*
X48666667Y-30417188D01*
X48685714Y-63183855D02*
X48685714Y-63755283D01*
X48685714Y-63755283D02*
X48647619Y-63869569D01*
X48647619Y-63869569D02*
X48571428Y-63945760D01*
X48571428Y-63945760D02*
X48457143Y-63983855D01*
X48457143Y-63983855D02*
X48380952Y-63983855D01*
X48876191Y-64060045D02*
X49485714Y-64060045D01*
X49676191Y-63983855D02*
X49676191Y-63183855D01*
X49676191Y-63183855D02*
X49980953Y-63183855D01*
X49980953Y-63183855D02*
X50057143Y-63221950D01*
X50057143Y-63221950D02*
X50095238Y-63260045D01*
X50095238Y-63260045D02*
X50133334Y-63336236D01*
X50133334Y-63336236D02*
X50133334Y-63450521D01*
X50133334Y-63450521D02*
X50095238Y-63526712D01*
X50095238Y-63526712D02*
X50057143Y-63564807D01*
X50057143Y-63564807D02*
X49980953Y-63602902D01*
X49980953Y-63602902D02*
X49676191Y-63602902D01*
X50628572Y-63183855D02*
X50780953Y-63183855D01*
X50780953Y-63183855D02*
X50857143Y-63221950D01*
X50857143Y-63221950D02*
X50933334Y-63298140D01*
X50933334Y-63298140D02*
X50971429Y-63450521D01*
X50971429Y-63450521D02*
X50971429Y-63717188D01*
X50971429Y-63717188D02*
X50933334Y-63869569D01*
X50933334Y-63869569D02*
X50857143Y-63945760D01*
X50857143Y-63945760D02*
X50780953Y-63983855D01*
X50780953Y-63983855D02*
X50628572Y-63983855D01*
X50628572Y-63983855D02*
X50552381Y-63945760D01*
X50552381Y-63945760D02*
X50476191Y-63869569D01*
X50476191Y-63869569D02*
X50438095Y-63717188D01*
X50438095Y-63717188D02*
X50438095Y-63450521D01*
X50438095Y-63450521D02*
X50476191Y-63298140D01*
X50476191Y-63298140D02*
X50552381Y-63221950D01*
X50552381Y-63221950D02*
X50628572Y-63183855D01*
X51200000Y-63183855D02*
X51657143Y-63183855D01*
X51428571Y-63983855D02*
X51428571Y-63183855D01*
X16666666Y-38183855D02*
X16666666Y-38755283D01*
X16666666Y-38755283D02*
X16628571Y-38869569D01*
X16628571Y-38869569D02*
X16552380Y-38945760D01*
X16552380Y-38945760D02*
X16438095Y-38983855D01*
X16438095Y-38983855D02*
X16361904Y-38983855D01*
X17047619Y-38983855D02*
X17047619Y-38183855D01*
X17047619Y-38183855D02*
X17352381Y-38183855D01*
X17352381Y-38183855D02*
X17428571Y-38221950D01*
X17428571Y-38221950D02*
X17466666Y-38260045D01*
X17466666Y-38260045D02*
X17504762Y-38336236D01*
X17504762Y-38336236D02*
X17504762Y-38450521D01*
X17504762Y-38450521D02*
X17466666Y-38526712D01*
X17466666Y-38526712D02*
X17428571Y-38564807D01*
X17428571Y-38564807D02*
X17352381Y-38602902D01*
X17352381Y-38602902D02*
X17047619Y-38602902D01*
X17657143Y-39060045D02*
X18266666Y-39060045D01*
X18723809Y-38564807D02*
X18838095Y-38602902D01*
X18838095Y-38602902D02*
X18876190Y-38640998D01*
X18876190Y-38640998D02*
X18914286Y-38717188D01*
X18914286Y-38717188D02*
X18914286Y-38831474D01*
X18914286Y-38831474D02*
X18876190Y-38907664D01*
X18876190Y-38907664D02*
X18838095Y-38945760D01*
X18838095Y-38945760D02*
X18761905Y-38983855D01*
X18761905Y-38983855D02*
X18457143Y-38983855D01*
X18457143Y-38983855D02*
X18457143Y-38183855D01*
X18457143Y-38183855D02*
X18723809Y-38183855D01*
X18723809Y-38183855D02*
X18800000Y-38221950D01*
X18800000Y-38221950D02*
X18838095Y-38260045D01*
X18838095Y-38260045D02*
X18876190Y-38336236D01*
X18876190Y-38336236D02*
X18876190Y-38412426D01*
X18876190Y-38412426D02*
X18838095Y-38488617D01*
X18838095Y-38488617D02*
X18800000Y-38526712D01*
X18800000Y-38526712D02*
X18723809Y-38564807D01*
X18723809Y-38564807D02*
X18457143Y-38564807D01*
X19219047Y-38755283D02*
X19600000Y-38755283D01*
X19142857Y-38983855D02*
X19409524Y-38183855D01*
X19409524Y-38183855D02*
X19676190Y-38983855D01*
X15885713Y-31183855D02*
X15885713Y-31755283D01*
X15885713Y-31755283D02*
X15847618Y-31869569D01*
X15847618Y-31869569D02*
X15771427Y-31945760D01*
X15771427Y-31945760D02*
X15657142Y-31983855D01*
X15657142Y-31983855D02*
X15580951Y-31983855D01*
X16266666Y-31983855D02*
X16266666Y-31183855D01*
X16266666Y-31183855D02*
X16571428Y-31183855D01*
X16571428Y-31183855D02*
X16647618Y-31221950D01*
X16647618Y-31221950D02*
X16685713Y-31260045D01*
X16685713Y-31260045D02*
X16723809Y-31336236D01*
X16723809Y-31336236D02*
X16723809Y-31450521D01*
X16723809Y-31450521D02*
X16685713Y-31526712D01*
X16685713Y-31526712D02*
X16647618Y-31564807D01*
X16647618Y-31564807D02*
X16571428Y-31602902D01*
X16571428Y-31602902D02*
X16266666Y-31602902D01*
X16876190Y-32060045D02*
X17485713Y-32060045D01*
X17561904Y-31183855D02*
X18019047Y-31183855D01*
X17790475Y-31983855D02*
X17790475Y-31183855D01*
X18285714Y-31564807D02*
X18552380Y-31564807D01*
X18666666Y-31983855D02*
X18285714Y-31983855D01*
X18285714Y-31983855D02*
X18285714Y-31183855D01*
X18285714Y-31183855D02*
X18666666Y-31183855D01*
X19466667Y-31983855D02*
X19200000Y-31602902D01*
X19009524Y-31983855D02*
X19009524Y-31183855D01*
X19009524Y-31183855D02*
X19314286Y-31183855D01*
X19314286Y-31183855D02*
X19390476Y-31221950D01*
X19390476Y-31221950D02*
X19428571Y-31260045D01*
X19428571Y-31260045D02*
X19466667Y-31336236D01*
X19466667Y-31336236D02*
X19466667Y-31450521D01*
X19466667Y-31450521D02*
X19428571Y-31526712D01*
X19428571Y-31526712D02*
X19390476Y-31564807D01*
X19390476Y-31564807D02*
X19314286Y-31602902D01*
X19314286Y-31602902D02*
X19009524Y-31602902D01*
X19809524Y-31983855D02*
X19809524Y-31183855D01*
X19809524Y-31183855D02*
X20076190Y-31755283D01*
X20076190Y-31755283D02*
X20342857Y-31183855D01*
X20342857Y-31183855D02*
X20342857Y-31983855D01*
X27390476Y-33963855D02*
X27390476Y-34611474D01*
X27390476Y-34611474D02*
X27428571Y-34687664D01*
X27428571Y-34687664D02*
X27466666Y-34725760D01*
X27466666Y-34725760D02*
X27542857Y-34763855D01*
X27542857Y-34763855D02*
X27695238Y-34763855D01*
X27695238Y-34763855D02*
X27771428Y-34725760D01*
X27771428Y-34725760D02*
X27809523Y-34687664D01*
X27809523Y-34687664D02*
X27847619Y-34611474D01*
X27847619Y-34611474D02*
X27847619Y-33963855D01*
X28647618Y-34763855D02*
X28190475Y-34763855D01*
X28419047Y-34763855D02*
X28419047Y-33963855D01*
X28419047Y-33963855D02*
X28342856Y-34078140D01*
X28342856Y-34078140D02*
X28266666Y-34154331D01*
X28266666Y-34154331D02*
X28190475Y-34192426D01*
X74012380Y-14643855D02*
X74012380Y-15215283D01*
X74012380Y-15215283D02*
X73974285Y-15329569D01*
X73974285Y-15329569D02*
X73898094Y-15405760D01*
X73898094Y-15405760D02*
X73783809Y-15443855D01*
X73783809Y-15443855D02*
X73707618Y-15443855D01*
X74202857Y-15520045D02*
X74812380Y-15520045D01*
X75002857Y-15443855D02*
X75002857Y-14643855D01*
X75002857Y-14643855D02*
X75307619Y-14643855D01*
X75307619Y-14643855D02*
X75383809Y-14681950D01*
X75383809Y-14681950D02*
X75421904Y-14720045D01*
X75421904Y-14720045D02*
X75460000Y-14796236D01*
X75460000Y-14796236D02*
X75460000Y-14910521D01*
X75460000Y-14910521D02*
X75421904Y-14986712D01*
X75421904Y-14986712D02*
X75383809Y-15024807D01*
X75383809Y-15024807D02*
X75307619Y-15062902D01*
X75307619Y-15062902D02*
X75002857Y-15062902D01*
X75726666Y-14643855D02*
X75917142Y-15443855D01*
X75917142Y-15443855D02*
X76069523Y-14872426D01*
X76069523Y-14872426D02*
X76221904Y-15443855D01*
X76221904Y-15443855D02*
X76412381Y-14643855D01*
X77174286Y-15443855D02*
X76907619Y-15062902D01*
X76717143Y-15443855D02*
X76717143Y-14643855D01*
X76717143Y-14643855D02*
X77021905Y-14643855D01*
X77021905Y-14643855D02*
X77098095Y-14681950D01*
X77098095Y-14681950D02*
X77136190Y-14720045D01*
X77136190Y-14720045D02*
X77174286Y-14796236D01*
X77174286Y-14796236D02*
X77174286Y-14910521D01*
X77174286Y-14910521D02*
X77136190Y-14986712D01*
X77136190Y-14986712D02*
X77098095Y-15024807D01*
X77098095Y-15024807D02*
X77021905Y-15062902D01*
X77021905Y-15062902D02*
X76717143Y-15062902D01*
X12183332Y-12325760D02*
X12297618Y-12363855D01*
X12297618Y-12363855D02*
X12488094Y-12363855D01*
X12488094Y-12363855D02*
X12564285Y-12325760D01*
X12564285Y-12325760D02*
X12602380Y-12287664D01*
X12602380Y-12287664D02*
X12640475Y-12211474D01*
X12640475Y-12211474D02*
X12640475Y-12135283D01*
X12640475Y-12135283D02*
X12602380Y-12059093D01*
X12602380Y-12059093D02*
X12564285Y-12020998D01*
X12564285Y-12020998D02*
X12488094Y-11982902D01*
X12488094Y-11982902D02*
X12335713Y-11944807D01*
X12335713Y-11944807D02*
X12259523Y-11906712D01*
X12259523Y-11906712D02*
X12221428Y-11868617D01*
X12221428Y-11868617D02*
X12183332Y-11792426D01*
X12183332Y-11792426D02*
X12183332Y-11716236D01*
X12183332Y-11716236D02*
X12221428Y-11640045D01*
X12221428Y-11640045D02*
X12259523Y-11601950D01*
X12259523Y-11601950D02*
X12335713Y-11563855D01*
X12335713Y-11563855D02*
X12526190Y-11563855D01*
X12526190Y-11563855D02*
X12640475Y-11601950D01*
X12907142Y-11563855D02*
X13097618Y-12363855D01*
X13097618Y-12363855D02*
X13249999Y-11792426D01*
X13249999Y-11792426D02*
X13402380Y-12363855D01*
X13402380Y-12363855D02*
X13592857Y-11563855D01*
X14316666Y-12363855D02*
X13859523Y-12363855D01*
X14088095Y-12363855D02*
X14088095Y-11563855D01*
X14088095Y-11563855D02*
X14011904Y-11678140D01*
X14011904Y-11678140D02*
X13935714Y-11754331D01*
X13935714Y-11754331D02*
X13859523Y-11792426D01*
X39200476Y-19233855D02*
X39200476Y-19881474D01*
X39200476Y-19881474D02*
X39238571Y-19957664D01*
X39238571Y-19957664D02*
X39276666Y-19995760D01*
X39276666Y-19995760D02*
X39352857Y-20033855D01*
X39352857Y-20033855D02*
X39505238Y-20033855D01*
X39505238Y-20033855D02*
X39581428Y-19995760D01*
X39581428Y-19995760D02*
X39619523Y-19957664D01*
X39619523Y-19957664D02*
X39657619Y-19881474D01*
X39657619Y-19881474D02*
X39657619Y-19233855D01*
X40000475Y-19310045D02*
X40038571Y-19271950D01*
X40038571Y-19271950D02*
X40114761Y-19233855D01*
X40114761Y-19233855D02*
X40305237Y-19233855D01*
X40305237Y-19233855D02*
X40381428Y-19271950D01*
X40381428Y-19271950D02*
X40419523Y-19310045D01*
X40419523Y-19310045D02*
X40457618Y-19386236D01*
X40457618Y-19386236D02*
X40457618Y-19462426D01*
X40457618Y-19462426D02*
X40419523Y-19576712D01*
X40419523Y-19576712D02*
X39962380Y-20033855D01*
X39962380Y-20033855D02*
X40457618Y-20033855D01*
X87028571Y-27983855D02*
X87028571Y-27183855D01*
X87028571Y-27183855D02*
X87333333Y-27183855D01*
X87333333Y-27183855D02*
X87409523Y-27221950D01*
X87409523Y-27221950D02*
X87447618Y-27260045D01*
X87447618Y-27260045D02*
X87485714Y-27336236D01*
X87485714Y-27336236D02*
X87485714Y-27450521D01*
X87485714Y-27450521D02*
X87447618Y-27526712D01*
X87447618Y-27526712D02*
X87409523Y-27564807D01*
X87409523Y-27564807D02*
X87333333Y-27602902D01*
X87333333Y-27602902D02*
X87028571Y-27602902D01*
X87790475Y-27945760D02*
X87904761Y-27983855D01*
X87904761Y-27983855D02*
X88095237Y-27983855D01*
X88095237Y-27983855D02*
X88171428Y-27945760D01*
X88171428Y-27945760D02*
X88209523Y-27907664D01*
X88209523Y-27907664D02*
X88247618Y-27831474D01*
X88247618Y-27831474D02*
X88247618Y-27755283D01*
X88247618Y-27755283D02*
X88209523Y-27679093D01*
X88209523Y-27679093D02*
X88171428Y-27640998D01*
X88171428Y-27640998D02*
X88095237Y-27602902D01*
X88095237Y-27602902D02*
X87942856Y-27564807D01*
X87942856Y-27564807D02*
X87866666Y-27526712D01*
X87866666Y-27526712D02*
X87828571Y-27488617D01*
X87828571Y-27488617D02*
X87790475Y-27412426D01*
X87790475Y-27412426D02*
X87790475Y-27336236D01*
X87790475Y-27336236D02*
X87828571Y-27260045D01*
X87828571Y-27260045D02*
X87866666Y-27221950D01*
X87866666Y-27221950D02*
X87942856Y-27183855D01*
X87942856Y-27183855D02*
X88133333Y-27183855D01*
X88133333Y-27183855D02*
X88247618Y-27221950D01*
X89009523Y-27983855D02*
X88552380Y-27983855D01*
X88780952Y-27983855D02*
X88780952Y-27183855D01*
X88780952Y-27183855D02*
X88704761Y-27298140D01*
X88704761Y-27298140D02*
X88628571Y-27374331D01*
X88628571Y-27374331D02*
X88552380Y-27412426D01*
X25866667Y-44117664D02*
X25828571Y-44155760D01*
X25828571Y-44155760D02*
X25714286Y-44193855D01*
X25714286Y-44193855D02*
X25638095Y-44193855D01*
X25638095Y-44193855D02*
X25523809Y-44155760D01*
X25523809Y-44155760D02*
X25447619Y-44079569D01*
X25447619Y-44079569D02*
X25409524Y-44003379D01*
X25409524Y-44003379D02*
X25371428Y-43850998D01*
X25371428Y-43850998D02*
X25371428Y-43736712D01*
X25371428Y-43736712D02*
X25409524Y-43584331D01*
X25409524Y-43584331D02*
X25447619Y-43508140D01*
X25447619Y-43508140D02*
X25523809Y-43431950D01*
X25523809Y-43431950D02*
X25638095Y-43393855D01*
X25638095Y-43393855D02*
X25714286Y-43393855D01*
X25714286Y-43393855D02*
X25828571Y-43431950D01*
X25828571Y-43431950D02*
X25866667Y-43470045D01*
X26133333Y-43393855D02*
X26666667Y-43393855D01*
X26666667Y-43393855D02*
X26323809Y-44193855D01*
X32666666Y-38967664D02*
X32628570Y-39005760D01*
X32628570Y-39005760D02*
X32514285Y-39043855D01*
X32514285Y-39043855D02*
X32438094Y-39043855D01*
X32438094Y-39043855D02*
X32323808Y-39005760D01*
X32323808Y-39005760D02*
X32247618Y-38929569D01*
X32247618Y-38929569D02*
X32209523Y-38853379D01*
X32209523Y-38853379D02*
X32171427Y-38700998D01*
X32171427Y-38700998D02*
X32171427Y-38586712D01*
X32171427Y-38586712D02*
X32209523Y-38434331D01*
X32209523Y-38434331D02*
X32247618Y-38358140D01*
X32247618Y-38358140D02*
X32323808Y-38281950D01*
X32323808Y-38281950D02*
X32438094Y-38243855D01*
X32438094Y-38243855D02*
X32514285Y-38243855D01*
X32514285Y-38243855D02*
X32628570Y-38281950D01*
X32628570Y-38281950D02*
X32666666Y-38320045D01*
X33047618Y-39043855D02*
X33199999Y-39043855D01*
X33199999Y-39043855D02*
X33276189Y-39005760D01*
X33276189Y-39005760D02*
X33314285Y-38967664D01*
X33314285Y-38967664D02*
X33390475Y-38853379D01*
X33390475Y-38853379D02*
X33428570Y-38700998D01*
X33428570Y-38700998D02*
X33428570Y-38396236D01*
X33428570Y-38396236D02*
X33390475Y-38320045D01*
X33390475Y-38320045D02*
X33352380Y-38281950D01*
X33352380Y-38281950D02*
X33276189Y-38243855D01*
X33276189Y-38243855D02*
X33123808Y-38243855D01*
X33123808Y-38243855D02*
X33047618Y-38281950D01*
X33047618Y-38281950D02*
X33009523Y-38320045D01*
X33009523Y-38320045D02*
X32971427Y-38396236D01*
X32971427Y-38396236D02*
X32971427Y-38586712D01*
X32971427Y-38586712D02*
X33009523Y-38662902D01*
X33009523Y-38662902D02*
X33047618Y-38700998D01*
X33047618Y-38700998D02*
X33123808Y-38739093D01*
X33123808Y-38739093D02*
X33276189Y-38739093D01*
X33276189Y-38739093D02*
X33352380Y-38700998D01*
X33352380Y-38700998D02*
X33390475Y-38662902D01*
X33390475Y-38662902D02*
X33428570Y-38586712D01*
X53108095Y-41183855D02*
X53108095Y-41755283D01*
X53108095Y-41755283D02*
X53070000Y-41869569D01*
X53070000Y-41869569D02*
X52993809Y-41945760D01*
X52993809Y-41945760D02*
X52879524Y-41983855D01*
X52879524Y-41983855D02*
X52803333Y-41983855D01*
X53298572Y-42060045D02*
X53908095Y-42060045D01*
X54098572Y-41983855D02*
X54098572Y-41183855D01*
X54441428Y-41945760D02*
X54555714Y-41983855D01*
X54555714Y-41983855D02*
X54746190Y-41983855D01*
X54746190Y-41983855D02*
X54822381Y-41945760D01*
X54822381Y-41945760D02*
X54860476Y-41907664D01*
X54860476Y-41907664D02*
X54898571Y-41831474D01*
X54898571Y-41831474D02*
X54898571Y-41755283D01*
X54898571Y-41755283D02*
X54860476Y-41679093D01*
X54860476Y-41679093D02*
X54822381Y-41640998D01*
X54822381Y-41640998D02*
X54746190Y-41602902D01*
X54746190Y-41602902D02*
X54593809Y-41564807D01*
X54593809Y-41564807D02*
X54517619Y-41526712D01*
X54517619Y-41526712D02*
X54479524Y-41488617D01*
X54479524Y-41488617D02*
X54441428Y-41412426D01*
X54441428Y-41412426D02*
X54441428Y-41336236D01*
X54441428Y-41336236D02*
X54479524Y-41260045D01*
X54479524Y-41260045D02*
X54517619Y-41221950D01*
X54517619Y-41221950D02*
X54593809Y-41183855D01*
X54593809Y-41183855D02*
X54784286Y-41183855D01*
X54784286Y-41183855D02*
X54898571Y-41221950D01*
X55241429Y-41983855D02*
X55241429Y-41183855D01*
X55241429Y-41183855D02*
X55546191Y-41183855D01*
X55546191Y-41183855D02*
X55622381Y-41221950D01*
X55622381Y-41221950D02*
X55660476Y-41260045D01*
X55660476Y-41260045D02*
X55698572Y-41336236D01*
X55698572Y-41336236D02*
X55698572Y-41450521D01*
X55698572Y-41450521D02*
X55660476Y-41526712D01*
X55660476Y-41526712D02*
X55622381Y-41564807D01*
X55622381Y-41564807D02*
X55546191Y-41602902D01*
X55546191Y-41602902D02*
X55241429Y-41602902D01*
X47866666Y-40963855D02*
X47485714Y-40963855D01*
X47485714Y-40963855D02*
X47485714Y-40163855D01*
X48552380Y-40963855D02*
X48095237Y-40963855D01*
X48323809Y-40963855D02*
X48323809Y-40163855D01*
X48323809Y-40163855D02*
X48247618Y-40278140D01*
X48247618Y-40278140D02*
X48171428Y-40354331D01*
X48171428Y-40354331D02*
X48095237Y-40392426D01*
X77409524Y-15863855D02*
X77409524Y-15063855D01*
X77409524Y-15063855D02*
X77600000Y-15063855D01*
X77600000Y-15063855D02*
X77714286Y-15101950D01*
X77714286Y-15101950D02*
X77790476Y-15178140D01*
X77790476Y-15178140D02*
X77828571Y-15254331D01*
X77828571Y-15254331D02*
X77866667Y-15406712D01*
X77866667Y-15406712D02*
X77866667Y-15520998D01*
X77866667Y-15520998D02*
X77828571Y-15673379D01*
X77828571Y-15673379D02*
X77790476Y-15749569D01*
X77790476Y-15749569D02*
X77714286Y-15825760D01*
X77714286Y-15825760D02*
X77600000Y-15863855D01*
X77600000Y-15863855D02*
X77409524Y-15863855D01*
X78628571Y-15863855D02*
X78171428Y-15863855D01*
X78400000Y-15863855D02*
X78400000Y-15063855D01*
X78400000Y-15063855D02*
X78323809Y-15178140D01*
X78323809Y-15178140D02*
X78247619Y-15254331D01*
X78247619Y-15254331D02*
X78171428Y-15292426D01*
X27485714Y-38967664D02*
X27447618Y-39005760D01*
X27447618Y-39005760D02*
X27333333Y-39043855D01*
X27333333Y-39043855D02*
X27257142Y-39043855D01*
X27257142Y-39043855D02*
X27142856Y-39005760D01*
X27142856Y-39005760D02*
X27066666Y-38929569D01*
X27066666Y-38929569D02*
X27028571Y-38853379D01*
X27028571Y-38853379D02*
X26990475Y-38700998D01*
X26990475Y-38700998D02*
X26990475Y-38586712D01*
X26990475Y-38586712D02*
X27028571Y-38434331D01*
X27028571Y-38434331D02*
X27066666Y-38358140D01*
X27066666Y-38358140D02*
X27142856Y-38281950D01*
X27142856Y-38281950D02*
X27257142Y-38243855D01*
X27257142Y-38243855D02*
X27333333Y-38243855D01*
X27333333Y-38243855D02*
X27447618Y-38281950D01*
X27447618Y-38281950D02*
X27485714Y-38320045D01*
X28247618Y-39043855D02*
X27790475Y-39043855D01*
X28019047Y-39043855D02*
X28019047Y-38243855D01*
X28019047Y-38243855D02*
X27942856Y-38358140D01*
X27942856Y-38358140D02*
X27866666Y-38434331D01*
X27866666Y-38434331D02*
X27790475Y-38472426D01*
X28552380Y-38320045D02*
X28590476Y-38281950D01*
X28590476Y-38281950D02*
X28666666Y-38243855D01*
X28666666Y-38243855D02*
X28857142Y-38243855D01*
X28857142Y-38243855D02*
X28933333Y-38281950D01*
X28933333Y-38281950D02*
X28971428Y-38320045D01*
X28971428Y-38320045D02*
X29009523Y-38396236D01*
X29009523Y-38396236D02*
X29009523Y-38472426D01*
X29009523Y-38472426D02*
X28971428Y-38586712D01*
X28971428Y-38586712D02*
X28514285Y-39043855D01*
X28514285Y-39043855D02*
X29009523Y-39043855D01*
X6190476Y-57183855D02*
X6190476Y-57755283D01*
X6190476Y-57755283D02*
X6152381Y-57869569D01*
X6152381Y-57869569D02*
X6076190Y-57945760D01*
X6076190Y-57945760D02*
X5961905Y-57983855D01*
X5961905Y-57983855D02*
X5885714Y-57983855D01*
X6380953Y-58060045D02*
X6990476Y-58060045D01*
X7180953Y-57983855D02*
X7180953Y-57183855D01*
X7180953Y-57183855D02*
X7371429Y-57183855D01*
X7371429Y-57183855D02*
X7485715Y-57221950D01*
X7485715Y-57221950D02*
X7561905Y-57298140D01*
X7561905Y-57298140D02*
X7600000Y-57374331D01*
X7600000Y-57374331D02*
X7638096Y-57526712D01*
X7638096Y-57526712D02*
X7638096Y-57640998D01*
X7638096Y-57640998D02*
X7600000Y-57793379D01*
X7600000Y-57793379D02*
X7561905Y-57869569D01*
X7561905Y-57869569D02*
X7485715Y-57945760D01*
X7485715Y-57945760D02*
X7371429Y-57983855D01*
X7371429Y-57983855D02*
X7180953Y-57983855D01*
X7980953Y-57983855D02*
X7980953Y-57183855D01*
X7980953Y-57183855D02*
X8247619Y-57755283D01*
X8247619Y-57755283D02*
X8514286Y-57183855D01*
X8514286Y-57183855D02*
X8514286Y-57983855D01*
X8857143Y-57755283D02*
X9238096Y-57755283D01*
X8780953Y-57983855D02*
X9047620Y-57183855D01*
X9047620Y-57183855D02*
X9314286Y-57983855D01*
X9580953Y-57983855D02*
X9580953Y-57183855D01*
X9580953Y-57183855D02*
X10038096Y-57983855D01*
X10038096Y-57983855D02*
X10038096Y-57183855D01*
X5942856Y-49183855D02*
X5942856Y-49755283D01*
X5942856Y-49755283D02*
X5904761Y-49869569D01*
X5904761Y-49869569D02*
X5828570Y-49945760D01*
X5828570Y-49945760D02*
X5714285Y-49983855D01*
X5714285Y-49983855D02*
X5638094Y-49983855D01*
X6133333Y-50060045D02*
X6742856Y-50060045D01*
X6933333Y-49564807D02*
X7199999Y-49564807D01*
X7314285Y-49983855D02*
X6933333Y-49983855D01*
X6933333Y-49983855D02*
X6933333Y-49183855D01*
X6933333Y-49183855D02*
X7314285Y-49183855D01*
X7619047Y-49945760D02*
X7733333Y-49983855D01*
X7733333Y-49983855D02*
X7923809Y-49983855D01*
X7923809Y-49983855D02*
X8000000Y-49945760D01*
X8000000Y-49945760D02*
X8038095Y-49907664D01*
X8038095Y-49907664D02*
X8076190Y-49831474D01*
X8076190Y-49831474D02*
X8076190Y-49755283D01*
X8076190Y-49755283D02*
X8038095Y-49679093D01*
X8038095Y-49679093D02*
X8000000Y-49640998D01*
X8000000Y-49640998D02*
X7923809Y-49602902D01*
X7923809Y-49602902D02*
X7771428Y-49564807D01*
X7771428Y-49564807D02*
X7695238Y-49526712D01*
X7695238Y-49526712D02*
X7657143Y-49488617D01*
X7657143Y-49488617D02*
X7619047Y-49412426D01*
X7619047Y-49412426D02*
X7619047Y-49336236D01*
X7619047Y-49336236D02*
X7657143Y-49260045D01*
X7657143Y-49260045D02*
X7695238Y-49221950D01*
X7695238Y-49221950D02*
X7771428Y-49183855D01*
X7771428Y-49183855D02*
X7961905Y-49183855D01*
X7961905Y-49183855D02*
X8076190Y-49221950D01*
X8304762Y-49183855D02*
X8761905Y-49183855D01*
X8533333Y-49983855D02*
X8533333Y-49183855D01*
X9180953Y-49183855D02*
X9333334Y-49183855D01*
X9333334Y-49183855D02*
X9409524Y-49221950D01*
X9409524Y-49221950D02*
X9485715Y-49298140D01*
X9485715Y-49298140D02*
X9523810Y-49450521D01*
X9523810Y-49450521D02*
X9523810Y-49717188D01*
X9523810Y-49717188D02*
X9485715Y-49869569D01*
X9485715Y-49869569D02*
X9409524Y-49945760D01*
X9409524Y-49945760D02*
X9333334Y-49983855D01*
X9333334Y-49983855D02*
X9180953Y-49983855D01*
X9180953Y-49983855D02*
X9104762Y-49945760D01*
X9104762Y-49945760D02*
X9028572Y-49869569D01*
X9028572Y-49869569D02*
X8990476Y-49717188D01*
X8990476Y-49717188D02*
X8990476Y-49450521D01*
X8990476Y-49450521D02*
X9028572Y-49298140D01*
X9028572Y-49298140D02*
X9104762Y-49221950D01*
X9104762Y-49221950D02*
X9180953Y-49183855D01*
X9866667Y-49983855D02*
X9866667Y-49183855D01*
X9866667Y-49183855D02*
X10171429Y-49183855D01*
X10171429Y-49183855D02*
X10247619Y-49221950D01*
X10247619Y-49221950D02*
X10285714Y-49260045D01*
X10285714Y-49260045D02*
X10323810Y-49336236D01*
X10323810Y-49336236D02*
X10323810Y-49450521D01*
X10323810Y-49450521D02*
X10285714Y-49526712D01*
X10285714Y-49526712D02*
X10247619Y-49564807D01*
X10247619Y-49564807D02*
X10171429Y-49602902D01*
X10171429Y-49602902D02*
X9866667Y-49602902D01*
X13366667Y-38063855D02*
X13100000Y-37682902D01*
X12909524Y-38063855D02*
X12909524Y-37263855D01*
X12909524Y-37263855D02*
X13214286Y-37263855D01*
X13214286Y-37263855D02*
X13290476Y-37301950D01*
X13290476Y-37301950D02*
X13328571Y-37340045D01*
X13328571Y-37340045D02*
X13366667Y-37416236D01*
X13366667Y-37416236D02*
X13366667Y-37530521D01*
X13366667Y-37530521D02*
X13328571Y-37606712D01*
X13328571Y-37606712D02*
X13290476Y-37644807D01*
X13290476Y-37644807D02*
X13214286Y-37682902D01*
X13214286Y-37682902D02*
X12909524Y-37682902D01*
X14128571Y-38063855D02*
X13671428Y-38063855D01*
X13900000Y-38063855D02*
X13900000Y-37263855D01*
X13900000Y-37263855D02*
X13823809Y-37378140D01*
X13823809Y-37378140D02*
X13747619Y-37454331D01*
X13747619Y-37454331D02*
X13671428Y-37492426D01*
X11666666Y-25563855D02*
X12123809Y-25563855D01*
X11895237Y-26363855D02*
X11895237Y-25563855D01*
X12276190Y-25563855D02*
X12542857Y-26363855D01*
X12542857Y-26363855D02*
X12809523Y-25563855D01*
X13038094Y-26325760D02*
X13152380Y-26363855D01*
X13152380Y-26363855D02*
X13342856Y-26363855D01*
X13342856Y-26363855D02*
X13419047Y-26325760D01*
X13419047Y-26325760D02*
X13457142Y-26287664D01*
X13457142Y-26287664D02*
X13495237Y-26211474D01*
X13495237Y-26211474D02*
X13495237Y-26135283D01*
X13495237Y-26135283D02*
X13457142Y-26059093D01*
X13457142Y-26059093D02*
X13419047Y-26020998D01*
X13419047Y-26020998D02*
X13342856Y-25982902D01*
X13342856Y-25982902D02*
X13190475Y-25944807D01*
X13190475Y-25944807D02*
X13114285Y-25906712D01*
X13114285Y-25906712D02*
X13076190Y-25868617D01*
X13076190Y-25868617D02*
X13038094Y-25792426D01*
X13038094Y-25792426D02*
X13038094Y-25716236D01*
X13038094Y-25716236D02*
X13076190Y-25640045D01*
X13076190Y-25640045D02*
X13114285Y-25601950D01*
X13114285Y-25601950D02*
X13190475Y-25563855D01*
X13190475Y-25563855D02*
X13380952Y-25563855D01*
X13380952Y-25563855D02*
X13495237Y-25601950D01*
X14257142Y-26363855D02*
X13799999Y-26363855D01*
X14028571Y-26363855D02*
X14028571Y-25563855D01*
X14028571Y-25563855D02*
X13952380Y-25678140D01*
X13952380Y-25678140D02*
X13876190Y-25754331D01*
X13876190Y-25754331D02*
X13799999Y-25792426D01*
X16609523Y-45183855D02*
X16609523Y-45755283D01*
X16609523Y-45755283D02*
X16571428Y-45869569D01*
X16571428Y-45869569D02*
X16495237Y-45945760D01*
X16495237Y-45945760D02*
X16380952Y-45983855D01*
X16380952Y-45983855D02*
X16304761Y-45983855D01*
X16990476Y-45983855D02*
X16990476Y-45183855D01*
X16990476Y-45183855D02*
X17295238Y-45183855D01*
X17295238Y-45183855D02*
X17371428Y-45221950D01*
X17371428Y-45221950D02*
X17409523Y-45260045D01*
X17409523Y-45260045D02*
X17447619Y-45336236D01*
X17447619Y-45336236D02*
X17447619Y-45450521D01*
X17447619Y-45450521D02*
X17409523Y-45526712D01*
X17409523Y-45526712D02*
X17371428Y-45564807D01*
X17371428Y-45564807D02*
X17295238Y-45602902D01*
X17295238Y-45602902D02*
X16990476Y-45602902D01*
X17600000Y-46060045D02*
X18209523Y-46060045D01*
X18666666Y-45564807D02*
X18780952Y-45602902D01*
X18780952Y-45602902D02*
X18819047Y-45640998D01*
X18819047Y-45640998D02*
X18857143Y-45717188D01*
X18857143Y-45717188D02*
X18857143Y-45831474D01*
X18857143Y-45831474D02*
X18819047Y-45907664D01*
X18819047Y-45907664D02*
X18780952Y-45945760D01*
X18780952Y-45945760D02*
X18704762Y-45983855D01*
X18704762Y-45983855D02*
X18400000Y-45983855D01*
X18400000Y-45983855D02*
X18400000Y-45183855D01*
X18400000Y-45183855D02*
X18666666Y-45183855D01*
X18666666Y-45183855D02*
X18742857Y-45221950D01*
X18742857Y-45221950D02*
X18780952Y-45260045D01*
X18780952Y-45260045D02*
X18819047Y-45336236D01*
X18819047Y-45336236D02*
X18819047Y-45412426D01*
X18819047Y-45412426D02*
X18780952Y-45488617D01*
X18780952Y-45488617D02*
X18742857Y-45526712D01*
X18742857Y-45526712D02*
X18666666Y-45564807D01*
X18666666Y-45564807D02*
X18400000Y-45564807D01*
X19466666Y-45564807D02*
X19580952Y-45602902D01*
X19580952Y-45602902D02*
X19619047Y-45640998D01*
X19619047Y-45640998D02*
X19657143Y-45717188D01*
X19657143Y-45717188D02*
X19657143Y-45831474D01*
X19657143Y-45831474D02*
X19619047Y-45907664D01*
X19619047Y-45907664D02*
X19580952Y-45945760D01*
X19580952Y-45945760D02*
X19504762Y-45983855D01*
X19504762Y-45983855D02*
X19200000Y-45983855D01*
X19200000Y-45983855D02*
X19200000Y-45183855D01*
X19200000Y-45183855D02*
X19466666Y-45183855D01*
X19466666Y-45183855D02*
X19542857Y-45221950D01*
X19542857Y-45221950D02*
X19580952Y-45260045D01*
X19580952Y-45260045D02*
X19619047Y-45336236D01*
X19619047Y-45336236D02*
X19619047Y-45412426D01*
X19619047Y-45412426D02*
X19580952Y-45488617D01*
X19580952Y-45488617D02*
X19542857Y-45526712D01*
X19542857Y-45526712D02*
X19466666Y-45564807D01*
X19466666Y-45564807D02*
X19200000Y-45564807D01*
X47866667Y-27663855D02*
X47600000Y-27282902D01*
X47409524Y-27663855D02*
X47409524Y-26863855D01*
X47409524Y-26863855D02*
X47714286Y-26863855D01*
X47714286Y-26863855D02*
X47790476Y-26901950D01*
X47790476Y-26901950D02*
X47828571Y-26940045D01*
X47828571Y-26940045D02*
X47866667Y-27016236D01*
X47866667Y-27016236D02*
X47866667Y-27130521D01*
X47866667Y-27130521D02*
X47828571Y-27206712D01*
X47828571Y-27206712D02*
X47790476Y-27244807D01*
X47790476Y-27244807D02*
X47714286Y-27282902D01*
X47714286Y-27282902D02*
X47409524Y-27282902D01*
X48552381Y-26863855D02*
X48400000Y-26863855D01*
X48400000Y-26863855D02*
X48323809Y-26901950D01*
X48323809Y-26901950D02*
X48285714Y-26940045D01*
X48285714Y-26940045D02*
X48209524Y-27054331D01*
X48209524Y-27054331D02*
X48171428Y-27206712D01*
X48171428Y-27206712D02*
X48171428Y-27511474D01*
X48171428Y-27511474D02*
X48209524Y-27587664D01*
X48209524Y-27587664D02*
X48247619Y-27625760D01*
X48247619Y-27625760D02*
X48323809Y-27663855D01*
X48323809Y-27663855D02*
X48476190Y-27663855D01*
X48476190Y-27663855D02*
X48552381Y-27625760D01*
X48552381Y-27625760D02*
X48590476Y-27587664D01*
X48590476Y-27587664D02*
X48628571Y-27511474D01*
X48628571Y-27511474D02*
X48628571Y-27320998D01*
X48628571Y-27320998D02*
X48590476Y-27244807D01*
X48590476Y-27244807D02*
X48552381Y-27206712D01*
X48552381Y-27206712D02*
X48476190Y-27168617D01*
X48476190Y-27168617D02*
X48323809Y-27168617D01*
X48323809Y-27168617D02*
X48247619Y-27206712D01*
X48247619Y-27206712D02*
X48209524Y-27244807D01*
X48209524Y-27244807D02*
X48171428Y-27320998D01*
X13366667Y-43063855D02*
X13100000Y-42682902D01*
X12909524Y-43063855D02*
X12909524Y-42263855D01*
X12909524Y-42263855D02*
X13214286Y-42263855D01*
X13214286Y-42263855D02*
X13290476Y-42301950D01*
X13290476Y-42301950D02*
X13328571Y-42340045D01*
X13328571Y-42340045D02*
X13366667Y-42416236D01*
X13366667Y-42416236D02*
X13366667Y-42530521D01*
X13366667Y-42530521D02*
X13328571Y-42606712D01*
X13328571Y-42606712D02*
X13290476Y-42644807D01*
X13290476Y-42644807D02*
X13214286Y-42682902D01*
X13214286Y-42682902D02*
X12909524Y-42682902D01*
X13671428Y-42340045D02*
X13709524Y-42301950D01*
X13709524Y-42301950D02*
X13785714Y-42263855D01*
X13785714Y-42263855D02*
X13976190Y-42263855D01*
X13976190Y-42263855D02*
X14052381Y-42301950D01*
X14052381Y-42301950D02*
X14090476Y-42340045D01*
X14090476Y-42340045D02*
X14128571Y-42416236D01*
X14128571Y-42416236D02*
X14128571Y-42492426D01*
X14128571Y-42492426D02*
X14090476Y-42606712D01*
X14090476Y-42606712D02*
X13633333Y-43063855D01*
X13633333Y-43063855D02*
X14128571Y-43063855D01*
X47866667Y-33713855D02*
X47600000Y-33332902D01*
X47409524Y-33713855D02*
X47409524Y-32913855D01*
X47409524Y-32913855D02*
X47714286Y-32913855D01*
X47714286Y-32913855D02*
X47790476Y-32951950D01*
X47790476Y-32951950D02*
X47828571Y-32990045D01*
X47828571Y-32990045D02*
X47866667Y-33066236D01*
X47866667Y-33066236D02*
X47866667Y-33180521D01*
X47866667Y-33180521D02*
X47828571Y-33256712D01*
X47828571Y-33256712D02*
X47790476Y-33294807D01*
X47790476Y-33294807D02*
X47714286Y-33332902D01*
X47714286Y-33332902D02*
X47409524Y-33332902D01*
X48133333Y-32913855D02*
X48666667Y-32913855D01*
X48666667Y-32913855D02*
X48323809Y-33713855D01*
X29866667Y-19713855D02*
X29600000Y-19332902D01*
X29409524Y-19713855D02*
X29409524Y-18913855D01*
X29409524Y-18913855D02*
X29714286Y-18913855D01*
X29714286Y-18913855D02*
X29790476Y-18951950D01*
X29790476Y-18951950D02*
X29828571Y-18990045D01*
X29828571Y-18990045D02*
X29866667Y-19066236D01*
X29866667Y-19066236D02*
X29866667Y-19180521D01*
X29866667Y-19180521D02*
X29828571Y-19256712D01*
X29828571Y-19256712D02*
X29790476Y-19294807D01*
X29790476Y-19294807D02*
X29714286Y-19332902D01*
X29714286Y-19332902D02*
X29409524Y-19332902D01*
X30323809Y-19256712D02*
X30247619Y-19218617D01*
X30247619Y-19218617D02*
X30209524Y-19180521D01*
X30209524Y-19180521D02*
X30171428Y-19104331D01*
X30171428Y-19104331D02*
X30171428Y-19066236D01*
X30171428Y-19066236D02*
X30209524Y-18990045D01*
X30209524Y-18990045D02*
X30247619Y-18951950D01*
X30247619Y-18951950D02*
X30323809Y-18913855D01*
X30323809Y-18913855D02*
X30476190Y-18913855D01*
X30476190Y-18913855D02*
X30552381Y-18951950D01*
X30552381Y-18951950D02*
X30590476Y-18990045D01*
X30590476Y-18990045D02*
X30628571Y-19066236D01*
X30628571Y-19066236D02*
X30628571Y-19104331D01*
X30628571Y-19104331D02*
X30590476Y-19180521D01*
X30590476Y-19180521D02*
X30552381Y-19218617D01*
X30552381Y-19218617D02*
X30476190Y-19256712D01*
X30476190Y-19256712D02*
X30323809Y-19256712D01*
X30323809Y-19256712D02*
X30247619Y-19294807D01*
X30247619Y-19294807D02*
X30209524Y-19332902D01*
X30209524Y-19332902D02*
X30171428Y-19409093D01*
X30171428Y-19409093D02*
X30171428Y-19561474D01*
X30171428Y-19561474D02*
X30209524Y-19637664D01*
X30209524Y-19637664D02*
X30247619Y-19675760D01*
X30247619Y-19675760D02*
X30323809Y-19713855D01*
X30323809Y-19713855D02*
X30476190Y-19713855D01*
X30476190Y-19713855D02*
X30552381Y-19675760D01*
X30552381Y-19675760D02*
X30590476Y-19637664D01*
X30590476Y-19637664D02*
X30628571Y-19561474D01*
X30628571Y-19561474D02*
X30628571Y-19409093D01*
X30628571Y-19409093D02*
X30590476Y-19332902D01*
X30590476Y-19332902D02*
X30552381Y-19294807D01*
X30552381Y-19294807D02*
X30476190Y-19256712D01*
X32866667Y-53713855D02*
X32600000Y-53332902D01*
X32409524Y-53713855D02*
X32409524Y-52913855D01*
X32409524Y-52913855D02*
X32714286Y-52913855D01*
X32714286Y-52913855D02*
X32790476Y-52951950D01*
X32790476Y-52951950D02*
X32828571Y-52990045D01*
X32828571Y-52990045D02*
X32866667Y-53066236D01*
X32866667Y-53066236D02*
X32866667Y-53180521D01*
X32866667Y-53180521D02*
X32828571Y-53256712D01*
X32828571Y-53256712D02*
X32790476Y-53294807D01*
X32790476Y-53294807D02*
X32714286Y-53332902D01*
X32714286Y-53332902D02*
X32409524Y-53332902D01*
X33590476Y-52913855D02*
X33209524Y-52913855D01*
X33209524Y-52913855D02*
X33171428Y-53294807D01*
X33171428Y-53294807D02*
X33209524Y-53256712D01*
X33209524Y-53256712D02*
X33285714Y-53218617D01*
X33285714Y-53218617D02*
X33476190Y-53218617D01*
X33476190Y-53218617D02*
X33552381Y-53256712D01*
X33552381Y-53256712D02*
X33590476Y-53294807D01*
X33590476Y-53294807D02*
X33628571Y-53370998D01*
X33628571Y-53370998D02*
X33628571Y-53561474D01*
X33628571Y-53561474D02*
X33590476Y-53637664D01*
X33590476Y-53637664D02*
X33552381Y-53675760D01*
X33552381Y-53675760D02*
X33476190Y-53713855D01*
X33476190Y-53713855D02*
X33285714Y-53713855D01*
X33285714Y-53713855D02*
X33209524Y-53675760D01*
X33209524Y-53675760D02*
X33171428Y-53637664D01*
X27866667Y-53967664D02*
X27828571Y-54005760D01*
X27828571Y-54005760D02*
X27714286Y-54043855D01*
X27714286Y-54043855D02*
X27638095Y-54043855D01*
X27638095Y-54043855D02*
X27523809Y-54005760D01*
X27523809Y-54005760D02*
X27447619Y-53929569D01*
X27447619Y-53929569D02*
X27409524Y-53853379D01*
X27409524Y-53853379D02*
X27371428Y-53700998D01*
X27371428Y-53700998D02*
X27371428Y-53586712D01*
X27371428Y-53586712D02*
X27409524Y-53434331D01*
X27409524Y-53434331D02*
X27447619Y-53358140D01*
X27447619Y-53358140D02*
X27523809Y-53281950D01*
X27523809Y-53281950D02*
X27638095Y-53243855D01*
X27638095Y-53243855D02*
X27714286Y-53243855D01*
X27714286Y-53243855D02*
X27828571Y-53281950D01*
X27828571Y-53281950D02*
X27866667Y-53320045D01*
X28590476Y-53243855D02*
X28209524Y-53243855D01*
X28209524Y-53243855D02*
X28171428Y-53624807D01*
X28171428Y-53624807D02*
X28209524Y-53586712D01*
X28209524Y-53586712D02*
X28285714Y-53548617D01*
X28285714Y-53548617D02*
X28476190Y-53548617D01*
X28476190Y-53548617D02*
X28552381Y-53586712D01*
X28552381Y-53586712D02*
X28590476Y-53624807D01*
X28590476Y-53624807D02*
X28628571Y-53700998D01*
X28628571Y-53700998D02*
X28628571Y-53891474D01*
X28628571Y-53891474D02*
X28590476Y-53967664D01*
X28590476Y-53967664D02*
X28552381Y-54005760D01*
X28552381Y-54005760D02*
X28476190Y-54043855D01*
X28476190Y-54043855D02*
X28285714Y-54043855D01*
X28285714Y-54043855D02*
X28209524Y-54005760D01*
X28209524Y-54005760D02*
X28171428Y-53967664D01*
X65116667Y-17887664D02*
X65078571Y-17925760D01*
X65078571Y-17925760D02*
X64964286Y-17963855D01*
X64964286Y-17963855D02*
X64888095Y-17963855D01*
X64888095Y-17963855D02*
X64773809Y-17925760D01*
X64773809Y-17925760D02*
X64697619Y-17849569D01*
X64697619Y-17849569D02*
X64659524Y-17773379D01*
X64659524Y-17773379D02*
X64621428Y-17620998D01*
X64621428Y-17620998D02*
X64621428Y-17506712D01*
X64621428Y-17506712D02*
X64659524Y-17354331D01*
X64659524Y-17354331D02*
X64697619Y-17278140D01*
X64697619Y-17278140D02*
X64773809Y-17201950D01*
X64773809Y-17201950D02*
X64888095Y-17163855D01*
X64888095Y-17163855D02*
X64964286Y-17163855D01*
X64964286Y-17163855D02*
X65078571Y-17201950D01*
X65078571Y-17201950D02*
X65116667Y-17240045D01*
X65878571Y-17963855D02*
X65421428Y-17963855D01*
X65650000Y-17963855D02*
X65650000Y-17163855D01*
X65650000Y-17163855D02*
X65573809Y-17278140D01*
X65573809Y-17278140D02*
X65497619Y-17354331D01*
X65497619Y-17354331D02*
X65421428Y-17392426D01*
%TO.C,C13*%
X22261252Y-10265000D02*
X21738748Y-10265000D01*
X22261252Y-11735000D02*
X21738748Y-11735000D01*
%TO.C,C2*%
X72738748Y-32265000D02*
X73261252Y-32265000D01*
X72738748Y-33735000D02*
X73261252Y-33735000D01*
%TO.C,C6*%
X28261252Y-54265000D02*
X27738748Y-54265000D01*
X28261252Y-55735000D02*
X27738748Y-55735000D01*
%TO.C,R4*%
X32772936Y-51265000D02*
X33227064Y-51265000D01*
X32772936Y-52735000D02*
X33227064Y-52735000D01*
%TO.C,C8*%
X26261252Y-46295000D02*
X25738748Y-46295000D01*
X26261252Y-47765000D02*
X25738748Y-47765000D01*
%TO.C,J_FTDI*%
X22620000Y-8380000D02*
X22620000Y-7000000D01*
X24000000Y-8380000D02*
X22620000Y-8380000D01*
X25270000Y-5620000D02*
X38080000Y-5620000D01*
X25270000Y-8380000D02*
X25270000Y-5620000D01*
X25270000Y-8380000D02*
X38080000Y-8380000D01*
X38080000Y-8380000D02*
X38080000Y-5620000D01*
%TO.C,C10*%
X47738748Y-45765000D02*
X48261252Y-45765000D01*
X47738748Y-47235000D02*
X48261252Y-47235000D01*
%TO.C,Y1*%
X29065000Y-41465000D02*
X29065000Y-47715000D01*
X33935000Y-41465000D02*
X33935000Y-47715000D01*
X29065000Y-41465000D02*
G75*
G02*
X33935000Y-41465000I2435000J0D01*
G01*
X33935000Y-47715000D02*
G75*
G02*
X29065000Y-47715000I-2435000J0D01*
G01*
%TO.C,R3*%
X13727064Y-46765000D02*
X13272936Y-46765000D01*
X13727064Y-48235000D02*
X13272936Y-48235000D01*
%TO.C,C11*%
X47738748Y-38265000D02*
X48261252Y-38265000D01*
X47738748Y-39735000D02*
X48261252Y-39735000D01*
%TO.C,C3*%
X22261252Y-32265000D02*
X21738748Y-32265000D01*
X22261252Y-33735000D02*
X21738748Y-33735000D01*
%TO.C,J_RS485*%
X3190000Y-25460000D02*
X3190000Y-40700000D01*
X3190000Y-25460000D02*
X10810000Y-25460000D01*
X3190000Y-40700000D02*
X10810000Y-40700000D01*
X4460000Y-25460000D02*
X4460000Y-40700000D01*
X10810000Y-25460000D02*
X10810000Y-40700000D01*
%TO.C,C4*%
X47738748Y-31265000D02*
X48261252Y-31265000D01*
X47738748Y-32735000D02*
X48261252Y-32735000D01*
%TO.C,J_POT*%
X48620000Y-64620000D02*
X50000000Y-64620000D01*
X48620000Y-66000000D02*
X48620000Y-64620000D01*
X48620000Y-67270000D02*
X48620000Y-72460000D01*
X48620000Y-67270000D02*
X51380000Y-67270000D01*
X48620000Y-72460000D02*
X51380000Y-72460000D01*
X51380000Y-67270000D02*
X51380000Y-72460000D01*
%TO.C,JP_BA*%
X16620000Y-39620000D02*
X18000000Y-39620000D01*
X16620000Y-41000000D02*
X16620000Y-39620000D01*
X16620000Y-42270000D02*
X16620000Y-44920000D01*
X16620000Y-42270000D02*
X19380000Y-42270000D01*
X16620000Y-44920000D02*
X19380000Y-44920000D01*
X19380000Y-42270000D02*
X19380000Y-44920000D01*
%TO.C,JP_TERM*%
X16620000Y-32620000D02*
X18000000Y-32620000D01*
X16620000Y-34000000D02*
X16620000Y-32620000D01*
X16620000Y-35270000D02*
X16620000Y-37920000D01*
X16620000Y-35270000D02*
X19380000Y-35270000D01*
X16620000Y-37920000D02*
X19380000Y-37920000D01*
X19380000Y-35270000D02*
X19380000Y-37920000D01*
%TO.C,U1*%
X28000000Y-28440000D02*
X26050000Y-28440000D01*
X28000000Y-28440000D02*
X29950000Y-28440000D01*
X28000000Y-33560000D02*
X26050000Y-33560000D01*
X28000000Y-33560000D02*
X29950000Y-33560000D01*
X30940000Y-33795000D02*
X30460000Y-33795000D01*
X30700000Y-33465000D01*
X30940000Y-33795000D01*
G36*
X30940000Y-33795000D02*
G01*
X30460000Y-33795000D01*
X30700000Y-33465000D01*
X30940000Y-33795000D01*
G37*
%TO.C,J_PWR*%
X70380000Y-6190000D02*
X70380000Y-13810000D01*
X70380000Y-7460000D02*
X80540000Y-7460000D01*
X70380000Y-13810000D02*
X80540000Y-13810000D01*
X80540000Y-6190000D02*
X70380000Y-6190000D01*
X80540000Y-13810000D02*
X80540000Y-6190000D01*
%TO.C,SW1*%
X9750000Y-15500000D02*
X9750000Y-17000000D01*
X11000000Y-19500000D02*
X15500000Y-19500000D01*
X15500000Y-13000000D02*
X11000000Y-13000000D01*
X16750000Y-17000000D02*
X16750000Y-15500000D01*
%TO.C,U2*%
X37160000Y-20670000D02*
X37160000Y-56350000D01*
X37160000Y-56350000D02*
X42460000Y-56350000D01*
X38810000Y-20670000D02*
X37160000Y-20670000D01*
X42460000Y-20670000D02*
X40810000Y-20670000D01*
X42460000Y-56350000D02*
X42460000Y-20670000D01*
X40810000Y-20670000D02*
G75*
G02*
X38810000Y-20670000I-1000000J0D01*
G01*
%TO.C,PS1*%
X86620000Y-28620000D02*
X88000000Y-28620000D01*
X86620000Y-30000000D02*
X86620000Y-28620000D01*
X86620000Y-31270000D02*
X86620000Y-39000000D01*
X86620000Y-31270000D02*
X89380000Y-31270000D01*
X86620000Y-39000000D02*
X89380000Y-39000000D01*
X89380000Y-31270000D02*
X89380000Y-39000000D01*
%TO.C,C7*%
X26261252Y-41415000D02*
X25738748Y-41415000D01*
X26261252Y-42885000D02*
X25738748Y-42885000D01*
%TO.C,C9*%
X33061251Y-36265000D02*
X32538747Y-36265000D01*
X33061251Y-37735000D02*
X32538747Y-37735000D01*
%TO.C,J_ISP*%
X51620000Y-42620000D02*
X53000000Y-42620000D01*
X51620000Y-44000000D02*
X51620000Y-42620000D01*
X51620000Y-45270000D02*
X51620000Y-50460000D01*
X51620000Y-45270000D02*
X54270000Y-45270000D01*
X51620000Y-50460000D02*
X56920000Y-50460000D01*
X54270000Y-42620000D02*
X56920000Y-42620000D01*
X54270000Y-45270000D02*
X54270000Y-42620000D01*
X56920000Y-42620000D02*
X56920000Y-50460000D01*
%TO.C,L1*%
X48602064Y-41640000D02*
X47397936Y-41640000D01*
X48602064Y-44360000D02*
X47397936Y-44360000D01*
%TO.C,D1*%
X74490000Y-16350000D02*
X74490000Y-19650000D01*
X74490000Y-16350000D02*
X80000000Y-16350000D01*
X74490000Y-19650000D02*
X80000000Y-19650000D01*
%TO.C,C12*%
X28261252Y-36265000D02*
X27738748Y-36265000D01*
X28261252Y-37735000D02*
X27738748Y-37735000D01*
%TO.C,J_DMAN*%
X6620000Y-58620000D02*
X8000000Y-58620000D01*
X6620000Y-60000000D02*
X6620000Y-58620000D01*
X6620000Y-61270000D02*
X6620000Y-63920000D01*
X6620000Y-61270000D02*
X9380000Y-61270000D01*
X6620000Y-63920000D02*
X9380000Y-63920000D01*
X9380000Y-61270000D02*
X9380000Y-63920000D01*
%TO.C,J_ESTOP*%
X6620000Y-50620000D02*
X8000000Y-50620000D01*
X6620000Y-52000000D02*
X6620000Y-50620000D01*
X6620000Y-53270000D02*
X6620000Y-55920000D01*
X6620000Y-53270000D02*
X9380000Y-53270000D01*
X6620000Y-55920000D02*
X9380000Y-55920000D01*
X9380000Y-53270000D02*
X9380000Y-55920000D01*
%TO.C,R1*%
X13272936Y-35265000D02*
X13727064Y-35265000D01*
X13272936Y-36735000D02*
X13727064Y-36735000D01*
%TO.C,TVS1*%
X13000000Y-28940000D02*
X12350000Y-28940000D01*
X13000000Y-28940000D02*
X13650000Y-28940000D01*
X13000000Y-32060000D02*
X12350000Y-32060000D01*
X13000000Y-32060000D02*
X13650000Y-32060000D01*
X11837500Y-28990000D02*
X11597500Y-28660000D01*
X12077500Y-28660000D01*
X11837500Y-28990000D01*
G36*
X11837500Y-28990000D02*
G01*
X11597500Y-28660000D01*
X12077500Y-28660000D01*
X11837500Y-28990000D01*
G37*
%TO.C,JP_BB*%
X16620000Y-46620000D02*
X18000000Y-46620000D01*
X16620000Y-48000000D02*
X16620000Y-46620000D01*
X16620000Y-49270000D02*
X16620000Y-51920000D01*
X16620000Y-49270000D02*
X19380000Y-49270000D01*
X16620000Y-51920000D02*
X19380000Y-51920000D01*
X19380000Y-49270000D02*
X19380000Y-51920000D01*
%TO.C,R6*%
X48227064Y-28265000D02*
X47772936Y-28265000D01*
X48227064Y-29735000D02*
X47772936Y-29735000D01*
%TO.C,R2*%
X13272936Y-40265000D02*
X13727064Y-40265000D01*
X13272936Y-41735000D02*
X13727064Y-41735000D01*
%TO.C,R7*%
X47772936Y-34265000D02*
X48227064Y-34265000D01*
X47772936Y-35735000D02*
X48227064Y-35735000D01*
%TO.C,R8*%
X29772936Y-20265000D02*
X30227064Y-20265000D01*
X29772936Y-21735000D02*
X30227064Y-21735000D01*
%TO.C,R5*%
X32772936Y-54265000D02*
X33227064Y-54265000D01*
X32772936Y-55735000D02*
X33227064Y-55735000D01*
%TO.C,C5*%
X28261252Y-51265000D02*
X27738748Y-51265000D01*
X28261252Y-52735000D02*
X27738748Y-52735000D01*
%TO.C,C1*%
X61749759Y-20161000D02*
X62379759Y-20161000D01*
X62064759Y-19846000D02*
X62064759Y-20476000D01*
X65250000Y-18770000D02*
X65250000Y-25230000D01*
X65290000Y-18770000D02*
X65290000Y-25230000D01*
X65330000Y-18771000D02*
X65330000Y-25229000D01*
X65370000Y-18772000D02*
X65370000Y-25228000D01*
X65410000Y-18774000D02*
X65410000Y-25226000D01*
X65450000Y-18776000D02*
X65450000Y-25224000D01*
X65490000Y-18779000D02*
X65490000Y-20960000D01*
X65490000Y-23040000D02*
X65490000Y-25221000D01*
X65530000Y-18782000D02*
X65530000Y-20960000D01*
X65530000Y-23040000D02*
X65530000Y-25218000D01*
X65570000Y-18786000D02*
X65570000Y-20960000D01*
X65570000Y-23040000D02*
X65570000Y-25214000D01*
X65610000Y-18790000D02*
X65610000Y-20960000D01*
X65610000Y-23040000D02*
X65610000Y-25210000D01*
X65650000Y-18795000D02*
X65650000Y-20960000D01*
X65650000Y-23040000D02*
X65650000Y-25205000D01*
X65690000Y-18800000D02*
X65690000Y-20960000D01*
X65690000Y-23040000D02*
X65690000Y-25200000D01*
X65730000Y-18805000D02*
X65730000Y-20960000D01*
X65730000Y-23040000D02*
X65730000Y-25195000D01*
X65770000Y-18812000D02*
X65770000Y-20960000D01*
X65770000Y-23040000D02*
X65770000Y-25188000D01*
X65810000Y-18818000D02*
X65810000Y-20960000D01*
X65810000Y-23040000D02*
X65810000Y-25182000D01*
X65850000Y-18826000D02*
X65850000Y-20960000D01*
X65850000Y-23040000D02*
X65850000Y-25174000D01*
X65890000Y-18833000D02*
X65890000Y-20960000D01*
X65890000Y-23040000D02*
X65890000Y-25167000D01*
X65930000Y-18841000D02*
X65930000Y-20960000D01*
X65930000Y-23040000D02*
X65930000Y-25159000D01*
X65970000Y-18850000D02*
X65970000Y-20960000D01*
X65970000Y-23040000D02*
X65970000Y-25150000D01*
X66010000Y-18860000D02*
X66010000Y-20960000D01*
X66010000Y-23040000D02*
X66010000Y-25140000D01*
X66050000Y-18869000D02*
X66050000Y-20960000D01*
X66050000Y-23040000D02*
X66050000Y-25131000D01*
X66090000Y-18880000D02*
X66090000Y-20960000D01*
X66090000Y-23040000D02*
X66090000Y-25120000D01*
X66130000Y-18891000D02*
X66130000Y-20960000D01*
X66130000Y-23040000D02*
X66130000Y-25109000D01*
X66170000Y-18902000D02*
X66170000Y-20960000D01*
X66170000Y-23040000D02*
X66170000Y-25098000D01*
X66210000Y-18914000D02*
X66210000Y-20960000D01*
X66210000Y-23040000D02*
X66210000Y-25086000D01*
X66250000Y-18927000D02*
X66250000Y-20960000D01*
X66250000Y-23040000D02*
X66250000Y-25073000D01*
X66290000Y-18940000D02*
X66290000Y-20960000D01*
X66290000Y-23040000D02*
X66290000Y-25060000D01*
X66330000Y-18953000D02*
X66330000Y-20960000D01*
X66330000Y-23040000D02*
X66330000Y-25047000D01*
X66370000Y-18968000D02*
X66370000Y-20960000D01*
X66370000Y-23040000D02*
X66370000Y-25032000D01*
X66410000Y-18983000D02*
X66410000Y-20960000D01*
X66410000Y-23040000D02*
X66410000Y-25017000D01*
X66450000Y-18998000D02*
X66450000Y-20960000D01*
X66450000Y-23040000D02*
X66450000Y-25002000D01*
X66490000Y-19014000D02*
X66490000Y-20960000D01*
X66490000Y-23040000D02*
X66490000Y-24986000D01*
X66530000Y-19031000D02*
X66530000Y-20960000D01*
X66530000Y-23040000D02*
X66530000Y-24969000D01*
X66570000Y-19048000D02*
X66570000Y-20960000D01*
X66570000Y-23040000D02*
X66570000Y-24952000D01*
X66610000Y-19066000D02*
X66610000Y-20960000D01*
X66610000Y-23040000D02*
X66610000Y-24934000D01*
X66650000Y-19085000D02*
X66650000Y-20960000D01*
X66650000Y-23040000D02*
X66650000Y-24915000D01*
X66690000Y-19104000D02*
X66690000Y-20960000D01*
X66690000Y-23040000D02*
X66690000Y-24896000D01*
X66730000Y-19124000D02*
X66730000Y-20960000D01*
X66730000Y-23040000D02*
X66730000Y-24876000D01*
X66770000Y-19145000D02*
X66770000Y-20960000D01*
X66770000Y-23040000D02*
X66770000Y-24855000D01*
X66810000Y-19166000D02*
X66810000Y-20960000D01*
X66810000Y-23040000D02*
X66810000Y-24834000D01*
X66850000Y-19188000D02*
X66850000Y-20960000D01*
X66850000Y-23040000D02*
X66850000Y-24812000D01*
X66890000Y-19211000D02*
X66890000Y-20960000D01*
X66890000Y-23040000D02*
X66890000Y-24789000D01*
X66930000Y-19235000D02*
X66930000Y-20960000D01*
X66930000Y-23040000D02*
X66930000Y-24765000D01*
X66970000Y-19259000D02*
X66970000Y-20960000D01*
X66970000Y-23040000D02*
X66970000Y-24741000D01*
X67010000Y-19284000D02*
X67010000Y-20960000D01*
X67010000Y-23040000D02*
X67010000Y-24716000D01*
X67050000Y-19310000D02*
X67050000Y-20960000D01*
X67050000Y-23040000D02*
X67050000Y-24690000D01*
X67090000Y-19337000D02*
X67090000Y-20960000D01*
X67090000Y-23040000D02*
X67090000Y-24663000D01*
X67130000Y-19364000D02*
X67130000Y-20960000D01*
X67130000Y-23040000D02*
X67130000Y-24636000D01*
X67170000Y-19393000D02*
X67170000Y-20960000D01*
X67170000Y-23040000D02*
X67170000Y-24607000D01*
X67210000Y-19423000D02*
X67210000Y-20960000D01*
X67210000Y-23040000D02*
X67210000Y-24577000D01*
X67250000Y-19453000D02*
X67250000Y-20960000D01*
X67250000Y-23040000D02*
X67250000Y-24547000D01*
X67290000Y-19484000D02*
X67290000Y-20960000D01*
X67290000Y-23040000D02*
X67290000Y-24516000D01*
X67330000Y-19517000D02*
X67330000Y-20960000D01*
X67330000Y-23040000D02*
X67330000Y-24483000D01*
X67370000Y-19550000D02*
X67370000Y-20960000D01*
X67370000Y-23040000D02*
X67370000Y-24450000D01*
X67410000Y-19585000D02*
X67410000Y-20960000D01*
X67410000Y-23040000D02*
X67410000Y-24415000D01*
X67450000Y-19621000D02*
X67450000Y-20960000D01*
X67450000Y-23040000D02*
X67450000Y-24379000D01*
X67490000Y-19658000D02*
X67490000Y-20960000D01*
X67490000Y-23040000D02*
X67490000Y-24342000D01*
X67530000Y-19696000D02*
X67530000Y-20960000D01*
X67530000Y-23040000D02*
X67530000Y-24304000D01*
X67570000Y-19736000D02*
X67570000Y-24264000D01*
X67610000Y-19777000D02*
X67610000Y-24223000D01*
X67650000Y-19819000D02*
X67650000Y-24181000D01*
X67690000Y-19863000D02*
X67690000Y-24137000D01*
X67730000Y-19909000D02*
X67730000Y-24091000D01*
X67770000Y-19956000D02*
X67770000Y-24044000D01*
X67810000Y-20005000D02*
X67810000Y-23995000D01*
X67850000Y-20057000D02*
X67850000Y-23943000D01*
X67890000Y-20110000D02*
X67890000Y-23890000D01*
X67930000Y-20166000D02*
X67930000Y-23834000D01*
X67970000Y-20225000D02*
X67970000Y-23775000D01*
X68010000Y-20286000D02*
X68010000Y-23714000D01*
X68050000Y-20351000D02*
X68050000Y-23649000D01*
X68090000Y-20419000D02*
X68090000Y-23581000D01*
X68130000Y-20491000D02*
X68130000Y-23509000D01*
X68170000Y-20568000D02*
X68170000Y-23432000D01*
X68210000Y-20650000D02*
X68210000Y-23350000D01*
X68250000Y-20739000D02*
X68250000Y-23261000D01*
X68290000Y-20835000D02*
X68290000Y-23165000D01*
X68330000Y-20942000D02*
X68330000Y-23058000D01*
X68370000Y-21061000D02*
X68370000Y-22939000D01*
X68410000Y-21199000D02*
X68410000Y-22801000D01*
X68450000Y-21367000D02*
X68450000Y-22633000D01*
X68490000Y-21598000D02*
X68490000Y-22402000D01*
X68520000Y-22000000D02*
G75*
G02*
X61980000Y-22000000I-3270000J0D01*
G01*
X61980000Y-22000000D02*
G75*
G02*
X68520000Y-22000000I3270000J0D01*
G01*
%TD*%
M02*
